<?xml version="1.0" encoding="UTF-8" standalone="no"?>
<svg xmlns:dc="http://purl.org/dc/elements/1.1/" xmlns:cc="http://creativecommons.org/ns#" xmlns:rdf="http://www.w3.org/1999/02/22-rdf-syntax-ns#" xmlns:svg="http://www.w3.org/2000/svg" xmlns="http://www.w3.org/2000/svg" id="svg8" version="1.1" viewBox="0 0 34 34" height="34mm" width="34mm">
  <defs id="defs2">
    <clipPath id="clipPath4523" clipPathUnits="userSpaceOnUse">
      <g id="use4525">
        <path style="fill:#8e634b;stroke-width:0.26458332" d="m 77.024784,144.78749 c -2.591911,-1.35164 -4.81538,-2.56335 -4.941041,-2.69268 -0.20953,-0.21564 -0.733947,-6.21021 -0.839411,-9.59525 l -0.04432,-1.42262 c -0.774114,-0.89903 -5.81215,-5.70686 -5.058652,-6.02346 3.891098,-1.19447 6.878696,-2.05582 10.997842,-3.26518 l 3.45324,3.45324 -0.333764,1.16532 c -0.18357,0.64092 -0.432651,1.29739 -0.553515,1.45881 -1.812146,1.32105 -6.845323,1.90078 -8.121684,3.04279 0.09963,0.30176 10.126951,4.44625 10.761582,4.46096 0.346597,0.008 8.847055,-3.43456 10.094564,-4.08819 l 0.856773,-0.37928 -0.843798,-0.26011 c -0.363593,-0.15742 -2.149361,-0.80678 -3.968371,-1.44301 -2.118102,-0.74085 -3.336412,-1.30411 -3.388281,-1.5665 -0.180327,-0.91223 3.784503,-3.88841 5.187719,-3.89413 0.446793,-0.002 0.711784,0.24396 0.995738,0.92356 0.212809,0.50932 0.469604,0.92604 0.570656,0.92604 0.101053,0 0.631747,-0.43748 1.17932,-0.97217 l 0.995588,-0.97216 2.521296,0.74456 c 1.386713,0.40951 2.521297,0.79071 2.521297,0.84712 0,0.0564 -5.437242,5.614 -5.437242,5.614 0,0 -0.03412,0.26825 -0.07769,1.66893 -0.07204,2.31625 -0.608063,9.32063 -0.728155,9.51494 -0.261289,0.42278 -9.931541,5.24888 -10.482182,5.23131 -0.332719,-0.0106 -2.725599,-1.12519 -5.317511,-2.47684 z" id="path4534" />
        <path style="fill:#8e634b;stroke-width:0.26458332" d="m 80.916811,132.28168 c -1.632529,-5.44118 2.011894,-11.16303 8.448381,-13.40406 0.382895,-0.13332 0.447637,-0.33452 0.309707,-0.96252 -0.217724,-0.99129 0.08947,-1.01579 3.130869,-0.24971 4.073724,1.02611 4.145124,1.05165 4.145124,1.48264 0,0.51394 -4.187613,4.85227 -4.683688,4.85227 -0.196072,0 -0.469661,-0.29766 -0.607978,-0.66146 -0.138318,-0.3638 -0.41924,-0.66146 -0.624272,-0.66146 -0.205033,0 -1.319553,0.47387 -2.476713,1.05305 -3.341827,1.67264 -5.828382,4.82842 -6.301762,7.72248 -0.205113,1.25398 -0.311263,2.24685 -0.104635,3.55612 -0.487971,-0.94124 -0.807433,-1.30217 -1.235033,-2.72735 z" id="path4536" />
      </g>
    </clipPath>
  </defs>
  <metadata id="metadata5">
    <rdf:RDF>
      <cc:Work rdf:about="">
        <dc:format>image/svg+xml</dc:format>
        <dc:type rdf:resource="http://purl.org/dc/dcmitype/StillImage" />
        <dc:title></dc:title>
      </cc:Work>
    </rdf:RDF>
  </metadata>
  <path id="path4552" d="M 11.795712,6.8103901 C 7.6765661,8.0197501 0.27588401,10.23192 0.27588401,10.23192 c 0,0 4.46961899,4.64606 5.46489919,5.74277 l 0.5167669,-0.0258 c -0.0057,-0.006 -0.01611,-0.0142 -0.017571,-0.0186 1.4206472,-0.50902 11.6495819,-3.875081 11.6495819,-3.875081 0,0 -4.506413,-3.6575996 -6.093849,-5.2448199 z" style="fill:#4c2b18;fill-opacity:1;stroke-width:0.26458332" />
  <path id="path4550" d="m 23.252189,7.3082401 -5.362627,4.7469699 10.251844,3.92791 5.582711,-5.72589 z" style="fill:#4c2b18;fill-opacity:1;stroke-width:0.26458332" />
  <path id="path4515" d="M 17.001596,20.39147 C 16.400198,20.37757 5.852825,15.91043 5.852825,15.91043 l 0.6268741,11.0496 10.5193119,5.32632 10.482048,-5.2312 0.660559,-11.04998 c 0,0 -10.793426,4.3943 -11.140022,4.3863 z" style="fill:#8e634b;stroke:#000000;stroke-width:0.2;stroke-miterlimit:4;stroke-dasharray:none;stroke-opacity:1" />
  <path id="path4550-3" d="m 5.8131332,15.91043 -4.1798011,6.63983 10.8590149,5.60907 4.509249,-7.76786 z" style="fill:#4c2b18;fill-opacity:1;stroke-width:0.30089301" />
  <path id="path4552-6" d="m 28.141406,15.98312 c -3.983262,1.55816 -11.13981,4.40835 -11.13981,4.40835 0,0 2.734675,5.98605 3.697122,7.39907 l 0.49972,-0.0332 c -0.0055,-0.008 -0.01558,-0.0183 -0.01699,-0.024 1.373783,-0.65583 11.265284,-4.99271 11.265284,-4.99271 0,0 -2.770254,-4.71251 -4.305326,-6.75751 z" style="fill:#4c2b18;fill-opacity:1;stroke-width:0.29532909" />
  <path id="path6145" d="m 17.004055,20.43641 -0.005,11.84994" style="fill:none;fill-rule:evenodd;stroke:#000000;stroke-width:0.2;stroke-linecap:butt;stroke-linejoin:miter;stroke-miterlimit:4;stroke-dasharray:none;stroke-opacity:1" />
  <path id="path4504" d="M 15.573564,17.31726 C 13.941035,11.87608 17.637663,5.68439 24.76729,3.78258 24.3272,3.1337 24.022354,1.87968 24.022354,1.87968 c 2.769014,0.66701 5.362311,1.23257 8.185649,2.06901 L 26.74124,9.40131 c 0,0 -0.260842,-1.36786 -0.744653,-1.88049 -0.744835,0.19214 -1.624433,0.66601 -2.781593,1.24519 -3.341827,1.67264 -5.828382,4.82842 -6.301762,7.72248 -0.205113,1.25398 -0.311263,2.24685 -0.104635,3.55612 -0.487971,-0.94124 -0.807433,-1.30217 -1.235033,-2.72735 z" style="fill:#009004;fill-opacity:1;stroke:#f9f9f9;stroke-width:0.26499999;stroke-miterlimit:4;stroke-dasharray:none;stroke-opacity:1" />
</svg>
