<?xml version="1.0" encoding="UTF-8" standalone="no"?>
<svg xmlns:dc="http://purl.org/dc/elements/1.1/" xmlns:cc="http://creativecommons.org/ns#" xmlns:rdf="http://www.w3.org/1999/02/22-rdf-syntax-ns#" xmlns:svg="http://www.w3.org/2000/svg" xmlns="http://www.w3.org/2000/svg" id="svg5526" version="1.1" viewBox="0 0 34 34" height="34mm" width="34mm">
  <defs id="defs5520" />
  <metadata id="metadata5523">
    <rdf:RDF>
      <cc:Work rdf:about="">
        <dc:format>image/svg+xml</dc:format>
        <dc:type rdf:resource="http://purl.org/dc/dcmitype/StillImage" />
        <dc:title></dc:title>
      </cc:Work>
    </rdf:RDF>
  </metadata>
  <g transform="translate(0,-263)" id="layer1">
    <path id="path4552" d="m 11.795712,269.81039 c -4.1191459,1.20936 -11.51982799,3.42153 -11.51982799,3.42153 0,0 4.46961889,4.64606 5.46489919,5.74277 l 0.5167669,-0.0258 c -0.0057,-0.006 -0.01611,-0.0142 -0.017571,-0.0186 1.4206471,-0.50902 11.6495819,-3.87508 11.6495819,-3.87508 0,0 -4.506413,-3.6576 -6.093849,-5.24482 z" style="fill:#4c2b18;fill-opacity:1;stroke-width:0.26458332" />
    <path id="path4550" d="m 23.252189,270.30824 -5.362627,4.74697 10.251844,3.92791 5.582711,-5.72589 z" style="fill:#4c2b18;fill-opacity:1;stroke-width:0.26458332" />
    <path id="path4515" d="m 17.001596,283.39147 c -0.601398,-0.0139 -11.1487711,-4.48104 -11.1487711,-4.48104 l 0.6268742,11.0496 10.5193119,5.32632 10.482048,-5.2312 0.660559,-11.04998 c 0,0 -10.793426,4.3943 -11.140022,4.3863 z" style="fill:#8e634b;stroke-width:0.2;stroke-miterlimit:4;stroke-dasharray:none;stroke:#000000;stroke-opacity:1" />
    <path id="path4550-3" d="m 5.8131332,278.91043 -4.1798011,6.63983 10.8590149,5.60907 4.509249,-7.76786 z" style="fill:#4c2b18;fill-opacity:1;stroke-width:0.30089301" />
    <path id="path4552-6" d="m 28.141406,278.98312 c -3.983262,1.55816 -11.13981,4.40835 -11.13981,4.40835 0,0 2.734675,5.98605 3.697122,7.39907 l 0.49972,-0.0332 c -0.0055,-0.008 -0.01558,-0.0183 -0.01699,-0.024 1.373783,-0.65583 11.265284,-4.99271 11.265284,-4.99271 0,0 -2.770254,-4.71251 -4.305327,-6.75751 z" style="fill:#4c2b18;fill-opacity:1;stroke-width:0.29532909" />
    <g style="color:#000000;display:inline;overflow:visible;visibility:visible;opacity:1;vector-effect:none;fill:#4c2b18;fill-opacity:1;fill-rule:evenodd;stroke:#f9f9f9;stroke-width:1.00157475;stroke-linecap:butt;stroke-linejoin:miter;stroke-miterlimit:4;stroke-dasharray:none;stroke-dashoffset:0;stroke-opacity:1;marker:none;enable-background:accumulate" id="g6089">
      <path points="5.8528249,278.91043 17.356715,275.91965 17.356715,273.11164 5.8528249,275.56893 " d="m 5.8528249,275.56893 v 3.3415 l 11.5038901,-2.99078 v -2.80801 z" style="fill:#353564;fill-rule:evenodd;stroke:none;stroke-width:1px;stroke-linecap:butt;stroke-linejoin:round;stroke-opacity:1" id="path6091" />
      <path points="17.004055,283.43641 28.156978,279.17717 17.356715,275.91965 5.8528249,278.91043 " d="m 5.8528249,278.91043 11.1512301,4.52598 11.152923,-4.25924 -10.800263,-3.25752 z" style="fill:#afafde;fill-rule:evenodd;stroke:none;stroke-width:1px;stroke-linecap:butt;stroke-linejoin:round;stroke-opacity:1" id="path6099" />
      <path points="28.156978,275.95637 28.156978,279.17717 17.356715,275.91965 17.356715,273.11164 " d="m 17.356715,273.11164 10.800263,2.84473 v 3.2208 l -10.800263,-3.25752 z" style="fill:#e9e9ff;fill-rule:evenodd;stroke:none;stroke-width:1px;stroke-linecap:butt;stroke-linejoin:round;stroke-opacity:1" id="path6101" />
      <path points="17.004055,279.49359 28.156978,275.95637 17.356715,273.11164 5.8528249,275.56893 " d="m 5.8528249,275.56893 11.1512301,3.92466 11.152923,-3.53722 -10.800263,-2.84473 z" style="fill:#4d4d9f;fill-rule:evenodd;stroke:none;stroke-width:1px;stroke-linecap:butt;stroke-linejoin:round;stroke-opacity:1" id="path6093" />
      <path points="17.004055,283.43641 28.156978,279.17717 28.156978,275.95637 17.004055,279.49359 " d="m 17.004055,279.49359 v 3.94282 l 11.152923,-4.25924 v -3.2208 z" style="fill:#d7d7ff;fill-rule:evenodd;stroke:none;stroke-width:1px;stroke-linecap:butt;stroke-linejoin:round;stroke-opacity:1" id="path6097" />
      <path points="17.004055,279.49359 17.004055,283.43641 5.8528249,278.91043 5.8528249,275.56893 " d="m 5.8528249,275.56893 11.1512301,3.92466 v 3.94282 L 5.8528249,278.91043 Z" style="fill:#8686bf;fill-rule:evenodd;stroke:none;stroke-width:1px;stroke-linecap:butt;stroke-linejoin:round;stroke-opacity:1" id="path6095" />
    </g>
    <path id="path6145" d="m 17.004055,283.43641 -0.005,11.84994" style="fill:none;fill-rule:evenodd;stroke:#000000;stroke-width:0.2;stroke-linecap:butt;stroke-linejoin:miter;stroke-opacity:1;stroke-miterlimit:4;stroke-dasharray:none" />
  </g>
</svg>
