<?xml version="1.0" encoding="UTF-8" standalone="no"?>
<!-- Created with Inkscape (http://www.inkscape.org/) -->

<svg xmlns:dc="http://purl.org/dc/elements/1.1/" xmlns:cc="http://creativecommons.org/ns#" xmlns:rdf="http://www.w3.org/1999/02/22-rdf-syntax-ns#" xmlns:svg="http://www.w3.org/2000/svg" xmlns="http://www.w3.org/2000/svg" version="1.1" width="488" height="488" id="svg3039">
  <metadata id="metadata3045">
    <rdf:RDF>
      <cc:Work rdf:about="">
        <dc:format>image/svg+xml</dc:format>
        <dc:type rdf:resource="http://purl.org/dc/dcmitype/StillImage" />
        <dc:title></dc:title>
      </cc:Work>
    </rdf:RDF>
  </metadata>
  <defs id="defs3043">
    <filter x="-0.16032389" y="-0.16032389" width="1.3206478" height="1.3206478" color-interpolation-filters="sRGB" id="filter4781">
      <feGaussianBlur stdDeviation="8" id="feGaussianBlur4783" />
    </filter>
  </defs>
  <path d="m 246.8125,25.1875 c -2.57815,0.09407 -4.58809,0.705927 -8.0625,2.15625 l -6.1875,2.625 L 226.90625,28 c -9.10696,-3.155118 -19.64437,-2.822866 -31.96875,1 -19.39118,6.014894 -34.82632,16.189675 -44.78125,29.53125 -11.2661,15.098794 -24.16807,44.62389 -27.6875,63.375 -0.62823,3.34719 -1.91017,10.19798 -2.84375,15.21875 -5.72834,30.80685 -7.55594,58.69635 -4.5625,70 0.88641,3.34717 1.6657,6.80801 1.6875,7.71875 0.0225,0.94092 -3.03484,3.49504 -7.09375,5.90625 -3.92868,2.33384 -11.310344,8.25346 -16.40625,13.125 -7.399257,7.07348 -11.094801,11.79408 -18.3125,23.5 -12.364442,20.05308 -17.16175,31.45225 -21.53125,51.25 -1.221492,5.53447 -2.998276,12.55674 -3.9375,15.625 -3.966799,11.90188 -4.000531,28.55117 -3.96875,36.21875 0.03178,7.66758 3.889332,15.86577 5.4375,17.09375 2.548032,2.02105 7.11418,12.16847 25.71875,30.34375 4.604915,4.49866 14.749845,14.24837 21.383588,19.46071 101.999022,0.31828 175.073082,1.77816 227.306082,0.37012 8.04106,0.0398 16.02263,-0.10122 23.84004,-0.50359 7.81741,-0.40236 20.92937,0.57159 28.31381,-0.43376 7.38443,-1.00535 9.58723,-5.62761 16.32937,-7.39673 6.74215,-1.76913 9.28973,-12.14838 15.18027,-14.84207 5.89054,-2.69369 8.02773,-8.07334 12.85734,-11.85238 4.82961,-3.77904 5.80122,-9.77857 9.36059,-14.80375 3.55937,-5.02519 6.43129,-11.80538 8.5111,-18.2375 2.07981,-6.43211 14.83077,-19.61246 15.2217,-27.61229 1.20442,-28.91763 -3.902,-47.97911 -3.96014,-102.68001 -2.64045,0.18588 -4.5463,0.15951 -4.65625,-0.125 -1.37912,-3.56844 -3.50303,-5.95244 -5.53125,-6.21875 -1.60905,-0.21128 -2.62393,-1.29964 -3.09375,-3.25 -0.80675,-3.34909 -2.35225,-4.68728 -6.34375,-5.53125 -0.0598,-0.96422 -0.27343,-2.43894 -0.875,-4.65625 -0.15821,-0.5832 -1.46595,-2.43307 -3.21875,-4.03125 -2.2375,-2.04013 -3.84106,-2.39355 -5.5625,-2.3125 -3.09116,0.14552 -5.14336,0.56748 -6.40625,1.09375 -1.70524,-1.69704 -6.27913,-2.93555 -10.3125,-2.5 -4.38196,0.4732 -5.53023,0.20158 -7.65625,-1.8125 -1.59266,-1.5088 -3.33763,-2.31996 -4.6875,-1.8125 -1.8821,0.70752 -3.39507,1.452 -4.3125,2.09375 -1.31822,-2.10155 -3.11187,-3.90715 -5.03125,-4.84375 -3.10464,-1.51498 -15.35613,-0.92044 -17.6875,0.84375 -0.9989,0.75587 -4.88345,-1.0887 -14.15625,-6.75 -7.0217,-4.28695 -14.55085,-9.05962 -16.75,-10.59375 -4.51474,-3.14949 -6.80421,-3.48763 -8.8125,-1.28125 -1.57769,1.73331 -11.21318,4.5625 -15.53125,4.5625 -2.8115,0 -2.95398,0.30906 -4.90625,10.90625 -1.85417,10.06475 -7.74516,28.98863 -9.6875,31.0625 -0.45735,0.48833 -3.06381,-0.0644 -5.75,-1.25 -2.68619,-1.18565 -6.34157,-2.15625 -8.15625,-2.15625 -2.92394,0 -3.44351,-0.50229 -4.6875,-4.34375 -1.1859,-3.66211 -1.13813,-4.92814 0.3125,-8.09375 0.94439,-2.06086 1.6875,-5.12099 1.6875,-6.8125 0,-2.56627 0.43846,-3.0625 2.65625,-3.0625 1.46181,0 3.83682,-0.90283 5.28125,-2 l 2.625,-2 -3.75,-0.0312 c -3.74558,-0.0336 -3.75172,-0.0557 -2.9375,-3.84375 0.44966,-2.09199 1.40795,-9.05333 2.125,-15.46875 0.71704,-6.41544 1.90739,-12.65649 2.65625,-13.875 0.74886,-1.21852 1.375,-4.93445 1.375,-8.25 0,-4.0165 0.52372,-6.4403 1.59375,-7.25 1.86616,-1.41216 5.34637,-10.9579 7.3125,-20.03125 1.88013,-8.67646 0.67536,-28.153842 -2.71875,-43.5 -8.06497,-36.464917 -22.18827,-54.754677 -43.78125,-56.8125 -1.41947,-0.135276 -2.59786,-0.233244 -3.65625,-0.25 -0.3969,-0.0063 -0.78794,-0.01344 -1.15625,0 z" id="path4354" style="fill:#000000" />
  <path d="m 153.4375,199.71875 -8.84375,4.34375 c -4.86153,2.38979 -14.19782,8.15666 -20.71875,12.8125 -39.353753,28.09801 -47.30322,39.69608 -66.5625,97.03125 -2.170806,6.46253 -5.797624,21.40794 -7.09375,31.25 -0.884893,6.71939 -1.98575,15.42801 1.1875,21.1875 1.844163,3.34718 4.029721,6.80677 4.875,7.6875 0.845268,0.88072 1.53125,2.33291 1.53125,3.21875 0,0.88585 0.411764,1.75153 0.90625,1.9375 0.494496,0.18595 2.429636,2.39586 4.3125,4.90625 4.648365,6.19756 24.347487,27.02014 29.75,31.4375 2.406708,1.96784 5.679772,4.6467 7.25,5.96875 0.62612,0.52715 1.23568,1.01547 1.84375,1.5 l 132.4375,0 c 1.80223,-6.90916 2.81459,-12.73981 1.84375,-13.625 -1.27739,-1.16471 -22.21615,-14.43348 -34.28125,-21.71875 -9.67943,-5.84474 -33.05171,-17.6594 -41.46875,-20.96875 -2.89373,-1.13775 -9.00498,-3.70414 -13.59375,-5.71875 -4.58876,-2.01461 -10.33391,-4.21691 -12.78125,-4.875 -2.44735,-0.65811 -8.17012,-2.40541 -12.71875,-3.875 -4.54862,-1.46959 -11.80199,-3.37023 -16.125,-4.25 C 95.95739,346.09031 94.490081,345.16351 97,342.875 c 1.668143,-1.52099 2.511469,-1.44754 11.0625,0.65625 5.09547,1.25361 10.25925,2.88382 11.46875,3.65625 1.2095,0.77243 2.9701,1.40625 3.9375,1.40625 0.96739,0 4.2549,1.09004 7.28125,2.40625 19.10928,8.31086 26.56901,11.41329 34.96875,14.53125 11.51823,4.27554 28.70907,12.88816 31.15625,15.625 0.30592,0.34211 2.29608,1.44052 4.4375,2.4375 2.14143,0.99698 5.8964,3.26971 8.34375,5.03125 2.44734,1.76156 5.76776,3.7205 7.375,4.34375 1.60724,0.62324 4.62372,2.45017 6.6875,4.0625 2.06378,1.61231 6.12503,4.16481 9.03125,5.6875 2.90621,1.52268 5.28125,3.20769 5.28125,3.75 0,0.5653 1.5522,0.73578 3.625,0.375 1.98847,-0.34611 5.23028,-0.60474 7.21875,-0.5625 1.98846,0.0422 3.625,-0.26589 3.625,-0.6875 0,-1.31458 -22.16785,-13.92742 -23.78125,-13.53125 -0.53006,0.13015 -2.0383,-0.38607 -3.34375,-1.15625 -1.30544,-0.77018 -3.7237,-1.71594 -5.40625,-2.09375 -1.68255,-0.37781 -3.0625,-1.17433 -3.0625,-1.78125 0,-0.60692 0.68274,-0.85938 1.53125,-0.5625 1.06771,0.37357 1.3728,-0.0441 1,-1.34375 -0.32553,-1.13504 0.41472,-2.63213 1.875,-3.75 1.32891,-1.01733 4.18968,-4.55906 6.34375,-7.90625 2.15409,-3.34718 5.12248,-7.56791 6.59375,-9.34375 5.04185,-6.08553 5.30844,-6.00238 -27.90625,-7.40625 -26.39464,-1.11561 -29.87147,-1.49651 -33.5625,-3.625 -2.32188,-1.33895 -2.36452,-1.60645 -0.9375,-7.25 6.01216,-23.77681 9.99404,-54.36152 8.875,-68.25 -1.10245,-13.68254 -2.79135,-27.68403 -4.75,-39.65625 l -1.90625,-11.75 -5.90625,-5.875 c -3.23483,-3.22718 -7.87484,-9.16903 -10.3125,-13.21875 z" id="path3925" style="fill:#cff097;fill-opacity:1" />
  <path d="m 230.69978,382.34033 c 0.4528,-0.41286 3.16435,-1.4769 6.02566,-2.36454 9.4692,-2.93754 14.64748,-5.48053 15.34328,-7.53495 1.34815,-3.98038 14.69167,-32.15654 17.1727,-36.26183 7.15462,-11.83851 49.37506,-123.62284 52.19653,-138.19739 0.75598,-3.90505 2.08957,-9.10076 2.96354,-11.54603 0.87397,-2.44528 1.36602,-4.64931 1.09343,-4.89784 -0.27258,-0.24853 -3.418,0.32719 -6.98982,1.2794 -3.57182,0.95221 -7.02897,1.85489 -7.68255,2.00595 -1.18594,0.27408 -3.07628,7.05559 -4.37477,15.69427 -0.37734,2.51038 -3.38778,12.32371 -6.68986,21.8074 -3.30209,9.48369 -8.30329,24.31779 -11.1138,32.96468 -2.81052,8.64689 -6.3955,18.91665 -7.96662,22.8217 -11.38953,28.30855 -17.71911,43.52352 -20.88696,50.20774 -1.45413,3.06825 -4.46508,9.45833 -6.69099,14.20017 -5.55656,11.83715 -7.05187,14.57266 -12.75229,23.32885 -5.3387,8.20055 -10.15201,14.50302 -11.49048,15.04541 -1.13426,0.45965 -1.06096,2.19765 0.0927,2.19765 0.50987,0 1.29751,-0.33779 1.7503,-0.75064 z" id="path3919" style="fill:#000000" />
  <path d="m 264.68246,301.77018 c 0.06,-3.24302 -4.34088,-21.12328 -5.19906,-21.12328 -0.57622,0 0.0486,9.38461 1.55314,23.32884 0.6993,6.48108 0.73585,6.54131 2.15356,3.55004 0.7932,-1.67358 1.46477,-4.2636 1.49236,-5.7556 z" id="path3909" style="fill:#ffffff" />
  <path d="m 288.64946,241.45773 c 1.09916,-3.70241 2.0495,-8.36751 2.11187,-10.36691 0.11069,-3.55041 -0.0233,-3.66907 -5.74618,-5.08422 -3.22276,-0.79693 -6.10773,-1.22268 -6.41107,-0.94611 -0.30332,0.27656 0.25501,2.26284 1.24076,4.41395 1.10127,2.40321 1.55056,5.26908 1.16535,7.43346 -0.44995,2.52815 0.048,4.61741 1.76448,7.40192 1.31526,2.13374 2.7255,3.87955 3.13386,3.87955 0.40836,0 1.64178,-3.02925 2.74093,-6.73164 z m -14.22271,45.27495 c 2.45099,-5.85757 5.781,-14.76712 7.40002,-19.79899 l 2.94368,-9.14888 -2.51068,-5.91001 c -1.38087,-3.25049 -3.01097,-5.88293 -3.62244,-5.84985 -0.61147,0.0331 -1.39431,1.78879 -1.73967,3.90159 -0.96414,5.8985 -5.15363,12.54127 -10.79184,17.11131 l -5.10909,4.14116 2.40646,7.01612 c 1.32356,3.85886 2.97365,10.13488 3.66686,13.94671 0.6932,3.81183 1.62937,6.55044 2.08036,6.08578 0.45099,-0.46464 2.82534,-5.63737 5.27634,-11.49494 z m -27.49299,63.61764 c 0,-0.50034 1.82437,-4.6351 4.05414,-9.18839 4.52143,-9.23292 4.58944,-9.78202 4.77122,-38.51927 0.13516,-21.36813 -1.28317,-31.12445 -4.52475,-31.12445 -1.18006,0 -2.44363,-0.7082 -2.80793,-1.57379 -0.4753,-1.12936 -1.53435,-1.39917 -3.75027,-0.9554 -2.40946,0.48253 -3.47558,0.11373 -4.85239,-1.67853 -1.72199,-2.24162 -1.80206,-2.25006 -3.32523,-0.35077 -1.31364,1.63805 -1.83886,1.73574 -3.31727,0.61699 -0.96609,-0.73105 -2.3723,-2.88188 -3.12493,-4.77962 -0.81552,-2.05635 -2.122,-3.45045 -3.23358,-3.45045 -2.58951,0 -4.35727,-2.22787 -5.10604,-6.43498 -0.57194,-3.21351 -0.84981,-3.4523 -2.76119,-2.37267 -2.94991,1.66621 -4.44391,-0.60864 -4.03221,-6.13964 0.19241,-2.58506 -0.19682,-4.47794 -0.97694,-4.75089 -0.94978,-0.33232 -0.99571,-1.48949 -0.17165,-4.32436 1.49951,-5.15846 1.40481,-8.78828 -0.24232,-9.28888 -0.74021,-0.22498 -5.66712,-3.05919 -10.94868,-6.29824 -13.38894,-8.21117 -27.65448,-20.62657 -32.40761,-28.20459 -2.14143,-3.41413 -4.24784,-6.21246 -4.68093,-6.2185 -0.43309,-0.006 -2.15112,2.11071 -3.81787,4.70389 l -3.03043,4.7149 1.94244,4.9866 c 3.51765,9.03049 12.95972,21.81056 15.18673,20.5556 0.78757,-0.4438 -1.6636,-12.98166 -2.89233,-14.7944 -0.33773,-0.49825 0.0618,-0.90592 0.88761,-0.90592 1.80723,0 5.30422,11.22308 5.30422,17.0231 0,2.2063 0.7527,7.94698 1.67267,12.75709 3.4127,17.84355 5.28141,42.92677 4.54666,61.02904 -0.76083,18.74539 -2.92518,37.03653 -5.65007,47.74959 -0.94903,3.73116 -1.46532,7.02116 -1.14729,7.31113 0.78531,0.71603 22.54888,2.15533 46.18764,3.05455 16.4539,0.62591 19.68276,0.50993 20.85804,-0.74925 0.7648,-0.81938 1.39054,-1.89915 1.39054,-2.39949 z" id="path3905" style="fill:#ffffff;fill-opacity:1" />
  <path d="m 230.01121,233.85053 c -0.27771,-0.75966 -0.78196,-0.29988 -1.17533,1.07166 -0.48387,1.68713 -0.3391,2.08315 0.4864,1.33046 0.64643,-0.5894 0.95646,-1.67036 0.68893,-2.40212 z" id="path3903" style="fill:#000000" />
  <path d="m 191.8685,122.41644 c 0.37814,-0.55786 1.18811,-1.0143 1.79995,-1.0143 0.61183,0 0.80306,0.45644 0.42492,1.0143 -0.37814,0.55786 -1.18811,1.0143 -1.79995,1.0143 -0.61183,0 -0.80305,-0.45644 -0.42492,-1.0143 z m -1.66863,-5.19568 c 0,-1.04742 -0.48299,-1.9044 -1.0733,-1.9044 -1.52058,0 -3.61948,3.89231 -2.77262,5.1417 1.01804,1.50192 3.84592,-0.87846 3.84592,-3.2373 z m 0.87537,13.56 c -1.57854,-3.81311 -0.81426,-4.89152 2.36663,-3.33933 2.82721,1.37961 6.76986,-0.19204 6.76986,-2.69864 0,-2.11415 -3.19557,-5.36925 -5.27105,-5.36925 -0.87391,0 -1.3595,-0.57054 -1.07907,-1.26786 0.28042,-0.69733 1.01927,-1.17011 1.64187,-1.05061 1.90889,0.36637 6.9331,-4.55675 6.9331,-6.79361 0,-2.80189 -2.78405,-3.64455 -6.46741,-1.9575 -1.64353,0.75277 -3.36368,1.53545 -3.82255,1.73931 -0.45889,0.20386 -0.84116,-0.69436 -0.84952,-1.99606 -0.0252,-3.91998 -1.26609,-6.93102 -2.85649,-6.93102 -2.38537,0 -4.10197,4.01549 -3.4913,8.16683 0.31167,2.11869 0.0208,4.31025 -0.65373,4.92527 -1.68745,1.53859 -3.04256,1.38661 -2.34815,-0.26334 0.63516,-1.5092 -4.49765,-5.06552 -6.4532,-4.47115 -3.90008,1.18534 -0.64709,8.88545 3.75375,8.88545 1.12884,0 2.04478,0.34233 2.03541,0.76072 -0.0353,1.57239 -1.72645,2.78932 -3.87647,2.78932 -1.25873,0 -2.09212,0.58329 -1.91918,1.34327 0.16811,0.73879 -0.17274,1.07367 -0.75747,0.74418 -1.30961,-0.738 -2.70043,1.10876 -1.8168,2.41237 0.36932,0.54486 2.92048,0.0871 5.98396,-1.07372 4.75998,-1.80366 5.45257,-2.47567 6.37456,-6.18518 1.00247,-4.03331 4.01193,-7.03569 5.60047,-5.58729 1.46554,1.33626 0.57755,7.26747 -1.27273,8.50108 -1.01614,0.67747 -1.51755,1.71857 -1.11425,2.31356 0.40329,0.59497 -0.0233,1.08177 -0.94819,1.08177 -2.26153,0 -1.49759,5.60414 1.12398,8.24541 2.6463,2.66618 4.03288,0.98665 2.41397,-2.92398 z" id="path4395" style="fill:#ff3b3b;fill-opacity:1" />
  <path d="m 275.57743,219.70498 c 0.15219,-0.79057 -0.20516,-2.12205 -0.7941,-2.95885 -0.93962,-1.33504 -1.30252,-1.31021 -2.96221,0.20267 -1.58266,1.44266 -1.65278,1.98631 -0.42949,3.33025 1.67019,1.83493 3.77768,1.54589 4.1858,-0.57407 z M 241.37161,31.129638 c 0,-0.557863 -0.22075,-1.014297 -0.49055,-1.014297 -0.26981,0 -0.79995,0.456434 -1.17809,1.014297 -0.37814,0.557864 -0.15739,1.014298 0.49056,1.014298 0.64794,0 1.17808,-0.456434 1.17808,-1.014298 z m 18.35509,2.028596 c -0.37814,-0.557863 -1.53402,-0.982217 -2.56862,-0.943008 -1.53347,0.05812 -1.46996,0.232381 0.34376,0.943008 2.97677,1.16632 3.01542,1.16632 2.22486,0 z m -88.23526,11.664424 c 1.8178,-1.394659 2.79402,-2.535744 2.16937,-2.535744 -1.39138,0 -7.76043,4.994511 -6.42634,5.039436 0.52352,0.01763 2.43914,-1.109032 4.25697,-2.503692 z m 19.82085,-1.140709 c 0,-0.272484 -1.50178,0.31344 -3.33729,1.302055 -1.83551,0.988614 -3.33728,2.186585 -3.33728,2.662157 0,0.475572 1.50177,-0.110354 3.33728,-1.302056 1.83551,-1.191703 3.33729,-2.389673 3.33729,-2.662156 z m 15.28551,12.208564 c 2.70208,-1.443842 4.66258,-2.853383 4.35667,-3.132315 -0.55422,-0.505336 -10.74274,4.565534 -10.74274,5.346712 0,0.884552 1.67066,0.305244 6.38607,-2.214397 z m 11.84835,6.866441 c 2.99282,-1.245014 5.15256,-2.5271 4.79942,-2.849081 -0.73526,-0.670413 -10.63752,3.637549 -11.58949,5.041996 -0.34637,0.510988 -0.18462,0.735946 0.35941,0.499908 0.54405,-0.236039 3.43785,-1.447809 6.43066,-2.692823 z m -28.1864,-0.900652 c 2.10848,-2.067704 2.83242,-3.09945 1.60875,-2.292767 -3.16351,2.085485 -7.28181,6.052229 -6.28346,6.052229 0.4626,0 2.56621,-1.691759 4.67471,-3.759462 z m -10.07176,2.745164 c 0,-0.557865 -0.22074,-1.014298 -0.49055,-1.014298 -0.26981,0 -0.79995,0.456433 -1.17809,1.014298 -0.37813,0.557863 -0.15739,1.014298 0.49056,1.014298 0.64795,0 1.17808,-0.456435 1.17808,-1.014298 z m 14.06123,1.930826 c 2.75354,-1.727365 4.75614,-3.36888 4.45021,-3.647813 -0.56312,-0.513448 -10.72443,5.484224 -10.72443,6.330054 0,0.966666 1.4366,0.352519 6.27422,-2.682241 z m -17.39851,12.209481 c 0,-0.52494 -0.50059,-0.954436 -1.11243,-0.954436 -0.61183,0 -4.38301,6.000651 -4.86383,6.751789 -10.58259,16.531964 -0.78152,3.578334 4.86383,-4.216044 0.39636,-0.547246 1.11243,-1.056368 1.11243,-1.581309 z m 22.26973,2.572386 c 1.17558,-1.291552 1.10677,-1.439976 -0.42002,-0.905779 -1.00428,0.351387 -5.92635,6.535152 -5.92635,7.033331 0,1.304345 4.74432,-4.367497 6.34637,-6.127552 z m -16.70758,5.601858 c 0,-0.557864 -0.22075,-1.014298 -0.49056,-1.014298 -0.26981,0 -3.58521,4.357874 -3.96983,4.912046 -1.38174,1.990914 -7.3304,11.345155 3.2823,-2.88345 0.36438,-0.488521 1.17809,-0.456435 1.17809,-1.014298 z m -53.41364,52.937193 c -0.0147,-1.4781 3.1491,-15.50495 2.21978,-14.19378 -1.40789,1.98637 -4.72308,17.32918 -3.31518,16.53582 0.61183,-0.34478 1.10476,-1.3987 1.0954,-2.34204 z m -2.20783,9.72037 c 0,-3.83142 -0.55519,-3.44444 -1.49211,1.04004 -0.43692,2.09123 -0.28818,3.11525 0.39643,2.72946 0.60262,-0.33959 1.09568,-2.03587 1.09568,-3.7695 z m -5.56215,32.68643 c 0,-0.55786 -0.50059,-1.0143 -1.11243,-1.0143 -0.61183,0 -1.11244,0.45644 -1.11244,1.0143 0,0.55786 0.50061,1.0143 1.11244,1.0143 0.61184,0 1.11243,-0.45644 1.11243,-1.0143 z m 101.65553,48.12646 c 0.37988,-0.90265 0.1934,-1.30978 -0.43719,-0.95443 -0.60483,0.34082 -1.0997,1.04919 -1.0997,1.57413 0,1.45899 0.79736,1.13749 1.53689,-0.6197 z" id="path4407" style="fill:#bbbbbb;fill-opacity:1" />
  <path d="m 247.4375,58.375 c -0.51478,0.05507 -0.64628,1.27094 0.0937,4.46875 0.39053,1.687482 -0.77894,2.218631 -3.4375,2.34375 -4.75136,0.223612 -19.04256,6.478446 -27.625,12.0625 -13.40511,8.721854 -17.96948,13.139408 -21.1875,20.46875 -3.36511,7.66441 -3.17588,9.46696 0.9375,8.75 8.21262,-1.43145 10.97484,2.91647 5.5625,8.78125 -2.86407,3.1035 -2.8941,3.95473 -0.1875,7.40625 1.82607,2.32865 0.17713,4.85237 -4.5,6.875 -2.67854,1.15834 -3.51292,2.15763 -3.53125,4.28125 -0.0192,2.22804 -0.55001,2.8125 -2.59375,2.8125 -1.40722,0 -3.15099,-0.55861 -3.875,-1.21875 -1.86808,-1.7033 -2.42527,-0.77438 -3.1875,5.09375 l -0.6875,5.15625 -6.25,1.15625 c -6.21571,1.14798 -14.76187,5.32825 -18.40625,9 -1.81127,1.82488 -1.78158,1.95238 0.21875,2.53125 1.16063,0.33587 3.55347,2.01551 5.34375,3.71875 3.36674,3.20304 3.64885,5.07022 2.71875,18.96875 -0.34905,5.2157 5.91145,13.53039 17.78125,23.59375 11.96363,10.14291 18.35811,14.62162 25.59375,17.90625 2.75325,1.24986 5.08624,2.29505 5.1875,2.3125 0.10126,0.0175 2.89351,-2.53086 6.1875,-5.65625 l 5.96875,-5.6875 4.40625,1.09375 c 9.12822,2.31071 20.53125,1.01359 20.53125,-2.34375 0,-2.0713 2.98004,-2.70732 4.5625,-0.96875 3.84176,4.22069 11.73042,5.69224 14.53125,2.6875 2.87035,-3.07934 5.375,-9.05757 5.375,-12.84375 l 0,-3.65625 -9.1875,0.0312 c -5.04765,0.008 -9.88332,0.40606 -10.75,0.90625 -0.95687,0.55224 -2.69235,0.50237 -4.4375,-0.15625 -1.58066,-0.59656 -11.13208,-1.26561 -21.21875,-1.46875 -17.05997,-0.34355 -18.39888,-0.50826 -19.15625,-2.375 -0.94697,-2.33408 -0.53508,-2.47391 2.4375,-0.78125 1.82493,1.03914 2.65002,0.88438 5.25,-1.03125 4.39635,-3.23917 11.51638,-6.22389 14.875,-6.25 1.59917,-0.0125 4.03126,-1.16825 5.5,-2.59375 3.57008,-3.46494 12.6675,-5.93286 15.65625,-4.25 3.44348,1.93888 4.00664,5.76811 1.125,7.75 l -2.4375,1.6875 4,1.3125 c 6.89067,2.27191 10.5625,-1.67652 10.5625,-11.34375 0,-2.94824 -2.09821,-10.09033 -6.875,-23.53125 -5.86485,-16.50249 -6.21407,-18.28695 -4.5625,-22.0625 1.61123,-3.68328 8.47616,-8.86581 15.0625,-11.375 2.03739,-0.77619 6.7909,-1.70467 10.5625,-2.09375 l 6.84375,-0.71875 0.71875,-4.375 c 0.39495,-2.40142 0.29993,-4.95057 -0.21875,-5.6875 -0.51869,-0.73694 -1.77442,-4.31139 -2.78125,-7.9375 -1.00684,-3.626119 -2.50054,-8.203727 -3.3125,-10.15625 C 282.95362,86.94951 273.97889,74.75 272.6875,74.75 c -0.46555,0 -1.84517,-0.816337 -3.03125,-1.8125 -2.41474,-2.028085 -10.95812,-5.885678 -15.28125,-6.875 -1.83553,-0.420047 -3.15685,-1.765624 -4.03125,-3.75 -0.94741,-2.150057 -2.24439,-4.008304 -2.90625,-3.9375 z m -36.03125,56.4375 c 1.06247,0.0549 2.42105,0.52187 4.84375,1.46875 2.86771,1.12081 8.18266,2.73614 11.8125,3.59375 8.53975,2.01767 14.26831,5.16904 15.125,8.28125 1.00943,3.6671 -0.18163,3.98152 -5.5625,1.53125 -6.64849,-3.02751 -9.19593,-2.83308 -11.28125,0.84375 -1.96932,3.47233 -0.73629,4.00871 2.25,1 1.10741,-1.11573 2.50134,-2 3.125,-2 0.62367,0 0.0491,1.05261 -1.28125,2.34375 -1.5405,1.49515 -2.40625,3.62549 -2.40625,5.90625 0,5.41622 -4.19065,8.0357 -10.03125,6.28125 -0.91776,-0.27567 -2.65133,-0.87265 -3.875,-1.34375 -5.19808,-2.00112 -9.47396,-2.85664 -11.625,-2.34375 -1.26539,0.30172 -2.28125,0.0845 -2.28125,-0.46875 0,-0.5532 1.43877,-1.26915 3.21875,-1.59375 1.82531,-0.33285 5.71219,-2.83771 8.90625,-5.75 C 215.45846,129.72254 218,127.77714 218,128.25 c 0,0.47285 -0.5885,1.40235 -1.3125,2.0625 -2.64111,2.40812 0.0601,2.27351 3.15625,-0.15625 1.75315,-1.37581 2.80313,-2.83017 2.34375,-3.25 -0.45939,-0.41983 -3.64864,-1.13623 -7.09375,-1.5625 -7.00616,-0.8669 -7.73833,-1.27281 -8.78125,-5.125 -0.58711,-2.16864 -0.18244,-3.0399 2,-4.34375 1.266,-0.75634 2.03128,-1.11738 3.09375,-1.0625 z M 225.5,126.875 c -0.31892,-0.0521 -0.94774,0.47128 -1.9375,1.625 -2.83949,3.30984 -2.83949,4.87427 0,2.53125 1.22368,-1.00972 2.23236,-2.54769 2.21875,-3.4375 -0.007,-0.44164 -0.0899,-0.68747 -0.28125,-0.71875 z m 53.34375,3.65625 c -0.83365,0 -2.08432,1.1366 -2.78125,2.53125 -0.69693,1.39467 -0.84085,2.53125 -0.3125,2.53125 0.52835,0 1.77903,-1.13658 2.78125,-2.53125 1.4398,-2.00356 1.51012,-2.53125 0.3125,-2.53125 z m -4.375,0.0312 c -0.44927,0.0354 -1.02083,0.22427 -1.71875,0.625 -2.06876,1.18783 -3.23488,4.40625 -1.59375,4.40625 0.56186,0 1.92044,-0.9121 3.03125,-2.03125 1.75165,-1.76483 1.62905,-3.10615 0.28125,-3 z m 7.84375,0.0312 c -0.0914,0.009 -0.15138,0.0449 -0.1875,0.0937 -4.02431,5.44091 -4.08031,5.88656 -1,6.875 0.13725,0.044 1.00629,-1.26431 1.9375,-2.90625 1.14756,-2.02338 1.30137,-3.20466 0.5,-3.65625 -0.48772,-0.27484 -0.97568,-0.4321 -1.25,-0.40625 z m 4.65625,0.90625 c -0.28732,-0.0149 -2.35402,3.0369 -3.96875,5.90625 -0.40412,0.7181 0.10122,2.15594 1.125,3.1875 1.75602,1.76923 1.69463,2.00898 -1.125,4.03125 -5.2029,3.73157 -18.47688,2.27791 -20.03125,-2.1875 -0.51054,-1.46665 -0.0973,-2.53087 1.34375,-3.4375 3.52308,-2.21653 4.875,-3.42177 4.875,-4.4375 0,-1.63419 -2.87502,-1.09386 -5.96875,1.125 -3.80816,2.73127 -3.76595,5.79685 0.21875,15.25 4.62095,10.96256 7.22734,20.71913 7.71875,28.96875 0.42321,7.10449 0.49966,7.30536 3.65625,7.9375 1.78149,0.35677 3.51979,1.10095 3.875,1.625 1.20035,1.77087 2.5419,-0.11367 3.75,-5.25 0.66135,-2.81176 1.21875,-8.01009 1.21875,-11.5625 0,-3.94911 0.76547,-8.15665 2,-10.84375 1.65961,-3.61234 1.98188,-6.67254 1.71875,-17.09375 -0.17606,-6.97329 -0.34928,-12.90857 -0.375,-13.1875 -0.003,-0.0293 -0.0121,-0.0303 -0.0312,-0.0312 z m -71.25,6.125 c -0.64795,0 -0.87814,0.47338 -0.5,1.03125 0.37813,0.55786 0.9177,1 1.1875,1 0.26982,0 0.5,-0.44214 0.5,-1 0,-0.55787 -0.53956,-1.03125 -1.1875,-1.03125 z m 9.625,1.4375 c -0.38149,0.10319 -0.65625,0.70101 -0.65625,1.5625 0,2.44909 0.61759,2.69042 1.5,0.59375 0.34466,-0.81892 0.14761,-1.76403 -0.4375,-2.09375 -0.14628,-0.0824 -0.27909,-0.0969 -0.40625,-0.0625 z m 40.71875,1 c -0.0722,0.0196 -0.14227,0.0506 -0.21875,0.0937 -0.61185,0.34478 -1.125,1.06881 -1.125,1.59375 0,0.52494 0.51315,0.9375 1.125,0.9375 0.61183,0 1.125,-0.69278 1.125,-1.5625 0,-0.76101 -0.40056,-1.19938 -0.90625,-1.0625 z m 15.75,0.96875 c -0.16862,-0.0233 -0.27914,0.35524 -0.3125,1.09375 -0.0483,1.06922 0.2241,1.64954 0.59375,1.3125 0.36965,-0.33705 0.41521,-1.20531 0.0937,-1.9375 -0.13317,-0.30343 -0.27383,-0.45478 -0.375,-0.46875 z m -54.5625,4.125 c 0.49874,-0.0667 0.78125,0.29386 0.78125,1.03125 0,1.22665 -1.18235,1.55924 -5.28125,1.46875 -5.11658,-0.11294 -5.18169,-0.13238 -1.375,-0.8125 2.16221,-0.38629 4.53723,-1.04949 5.28125,-1.46875 0.21027,-0.11849 0.4275,-0.1965 0.59375,-0.21875 z m 0.78125,3.625 c 0.61184,0 1.09375,0.47339 1.09375,1.03125 0,0.55786 -0.48191,1 -1.09375,1 -0.61183,0 -1.125,-0.44214 -1.125,-1 0,-0.55786 0.51317,-1.03125 1.125,-1.03125 z m 7.84375,25.375 c 1.55145,0 0.28985,3.73216 -2.5,7.34375 -3.0403,3.93582 -3.78035,3.47685 -1,-0.625 1.27358,-1.87891 2.3125,-4.15209 2.3125,-5.0625 0,-0.91043 0.53443,-1.65625 1.1875,-1.65625 z m 8.0625,9.96875 c -0.61185,0 -0.15939,0.62964 0.21875,1.1875 0.37814,0.55787 5.88817,2.90625 6.5,2.90625 0.61184,0 -2.71561,-1.84838 -3.09375,-2.40625 -0.37814,-0.55786 -3.01316,-1.6875 -3.625,-1.6875 z m 133.6875,12.5 c -1.36118,-2e-4 -2.93166,0.13697 -4.71875,0.40625 -2.89838,0.43673 -5.72548,0.68747 -6.28125,0.5625 -0.3169,-0.0712 -0.74184,0.0627 -1.125,0.3125 0.86897,1.00669 2.04109,3.15215 2.625,4.4375 2.77827,6.11564 13.61859,12.66263 18.28125,11.03125 2.60463,-0.91134 2.38399,-8.43671 -0.375,-12.5625 -1.94467,-2.9081 -4.32271,-4.1869 -8.40625,-4.1875 z M 243.53125,199.5 c 8.05868,0 8.84448,0.184 10.53125,2.53125 2.26015,3.14514 3.72324,3.23052 4.1875,0.25 0.30099,-1.9323 1.13652,-2.30751 5.375,-2.53125 2.75327,-0.14532 5.65198,0.12487 6.4375,0.59375 2.29184,1.36797 0.35453,4.0541 -3.46875,4.8125 -1.93735,0.3843 -4.5119,1.32824 -5.71875,2.09375 -3.16022,2.00455 -5.92927,1.62687 -12.84375,-1.75 -3.3651,-1.64342 -7.96673,-3.25637 -10.25,-3.59375 -6.85686,-1.01317 -3.54907,-2.40625 5.75,-2.40625 z m 150.375,0.875 0,0.0312 c -0.21381,0.015 -0.42896,0.0505 -0.65625,0.125 -1.88688,0.61767 -3.26987,0.94546 -4.21875,1.09375 0.8602,1.69783 1.4259,3.4697 1.4375,5.09375 0.0333,4.66549 3.597,11.50472 7.09375,13.59375 1.58085,0.94445 2.875,2.07776 2.875,2.46875 0,0.39098 -2.04632,1.74184 -4.5625,3.03125 -5.22957,2.67991 -10.01387,10.50109 -7.71875,12.59375 4.05521,3.69748 20.789,-2.01774 24,-8.1875 2.36453,-4.54332 1.69143,-11.14589 -1.5625,-15.3125 -2.62345,-3.35932 -2.8705,-4.25 -1.28125,-4.25 0.58605,0 2.37278,2.06204 4,4.59375 2.55891,3.9812 2.89623,5.45512 2.46875,10.84375 -0.44973,5.66893 -0.84467,6.50719 -4.5625,9.4375 -3.92982,3.09739 -5.32782,6.79959 -3.03125,8.09375 1.46977,0.82823 12.44005,-5.68177 15.4375,-9.15625 2.60959,-3.02491 3.08988,-7.80641 1.25,-12.21875 -0.62891,-1.50834 -0.83324,-2.97741 -0.5,-3.28125 1.20682,-1.10037 2.7908,1.50609 3.75,6.1875 0.80735,3.94038 0.59307,5.50478 -1.21875,8.84375 -1.20924,2.22848 -2.61131,4.03125 -3.09375,4.03125 -1.61891,0 -2.32033,3.38267 -0.875,4.21875 4.30281,2.48936 8.9441,-1.71516 10.375,-9.4375 0.9286,-5.01142 2.71875,-5.03113 2.71875,-0.0312 0,3.48282 1.5024,6.28125 3.375,6.28125 1.30139,0 3.3125,-5.12322 3.3125,-8.46875 0,-3.68556 -1.65304,-5.71875 -4.65625,-5.71875 -1.282,0 -2.03125,-0.75229 -2.03125,-2.09375 0,-3.46516 -1.92958,-5.72391 -5.5,-6.375 -1.85725,-0.33868 -3.375,-1.1397 -3.375,-1.78125 0,-0.64552 0.88795,-0.84696 2.53125,-0.65625 -0.71759,-1.37807 -1.46081,-3.49601 -1.875,-5.84375 -0.36752,-2.08319 -3.06321,-3.4113 -5.15625,-2.53125 -4.70278,1.97736 -8.14816,1.49224 -8.78125,0.46875 -0.50099,-0.25637 -1.08262,-0.59409 -1.75,-1.0625 -2.12553,-1.49184 -5.26861,-1.46231 -11.1875,0.125 -1.73184,0.46445 -2.61014,-0.0317 -3.59375,-2 -0.78401,-1.56892 -1.94082,-2.85518 -3.4375,-2.75 z M 224.625,200.53125 c 1.019,0 2.68797,5.03722 1.90625,5.75 -0.26496,0.24157 -1.0055,-0.95418 -1.65625,-2.65625 -0.65075,-1.70207 -0.76368,-3.09375 -0.25,-3.09375 z m 21.53125,0.15625 c -0.18696,0.002 -0.39399,0.0378 -0.5625,0.0625 -2.29682,0.3359 -2.07468,0.59621 1.90625,2.5 5.21512,2.49399 6.09375,2.68012 6.09375,1.34375 0,-1.58964 -4.63315,-3.94368 -7.4375,-3.90625 z m 18.6875,0.0312 c -1.15188,0.044 -2.39475,0.28767 -3.40625,0.78125 -2.86699,1.39903 -3.1423,4.62318 -0.3125,3.625 1.07071,-0.37768 3.32481,-0.93604 5.03125,-1.25 1.70646,-0.31395 2.94354,-1.09552 2.71875,-1.71875 -0.36189,-1.00343 -2.11144,-1.51087 -4.03125,-1.4375 z m 7.6875,3.84375 c 1.63849,0 -1.78476,6.29415 -4.03125,7.40625 -1.96832,0.9744 -1.98665,0.91215 -0.28125,-0.90625 0.99835,-1.06449 2.14298,-2.96356 2.5625,-4.21875 0.41951,-1.25519 1.20894,-2.28125 1.75,-2.28125 z m -21.5625,206.125 c -2.48583,0.0725 -4.03125,0.29094 -4.03125,0.65625 0,0.90637 5.82164,6.30927 12.1875,11.65625 l 54.3125,0 c -8.43789,-3.92271 -22.70549,-8.68091 -30.625,-10.0625 -8.42233,-1.46929 -24.38625,-2.46737 -31.84375,-2.25 z m -6.5625,2.84375 c -1.07746,0 -2.00736,1.23828 -2.4375,3.28125 -0.42489,2.01803 -0.90664,4.0997 -1.4375,6.1875 l 16.25,0 c -0.52624,-0.46109 -1.02786,-0.89685 -1.5625,-1.375 -4.98728,-4.46036 -9.85629,-8.09375 -10.8125,-8.09375 z" id="path3899" style="fill:#f3e1cc;fill-opacity:1" />
  <path d="m 329.84375,179.46875 c -0.10589,0.009 -0.21094,0.0228 -0.28125,0.0625 -0.56251,0.31698 -1.92107,4.14726 -3,8.5 -5.40771,21.81631 -7.48761,28.19286 -23.40625,71.3125 C 288.3292,299.50655 282.6723,313.10878 269.1875,341 c -5.93374,12.27301 -11.72131,24.58568 -12.84375,27.375 -1.12245,2.78933 -2.81986,5.78854 -3.78125,6.65625 -2.56168,2.31205 -21.03281,10.09375 -23.96875,10.09375 -3.69666,0 -1.2348,2.00315 7.5,6.125 10.16812,4.7982 21.00819,11.10697 25.40625,14.8125 2.22801,1.87718 4.8488,2.65275 11.6875,3.375 11.87294,1.25391 22.16011,3.53324 29.75,6.59375 4.75287,1.91651 6.28125,2.18311 6.28125,1.125 0,-2.9941 -28.72838,-24.39581 -48.03125,-35.78125 -4.42541,-2.61025 -7.44929,-4.90297 -6.71875,-5.125 1.41322,-0.42952 12.76766,5.49752 17.8125,9.3125 1.66205,1.25685 5.75989,4.02817 9.125,6.15625 9.35369,5.91523 29.93303,22.67132 31.75,25.875 0.88863,1.56686 3.7377,4.1854 6.34375,5.78125 2.79841,1.71365 4.41484,1.12772 5.0625,2.81723 l 5.53125,0 c 1.34299,-2.7669 3.22959,-4.41537 5.375,-8.69223 10.99579,-21.91998 21.49072,-45.86674 32.375,-73.96875 0.9723,-2.51038 2.14252,-5.92016 2.625,-7.59375 0.48247,-1.67359 2.23736,-6.25121 3.875,-10.15625 1.63763,-3.90505 4.69349,-12.33457 6.78125,-18.75 3.14685,-9.66987 9.83111,-27.2274 13.71875,-36.03125 3.57858,-8.10396 4.52987,-10.80328 5.625,-15.9375 1.17108,-5.49033 2.65683,-7.83867 4.125,-6.5 0.35841,0.32678 -0.26514,3.72641 -1.34375,7.5 -1.72002,6.01763 -3.94736,12.01299 -13.78125,36.75 -1.21975,3.06824 -3.06387,8.30907 -4.09375,11.65625 -1.02989,3.34718 -3.37241,9.97691 -5.21875,14.71875 -1.84635,4.74184 -5.12971,13.42369 -7.28125,19.28125 -4.95354,13.48606 -15.41709,38.64601 -19.1875,46.15625 -0.56014,1.11574 -3.58263,7.49313 -6.71875,14.1875 -3.13611,6.69436 -7.97165,16.95493 -10.75,22.8125 -1.11949,2.36021 -2.11953,2.48731 -2.96875,4.56723 l 35.3125,0 c -2.73556,-0.47078 -8.21748,0.35257 -13.5,0.0478 -9.90005,-0.57114 -11.33754,-0.0605 -10.6875,-1.45879 0.41369,-0.88986 0.98268,-2.65107 1.28125,-3.90625 0.41014,-1.72432 1.05058,-2.17442 4.1875,-2.25 0.44814,-0.0107 0.9749,-0.002 1.53125,0 6.34887,0.0224 25.68076,2.65478 26.65625,3.625 0.39204,0.38993 -1.2714,0.39533 -3.71875,0.0312 -2.44735,-0.36392 -9.10456,-0.95443 -14.78125,-1.3125 -9.31676,-0.58767 -10.45478,-0.45071 -11.84375,1.28125 -1.79563,2.23905 -1.2839,3.60221 1.0625,2.78125 1.58137,-0.5533 18.44161,-0.47294 25.40625,1.16098 l 12.90625,0 c 14.13094,-12.11413 30.45115,-26.25205 38.90625,-37.84848 1.49468,-2.05001 4.59294,-6.29918 6.875,-9.4375 7.76436,-10.67769 16.08721,-28.034 22.96875,-47.15625 l 0,-49.71875 c -0.19768,0.0389 -0.34768,0.0878 -0.5625,0.125 -2.29438,0.39718 -12.17938,1.14723 -21.96875,1.65625 -9.78938,0.50901 -20.26575,1.19779 -23.25,1.53125 -3.28529,0.36709 -5.17368,0.23521 -4.78125,-0.34375 0.86862,-1.28147 16.28189,-3.15403 31.34375,-3.8125 6.7302,-0.29422 14.62503,-0.83911 17.53125,-1.1875 0.62153,-0.0744 1.17212,-0.12376 1.6875,-0.15625 l 0,-16.90625 c -2.88928,-0.1376 -6.28398,-0.32502 -9.75,-0.53125 -5.81243,-0.34587 -13.70727,-0.60209 -17.53125,-0.5625 -3.82397,0.0396 -6.9375,-0.3335 -6.9375,-0.84375 0,-0.26933 2.06559,-0.38209 5.25,-0.40625 7.54099,-0.0572 21.27364,0.45949 28.96875,1.15625 l 0,-16.71875 c -0.38754,0.0378 -0.58099,0.0539 -1,0.0937 -5.11939,0.48753 -10.17929,1.18112 -11.25,1.5625 -1.34765,0.48001 -1.96875,0.22153 -1.96875,-0.875 0,-1.6726 2.18193,-2.24325 14.21875,-3.53125 l 0,-10.75 c -1.05623,0.17581 -2.16767,0.36633 -3.4375,0.59375 -5.85312,1.04823 -6.6163,1.52164 -8.5625,5 -2.83663,5.06978 -4.11544,5.58689 -7.0625,3.0625 l -2.4375,-2.0625 -2.09375,3.5 c -1.64898,2.79191 -2.75391,3.53125 -5.34375,3.53125 -1.79772,0 -4.68346,-0.74517 -6.375,-1.65625 -2.93254,-1.57947 -3.21956,-1.55584 -6.59375,0.71875 -4.33203,2.92027 -6.74583,1.93288 -9.75,-3.96875 -0.0884,-0.17351 -3.13724,0.2766 -6.8125,0.96875 -5.90691,1.11243 -7.03832,1.05794 -9.59375,-0.46875 -1.58999,-0.9499 -2.875,-2.59026 -2.875,-3.625 0,-3.60277 3.30238,-9.04861 7.3125,-12.0625 3.94806,-2.96725 3.98469,-3.1061 1.96875,-5.03125 -1.13369,-1.08264 -2.60539,-2.81207 -3.28125,-3.875 -1.06157,-1.66955 -1.50188,-1.7671 -3.09375,-0.5625 -3.82607,2.89524 -17.429,-4.26856 -21.40625,-11.28125 -0.74219,-1.30863 -1.62347,-3.81593 -1.875,-5.4375 -0.78739,0.58357 -2.56423,-0.12171 -6.53125,-2.53125 -14.43755,-8.76927 -21.69736,-13.29132 -24.4375,-15.25 -1.41878,-1.01416 -2.94647,-1.68963 -3.6875,-1.625 z M 364.5,198.875 c 0.0848,-0.0629 0.1873,-0.12624 0.25,-0.21875 0.20504,-0.30252 0.46118,-0.56179 0.75,-0.75 -0.38366,-0.44447 -0.73729,-0.68256 -0.9375,-0.5 -0.19858,0.18105 -0.17216,0.76132 -0.0625,1.46875 z m -38.28125,-17.96875 c -4.98851,3.253 -9.98025,5.53614 -14.96875,5.78125 -3.4922,15.51066 -8.74275,31.45433 -15.25,47.71875 L 277.09375,290.625 c -6.04044,17.95609 -20.47248,54.42423 -32.03125,68.03125 L 224.375,383 c 9.23851,-2.02765 20.13988,-4.51415 26.40625,-11 0,0 12.97126,-25.92222 18.8125,-39.1875 13.55,-30.77165 37.59375,-93.625 37.59375,-93.625 z m 7.46875,12.5 c 0.52088,0 2.36427,1.08829 4.09375,2.40625 1.7295,1.31793 8.64479,5.70182 15.375,9.75 12.38532,7.44969 28.52209,17.31638 29.40625,17.96875 0.26513,0.19562 0.0212,0.78006 -0.5625,1.3125 -0.67403,0.61458 -3.07759,-0.48308 -6.59375,-3 -3.04626,-2.18056 -9.79939,-6.33186 -15,-9.25 -5.20061,-2.91813 -12.67853,-7.52348 -16.59375,-10.21875 -3.91521,-2.69528 -7.55395,-4.90625 -8.09375,-4.90625 -1.23343,0 -1.73281,1.38855 -2.5,6.96875 -1.11266,8.09294 -7.56133,25.69957 -11.90625,32.5 -1.21079,1.89505 -1.77257,3.79662 -1.28125,4.21875 0.4913,0.42212 7.436,3.7816 15.46875,7.46875 8.03276,3.68717 21.23356,10.57796 29.3125,15.3125 8.07893,4.73455 14.85242,8.59375 15.0625,8.59375 0.63844,0 5.55366,-10.2333 8.40625,-17.5 1.47819,-3.76559 3.0669,-6.84375 3.53125,-6.84375 1.12532,0 1.15982,-0.0878 -1.21875,6.1875 -3.80954,10.05037 -9.49778,21.1875 -10.8125,21.1875 -0.71433,0 -1.89516,-0.63569 -2.625,-1.4375 -2.69876,-2.96495 -26.10107,-16.13476 -40.9375,-23.03125 -8.41743,-3.91272 -16.24195,-7.92948 -17.375,-8.9375 -1.89545,-1.68629 -1.90881,-2.02865 -0.3125,-4.25 5.14842,-7.16436 12.16123,-27.19552 13.53125,-38.65625 0.38345,-3.20772 1.10414,-5.84375 1.625,-5.84375 z m 4.78125,15.40625 c 3.45014,0.0611 14.62914,5.83678 23.03125,11.96875 4.39453,3.20718 1.96561,2.3818 -3.34375,-1.125 -2.64464,-1.74677 -8.56777,-4.79441 -13.15625,-6.78125 -4.58848,-1.98684 -7.7968,-3.79582 -7.125,-4 0.15801,-0.048 0.36375,-0.0665 0.59375,-0.0625 z m -0.71875,6 c 0.85212,0.0404 2.60999,0.79762 5.96875,2.4375 5.64708,2.7571 3.8699,3.22138 -2.5,0.65625 -2.29127,-0.92267 -4.18439,-2.0191 -4.1875,-2.4375 -0.003,-0.44842 0.20747,-0.68046 0.71875,-0.65625 z m -2.78125,6.25 c 2.77162,0.20374 13.9476,5.38579 17.84375,8.375 1.67761,1.28709 3.71259,2.55659 4.5,2.8125 0.78739,0.25592 1.18091,0.6633 0.875,0.9375 -0.30593,0.2742 -3.3224,-1.06212 -6.6875,-2.96875 -3.3651,-1.90664 -8.8849,-4.64747 -12.25,-6.09375 -3.3651,-1.44628 -5.50086,-2.79689 -4.75,-3.03125 0.10517,-0.0329 0.28397,-0.0447 0.46875,-0.0312 z m -2.40625,6.09375 c 1.90709,-0.0382 8.18932,2.69915 11.71875,5.1875 3.14439,2.21689 2.10063,1.9571 -6.125,-1.59375 -3.97694,-1.71677 -6.62535,-3.29533 -5.90625,-3.53125 0.0861,-0.0283 0.18536,-0.06 0.3125,-0.0625 z m -2.03125,5.8125 c 2.32253,0 19.25208,8.89335 22,11.5625 2.48626,2.41499 2.9667,3.86949 0.5625,1.6875 C 350.75022,244.09182 333.00269,235.00068 331.1875,235 c -1.07072,-4.1e-4 -1.9375,-0.44213 -1.9375,-1 0,-0.55786 0.5785,-1.03125 1.28125,-1.03125 z m -3.46875,5.3125 c 2.8885,0.22637 11.98533,3.97066 13.9375,5.9375 1.06081,1.06878 1.74778,1.89717 1.5,1.84375 -0.24779,-0.0534 -3.96715,-1.50972 -8.25,-3.25 -9.21285,-3.74351 -8.8874,-3.56588 -8,-4.375 0.0655,-0.0598 0.17016,-0.10614 0.3125,-0.125 0.13344,-0.0177 0.30743,-0.0463 0.5,-0.0312 z M 418.78125,250.5 c 1.55076,-0.10312 -0.13305,7.13004 -3.1875,13.21875 -1.60455,3.19841 -2.90625,6.25121 -2.90625,6.78125 0,2.04913 -3.63374,9.125 -4.6875,9.125 -0.6169,0 -0.75099,-0.79534 -0.3125,-1.78125 0.43422,-0.97627 1.68572,-4.05443 2.78125,-6.84375 1.09556,-2.78933 3.05478,-7.27265 4.34375,-9.96875 1.28897,-2.69609 2.3125,-5.96577 2.3125,-7.28125 0,-1.31549 0.5763,-2.72774 1.28125,-3.125 0.1325,-0.0746 0.27163,-0.11812 0.375,-0.125 z m 17.4375,3.78125 c 6.83216,0 12.22367,0.17232 11.96875,0.375 -1.25214,0.99556 -24.375,1.61698 -24.375,0.65625 0,-0.65642 4.61308,-1.03125 12.40625,-1.03125 z M 326.15625,264.75 c 0.0999,-0.0173 0.20256,-0.0236 0.28125,0 1.69678,0.50918 1.93166,10.94189 0.3125,13.78125 -1.66989,2.92837 -4.56989,4.19065 -3.4375,1.5 0.50878,-1.20888 0.32508,-1.50016 -0.5625,-1 -2.09997,1.18337 -1.59276,-8.23309 0.625,-11.65625 0.92147,-1.42234 2.08169,-2.50433 2.78125,-2.625 z M 342,265.28125 343.96875,267.5 c 1.08287,1.21934 1.96875,2.85355 1.96875,3.65625 0,2.38083 -3.08059,7.17062 -5.09375,7.875 -2.93876,1.02822 -2.92295,0.14666 0.0937,-2.4375 1.6901,-1.44769 2.78125,-3.53675 2.78125,-5.28125 0,-3.81483 -2.37114,-3.65621 -6.0625,0.34375 -3.02122,3.27379 -3.08757,5.20288 -0.0937,2.9375 0.93255,-0.70568 1.67571,-0.89295 1.65625,-0.40625 -0.05,1.25111 -2.80539,4.4375 -3.84375,4.4375 -0.47693,0 -1.53098,0.80499 -2.34375,1.78125 -1.40636,1.6892 -1.49758,1.69972 -1.53125,0 -0.059,-2.9813 4.50857,-10.81852 7.59375,-13.03125 z m 80.78125,1.15625 c 1.98535,0 3.08863,0.43949 2.6875,1.03125 -0.37813,0.55787 -1.91276,1 -3.40625,1 -1.49347,0 -2.6875,-0.44213 -2.6875,-1 0,-0.55786 1.53463,-1.03125 3.40625,-1.03125 z m -96.6875,1.03125 c -1.14988,0 -3.5,4.55796 -3.5,6.78125 0,1.43006 0.2679,1.42225 2.21875,-0.1875 1.22367,-1.00973 2.21875,-2.91055 2.21875,-4.21875 0,-1.3082 -0.42388,-2.375 -0.9375,-2.375 z m 96.3125,3.15625 c 4.71665,0.10714 4.94767,0.21511 1.96875,0.90625 -4.92054,1.14162 -7.25,1.14162 -7.25,0 0,-0.55786 2.37504,-0.97225 5.28125,-0.90625 z m 6.6875,4.96875 c 6.6444,0.003 13.49585,0.25769 14.34375,0.75 0.70588,0.40986 -5.16756,0.7489 -13.0625,0.75 -7.89494,10e-4 -14.34375,-0.3305 -14.34375,-0.75 0,-0.4919 6.41811,-0.75328 13.0625,-0.75 z M 362.6875,275.75 c 0.71197,-0.0454 1.3456,0.3711 1.78125,1.40625 0.88601,2.10525 -1.752,6.53125 -3.90625,6.53125 -1.25527,0 -1.38535,0.28925 -0.46875,1.125 0.70186,0.63994 0.96955,2.62661 0.625,4.5625 -0.76831,4.31694 0.51594,4.36843 4.3125,0.15625 3.55327,-3.94226 4.86115,-3.17203 4.71875,2.8125 -0.179,7.52218 -4.22458,9.60535 -10.5,5.375 -1.80321,-1.21556 -3.65971,-1.86173 -4.125,-1.4375 -0.46528,0.42425 0.53732,1.66446 2.21875,2.78125 1.68142,1.1168 3.0625,2.66981 3.0625,3.4375 0,2.14557 -5.80438,6.5625 -8.625,6.5625 -2.77678,0 -3.454,-2.80842 -1.1875,-4.875 1.52955,-1.39462 1.245,-1.73423 -2.15625,-2.6875 -1.83064,-0.51307 -2.5,-0.27693 -2.5,0.84375 0,0.84275 -1.0616,2.18116 -2.34375,3 -1.61518,1.03151 -2.08395,2.12303 -1.59375,3.53125 1.29941,3.73291 -7.49885,7.13646 -10.25,3.96875 -1.60862,-1.85219 -1.14141,-13.16983 0.5625,-13.6875 0.9199,-0.27947 1.40625,0.68935 1.40625,2.84375 l 0,3.25 4.96875,-4.1875 c 2.73959,-2.30251 5.41746,-4.1875 5.96875,-4.1875 0.55127,0 1.64596,-1.35765 2.40625,-3.03125 1.5787,-3.4751 4.35753,-4.03405 5.21875,-1.03125 0.32,1.11573 0.96397,2.03125 1.40625,2.03125 1.46027,0 3.61345,-5.49353 3.8125,-9.71875 0.2287,-4.85492 3.05159,-9.2389 5.1875,-9.375 z m -33.375,6.09375 c 0.69445,0.0732 1.17848,0.99483 1.59375,2.71875 0.94879,3.93875 -0.35753,8.10003 -2.90625,9.34375 -2.4969,1.21842 -2.9523,-0.54524 -0.46875,-1.8125 1.92183,-0.98064 3.28668,-7.02666 1.78125,-7.875 -0.58328,-0.32868 -1.64474,0.44335 -2.375,1.6875 -1.02186,1.74093 -1.04733,2.34787 -0.0312,2.65625 1.96308,0.59663 -0.739,3.25 -3.3125,3.25 -1.12724,0 -2.59511,0.91553 -3.25,2.03125 -1.93548,3.29747 -3.30969,2.30221 -1.46875,-1.0625 1.74503,-3.18941 1.19468,-7.17939 -0.75,-5.40625 -1.85146,1.68812 -3.53587,11.81234 -2.09375,12.625 1.28277,0.72286 0.32387,1.11571 -5.78125,2.34375 -1.57541,0.3169 -3.43728,0.0305 -4.15625,-0.625 -1.94098,-1.76977 -1.59243,-5.31166 0.71875,-7.21875 2.27124,-1.87413 4.65625,-2.20519 4.65625,-0.65625 0,0.55787 0.7649,1 1.71875,1 0.95387,0 1.43628,-0.44856 1.0625,-1 -0.87755,-1.29467 3.4035,-10.15625 4.90625,-10.15625 0.62874,0 1.53525,1.44223 2.03125,3.1875 l 0.90625,3.15625 3.03125,-4.1875 c 2.01895,-2.78173 3.29464,-4.09414 4.1875,-4 z m 13.125,4.09375 c 0.2125,-0.0115 0.43015,-0.025 0.625,0 3.07732,0.39572 4.8665,3.40956 3.34375,5.625 -1.74247,2.5351 -10.25078,3.03048 -11.25,0.65625 -0.85099,-2.02202 4.0938,-6.10953 7.28125,-6.28125 z m 1.21875,1.25 c -0.6529,0.0213 -1.44086,0.19891 -2.25,0.59375 -2.25855,1.1021 -2.29948,1.33309 -0.625,2.1875 1.02846,0.52479 1.52895,1.4353 1.125,2.03125 -0.41568,0.61326 -0.11098,0.87716 0.71875,0.625 0.80625,-0.24504 2.01446,-1.1973 2.65625,-2.125 1.34868,-1.9495 0.33371,-3.37647 -1.625,-3.3125 z m 91.6875,3.21875 c 0.73143,-0.11379 1.511,0.22869 2.71875,1 2.12082,1.35445 2.4375,2.47563 2.4375,9 0,4.10673 -0.30744,8.22193 -0.6875,9.125 -1.03319,2.45474 -6.38311,4.59375 -11.46875,4.59375 -4.19349,0 -4.53125,-0.19734 -4.53125,-2.84375 0,-3.15613 7.61436,-18.2744 10.1875,-20.21875 0.48955,-0.36992 0.9049,-0.58798 1.34375,-0.65625 z m 0.125,2.53125 c -0.70384,-0.0242 -1.29751,0.44119 -2.125,1.4375 -2.41704,2.91018 -7.7942,15.56263 -6.9375,16.34375 1.11682,1.01831 5.34079,-2.897 4.71875,-4.375 -0.57421,-1.36435 2.0968,-4.40625 3.875,-4.40625 1.90528,0 1.08732,2.8656 -1.71875,5.90625 -1.52959,1.65747 -2.78125,3.31837 -2.78125,3.65625 0,1.21374 2.80294,0.50291 5.4375,-1.34375 2.34823,-1.64596 2.69784,-2.73804 2.78125,-8.71875 0.0756,-5.42738 -0.29158,-7.07869 -1.8125,-7.96875 -0.57116,-0.33424 -1.01518,-0.51668 -1.4375,-0.53125 z m -125.15625,2.125 c -0.44552,0.0283 -0.98447,0.29655 -1.625,0.78125 -2.73685,2.07101 -2.11625,5.09375 1.03125,5.09375 2.22344,0 2.65011,-0.44574 2.40625,-2.53125 -0.27156,-2.3224 -0.83237,-3.40606 -1.8125,-3.34375 z m 12.59375,2.125 c 0.43131,-0.0426 0.82647,0.38662 1.46875,1.1875 1.89672,2.36508 2.03492,8.8128 0.21875,10.46875 -2.3548,2.14708 -3.22051,1.29915 -1.34375,-1.3125 1.13853,-1.58431 1.53241,-3.46893 1.09375,-5.0625 -0.95059,-3.45334 -2.78447,-3.22073 -3.59375,0.46875 -0.36512,1.66453 -1.11891,2.80281 -1.65625,2.5 -1.42253,-0.8016 -1.20152,-1.59964 1.40625,-5.5 1.25367,-1.87508 1.8517,-2.69524 2.40625,-2.75 z m 91.4375,6.75 2.5,2.8125 c 1.37359,1.54067 2.52821,3.20048 2.53125,3.6875 0.01,1.68371 10.10616,13.8125 11.5,13.8125 0.76932,0 1.89238,-1.91696 2.46875,-4.25 1.30147,-5.26791 3.14681,-5.92133 5.40625,-1.9375 3.32633,5.86499 1.44242,17.96457 -4.1875,26.59375 -5.008,7.67593 -19.23311,20.21116 -22.90625,20.1875 -1.06758,-0.007 -0.22369,-1.10041 2.15625,-2.78125 9.7235,-6.86728 16.85878,-14.07781 20.3125,-20.46875 3.13105,-5.79384 3.59375,-7.63511 3.59375,-14.65625 0,-8.86048 -2.056,-11.87921 -3.4375,-5.03125 -0.70446,3.49187 -2.0356,5.36319 -3.90625,5.40625 -0.37107,0.008 -2.88213,-2.76895 -5.5625,-6.125 -3.39379,-4.24929 -5.3907,-5.87546 -6.5625,-5.4375 -4.52757,1.6922 -7.54182,2.01954 -10.84375,1.21875 -5.14361,-1.24746 -4.6545,-3.92103 1.65625,-8.875 z m -102.875,1.5625 c 2.31016,0 4.12775,5.2407 2.5625,7.40625 -1.31201,1.81517 -1.63748,1.85296 -5.625,0.75 -3.43397,-0.94986 -3.1645,0.88629 0.34375,2.34375 1.5641,0.64978 2.53277,1.63201 2.15625,2.1875 -0.69605,1.02688 -1.46457,1.07448 -5.75,0.3125 -3.46507,-0.61612 -3.99938,-2.98336 -1.15625,-5.125 1.34881,-1.016 3.21505,-3.22062 4.15625,-4.875 0.94121,-1.65437 2.43295,-3 3.3125,-3 z m 103.15625,1.53125 c -2.23859,0 -8.625,5.43775 -8.625,7.34375 0,1.80787 0.51824,1.99842 4.59375,1.5 2.53151,-0.30959 5.39712,-1.29313 6.34375,-2.15625 1.47935,-1.34885 1.51316,-1.91974 0.21875,-4.125 -0.82826,-1.41112 -1.98197,-2.5625 -2.53125,-2.5625 z m -103.4375,0.0312 c -0.57292,0.0177 -1.13877,0.50495 -1.53125,1.4375 -0.75146,1.78553 1.98926,4.75251 3.3125,3.59375 0.51965,-0.45507 0.59544,-1.76561 0.1875,-2.9375 -0.48217,-1.38517 -1.23214,-2.11655 -1.96875,-2.09375 z m 141.75,0.96875 c 1.82625,0 0.89524,8.62653 -1.25,11.59375 -2.99014,4.13585 -8.10464,6.68515 -9.4375,4.71875 -0.33852,-0.4994 0.17853,-1.15791 1.15625,-1.5 1.05258,-0.36829 1.51802,-1.25365 1.125,-2.1875 -1.09258,-2.59607 5.5809,-12.625 8.40625,-12.625 z m -0.65625,3.65625 c -0.41776,-0.0221 -1.21912,0.52081 -2.375,1.71875 -1.51025,1.56524 -2.75,4.00977 -2.75,5.40625 0,3.30609 1.96439,2.19214 4,-2.25 1.4547,-3.17445 1.82128,-4.83816 1.125,-4.875 z m -125.25,0.75 c 0.44637,-0.0488 0.78966,0.18324 1.125,0.65625 1.42835,2.01458 1.36608,8.24188 -0.0937,10.15625 -0.83487,1.09474 -0.95951,0.0191 -0.4375,-3.8125 0.47864,-3.51322 0.3152,-5.3125 -0.46875,-5.3125 -1.98253,0 -4.37875,5.38833 -3.9375,8.84375 0.42095,3.29651 -0.9954,5.27049 -2.34375,3.28125 -0.4058,-0.59866 -0.42822,-2.17123 -0.0625,-3.5 0.36575,-1.32876 0.19805,-2.70832 -0.375,-3.03125 -0.57304,-0.32291 0.70294,-2.29282 2.8125,-4.375 1.98741,-1.96162 3.0373,-2.82492 3.78125,-2.90625 z m 14.5,3.84375 c 1.56122,-0.1107 2.66274,0.73069 3.5625,2.53125 1.19247,2.38632 1.01949,2.89045 -1.75,5.0625 -3.38768,2.65692 -6.26092,3.08935 -8.3125,1.21875 -2.22734,-2.03085 -1.49888,-4.63296 1.90625,-6.84375 1.88497,-1.22381 3.37948,-1.88266 4.59375,-1.96875 z m 0.6875,1.375 c -1.75629,-0.001 -5.50755,1.95122 -6,3.3125 -0.25227,0.69733 0.44079,1.33095 1.5625,1.375 1.16929,0.0459 1.4535,0.26918 0.65625,0.5625 -1.51794,0.55847 -1.92539,2.375 -0.53125,2.375 0.47571,0 1.98394,-0.72533 3.34375,-1.59375 2.43329,-1.554 3.31732,-4.91738 1.5625,-5.90625 -0.15405,-0.0868 -0.34285,-0.12484 -0.59375,-0.125 z m -30.28125,3.6875 c 0.73355,-0.053 0.55723,0.17053 -0.46875,0.8125 -1.45983,0.91342 -1.40253,1.52572 0.5625,4.875 2.35205,4.00892 3.77356,4.3569 10.8125,2.75 3.65047,-0.83335 4.10452,0.78437 0.90625,3.28125 -1.19235,0.93084 -1.90442,2.07289 -1.59375,2.53125 1.12505,1.65978 2.58294,0.75587 4.375,-2.6875 1.71345,-3.29229 5.39322,-5.50731 6.875,-4.15625 1.10172,1.00453 1.76052,11.75 0.71875,11.75 -0.53465,0 -0.96875,-2.03611 -0.96875,-4.5 0,-5.6411 -1.09454,-6.63537 -4.15625,-3.84375 l -2.40625,2.1875 2.625,2.5625 c 2.56734,2.49174 1.78345,3.77044 -0.84375,1.375 -0.724,-0.66015 -1.62779,-0.93311 -2,-0.59375 -1.33542,1.21762 1.55996,4.16599 5.15625,5.25 2.01615,0.60773 3.92149,1.76692 4.21875,2.59375 0.40818,1.13548 0.0492,1.07701 -1.40625,-0.25 -3.65503,-3.3326 -7.98596,-1.0099 -6.71875,3.59375 0.9104,3.3073 -1.97597,4.32483 -6.46875,2.28125 -4.40194,-2.00225 -5.25,-1.92902 -5.25,0.40625 0,1.43598 0.5621,1.80126 2.21875,1.40625 1.22694,-0.29255 2.95604,0.0158 3.84375,0.6875 0.88769,0.67173 2.1426,0.92239 2.78125,0.5625 0.66298,-0.37359 1.15625,0.24506 1.15625,1.4375 0,2.56022 3.87855,2.87562 5.375,0.4375 0.60458,-0.98502 1.27129,-1.23903 1.6875,-0.625 1.16899,1.72461 -2.39366,3.5751 -5.71875,2.96875 -2.30476,-0.42029 -3.4563,-0.0575 -4.4375,1.375 -0.72869,1.06387 -1.99535,1.69216 -2.8125,1.40625 -0.98401,-0.34429 -2.00455,0.93026 -3,3.8125 -0.82666,2.39348 -2.16927,5.09742 -3,6 -1.33051,1.44557 -1.097,1.71649 2,2.28125 6.02083,1.09793 7.6875,0.80961 7.6875,-1.375 0,-1.31418 -0.72954,-2.03125 -2.09375,-2.03125 -1.15823,0 -2.40988,-0.71132 -2.78125,-1.59375 -1.02943,-2.446 -0.81654,-2.99912 0.65625,-1.65625 3.02248,2.75586 10.90625,0.63459 10.90625,-2.9375 0,-1.66747 -0.47521,-1.93761 -2.5,-1.375 -1.37663,0.3825 -3.39804,1.39273 -4.46875,2.25 -1.11793,0.89507 -1.9375,1.10845 -1.9375,0.46875 0,-1.48971 4.45277,-4.28125 6.84375,-4.28125 4.41891,0 3.79285,6.39926 -0.8125,8.3125 -1.58998,0.66055 -2.53994,1.73682 -2.21875,2.5 0.6417,1.52475 -0.35757,4.47944 -1.4375,4.25 -0.39341,-0.0836 -2.19574,-0.36021 -4.03125,-0.59375 -7.17803,-0.9133 -14.62927,-3.4894 -18.0625,-6.25 -1.97777,-1.59028 -4.6326,-3.50938 -5.90625,-4.28125 -1.68004,-1.01812 -2.43524,-2.70613 -2.6875,-6.125 -0.19126,-2.59187 -0.65745,-5.16728 -1.03125,-5.71875 -0.37381,-0.55147 -3.05501,-1.32038 -5.96875,-1.71875 -8.85666,-1.21087 -12.17028,-4.14067 -8.1875,-7.25 1.19662,-0.9342 1.81776,-2.42332 1.5,-3.53125 -0.4455,-1.55336 0.0768,-1.90625 2.75,-1.90625 2.42817,0 3.62685,-0.65888 4.5625,-2.53125 1.57271,-3.14724 3.05873,-3.2399 3.9375,-0.25 0.9771,3.32434 0.85461,4.8125 -0.40625,4.8125 -0.61184,0 -1.09375,-1.0227 -1.09375,-2.25 0,-1.43726 -0.40071,-1.88191 -1.09375,-1.25 -1.21542,1.10818 -0.23242,5.76097 1.0625,5.03125 0.46052,-0.25949 1.73121,0.41059 2.8125,1.5 1.08129,1.08942 2.37564,1.75015 2.875,1.46875 1.11972,-0.63098 3.43364,3.08897 2.46875,3.96875 -1.03802,0.94644 3.26708,7.75 4.90625,7.75 2.53471,0 5.73436,-3.7664 5.09375,-6 -0.73726,-2.57056 -2.09396,-2.71053 -3.5625,-0.34375 -0.80746,1.30132 -0.97627,0.43708 -0.65625,-3.21875 0.24008,-2.74262 1.14544,-5.62707 2,-6.40625 1.33005,-1.21272 1.3165,-2.18411 -0.125,-6.90625 -1.85912,-6.0902 -1.29139,-7.74868 1.8125,-5.1875 1.12264,0.92637 2.4261,1.6875 2.90625,1.6875 0.79658,0 0.51609,-3.37999 -0.59375,-7.03125 -0.2591,-0.85238 0.48341,-1.62888 1.78125,-1.84375 0.45599,-0.0755 0.78673,-0.10733 1.03125,-0.125 z m 2.84375,0.0625 c 0.077,10e-4 0.14596,0.0404 0.21875,0.0625 1.81537,0.55174 1.55479,2.08133 -0.40625,2.34375 -1.22798,0.16434 -1.65473,-0.25707 -1.25,-1.21875 0.29657,-0.70467 0.89847,-1.19666 1.4375,-1.1875 z M 298.8125,322.5 c 1.27894,-0.0135 2.625,0.67325 2.625,1.78125 0,0.6083 -0.53851,0.78958 -1.21875,0.40625 -0.68024,-0.38333 -1.68469,-0.05 -2.21875,0.71875 -1.55652,2.24067 -1.16017,6.70822 0.65625,7.34375 2.35558,0.82418 2.06477,2.3423 -0.5625,2.96875 -1.22367,0.29177 -2.21875,1.29267 -2.21875,2.25 0,1.42557 0.30121,1.52537 1.65625,0.5 0.90996,-0.68859 2.39579,-0.99731 3.28125,-0.6875 1.31886,0.46146 1.36389,1.1165 0.3125,3.65625 -1.49728,3.61681 -1.63593,3.65515 -5.15625,1.1875 -2.97726,-2.08698 -3.83316,-7.64834 -1.46875,-9.4375 0.76479,-0.57873 1.39688,-2.72632 1.40625,-4.75 0.008,-2.02369 0.45928,-4.31512 1,-5.09375 0.40388,-0.58157 1.13888,-0.83568 1.90625,-0.84375 z m 116.71875,4.84375 c 2.54246,-0.0759 3.81905,2.62972 3.78125,8 -0.0433,6.14554 -2.15725,15.51186 -4.40625,19.40625 -4.09726,7.09486 -10,13.29509 -10,10.5 0,-0.32972 1.69915,-2.40713 3.78125,-4.625 6.17402,-6.57669 10.98868,-21.80351 9.09375,-28.6875 -0.88096,-3.20034 -2.48402,-3.34822 -3.46875,-0.3125 -0.40715,1.2552 -3.40028,7.14214 -6.6875,13.0625 -3.2872,5.92034 -5.75168,11.046 -5.46875,11.40625 0.28295,0.36026 -0.0962,0.20709 -0.8125,-0.34375 -0.96255,-0.74019 0.55788,-4.57722 5.84375,-14.6875 3.93352,-7.52367 7.70132,-13.69958 8.34375,-13.71875 z M 306.09375,329.75 c -0.81075,0.10336 -0.76156,1.58583 0.15625,4.3125 0.71632,2.1281 2.20467,3.93429 3.65625,4.4375 1.34867,0.46754 2.7722,1.35605 3.1875,1.96875 0.48112,0.70979 1.85866,0.0821 3.75,-1.71875 2.59352,-2.46952 2.6936,-2.8702 0.96875,-3.15625 -1.08578,-0.18007 -2.73863,-1.39835 -3.6875,-2.71875 -1.00254,-1.3951 -2.38337,-2.16884 -3.3125,-1.84375 -0.87937,0.30768 -2.28045,0.053 -3.09375,-0.5625 -0.7086,-0.5362 -1.25648,-0.76573 -1.625,-0.71875 z m 17.21875,1.59375 c -0.31601,-0.0108 -0.90736,0.11843 -1.84375,0.34375 -1.5296,0.36806 -3.4227,0.67989 -4.1875,0.6875 -0.7648,0.008 -1.375,0.44213 -1.375,1 0,1.66583 5.16566,1.1746 6.8125,-0.65625 0.85676,-0.95249 1.12043,-1.35698 0.59375,-1.375 z m 25.96875,4.0625 c 1.52595,0 1.3939,4.69812 -0.1875,7.4375 -2.38087,4.12425 -5.38135,4.92104 -5.375,1.4375 0.004,-2.65511 3.90949,-8.875 5.5625,-8.875 z m -66.1875,4.0625 c -0.91776,0 -1.6875,0.47338 -1.6875,1.03125 0,0.55786 0.76974,1 1.6875,1 0.91775,0 1.65625,-0.44214 1.65625,-1 0,-0.55787 -0.7385,-1.03125 -1.65625,-1.03125 z m 64.5625,0.375 c -0.41542,0.0241 -1.08337,0.53326 -1.6875,1.5625 -0.86099,1.46687 -0.85412,2.125 -0.0312,2.125 0.65257,0 1.48146,-0.70165 1.84375,-1.5625 0.58212,-1.38315 0.40913,-2.15607 -0.125,-2.125 z m -36.75,0.65625 c -2.01149,0 -2.16058,1.18719 -0.34375,2.84375 1.79523,1.63686 2,1.55185 2,-0.8125 0,-1.127 -0.72924,-2.03125 -1.65625,-2.03125 z m 45.25,1.0625 c 0.72535,-0.0786 0.94157,0.43902 0.46875,1.5625 -0.37139,0.88241 -0.6875,1.96325 -0.6875,2.4375 0,1.30582 -5.84841,4.85636 -9.34375,5.65625 -2.91843,0.66786 -2.99904,0.56864 -1.625,-1.4375 0.99388,-1.45103 2.18176,-1.95978 3.78125,-1.59375 1.38157,0.31616 2.92956,-0.0956 3.78125,-1.03125 1.68699,-1.8534 0.8964,-2.04019 -2.5,-0.53125 -1.68833,0.75008 -1.30555,0.15962 1.21875,-2 2.21183,-1.8923 3.97366,-2.96145 4.90625,-3.0625 z m -49.84375,0.3125 c -0.0952,-0.004 -0.1821,-0.007 -0.25,0.0312 -1.58452,0.8929 2.35242,7.73188 4.28125,7.4375 0.91776,-0.14006 1.65625,-0.71739 1.65625,-1.28125 0,-1.62784 -4.25894,-6.13379 -5.6875,-6.1875 z m 9.65625,1.34375 c -0.42156,0.0733 -0.72689,0.57752 -1.25,1.46875 -1.39266,2.37267 -1.32961,2.4689 2.34375,3.75 4.19802,1.46408 5.22682,-0.42736 1.8125,-3.3125 -1.64988,-1.39417 -2.36424,-2.00052 -2.90625,-1.90625 z m -29.15625,0.46875 c -0.54362,-0.007 -0.9375,0.56144 -0.9375,1.375 0,0.92978 0.52978,1.51241 1.1875,1.3125 0.65773,-0.1999 1.1875,-0.78253 1.1875,-1.3125 0,-0.52997 -0.52977,-1.14385 -1.1875,-1.34375 -0.0822,-0.025 -0.17234,-0.0303 -0.25,-0.0312 z m -7.25,0.90625 c -0.89671,0.0593 -1.46875,0.47326 -1.46875,1.28125 0,2.31706 2.53062,3.75172 6.59375,3.71875 l 3.96875,-0.0312 -3.125,-2.5 c -2.0943,-1.67994 -4.47424,-2.56758 -5.96875,-2.46875 z m 12.28125,1.15625 c -0.93701,-0.0214 -1.84031,0.43279 -2.25,1.40625 -0.46679,1.10911 -0.003,2.24783 1.3125,3.125 2.40911,1.6062 4.26997,0.44525 3.6875,-2.3125 -0.29231,-1.38392 -1.54527,-2.19119 -2.75,-2.21875 z m 102.9375,1.84375 c 0.40596,0 1.65395,3.07816 2.75,6.84375 1.09602,3.76558 2.99645,8.34459 4.21875,10.15625 1.54638,2.29202 1.99213,4.14448 1.5,6.1875 -0.87741,3.64241 -6.79307,12.3125 -8.40625,12.3125 -0.6547,0 0.34433,-2.01595 2.21875,-4.5 4.94892,-6.5585 5.30788,-9.59914 1.84375,-15.9375 C 397.30641,359.729 396,356.09364 396,354.5625 c 0,-4.20144 -1.45562,-4.24124 -5.8125,-0.0937 -4.68807,4.46255 -7.10073,8.55051 -8.59375,14.625 -1.41989,5.77689 -0.4557,8.81125 3.15625,10.125 1.59891,0.58156 2.30667,1.2786 1.5625,1.53125 -0.74419,0.25267 -2.66675,-0.38976 -4.25,-1.40625 -2.66376,-1.71018 -2.83979,-2.27845 -2.40625,-7.9375 0.27134,-3.54181 1.51764,-7.96233 2.9375,-10.5 2.36442,-4.22587 10.67355,-13.3125 12.1875,-13.3125 z m -57.25,0.28125 c 0.14737,-0.099 0.55211,0.24695 1.34375,0.96875 0.959,0.87441 1.4664,2.044 1.09375,2.59375 -0.98313,1.45042 -8.39591,2.03166 -9.5625,0.75 -0.68724,-0.75502 0.38544,-0.96104 3.53125,-0.6875 4.25915,0.37034 4.49822,0.26671 3.875,-1.90625 -0.30145,-1.05109 -0.42862,-1.61975 -0.28125,-1.71875 z M 409.5,348.59375 c 0.46369,0.0797 0.41829,1.14357 -0.59375,3.3125 -0.846,1.81306 -2.02891,4.3917 -2.59375,5.75 -0.78742,1.89353 -1.15554,2.12722 -1.65625,0.9375 -0.35917,-0.85345 0.23682,-3.46333 1.375,-5.78125 1.3822,-2.81492 2.87258,-4.3211 3.46875,-4.21875 z m -96.5625,2.03125 c -2.18496,0 -4.8125,1.77798 -4.8125,3.25 0,0.44628 0.7385,0.8125 1.65625,0.8125 3.27426,0 1.61056,1.90683 -1.9375,2.21875 l -3.625,0.3125 0.3125,6.09375 c 0.47965,9.77899 5.52244,11.00518 10.28125,2.5 2.40292,-4.29459 1.97998,-5.06057 -1.3125,-2.34375 -1.21717,1.00436 -2.03125,1.20092 -2.03125,0.5 0,-0.64434 -0.945,-1.15625 -2.09375,-1.15625 -2.61535,0 -5.20263,-2.5894 -3.53125,-3.53125 0.64155,-0.36151 1.15625,-0.18454 1.15625,0.40625 0,1.57026 3.98069,1.32541 5.5,-0.34375 0.71637,-0.78702 1.58113,-3.06019 1.9375,-5.0625 0.55615,-3.12487 0.34367,-3.65625 -1.5,-3.65625 z m -16.84375,2.28125 c -0.70515,0.0409 -1.3125,0.79289 -1.3125,2.1875 0,1.92057 0.44012,2.41612 1.71875,1.96875 0.94778,-0.33162 1.55799,-1.29641 1.375,-2.15625 -0.29318,-1.37759 -1.0761,-2.04094 -1.78125,-2 z m 24.28125,0.78125 c -1.46975,0 -5.59375,3.73075 -5.59375,5.0625 0,0.55786 0.51316,1 1.125,1 0.61183,0 1.125,-0.45376 1.125,-1.03125 0,-0.70931 0.70461,-0.70752 2.21875,0.0312 1.76371,0.86064 2.38788,0.76289 2.90625,-0.46875 0.81115,-1.92736 -0.23008,-4.59375 -1.78125,-4.59375 z m 21.75,2.71875 c 5.56732,-0.13188 7.86568,1.55577 6.46875,4.875 -0.46895,1.11422 -2.4178,1.53125 -7.21875,1.53125 -3.60554,0 -6.5625,-0.37027 -6.5625,-0.8125 0,-0.44221 2.6316,-0.77381 5.84375,-0.75 4.47082,0.0331 5.84375,-0.3353 5.84375,-1.5 0,-1.16191 -1.2459,-1.46916 -5.28125,-1.34375 -5.93691,0.18451 -7.27831,-1.24878 -1.6875,-1.8125 0.92903,-0.0937 1.79843,-0.16866 2.59375,-0.1875 z m -43.46875,1.3125 c -1.37819,0 -3.10094,0.68392 -3.84375,1.5 -1.09879,1.20717 -0.79021,1.96879 1.6875,4.0625 3.01756,2.54987 6.0625,3.39759 6.0625,1.6875 0,-0.48812 -0.30509,-2.31918 -0.6875,-4.0625 -0.53177,-2.42433 -1.30219,-3.1875 -3.21875,-3.1875 z m -29.53125,4.125 3.65625,2.09375 c 2.00483,1.15556 7.63656,4.26375 12.53125,6.875 14.09591,7.52001 32.75441,21.74243 38.6875,29.5 3.26782,4.27268 2.11704,5.63012 -1.21875,1.4375 -6.49836,-8.16753 -23.31123,-21.20976 -36.90625,-28.65625 -15.61508,-8.55296 -15.64485,-8.57367 -17.34375,-6.53125 -2.45593,2.95252 -1.85932,3.72699 4.84375,6.375 3.50529,1.38474 8.88702,4.36759 11.96875,6.65625 3.08172,2.28868 7.09096,5.02225 8.90625,6.0625 4.22159,2.41922 21.36429,15.42678 24.71875,18.75 1.40778,1.39465 3.32054,3.79137 4.25,5.34375 1.81756,3.03565 3.8125,2.85682 3.8125,-0.34375 0,-1.0828 0.51317,-1.96875 1.125,-1.96875 1.58328,0 1.3711,1.23593 -0.9375,5.9375 l -2.03125,4.125 -2.03125,-4.1875 c -1.11487,-2.30402 -5.33427,-7.12344 -9.375,-10.71875 -10.26333,-9.13196 -32.14407,-24.02846 -41.03125,-27.90625 -4.0975,-1.78789 -7.66914,-3.37415 -7.9375,-3.53125 -0.26836,-0.1571 0.58355,-2.29889 1.90625,-4.78125 z m 120.9375,3.96875 c 0.0475,-0.0116 0.0811,-0.006 0.125,0 0.58542,0.0863 0.86687,1.72259 0.53125,4.4375 -0.30024,2.4287 0.0158,5.39634 0.71875,6.59375 0.70283,1.19742 0.84765,2.1875 0.3125,2.1875 -0.53516,0 -1.53996,-1.17284 -2.25,-2.59375 -1.41531,-2.83226 -1.67566,-6.47231 -0.625,-8.96875 0.43421,-1.03172 0.85478,-1.57513 1.1875,-1.65625 z m 29.625,2.625 c 2.27288,0.13559 3.99923,1.53828 5.5,4.28125 1.26899,2.31936 1.28342,3.36719 0.125,5.84375 -0.77549,1.65801 -1.43178,4.13659 -1.46875,5.53125 -0.12921,4.87482 -1.22686,5.36125 -9.875,4.34375 -4.35349,-0.5122 -8.30422,-0.66012 -8.78125,-0.34375 -0.47704,0.31636 -1.52783,2.86693 -2.3125,5.65625 -1.50879,5.36347 -6.46507,11.9402 -9.40625,12.46875 -1.04835,0.18839 -3.48851,-1.74522 -6,-4.8125 -2.31168,-2.82327 -4.96615,-5.18582 -5.90625,-5.28125 -0.94011,-0.0954 -2.45724,-0.28204 -3.375,-0.40625 -0.91774,-0.12421 -2.26646,-0.3157 -3.03125,-0.375 -2.72483,-0.21127 -1.3371,-1.96043 4.125,-5.15625 7.26333,-4.24972 13.18269,-5.02645 16.0625,-2.125 1.16557,1.17432 1.90743,2.23707 1.65625,2.375 -0.25119,0.13794 -2.11969,1.32256 -4.15625,2.625 -4.45893,2.85158 -6.48763,1.89762 -2.125,-1 1.68144,-1.11678 3.0625,-2.4574 3.0625,-2.96875 0,-1.64111 -6.62695,-0.98403 -11.09375,1.09375 -5.44552,2.53303 -6.57025,4.0625 -2.96875,4.0625 1.93638,0 4.29363,1.5497 7.84375,5.25 l 5.03125,5.3125 2.96875,-2.5 c 5.06808,-4.26227 7.91353,-13.27179 4.59375,-14.5 -1.10499,-0.4088 -1.09613,-0.69772 0,-1.40625 0.75876,-0.49039 4.77032,-0.54428 8.90625,-0.125 12.99671,1.31752 12.0825,1.67775 13.59375,-5.625 2.31122,-11.1685 -1.26397,-13.29093 -11.5625,-6.875 -2.40593,1.49888 -5.16583,3.9694 -6.125,5.5 -1.81674,2.89906 -3.40625,3.66826 -3.40625,1.625 0,-1.86329 9.87336,-10.02907 14.0625,-11.625 1.1305,-0.43069 2.13353,-0.72841 3.0625,-0.8125 0.34836,-0.0315 0.6753,-0.0507 1,-0.0312 z m -2.40625,7.78125 c 0.30347,-0.0127 0.52935,0.0432 0.6875,0.1875 0.76252,0.69525 1.06326,0.45686 -5.5,4.5 -6.68827,4.12016 -9.18047,4.16272 -3.53125,0.0625 4.34175,-3.15127 7.02874,-4.69495 8.34375,-4.75 z" id="path3921" style="fill:#ffffff;fill-opacity:1" />
  <path d="m 358.69562,302.80226 c -2.49997,-1.99998 -0.39999,-3.09996 -2.69996,-1.69998 -2.29997,1.39998 -5.39993,4.69994 -4.99994,5.39993 0.4,0.7 0.2,1.09999 2.49997,0.6 2.29997,-0.5 6.0304,-3.63557 5.19993,-4.29995 z" id="path4063" style="fill:#ffffff;fill-opacity:1;stroke:none" />
  <path d="m 368.16307,292.40514 c 0.59728,-5.87155 -1.19188,-1.11011 -3.49995,0.3 -2.29767,1.40375 -5.19994,2.89996 -4.79994,3.59995 0.39999,0.7 2.731,2.61405 4.89994,1.69999 2.68283,-1.13064 3.84048,-5.69003 3.39995,-5.59994 z" id="path4063-6" style="fill:#ffffff;fill-opacity:1;stroke:none" />
  <path d="m 336.00364,311.25848 c -2.49997,-1.99998 6.09994,-4.29995 1.79999,-4.79995 -0.66863,-0.0777 -2.09997,-1.18123 -2.70778,-0.66405 -0.60781,0.51718 -1.29842,2.58278 -1.80467,3.12652 -0.50624,0.54374 -0.72811,-4.53432 -0.99842,-4.10464 -0.27031,0.42969 -0.58906,6.36711 -0.48906,6.54211 0.39999,0.7 2.26967,2.03113 4.59994,1.69999 6.41244,-0.91125 0.3304,-1.87302 -0.4,-1.79998 z" id="path4063-6-1" style="fill:#ffffff;fill-opacity:1;stroke:none" />
  <path d="m 362.54485,280.50102 c 1.43892,-2.27581 0.85079,-3.20927 0.18153,-3.65879 -0.66927,-0.44952 0.0323,1.10324 -1.80637,2.57269 -4.30218,3.55766 0.0909,4.00677 1.62484,1.0861 z" id="path4063-2" style="fill:#ffffff;fill-opacity:1;stroke:none" />
  <path d="m 261.99851,330.63944 c 20.59928,-46.89778 37.0632,-99.18131 35.79524,-92.66202 -2.23591,11.49598 -13.78328,41.85588 -21.1097,60.55577 -7.0533,18.00278 -14.29386,43.5238 -14.68554,32.10625 z" id="path4119" style="fill:#000000;fill-opacity:1;stroke:none" />
  <path d="m 246.38136,370.14887 c 18.63289,-30.55461 34.9113,-69.54715 31.38114,-59.29749 -3.53014,10.24964 -11.2426,26.86378 -18.21645,38.43274 -6.97386,11.56896 -13.91331,28.79432 -13.16469,20.86475 z" id="path4119-9" style="fill:#000000;fill-opacity:1;stroke:none" />
  <path d="m 291.95466,252.16057 c 13.29227,-33.22776 22.85965,-74.38442 21.08313,-63.69042 -1.77649,10.69397 -6.61867,28.35933 -11.57151,40.92695 -4.95286,12.5676 -8.93114,30.70712 -9.51162,22.76347 z" id="path4119-3" style="fill:#000000;fill-opacity:1;stroke:none" />
  <path d="m 299.67287,249.86907 c 13.04998,-33.32366 22.31744,-74.54889 20.61884,-63.84225 -1.69858,10.70663 -6.41201,28.40678 -11.27322,41.01012 -4.86122,12.60333 -8.70732,30.77134 -9.34562,22.83213 z" id="path4119-1" style="fill:#000000;fill-opacity:1;stroke:none" />
  <path d="m 278.30735,305.67149 c 11.52196,-26.23172 18.69852,-59.10745 18.60744,-50.4152 -0.0451,4.30948 -6.09441,22.53313 -10.39326,32.45695 -4.29884,9.92381 -7.9951,24.34452 -8.21418,17.95825 z" id="path4119-94" style="fill:#000000;fill-opacity:1;stroke:none" />
  <path d="m 239.58115,374.83706 c 20.45322,-29.36724 32.53892,-57.77919 28.39311,-47.76271 -4.14579,10.01646 -12.85252,26.13181 -20.51576,37.25612 -7.66324,11.12431 -9.10592,18.3761 -7.87735,10.50659 z" id="path4119-9-7" style="fill:#000000;fill-opacity:1;stroke:none" />
  <path d="m 230.86629,379.86782 c 22.35987,-27.9429 30.94143,-44.74442 26.13905,-35.02564 -4.80236,9.71876 -7.15289,11.88531 -15.53854,22.47568 -8.38566,10.59038 -9.87641,14.36362 -10.60051,12.54996 z" id="path4119-9-8" style="fill:#000000;fill-opacity:1;stroke:none" />
</svg>
