<?xml version="1.0" encoding="UTF-8" standalone="no"?>
<svg xmlns:dc="http://purl.org/dc/elements/1.1/" xmlns:cc="http://creativecommons.org/ns#" xmlns:rdf="http://www.w3.org/1999/02/22-rdf-syntax-ns#" xmlns:svg="http://www.w3.org/2000/svg" xmlns="http://www.w3.org/2000/svg" id="svg8" version="1.1" viewBox="0 0 75.597656 24.271484" height="24.271484mm" width="75.597656mm">
  <defs id="defs2" />
  <metadata id="metadata5">
    <rdf:RDF>
      <cc:Work rdf:about="">
        <dc:format>image/svg+xml</dc:format>
        <dc:type rdf:resource="http://purl.org/dc/dcmitype/StillImage" />
        <dc:title></dc:title>
      </cc:Work>
    </rdf:RDF>
  </metadata>
  <g transform="translate(2.0820312,2.0820312)" id="layer1">
    <path d="m 13.269531,-1.0820312 c -3.1297,0 -5.1450345,0.0909585 -6.7617185,0.42773432 C 4.8911285,-0.31752102 3.6992821,0.30325147 2.4707031,1.1855469 -0.03445417,2.9846082 -1.0820312,5.1398558 -1.0820312,7.9375 c 0,2.837528 1.19658426,4.995676 3.6367187,6.748047 2.4401768,1.752401 4.8141172,2.271484 8.4335935,2.271484 h 1.859375 v 1.035157 2.115234 a 1.0826079,1.0826079 0 0 0 1.082032,1.082031 h 2.470703 2.46875 a 1.0826079,1.0826079 0 0 0 1.082031,-1.082031 V 13.052734 5.9980469 A 1.0826079,1.0826079 0 0 0 18.869141,4.9160156 H 14.8125 10.755859 A 1.0826079,1.0826079 0 0 0 9.6738281,5.9980469 v 1.7636719 1.7636718 a 1.0826079,1.0826079 0 0 0 1.0820309,1.0820314 h 1.587891 0.503906 v 0.328125 0.330078 h -1.398437 c -2.6945438,0 -4.2049939,-0.87522 -4.9082034,-1.7109375 -0.5783795,-0.6873672 -0.7768107,-2.3111878 0,-3.234375 C 7.0359782,5.732084 7.4381291,5.3957822 8.4765625,5.0957031 9.5149959,4.7956241 11.195297,4.609375 13.919922,4.609375 h 4.949219 A 1.0826079,1.0826079 0 0 0 19.951172,3.5273438 V 1.7636719 0 A 1.0826079,1.0826079 0 0 0 18.869141,-1.0820312 Z M 21.339844,0.328125 A 1.0826079,1.0826079 0 0 0 20.257812,1.4101562 V 8.6425781 15.875 a 1.0826079,1.0826079 0 0 0 1.082032,1.082031 h 2.101562 2.205078 A 1.0826079,1.0826079 0 0 0 26.728516,15.875 v -2.734375 -1.751953 h 3.166015 3.0625 V 13.041016 15.875 a 1.0826079,1.0826079 0 0 0 1.082031,1.082031 h 2.117188 2.115234 A 1.0826079,1.0826079 0 0 0 39.353516,15.875 V 8.6425781 1.4101562 A 1.0826079,1.0826079 0 0 0 38.271484,0.328125 H 36.15625 34.039062 A 1.0826079,1.0826079 0 0 0 32.957031,1.4101562 V 4.2324219 5.9726562 H 29.804688 26.728516 V 4.2324219 1.4101562 A 1.0826079,1.0826079 0 0 0 25.646484,0.328125 h -2.191406 z m 19.402344,0 A 1.0826079,1.0826079 0 0 0 39.660156,1.4101562 V 8.6425781 15.875 a 1.0826079,1.0826079 0 0 0 1.082032,1.082031 h 2.292968 2.292969 A 1.0826079,1.0826079 0 0 0 46.410156,15.875 V 8.6425781 1.4101562 A 1.0826079,1.0826079 0 0 0 45.328125,0.328125 h -2.292969 z m 7.054687,0 A 1.0826079,1.0826079 0 0 0 46.714844,1.4101562 V 8.6425781 15.875 a 1.0826079,1.0826079 0 0 0 1.082031,1.082031 h 2.117187 2.117188 A 1.0826079,1.0826079 0 0 0 53.113281,15.875 v -4.138672 -1.533203 l 2.304688,2.298828 4.15039,4.138672 a 1.0826079,1.0826079 0 0 0 0.763672,0.316406 h 2.199219 2.199219 A 1.0826079,1.0826079 0 0 0 65.8125,15.875 V 8.6425781 1.4101562 A 1.0826079,1.0826079 0 0 0 64.730469,0.328125 H 62.613281 60.498047 A 1.0826079,1.0826079 0 0 0 59.416016,1.4101562 V 5.7265625 7.4375 L 56.933594,4.9609375 52.607422,0.64453125 A 1.0826079,1.0826079 0 0 0 51.84375,0.328125 h -2.023438 z m 19.402344,0 A 1.0826079,1.0826079 0 0 0 66.117188,1.4101562 V 8.6425781 15.875 a 1.0826079,1.0826079 0 0 0 1.082031,1.082031 h 2.117187 2.117188 A 1.0826079,1.0826079 0 0 0 72.515625,15.875 V 8.6425781 1.4101562 A 1.0826079,1.0826079 0 0 0 71.433594,0.328125 h -2.117188 z" id="path107-6" style="fill:#f7f7f7;fill-opacity:1;stroke-width:0.35277778" />
    <path d="M 13.269531,0 C 7.0556942,0 5.4299705,0.39232313 3.1015625,2.0644531 0.7731545,3.7365831 0,5.355993 0,7.9375 c 0,2.58152 0.91578287,4.239121 3.1855469,5.869141 2.269764,1.63002 4.2728743,2.068359 7.8027341,2.068359 h 2.941407 v 2.117188 2.115234 h 2.470703 2.46875 V 13.052734 5.9980469 H 14.8125 10.755859 v 1.7636719 1.7636718 h 1.587891 1.585938 v 1.4101564 1.412109 h -2.480469 c -2.9315613,0 -4.7830674,-0.962816 -5.7363284,-2.095703 -0.953261,-1.1328899 -1.166873,-3.2421561 0,-4.6289061 1.166873,-1.386747 2.6654563,-2.0957031 8.2070314,-2.0957031 h 4.949219 V 1.7636719 0 Z m 8.070313,1.4101562 V 8.6425781 15.875 h 2.101562 2.205078 v -2.734375 -2.833984 h 4.248047 4.144531 V 13.041016 15.875 h 2.117188 2.115234 V 8.6425781 1.4101562 H 36.15625 34.039062 V 4.2324219 7.0546875 H 29.804688 25.646484 V 4.2324219 1.4101562 h -2.191406 z m 19.402344,0 V 8.6425781 15.875 h 2.292968 2.292969 V 8.6425781 1.4101562 h -2.292969 z m 7.054687,0 V 8.6425781 15.875 h 2.117187 2.117188 V 11.736328 7.5957031 l 4.150391,4.1406249 4.15039,4.138672 h 2.199219 2.199219 V 8.6425781 1.4101562 H 62.613281 60.498047 V 5.7265625 10.042969 L 56.169922,5.7265625 51.84375,1.4101562 h -2.023438 z m 19.402344,0 V 8.6425781 15.875 h 2.117187 2.117188 V 8.6425781 1.4101562 h -2.117188 z" id="path107" style="fill:#000000;stroke-width:0.35277778" />
  </g>
</svg>
