<?xml version="1.0" encoding="UTF-8" standalone="no"?>
<svg xmlns:dc="http://purl.org/dc/elements/1.1/" xmlns:cc="http://creativecommons.org/ns#" xmlns:rdf="http://www.w3.org/1999/02/22-rdf-syntax-ns#" xmlns:svg="http://www.w3.org/2000/svg" xmlns="http://www.w3.org/2000/svg" xmlns:xlink="http://www.w3.org/1999/xlink" version="1.0" id="svg7854" height="51.200001" width="51.200001">
  <defs id="defs7856">
    <linearGradient id="linearGradient7577">
      <stop id="stop7579" offset="0" style="stop-color:#000000;stop-opacity:0.3137255;" />
      <stop id="stop7581" offset="1" style="stop-color:#ffffff;stop-opacity:1" />
    </linearGradient>
    <linearGradient id="linearGradient7305">
      <stop id="stop7307" offset="0" style="stop-color:#ffffff;stop-opacity:1" />
      <stop style="stop-color:#ffffff;stop-opacity:0;" offset="0.20971029" id="stop7313" />
      <stop id="stop7329" offset="0.34936365" style="stop-color:#ffffff;stop-opacity:0.81065089;" />
      <stop style="stop-color:#ffffff;stop-opacity:0;" offset="0.42850056" id="stop7321" />
      <stop id="stop7323" offset="0.52134049" style="stop-color:#ffffff;stop-opacity:1;" />
      <stop style="stop-color:#ffffff;stop-opacity:0;" offset="0.55746967" id="stop7317" />
      <stop id="stop7319" offset="0.71001518" style="stop-color:#ffffff;stop-opacity:0.56804734;" />
      <stop style="stop-color:#ffffff;stop-opacity:0;" offset="0.74394959" id="stop7416" />
      <stop id="stop7309" offset="1" style="stop-color:#ffffff;stop-opacity:0" />
    </linearGradient>
    <linearGradient id="linearGradient7344">
      <stop style="stop-color:#eeeeec;stop-opacity:1" offset="0" id="stop7346" />
      <stop style="stop-color:#92948f;stop-opacity:1" offset="1" id="stop7348" />
    </linearGradient>
    <linearGradient y2="25.969481" x2="-123.49838" y1="12.838128" x1="-127.01692" gradientUnits="userSpaceOnUse" id="linearGradient7871" xlink:href="#linearGradient7577" />
    <radialGradient r="13.55237" fy="17.414564" fx="36.455379" cy="17.414564" cx="36.455379" gradientTransform="matrix(0.92479335,0,0,1.9347419,-27.087652,-1.4706542)" gradientUnits="userSpaceOnUse" id="radialGradient7873" xlink:href="#linearGradient7344" />
    <radialGradient r="13.55237" fy="17.414564" fx="36.455379" cy="17.414564" cx="36.455379" gradientTransform="matrix(2.006578,0,0,1.6684737,87.64718,0.42238347)" gradientUnits="userSpaceOnUse" id="radialGradient7875" xlink:href="#linearGradient7344" />
    <linearGradient y2="37.831978" x2="48.128452" y1="10.04301" x1="-0.0034508049" gradientUnits="userSpaceOnUse" id="linearGradient7877" xlink:href="#linearGradient7305" />
    <linearGradient xlink:href="#linearGradient7577" id="linearGradient7865" gradientUnits="userSpaceOnUse" x1="-177.27766" y1="9.2039175" x2="-172.82857" y2="25.808161" />
    <radialGradient xlink:href="#linearGradient7344" id="radialGradient7867" gradientUnits="userSpaceOnUse" gradientTransform="matrix(2.9217775,0,0,2.3977169,-293.18117,-11.395715)" cx="36.126339" cy="18.020473" fx="36.126339" fy="18.020473" r="13.55237" />
    <linearGradient xlink:href="#linearGradient7305" id="linearGradient7869" gradientUnits="userSpaceOnUse" x1="-0.11694507" y1="10.14653" x2="48.025963" y2="37.941853" />
  </defs>
  <metadata id="metadata7859">
    <rdf:RDF>
      <cc:Work rdf:about="">
        <dc:format>image/svg+xml</dc:format>
        <dc:type rdf:resource="http://purl.org/dc/dcmitype/StillImage" />
        <dc:creator>
          <cc:Agent>
            <dc:title>Lapo Calamandrei</dc:title>
          </cc:Agent>
        </dc:creator>
        <dc:source />
        <cc:license rdf:resource="http://creativecommons.org/licenses/GPL/2.0/" />
        <dc:title></dc:title>
        <dc:subject>
          <rdf:Bag>
            <rdf:li>seek</rdf:li>
            <rdf:li>forward</rdf:li>
            <rdf:li>ff</rdf:li>
          </rdf:Bag>
        </dc:subject>
      </cc:Work>
      <cc:License rdf:about="http://creativecommons.org/licenses/GPL/2.0/">
        <cc:permits rdf:resource="http://web.resource.org/cc/Reproduction" />
        <cc:permits rdf:resource="http://web.resource.org/cc/Distribution" />
        <cc:requires rdf:resource="http://web.resource.org/cc/Notice" />
        <cc:permits rdf:resource="http://web.resource.org/cc/DerivativeWorks" />
        <cc:requires rdf:resource="http://web.resource.org/cc/ShareAlike" />
        <cc:requires rdf:resource="http://web.resource.org/cc/SourceCode" />
      </cc:License>
    </rdf:RDF>
  </metadata>
  <path d="m 31.295175,5.03663 c -0.247105,0.00902 -0.439741,0.067656 -0.77274,0.2066622 l -0.593027,0.25158 -0.54211,-0.188687 c -0.872843,-0.3023939 -1.882778,-0.2705525 -3.063982,0.095843 -1.858507,0.5764807 -3.337854,1.5516694 -4.291964,2.8303612 -1.079776,1.447114 -2.316334,4.2768846 -2.653641,6.0740386 -0.06024,0.320807 -0.183086,0.977406 -0.272555,1.458618 -0.549027,2.952613 -0.724191,5.625625 -0.437291,6.708992 0.08496,0.320808 0.159646,0.652506 0.161736,0.739797 0.0016,0.09017 -0.290865,0.334969 -0.67988,0.566069 -0.376536,0.22368 -1.08402,0.791033 -1.572421,1.257932 -0.709168,0.677949 -1.063365,1.130383 -1.755132,2.252308 -1.185042,1.921951 -1.644824,3.014485 -2.063613,4.911958 -0.117074,0.530438 -0.287363,1.203472 -0.377382,1.497545 -0.380191,1.140707 -0.383422,2.736424 -0.380374,3.471306 0.0032,0.734882 0.372762,1.520626 0.521143,1.638314 0.244208,0.193706 0.681842,1.166261 2.464962,2.908237 0.441344,0.431164 1.413661,1.365608 2.04946,1.86517 9.775886,0.03048 16.77951,0.170424 21.785675,0.0355 0.770681,0.004 1.535657,-0.0097 2.2849,-0.04827 0.749243,-0.03854 2.005931,0.05481 2.713678,-0.04157 0.70774,-0.09635 0.918862,-0.539365 1.565049,-0.708928 0.646196,-0.169555 0.890356,-1.164331 1.454925,-1.422501 0.564569,-0.25817 0.769404,-0.773776 1.232282,-1.135968 0.462885,-0.362191 0.556008,-0.937204 0.897145,-1.41883 0.341144,-0.481627 0.616396,-1.13146 0.815734,-1.747936 0.19933,-0.616476 1.421423,-1.879722 1.45889,-2.646445 0.115438,-2.771545 -0.373976,-4.598458 -0.379553,-9.841149 -0.253064,0.01787 -0.435727,0.01532 -0.446266,-0.01197 -0.132185,-0.342014 -0.335744,-0.570497 -0.530135,-0.596028 -0.154213,-0.02027 -0.251484,-0.124557 -0.296514,-0.311489 -0.07731,-0.320983 -0.225443,-0.449243 -0.608003,-0.530127 -0.0056,-0.09241 -0.02617,-0.233756 -0.08386,-0.446274 -0.01516,-0.05593 -0.140498,-0.23319 -0.308497,-0.386366 -0.214449,-0.195532 -0.368135,-0.229408 -0.533127,-0.221637 -0.296266,0.01396 -0.492956,0.05441 -0.613986,0.104835 -0.163436,-0.162654 -0.601812,-0.281355 -0.988385,-0.239613 -0.419979,0.0454 -0.530031,0.01931 -0.733797,-0.173712 -0.152641,-0.144606 -0.319891,-0.222355 -0.449259,-0.173719 -0.18039,0.06781 -0.325395,0.139165 -0.413324,0.20067 -0.126345,-0.201412 -0.298253,-0.37447 -0.482209,-0.464234 -0.297559,-0.145205 -1.471775,-0.08822 -1.695223,0.08086 -0.09574,0.07244 -0.468048,-0.10434 -1.356776,-0.646937 -0.672978,-0.410875 -1.3946,-0.868295 -1.605371,-1.015335 -0.432704,-0.301852 -0.652131,-0.33426 -0.844616,-0.122794 -0.151213,0.166124 -1.074702,0.437283 -1.488561,0.437283 -0.269459,0 -0.283118,0.0296 -0.470225,1.045286 -0.177709,0.964633 -0.742318,2.77835 -0.928484,2.977114 -0.0438,0.04675 -0.293634,-0.0064 -0.551094,-0.119794 -0.257452,-0.113636 -0.607795,-0.206663 -0.781723,-0.206663 -0.280238,0 -0.33003,-0.04811 -0.449258,-0.416324 -0.113659,-0.350982 -0.10908,-0.472324 0.03,-0.775723 0.09051,-0.197519 0.161729,-0.490809 0.161729,-0.652929 0,-0.245963 0.04196,-0.293522 0.254579,-0.293522 0.140108,0 0.367737,-0.08653 0.506176,-0.191686 l 0.25158,-0.191687 -0.359407,-0.0032 c -0.358984,-0.0032 -0.359574,-0.0048 -0.281538,-0.368398 0.04308,-0.200495 0.134937,-0.867689 0.20367,-1.482561 0.06869,-0.614881 0.182807,-1.213038 0.25458,-1.329825 0.0718,-0.116786 0.131786,-0.47293 0.131786,-0.790698 0,-0.384962 0.05018,-0.617258 0.152744,-0.694863 0.178858,-0.135344 0.512415,-1.050241 0.700855,-1.919861 0.180198,-0.831571 0.0647,-2.698344 -0.26058,-4.169161 -0.772964,-3.4948797 -2.12658,-5.2478259 -4.196121,-5.4450497 -0.136047,-0.013005 -0.248988,-0.022339 -0.350424,-0.024015 -0.03806,-5.745e-4 -0.07555,-0.0016 -0.11081,0 z" id="path4354" style="fill:#000000;stroke-width:0.0958429" />
  <path d="m 22.345841,21.764208 -0.847615,0.416316 c -0.465941,0.229049 -1.360765,0.781763 -1.985738,1.22799 -3.771785,2.69299 -4.533682,3.804584 -6.379551,9.299756 -0.208051,0.619388 -0.555658,2.051798 -0.679888,2.995089 -0.0848,0.644001 -0.190314,1.478668 0.113819,2.030671 0.176751,0.320808 0.386222,0.652387 0.467233,0.736789 0.08102,0.08441 0.146761,0.2236 0.146761,0.308498 0,0.0849 0.03949,0.167871 0.08685,0.185695 0.04739,0.01787 0.232871,0.229623 0.413325,0.470233 0.445516,0.593985 2.333535,2.58968 2.851328,3.013065 0.230669,0.188599 0.544368,0.445341 0.694862,0.57206 0.06,0.0505 0.118431,0.09732 0.176704,0.143761 h 12.693205 c 0.17273,-0.662199 0.269754,-1.221016 0.176711,-1.305857 -0.122435,-0.111633 -2.129259,-1.383351 -3.285619,-2.081589 -0.92771,-0.560181 -3.167772,-1.692534 -3.974482,-2.009704 -0.27735,-0.109048 -0.86307,-0.355019 -1.302866,-0.548102 -0.439805,-0.193091 -0.990428,-0.404165 -1.224998,-0.467242 -0.234554,-0.06303 -0.783047,-0.230533 -1.218998,-0.37139 -0.435951,-0.140841 -1.131141,-0.32301 -1.545462,-0.407333 -0.884643,-0.18003 -1.025277,-0.268853 -0.784715,-0.4882 0.159878,-0.145772 0.240706,-0.138735 1.060262,0.06287 0.48836,0.120153 0.983271,0.276392 1.099195,0.350431 0.115925,0.07404 0.284666,0.134778 0.377382,0.134778 0.09272,0 0.407804,0.104468 0.697855,0.230621 1.831493,0.796538 2.546453,1.093882 3.351504,1.392717 1.103951,0.409782 2.751568,1.235234 2.986114,1.497553 0.02936,0.03279 0.220058,0.138056 0.425292,0.233613 0.20525,0.09555 0.565135,0.313372 0.799697,0.482209 0.234555,0.168829 0.552802,0.356582 0.706839,0.416316 0.154045,0.05968 0.443155,0.234833 0.640953,0.389357 0.19779,0.154532 0.587036,0.399171 0.865575,0.54511 0.278539,0.145939 0.506168,0.307436 0.506168,0.359415 0,0.05417 0.148771,0.07053 0.347431,0.0359 0.190586,-0.03319 0.501293,-0.05792 0.691871,-0.05385 0.190578,0.004 0.347432,-0.02545 0.347432,-0.0659 0,-0.125993 -2.124632,-1.334843 -2.279268,-1.296874 -0.05082,0.01245 -0.195357,-0.03702 -0.320472,-0.110819 -0.125116,-0.0738 -0.356894,-0.164457 -0.518152,-0.20067 -0.161257,-0.03622 -0.293514,-0.11255 -0.293514,-0.17072 0,-0.05816 0.06542,-0.08237 0.146753,-0.05393 0.102338,0.03582 0.131579,-0.0048 0.09584,-0.128786 -0.0312,-0.108793 0.03973,-0.252274 0.179703,-0.359415 0.127366,-0.0975 0.401548,-0.436956 0.608003,-0.757756 0.206455,-0.320808 0.490953,-0.725332 0.63197,-0.895533 0.483222,-0.583255 0.508777,-0.575284 -2.674616,-0.709839 -2.529739,-0.106925 -2.862969,-0.143426 -3.216727,-0.347423 -0.222539,-0.128331 -0.226624,-0.153973 -0.08985,-0.694863 0.576218,-2.278844 0.95786,-5.210171 0.8506,-6.54128 -0.105657,-1.311371 -0.267529,-2.653322 -0.455251,-3.800771 l -0.182701,-1.12616 -0.566069,-0.563077 c -0.310037,-0.309303 -0.754748,-0.878787 -0.988385,-1.266924 z" id="path3925" style="fill:#cff097;fill-opacity:1;stroke-width:0.0958429" />
  <path d="m 29.750877,39.26719 c 0.0434,-0.03957 0.303288,-0.141551 0.577518,-0.226624 0.907557,-0.281546 1.403855,-0.525276 1.470546,-0.722172 0.129209,-0.381491 1.408092,-3.081981 1.645877,-3.47544 0.68572,-1.134635 4.732247,-11.848371 5.002671,-13.245237 0.07244,-0.374271 0.200272,-0.872245 0.284028,-1.1066 0.08377,-0.234371 0.130932,-0.445612 0.104803,-0.469428 -0.02609,-0.02386 -0.327589,0.03135 -0.66993,0.122619 -0.342326,0.09126 -0.673673,0.177781 -0.73631,0.192253 -0.113667,0.02633 -0.294847,0.676234 -0.419293,1.504191 -0.03622,0.240602 -0.324693,1.181141 -0.641176,2.090077 -0.316484,0.908945 -0.795813,2.330696 -1.065176,3.159435 -0.269372,0.828739 -0.612966,1.813031 -0.763549,2.187301 -1.0916,2.713176 -1.698247,4.171419 -2.001869,4.812054 -0.139365,0.294072 -0.427941,0.906511 -0.641281,1.360987 -0.532552,1.1345 -0.675866,1.396683 -1.222213,2.235898 -0.511673,0.785967 -0.973002,1.390013 -1.101286,1.441999 -0.108704,0.04404 -0.101683,0.210628 0.0089,0.210628 0.04883,0 0.124358,-0.03239 0.167752,-0.07196 z" id="path3919" style="fill:#000000;stroke-width:0.0958429" />
  <path id="path3921" d="m 39.253123,19.823388 c -0.01013,6.47e-4 -0.02026,0.0016 -0.02697,0.0056 -0.05385,0.0304 -0.184115,0.397488 -0.287522,0.814665 -0.518295,2.09094 -0.717641,2.702086 -2.243325,6.834795 -1.421072,3.849318 -1.963238,5.152998 -3.255661,7.826178 -0.568709,1.176282 -1.123409,2.356362 -1.230981,2.623691 -0.107579,0.267337 -0.270273,0.554796 -0.362415,0.637954 -0.245516,0.221597 -2.015839,0.967418 -2.297226,0.967418 -0.354301,0 -0.11835,0.19199 0.718822,0.587036 0.974542,0.459877 2.013486,1.064522 2.435004,1.419676 0.213539,0.179911 0.46472,0.254245 1.120162,0.323473 1.137938,0.120169 2.12389,0.338631 2.851328,0.631953 0.45553,0.183693 0.602011,0.209248 0.602011,0.107827 0,-0.286964 -2.75341,-2.338163 -4.603452,-3.429372 -0.424143,-0.250184 -0.713963,-0.469923 -0.643945,-0.491201 0.135447,-0.04117 1.223689,0.526904 1.707198,0.892542 0.159295,0.120456 0.552051,0.38607 0.874567,0.590028 0.896482,0.566938 2.868872,2.172884 3.043014,2.479937 0.08517,0.150168 0.358235,0.401142 0.608011,0.554094 0.268199,0.164233 0.423122,0.108002 0.485193,0.26993 h 0.530135 c 0.128714,-0.265191 0.309535,-0.423098 0.515159,-0.833007 1.053871,-2.100881 2.059737,-4.396001 3.102909,-7.089382 0.09319,-0.240602 0.205353,-0.567402 0.251595,-0.727806 0.04628,-0.160403 0.214434,-0.599131 0.371391,-0.973401 0.156949,-0.374279 0.449833,-1.182186 0.649929,-1.797058 0.301604,-0.926785 0.942246,-2.609554 1.314841,-3.45334 0.342988,-0.776704 0.434156,-1.035417 0.539118,-1.527495 0.112239,-0.526209 0.254636,-0.751277 0.395358,-0.622978 0.03439,0.03135 -0.02537,0.357149 -0.128786,0.718822 -0.164856,0.576752 -0.378332,1.151357 -1.320841,3.522224 -0.116906,0.294064 -0.29365,0.796362 -0.392358,1.11717 -0.09871,0.3208 -0.323217,0.956209 -0.500184,1.410685 -0.176951,0.454476 -0.491639,1.286566 -0.697846,1.847976 -0.474766,1.292534 -1.477623,3.703938 -1.838985,4.423741 -0.05369,0.106941 -0.343378,0.718167 -0.643953,1.359775 -0.300567,0.641608 -0.764027,1.625014 -1.030303,2.186416 -0.1073,0.226217 -0.203152,0.238312 -0.284538,0.437658 h 1.988178 c -0.837658,-0.04396 -0.981419,-0.0072 -0.921925,-0.135153 0.03965,-0.08529 0.09418,-0.254085 0.122794,-0.374382 0.03933,-0.16527 0.100694,-0.208409 0.401341,-0.215653 0.043,-0.0016 0.09344,-1.84e-4 0.146761,0 0.608497,0.0016 2.461324,0.254444 2.554814,0.347431 0.03758,0.03734 -0.121853,0.0379 -0.356415,0.0032 -0.234562,-0.03487 -0.872604,-0.09148 -1.416677,-0.125794 -0.892948,-0.05633 -1.002019,-0.04316 -1.135137,0.122802 -0.1721,0.214593 -0.12305,0.345246 0.101835,0.266556 0.151556,-0.05306 1.76749,-0.0454 2.435004,0.111201 h 1.236973 c 1.35435,-1.161059 2.918521,-2.515999 3.728886,-3.627434 0.143258,-0.196473 0.440203,-0.603734 0.65892,-0.904516 0.744153,-1.023378 1.541849,-2.686864 2.201391,-4.519593 v -4.765189 c -0.01891,0.004 -0.03335,0.0084 -0.05393,0.01197 -0.219898,0.03806 -1.167306,0.109949 -2.105548,0.158736 -0.938241,0.04875 -1.942327,0.1148 -2.228349,0.146761 -0.314864,0.03518 -0.495852,0.02258 -0.45825,-0.03295 0.08325,-0.122818 1.560509,-0.302282 3.00408,-0.365399 0.645039,-0.02816 1.401702,-0.08042 1.68024,-0.11381 0.0596,-0.0072 0.112343,-0.01189 0.161745,-0.015 v -1.620338 c -0.27692,-0.01317 -0.602275,-0.03112 -0.934468,-0.0509 -0.557085,-0.03319 -1.313748,-0.05768 -1.680248,-0.05393 -0.366507,0.004 -0.664912,-0.03199 -0.664912,-0.08088 0,-0.02577 0.197974,-0.03662 0.503176,-0.03893 0.722747,-0.0048 2.038929,0.04404 2.776452,0.110819 v -1.602371 c -0.03718,0.004 -0.05569,0.0048 -0.09585,0.009 -0.49065,0.04675 -0.975604,0.113204 -1.078228,0.149753 -0.129161,0.04603 -0.188695,0.02122 -0.188695,-0.08386 0,-0.160308 0.209127,-0.215008 1.362775,-0.338448 V 24.813 c -0.101237,0.01683 -0.207756,0.0351 -0.329465,0.05696 -0.560979,0.100463 -0.634124,0.145836 -0.820657,0.479217 -0.271868,0.485903 -0.394431,0.535457 -0.676887,0.293514 l -0.233613,-0.19767 -0.200671,0.335448 c -0.15805,0.267584 -0.263946,0.33844 -0.512159,0.33844 -0.172308,0 -0.448884,-0.07141 -0.611003,-0.158737 -0.28106,-0.15138 -0.308569,-0.149122 -0.63197,0.06893 -0.415191,0.279879 -0.646538,0.18524 -0.934467,-0.380382 -0.0085,-0.0166 -0.300679,0.02649 -0.652921,0.09284 -0.566141,0.106622 -0.674582,0.101396 -0.9195,-0.04492 -0.152394,-0.09104 -0.275547,-0.248253 -0.275547,-0.347432 0,-0.345293 0.316515,-0.867242 0.700854,-1.156105 0.378388,-0.284386 0.381898,-0.297694 0.188687,-0.482209 -0.108656,-0.103765 -0.249705,-0.269515 -0.314481,-0.37139 -0.101747,-0.160013 -0.143952,-0.169363 -0.296522,-0.05393 -0.366699,0.277485 -1.670442,-0.409112 -2.05163,-1.081229 -0.07117,-0.125419 -0.155601,-0.365725 -0.179703,-0.521143 -0.07548,0.05593 -0.245764,-0.01165 -0.625978,-0.242604 -1.383734,-0.840475 -2.079539,-1.273873 -2.342161,-1.461603 -0.135982,-0.0972 -0.2824,-0.161935 -0.353423,-0.155744 z m 3.321554,1.859952 c 0.0081,-0.0056 0.01795,-0.01205 0.02401,-0.0209 0.01963,-0.02904 0.0442,-0.05385 0.07189,-0.07188 -0.03678,-0.0426 -0.07069,-0.06542 -0.08985,-0.04795 -0.01899,0.01739 -0.01644,0.073 -0.0056,0.14077 z m -1.006911,21.786664 c 0.03941,0.0016 0.05968,0.0016 0.102394,0.0048 0.219738,0.01269 0.439716,0.0048 0.64357,-0.0048 z m 0.745964,0 h 0.650312 c -0.148396,-0.02553 -0.384467,-0.01181 -0.650312,0 z M 38.905692,19.961166 c -0.478108,0.311768 -0.956536,0.530597 -1.434644,0.554093 -0.334706,1.486583 -0.83793,3.014668 -1.461602,4.573502 l -1.812034,5.388167 c -0.57893,1.720962 -1.962137,5.216179 -3.069965,6.520306 l -1.982754,2.333184 c 0.885449,-0.194343 1.930264,-0.432655 2.530855,-1.054277 0,0 1.243197,-2.484462 1.803043,-3.755837 1.298669,-2.949246 3.603092,-8.9733 3.603092,-8.9733 z m 0.71583,1.198039 c 0.04994,0 0.2266,0.1043 0.392357,0.230613 0.165757,0.12632 0.828539,0.546482 1.473578,0.934475 1.187052,0.713995 2.73364,1.659648 2.818385,1.722174 0.02537,0.01875 0.0016,0.07476 -0.05385,0.125794 -0.06462,0.05896 -0.294966,-0.04627 -0.63197,-0.28753 -0.291958,-0.208984 -0.939199,-0.606862 -1.437636,-0.886542 -0.498445,-0.27968 -1.215144,-0.721079 -1.590396,-0.979393 -0.375244,-0.25833 -0.723992,-0.470234 -0.775723,-0.470234 -0.118222,0 -0.166084,0.133078 -0.239612,0.667904 -0.106639,0.775652 -0.724694,2.46312 -1.14113,3.1149 -0.116045,0.181626 -0.169882,0.363875 -0.122794,0.404333 0.04707,0.04045 0.712686,0.362438 1.482561,0.715829 0.769891,0.353384 2.035091,1.01382 2.809402,1.467594 0.774303,0.453767 1.423498,0.823649 1.443635,0.823649 0.06119,0 0.532273,-0.980789 0.805674,-1.677256 0.141679,-0.360907 0.293945,-0.655921 0.338448,-0.655921 0.107851,0 0.111162,-0.0084 -0.116803,0.593028 -0.365127,0.963261 -0.910301,2.030671 -1.03631,2.030671 -0.06845,0 -0.181634,-0.06095 -0.251588,-0.137777 -0.258649,-0.284164 -2.501599,-1.546404 -3.923565,-2.207383 -0.806751,-0.375004 -1.55668,-0.759982 -1.665273,-0.856591 -0.181666,-0.161625 -0.182942,-0.194439 -0.03,-0.407333 0.493442,-0.686653 1.165567,-2.606497 1.296874,-3.704927 0.03678,-0.307444 0.105824,-0.560077 0.155745,-0.560077 z m 0.45825,1.476577 c 0.330669,0.0056 1.4021,0.559415 2.207382,1.147114 0.421183,0.307388 0.188384,0.228283 -0.32048,-0.107819 -0.253471,-0.167417 -0.82116,-0.459511 -1.260932,-0.649937 -0.439772,-0.190418 -0.747265,-0.363803 -0.68288,-0.383374 0.01516,-0.0048 0.03487,-0.0064 0.05697,-0.0056 z m -0.06885,0.575053 c 0.08167,0.004 0.250144,0.07643 0.572061,0.233621 0.541232,0.264241 0.370895,0.308744 -0.239613,0.06287 -0.219603,-0.08843 -0.401038,-0.193522 -0.401341,-0.233621 -2.87e-4,-0.043 0.01987,-0.06518 0.06893,-0.06287 z m -0.266571,0.599019 c 0.265645,0.01955 1.336781,0.516189 1.710198,0.80269 0.160787,0.123353 0.355825,0.245022 0.4313,0.269555 0.07547,0.02457 0.11318,0.06359 0.08385,0.08985 -0.02936,0.02633 -0.318423,-0.101795 -0.640946,-0.28453 -0.322515,-0.182744 -0.851549,-0.445429 -1.17408,-0.584045 -0.322515,-0.138623 -0.527215,-0.268063 -0.455242,-0.29053 0.01005,-0.0032 0.02721,-0.0048 0.04492,-0.0032 z m -0.230621,0.584045 c 0.182783,-0.004 0.78489,0.258696 1.123162,0.497184 0.301365,0.212478 0.201333,0.187578 -0.587044,-0.152753 -0.381156,-0.164537 -0.634986,-0.315829 -0.566069,-0.33844 0.0083,-0.0024 0.01779,-0.0056 0.03,-0.0056 z m -0.194679,0.557085 c 0.222595,0 1.845175,0.852363 2.108539,1.108179 0.238297,0.231467 0.284347,0.370864 0.05393,0.161744 -0.224606,-0.203853 -1.925581,-1.07518 -2.099556,-1.075244 -0.102617,-4e-5 -0.185695,-0.04237 -0.185695,-0.09584 0,-0.05345 0.05545,-0.09884 0.122794,-0.09884 z m -0.332456,0.509168 c 0.276839,0.0217 1.148709,0.380557 1.335808,0.569061 0.101676,0.102441 0.167521,0.181833 0.143769,0.176711 -0.02377,-0.0048 -0.380222,-0.144686 -0.790706,-0.311489 -0.882983,-0.358785 -0.851796,-0.341759 -0.76674,-0.419308 0.0064,-0.0056 0.01628,-0.01013 0.02992,-0.01197 0.01277,-0.0016 0.02944,-0.0048 0.04795,-0.0032 z m 8.790589,1.17108 c 0.148635,-0.0099 -0.01277,0.683358 -0.305498,1.266923 -0.153782,0.306543 -0.278547,0.599132 -0.278547,0.649937 0,0.196387 -0.348261,0.874567 -0.449258,0.874567 -0.05912,0 -0.07196,-0.07627 -0.02992,-0.170728 0.04165,-0.09356 0.161569,-0.388584 0.266563,-0.655921 0.105003,-0.267337 0.292781,-0.697033 0.416325,-0.955434 0.123528,-0.258402 0.221629,-0.571782 0.221629,-0.697855 0,-0.126081 0.05521,-0.261433 0.122802,-0.299514 0.01277,-0.0072 0.02601,-0.01133 0.0359,-0.01197 z m 1.671264,0.362407 c 0.654812,0 1.171551,0.01651 1.147121,0.0359 -0.12001,0.09541 -2.336176,0.154971 -2.336176,0.06287 0,-0.06295 0.442134,-0.09884 1.189055,-0.09884 z m -10.548713,1.003352 c 0.0096,-0.0016 0.01947,-0.0024 0.02697,0 0.162621,0.04875 0.185136,1.048709 0.03,1.320833 -0.160053,0.280669 -0.437993,0.401644 -0.329464,0.143769 0.04883,-0.115869 0.03111,-0.143785 -0.05385,-0.09584 -0.201269,0.11342 -0.152657,-0.789086 0.05992,-1.11717 0.08831,-0.136318 0.199514,-0.24002 0.266556,-0.251588 z m 1.518519,0.0509 0.188688,0.212654 c 0.103789,0.116866 0.188694,0.273489 0.188694,0.350423 0,0.228188 -0.295261,0.687252 -0.488208,0.754764 -0.28165,0.09854 -0.280135,0.01404 0.009,-0.23362 0.161984,-0.138751 0.266564,-0.338967 0.266564,-0.506168 0,-0.365622 -0.227255,-0.350424 -0.581045,0.03295 -0.289564,0.313771 -0.295931,0.49866 -0.009,0.281539 0.08937,-0.06766 0.160611,-0.08558 0.158736,-0.03893 -0.0048,0.119906 -0.268877,0.425299 -0.368398,0.425299 -0.04572,0 -0.146729,0.07715 -0.224622,0.17072 -0.134793,0.161904 -0.143537,0.162909 -0.146768,0 -0.0056,-0.285735 0.432113,-1.036877 0.727813,-1.248948 z m 7.742303,0.110819 c 0.190283,0 0.296027,0.04213 0.25758,0.09884 -0.03622,0.05345 -0.183326,0.09584 -0.326464,0.09584 -0.143139,0 -0.25758,-0.04237 -0.25758,-0.09584 0,-0.05345 0.147088,-0.09884 0.326464,-0.09884 z m -9.266814,0.09884 c -0.110204,0 -0.335448,0.436853 -0.335448,0.649937 0,0.13706 0.02569,0.13631 0.212654,-0.01795 0.117281,-0.09677 0.212654,-0.278953 0.212654,-0.404333 0,-0.125379 -0.04069,-0.227629 -0.08986,-0.227629 z m 9.230872,0.302506 c 0.452059,0.01029 0.474199,0.02058 0.188695,0.08686 -0.471598,0.109414 -0.694863,0.109414 -0.694863,0 0,-0.05345 0.227629,-0.09319 0.506168,-0.08686 z m 0.640945,0.476217 c 0.636821,2.95e-4 1.293484,0.02465 1.374751,0.07189 0.06766,0.03933 -0.495278,0.0718 -1.25194,0.07188 -0.756679,9.6e-5 -1.374751,-0.03167 -1.374751,-0.07188 0,-0.04715 0.615128,-0.0722 1.25194,-0.07189 z m -6.36456,0.015 c 0.06822,-0.0048 0.128969,0.0355 0.17072,0.134778 0.08491,0.201771 -0.16792,0.62597 -0.374382,0.62597 -0.120313,0 -0.132775,0.02776 -0.04492,0.107827 0.06726,0.06135 0.09293,0.25174 0.05992,0.437283 -0.07364,0.413755 0.04946,0.418686 0.413316,0.015 0.340562,-0.377828 0.46591,-0.304013 0.452259,0.269564 -0.01715,0.720951 -0.404892,0.920609 -1.006344,0.515151 -0.172827,-0.116499 -0.350759,-0.178427 -0.395358,-0.137769 -0.0446,0.04069 0.05154,0.159526 0.212654,0.266563 0.161154,0.107037 0.293522,0.25588 0.293522,0.329464 0,0.205633 -0.556311,0.628962 -0.82664,0.628962 -0.266141,0 -0.331044,-0.269164 -0.113819,-0.467234 0.146594,-0.133668 0.119324,-0.166212 -0.206662,-0.257571 -0.175459,-0.04915 -0.239605,-0.02657 -0.239605,0.08086 0,0.08078 -0.101747,0.209055 -0.224629,0.28753 -0.154811,0.09886 -0.199737,0.203479 -0.152753,0.338448 0.124534,0.357771 -0.71871,0.68398 -0.982393,0.380374 -0.154173,-0.177518 -0.109398,-1.262233 0.05393,-1.31185 0.08817,-0.02673 0.134777,0.06606 0.134777,0.272555 v 0.31149 l 0.476226,-0.401341 c 0.262566,-0.22068 0.51922,-0.401341 0.572052,-0.401341 0.0529,0 0.157763,-0.130126 0.230629,-0.29053 0.151301,-0.333055 0.417633,-0.386637 0.500176,-0.09884 0.03072,0.106934 0.0924,0.194679 0.134786,0.194679 0.139955,0 0.346314,-0.526512 0.365399,-0.931467 0.02194,-0.465311 0.292468,-0.885489 0.497184,-0.898526 z m -0.015,0.09715 c -0.03247,0.0016 -2e-4,0.130789 -0.154436,0.254022 -0.412335,0.340977 0.0087,0.384195 0.155744,0.104268 0.137905,-0.218119 0.08155,-0.307715 0.01739,-0.350798 -0.0081,-0.0048 -0.01412,-0.008 -0.01875,-0.0072 z m -3.183784,0.486885 c 0.06654,0.0072 0.112948,0.09536 0.152744,0.260579 0.09094,0.377502 -0.03423,0.77633 -0.278538,0.895533 -0.23931,0.116779 -0.282959,-0.05226 -0.04492,-0.173711 0.184195,-0.09399 0.315007,-0.673465 0.17072,-0.754764 -0.05593,-0.03151 -0.157628,0.04252 -0.227622,0.161728 -0.09794,0.166858 -0.100391,0.225028 -0.0032,0.254588 0.188145,0.0572 -0.07085,0.311481 -0.317481,0.311481 -0.108034,0 -0.248724,0.08775 -0.311489,0.194687 -0.185504,0.316045 -0.31721,0.220648 -0.140769,-0.101827 0.167249,-0.305689 0.114504,-0.688098 -0.07189,-0.518152 -0.177453,0.161784 -0.338886,1.132122 -0.20067,1.210007 0.122938,0.06925 0.03104,0.106933 -0.554094,0.224637 -0.150989,0.0304 -0.32944,0.0032 -0.398349,-0.05992 -0.18603,-0.169619 -0.152625,-0.509088 0.06885,-0.691863 0.21768,-0.179624 0.446267,-0.211354 0.446267,-0.06287 0,0.05353 0.07332,0.09584 0.164736,0.09584 0.09142,0 0.13765,-0.043 0.101835,-0.09584 -0.08411,-0.124087 0.326193,-0.97341 0.470226,-0.97341 0.06024,0 0.147136,0.138232 0.194678,0.305506 l 0.08686,0.302505 0.290522,-0.401349 c 0.193498,-0.266603 0.315766,-0.392389 0.401341,-0.383365 z m 1.25794,0.392365 c 0.02034,-0.0016 0.04125,-0.0024 0.05992,0 0.294942,0.0379 0.46642,0.326783 0.32048,0.53911 -0.16701,0.242972 -0.982465,0.290459 -1.078236,0.06287 -0.08156,-0.193793 0.392365,-0.585552 0.697863,-0.602011 z m 0.11681,0.119802 c -0.06255,0.0016 -0.138105,0.01907 -0.215654,0.05696 -0.216467,0.105625 -0.220385,0.127765 -0.05992,0.209654 0.09857,0.05026 0.146538,0.137562 0.107827,0.194679 -0.03989,0.0588 -0.01069,0.08407 0.06885,0.05992 0.07731,-0.02346 0.193067,-0.114752 0.25458,-0.203662 0.129264,-0.186844 0.03199,-0.323608 -0.155737,-0.317481 z m 2.326052,0.226313 c -0.05569,0.0082 -0.17435,0.218039 -0.312606,0.302505 -0.220217,0.134539 -0.498461,0.277909 -0.460125,0.344998 0.0383,0.0671 0.261792,0.250655 0.469667,0.163045 0.257133,-0.108361 0.367944,-0.545501 0.325715,-0.536868 0.02146,-0.211026 0.01077,-0.278587 -0.02258,-0.27368 z m 6.461537,0.08218 c 0.07013,-0.01093 0.144822,0.02194 0.26058,0.09584 0.203263,0.129823 0.233612,0.237275 0.233612,0.862591 0,0.393602 -0.02944,0.788009 -0.0659,0.874566 -0.09903,0.235264 -0.611777,0.440283 -1.099196,0.440283 -0.401915,0 -0.434291,-0.01891 -0.434291,-0.272555 0,-0.302498 0.729784,-1.75147 0.976401,-1.937828 0.04691,-0.0355 0.08672,-0.05633 0.128786,-0.06287 z m 0.01197,0.242605 c -0.0675,-0.0024 -0.124365,0.04228 -0.20367,0.137777 -0.231658,0.278922 -0.747017,1.491569 -0.664912,1.56643 0.107045,0.0976 0.51188,-0.277661 0.452258,-0.419308 -0.05505,-0.130773 0.200966,-0.422308 0.371391,-0.422308 0.182607,0 0.104212,0.274645 -0.164729,0.566069 -0.146601,0.158856 -0.266555,0.318039 -0.266555,0.350423 0,0.116332 0.268638,0.04819 0.521135,-0.128786 0.225068,-0.157755 0.258577,-0.262422 0.266572,-0.835632 0.0072,-0.520178 -0.028,-0.678435 -0.17372,-0.763748 -0.05473,-0.03207 -0.0973,-0.04946 -0.13777,-0.0509 z m -8.113517,0.01628 c -0.02066,-0.0024 -0.04412,0.0024 -0.07173,0.01963 -0.220433,0.134172 -0.424518,0.492804 -0.386182,0.559894 0.0383,0.0671 0.01923,0.105386 0.239604,0.05744 0.220441,-0.04795 0.654278,-0.179113 0.574686,-0.242788 -0.209654,0.06207 -0.211561,-0.374111 -0.356415,-0.394232 z m -3.881828,0.187375 c -0.04268,0.0024 -0.09435,0.0284 -0.155744,0.07492 -0.262311,0.198484 -0.202825,0.4882 0.09884,0.4882 0.213101,0 0.25399,-0.04268 0.230621,-0.242604 -0.02601,-0.222587 -0.07978,-0.326449 -0.173712,-0.320473 z m 1.207023,0.203662 c 0.04133,-0.004 0.07922,0.03702 0.140761,0.113819 0.181794,0.226672 0.195038,0.84464 0.02098,1.003352 -0.225698,0.205777 -0.308665,0.124518 -0.128794,-0.125794 0.10912,-0.151843 0.146873,-0.332472 0.104827,-0.485209 -0.0911,-0.330972 -0.266874,-0.30868 -0.344431,0.04492 -0.03495,0.159535 -0.107237,0.26863 -0.158745,0.239605 -0.136333,-0.07683 -0.115151,-0.153311 0.134778,-0.527135 0.120153,-0.179711 0.177477,-0.258322 0.230629,-0.263563 z m 2.018129,0.231371 c -0.0209,5.83e-4 -0.05042,0.01149 -0.09173,0.0367 -0.220433,0.134179 -0.568463,0.425036 -0.530135,0.492126 0.0383,0.0671 0.23844,-0.09363 0.314864,0.129536 -0.0083,-0.251237 0.450982,-0.331483 0.37139,-0.395166 -0.04324,-0.07316 0.02625,-0.265566 -0.06439,-0.263189 z m 1.253065,0.08573 c -0.01588,0.0056 -0.04468,0.02449 -0.09977,0.058 -0.220441,0.134179 -0.517553,0.450503 -0.479217,0.517592 0.03829,0.0671 0.01915,0.105386 0.239612,0.05744 0.220433,-0.04795 0.577893,-0.348341 0.498301,-0.412008 -0.179703,-0.143769 -0.111297,-0.239054 -0.158928,-0.221079 z m 5.492436,0.329832 0.239613,0.269563 c 0.131642,0.147662 0.242309,0.306742 0.242604,0.353415 6.46e-4,0.161377 0.968599,1.323833 1.102195,1.323833 0.07372,0 0.181363,-0.183725 0.236605,-0.407333 0.124733,-0.504891 0.301596,-0.567521 0.518151,-0.185687 0.318806,0.562112 0.138249,1.721767 -0.40134,2.548815 -0.479983,0.735679 -1.843357,1.937101 -2.1954,1.934827 -0.102322,-6.46e-4 -0.02146,-0.105465 0.206654,-0.266563 0.931931,-0.658179 1.6158,-1.349252 1.946812,-1.961778 0.300096,-0.555307 0.344431,-0.731771 0.344431,-1.404701 0,-0.849212 -0.197048,-1.138537 -0.329456,-0.482209 -0.0675,0.334674 -0.195094,0.514018 -0.374382,0.518151 -0.03558,6.46e-4 -0.276233,-0.265383 -0.533127,-0.587036 -0.325276,-0.407269 -0.516659,-0.563125 -0.62897,-0.521151 -0.43394,0.162183 -0.722835,0.193561 -1.039302,0.11681 -0.49298,-0.119563 -0.446091,-0.375802 0.158744,-0.850599 z m -7.859113,0.08237 c -0.0016,-0.0016 -0.0032,-6.47e-4 -0.0048,0.0016 -0.02593,0.04117 -0.05657,0.610325 -0.04699,0.627095 0.0383,0.0671 0.21768,0.194591 0.441025,0.162854 0.614585,-0.08733 0.03167,-0.179592 -0.03838,-0.172587 -0.239605,-0.191687 0.584523,-0.412016 0.172403,-0.459934 -0.06407,-0.0072 -0.201197,-0.113212 -0.259447,-0.06367 -0.05832,0.04955 -0.124445,0.247575 -0.172969,0.299698 -0.04548,0.04883 -0.06694,-0.37601 -0.09079,-0.395357 z m -2.000721,0.06742 c 0.221414,0 0.395613,0.502283 0.245596,0.709831 -0.125746,0.173975 -0.156941,0.177597 -0.539118,0.07188 -0.329121,-0.09103 -0.303295,0.08495 0.03295,0.224629 0.149912,0.06231 0.242748,0.156423 0.206662,0.209654 -0.0667,0.09843 -0.140371,0.102992 -0.551094,0.02992 -0.332105,-0.05904 -0.383318,-0.285927 -0.110819,-0.491184 0.129273,-0.09738 0.308139,-0.308681 0.398349,-0.467242 0.0902,-0.158553 0.233182,-0.287522 0.317473,-0.287522 z m 9.886793,0.146761 c -0.214553,0 -0.826649,0.521168 -0.826649,0.703839 0,0.173273 0.04971,0.191543 0.440283,0.143769 0.242628,-0.02968 0.517274,-0.123935 0.608003,-0.206662 0.141783,-0.129281 0.145022,-0.183996 0.02098,-0.395357 -0.07938,-0.135241 -0.189955,-0.245589 -0.242604,-0.245589 z m -9.913752,0.0032 c -0.05489,0.0016 -0.109143,0.04843 -0.146753,0.137769 -0.07204,0.171135 0.19065,0.45549 0.317473,0.34444 0.04986,-0.04364 0.05705,-0.169228 0.01795,-0.281539 -0.0462,-0.132767 -0.118095,-0.202864 -0.188687,-0.20067 z m 13.585737,0.09284 c 0.175028,0 0.0858,0.826785 -0.119811,1.111171 -0.286581,0.396395 -0.776768,0.64073 -0.904509,0.452267 -0.03247,-0.04787 0.01715,-0.110979 0.110811,-0.143769 0.100878,-0.03526 0.145493,-0.120154 0.107819,-0.209654 -0.104707,-0.24882 0.534898,-1.210015 0.80569,-1.210015 z m -0.06287,0.350424 c -0.04005,-0.0016 -0.116843,0.04986 -0.22763,0.164728 -0.144742,0.150024 -0.263563,0.384307 -0.263563,0.518159 0,0.316859 0.188272,0.210093 0.383374,-0.215654 0.139421,-0.304245 0.174549,-0.463699 0.107819,-0.467233 z m -12.004324,0.07188 c 0.04276,-0.0048 0.07571,0.01755 0.107827,0.06287 0.1369,0.193083 0.130924,0.789925 -0.009,0.973402 -0.08001,0.104923 -0.09196,0.0016 -0.04197,-0.365399 0.04588,-0.336716 0.03024,-0.509159 -0.04492,-0.509159 -0.190012,0 -0.419675,0.516428 -0.377374,0.847607 0.04029,0.315949 -0.09541,0.505139 -0.224638,0.314489 -0.03893,-0.05736 -0.04101,-0.208098 -0.0056,-0.335456 0.0351,-0.12735 0.01899,-0.259574 -0.0359,-0.290522 -0.05489,-0.03096 0.06734,-0.219755 0.269555,-0.419316 0.190482,-0.188001 0.291105,-0.270752 0.362407,-0.278547 z m 1.389726,0.368399 c 0.149633,-0.01061 0.255202,0.07005 0.341439,0.242604 0.11429,0.228706 0.09771,0.277023 -0.167728,0.485201 -0.324677,0.254644 -0.600064,0.296091 -0.79669,0.116802 -0.213475,-0.194638 -0.143657,-0.444032 0.182696,-0.65592 0.180661,-0.117297 0.323903,-0.180438 0.440283,-0.188687 z m 0.0659,0.131777 c -0.168335,-8.7e-5 -0.527861,0.187012 -0.575061,0.317489 -0.02417,0.06686 0.04228,0.127557 0.149753,0.131778 0.112071,0.0048 0.139309,0.02577 0.06287,0.05393 -0.145485,0.05353 -0.184538,0.227621 -0.0509,0.227621 0.04564,0 0.190147,-0.06949 0.320473,-0.152744 0.233214,-0.148939 0.317936,-0.471295 0.149753,-0.566077 -0.01476,-0.0083 -0.03287,-0.01197 -0.05696,-0.01197 z m -2.902246,0.353423 c 0.07029,-0.0048 0.05338,0.01636 -0.04492,0.07787 -0.139916,0.08755 -0.134419,0.146234 0.05393,0.467241 0.225428,0.38422 0.361665,0.417569 1.036303,0.263564 0.349873,-0.07987 0.393386,0.07516 0.08686,0.314489 -0.114281,0.08921 -0.18252,0.198668 -0.152753,0.242604 0.107835,0.159072 0.247559,0.07244 0.419316,-0.257587 0.164226,-0.315542 0.516899,-0.527837 0.658913,-0.398341 0.105601,0.09627 0.168741,1.126154 0.06893,1.126154 -0.05122,0 -0.09285,-0.19515 -0.09285,-0.431299 0,-0.540651 -0.104899,-0.635952 -0.398341,-0.368391 l -0.230629,0.209654 0.251596,0.245596 c 0.246059,0.238815 0.170927,0.361378 -0.08088,0.131786 -0.06941,-0.06327 -0.156008,-0.08944 -0.191679,-0.05697 -0.127996,0.116699 0.149513,0.399282 0.494192,0.503176 0.193227,0.05824 0.375842,0.169348 0.404333,0.248596 0.03909,0.108824 0.0048,0.103223 -0.134778,-0.02394 -0.350311,-0.319403 -0.765399,-0.09679 -0.643945,0.344432 0.08725,0.316986 -0.189389,0.414505 -0.619978,0.218645 -0.421901,-0.191902 -0.503184,-0.184881 -0.503184,0.03893 0,0.137626 0.05393,0.172635 0.212653,0.134778 0.117601,-0.028 0.283318,0.0016 0.368399,0.0659 0.08507,0.06439 0.205354,0.08841 0.266563,0.05393 0.06351,-0.03582 0.110811,0.02346 0.110811,0.13777 0,0.245381 0.371741,0.27561 0.515159,0.04197 0.058,-0.09441 0.121845,-0.118758 0.161737,-0.05992 0.112039,0.165287 -0.229417,0.342645 -0.548094,0.284531 -0.220904,-0.04029 -0.331268,-0.0056 -0.425308,0.131786 -0.06981,0.101962 -0.19124,0.162183 -0.269563,0.134777 -0.0943,-0.03303 -0.192126,0.08916 -0.28753,0.365407 -0.07923,0.229392 -0.207907,0.488552 -0.287523,0.575052 -0.127525,0.138552 -0.105138,0.164513 0.191679,0.218646 0.577063,0.105234 0.736797,0.07763 0.736797,-0.131786 0,-0.125953 -0.06989,-0.194679 -0.20067,-0.194679 -0.111011,0 -0.230972,-0.06813 -0.266564,-0.152752 -0.09867,-0.234435 -0.07827,-0.287443 0.06287,-0.158737 0.289685,0.26413 1.045287,0.06079 1.045287,-0.281546 0,-0.159806 -0.04556,-0.185703 -0.239613,-0.131778 -0.131929,0.03662 -0.325667,0.133477 -0.428292,0.215646 -0.107148,0.08579 -0.185695,0.106231 -0.185695,0.04492 0,-0.14278 0.426768,-0.410333 0.655921,-0.410333 0.423521,0 0.363524,0.613325 -0.07787,0.796698 -0.152394,0.06335 -0.243435,0.16646 -0.212646,0.239605 0.06151,0.146139 -0.03423,0.429321 -0.137778,0.407332 -0.03774,-0.008 -0.210451,-0.03455 -0.386373,-0.05696 -0.687962,-0.08753 -1.402108,-0.334434 -1.731158,-0.599019 -0.189556,-0.15241 -0.444001,-0.33635 -0.566077,-0.410325 -0.161018,-0.09757 -0.233397,-0.259366 -0.257571,-0.587036 -0.01835,-0.248412 -0.06303,-0.495245 -0.09884,-0.548101 -0.0359,-0.05282 -0.292804,-0.126552 -0.572068,-0.164729 -0.848845,-0.11606 -1.166437,-0.396857 -0.784715,-0.694862 0.114688,-0.08953 0.174222,-0.232265 0.143761,-0.338448 -0.04268,-0.148876 0.0072,-0.182696 0.263572,-0.182696 0.232727,0 0.347607,-0.06311 0.437291,-0.242604 0.150726,-0.301644 0.293155,-0.310524 0.377382,-0.02402 0.09364,0.318614 0.0819,0.461242 -0.03893,0.461242 -0.05864,0 -0.104827,-0.09802 -0.104827,-0.215645 0,-0.137754 -0.03838,-0.180366 -0.104827,-0.119803 -0.116492,0.106207 -0.02234,0.552147 0.101827,0.482209 0.04412,-0.02489 0.165925,0.03933 0.269563,0.143769 0.10363,0.104412 0.227685,0.167728 0.275547,0.14077 0.107316,-0.06048 0.329089,0.296051 0.236612,0.380366 -0.09949,0.09072 0.313125,0.742788 0.470226,0.742788 0.242932,0 0.549602,-0.360986 0.488201,-0.57506 -0.07069,-0.246371 -0.200695,-0.259782 -0.34144,-0.03295 -0.07739,0.124725 -0.09357,0.04189 -0.06287,-0.308489 0.02298,-0.262862 0.109782,-0.539326 0.191687,-0.613995 0.127469,-0.116236 0.126177,-0.209335 -0.01197,-0.66192 -0.178179,-0.583701 -0.123767,-0.742653 0.17372,-0.497177 0.107596,0.08878 0.23252,0.161729 0.278547,0.161729 0.07635,0 0.04947,-0.323952 -0.05696,-0.673896 -0.02481,-0.0817 0.04635,-0.15612 0.17072,-0.176712 0.04372,-0.0072 0.0754,-0.01029 0.09884,-0.01197 z m 0.272555,0.0056 c 0.0072,9.6e-5 0.01396,0.004 0.0209,0.0056 0.173991,0.05282 0.149011,0.199482 -0.03893,0.224629 -0.117696,0.0158 -0.158593,-0.02465 -0.119802,-0.11681 0.0284,-0.0675 0.08612,-0.114688 0.137769,-0.113811 z m -1.530495,0.104827 c 0.122579,-0.0016 0.251588,0.06455 0.251588,0.17072 0,0.05832 -0.05162,0.07571 -0.116811,0.03893 -0.06518,-0.03678 -0.161465,-0.0048 -0.212645,0.06885 -0.149187,0.214752 -0.111194,0.64294 0.06287,0.703855 0.22577,0.07899 0.197902,0.224485 -0.05385,0.28453 -0.117289,0.028 -0.212654,0.123895 -0.212654,0.215646 0,0.136628 0.02888,0.146194 0.158737,0.04795 0.08721,-0.06598 0.229623,-0.09559 0.314481,-0.0659 0.1264,0.0442 0.130716,0.107013 0.02992,0.350423 -0.143498,0.346649 -0.156789,0.350319 -0.494184,0.11381 -0.285352,-0.200016 -0.367385,-0.733031 -0.140769,-0.904509 0.07332,-0.05545 0.133876,-0.261305 0.134777,-0.455258 6.46e-4,-0.193952 0.04396,-0.413571 0.09584,-0.488201 0.03869,-0.05577 0.109159,-0.08009 0.182703,-0.08087 z m 11.186666,0.46425 c 0.243674,-0.0072 0.366029,0.252035 0.362407,0.766732 -0.004,0.589014 -0.206758,1.486702 -0.422308,1.859959 -0.392692,0.679991 -0.958426,1.27424 -0.958426,1.006344 0,-0.03159 0.162845,-0.230701 0.362399,-0.443275 0.591743,-0.630318 1.053192,-2.089711 0.871574,-2.749485 -0.08443,-0.306734 -0.238073,-0.320903 -0.332456,-0.02992 -0.03901,0.120305 -0.32589,0.684523 -0.640945,1.251949 -0.315056,0.567425 -0.551262,1.058682 -0.524143,1.093204 0.02713,0.03455 -0.0093,0.01987 -0.07787,-0.03295 -0.09226,-0.07093 0.05345,-0.438687 0.560078,-1.407685 0.376999,-0.721095 0.738121,-1.313014 0.799689,-1.314849 z m -10.488803,0.230613 c -0.07771,0.0099 -0.073,0.151995 0.015,0.413324 0.06869,0.203966 0.211297,0.377079 0.350431,0.4253 0.129257,0.04484 0.265686,0.129975 0.305498,0.188695 0.04611,0.06806 0.178139,0.008 0.359406,-0.164728 0.248573,-0.236684 0.258163,-0.275092 0.09285,-0.302506 -0.104069,-0.01723 -0.262486,-0.134027 -0.353423,-0.260571 -0.09608,-0.133709 -0.228435,-0.207867 -0.317481,-0.176712 -0.08428,0.02944 -0.218566,0.0048 -0.296514,-0.05385 -0.0679,-0.05138 -0.120424,-0.0734 -0.155744,-0.06885 z m 1.650297,0.152753 c -0.03032,-0.0016 -0.08697,0.01141 -0.176712,0.03295 -0.146609,0.03526 -0.328044,0.06518 -0.401341,0.0659 -0.07332,6.46e-4 -0.131793,0.04237 -0.131793,0.09584 0,0.159661 0.495094,0.112573 0.652929,-0.06287 0.08211,-0.0913 0.107388,-0.130054 0.05696,-0.131785 z m 2.488913,0.389357 c 0.146251,0 0.133597,0.450288 -0.01795,0.712838 -0.228188,0.395278 -0.515758,0.471646 -0.515151,0.13777 3.83e-4,-0.254468 0.374693,-0.850608 0.533126,-0.850608 z m -6.343601,0.389366 c -0.08796,0 -0.161737,0.0454 -0.161737,0.09884 0,0.05345 0.0738,0.09584 0.161737,0.09584 0.08796,0 0.158744,-0.04236 0.158744,-0.09584 0,-0.05353 -0.07077,-0.09884 -0.158744,-0.09884 z m 6.187857,0.0359 c -0.03981,0.0024 -0.103838,0.05114 -0.161737,0.149761 -0.08252,0.140586 -0.08187,0.203662 -0.0032,0.203662 0.06255,0 0.14199,-0.06726 0.176712,-0.149753 0.05577,-0.132567 0.03925,-0.206638 -0.01197,-0.20367 z m -3.522224,0.06287 c -0.192788,0 -0.207077,0.113779 -0.03295,0.272547 0.172052,0.156886 0.191679,0.14874 0.191679,-0.07787 0,-0.108018 -0.06989,-0.194679 -0.158736,-0.194679 z m 4.360664,0.101644 c 0.04987,0.0056 0.0608,0.05569 0.02114,0.149944 -0.03558,0.08457 -0.0659,0.188161 -0.0659,0.233613 0,0.125156 -0.560532,0.465455 -0.895533,0.54211 -0.279712,0.06407 -0.287435,0.05449 -0.155745,-0.137769 0.09525,-0.139078 0.209104,-0.187834 0.362407,-0.152753 0.132408,0.03032 0.280772,-0.0092 0.362398,-0.09884 0.161689,-0.177629 0.08592,-0.195533 -0.239604,-0.0509 -0.161816,0.07189 -0.125124,0.01532 0.11681,-0.191679 0.211992,-0.181371 0.380853,-0.283844 0.470226,-0.29353 0.0087,-6.46e-4 0.01667,-0.0016 0.02378,-1.83e-4 z m -4.800947,0.03008 c -0.0091,-3.83e-4 -0.01747,-6.46e-4 -0.02394,0.0032 -0.151859,0.08558 0.225467,0.741042 0.410332,0.71283 0.08796,-0.01348 0.158745,-0.06877 0.158745,-0.122794 0,-0.156024 -0.408195,-0.587881 -0.54511,-0.593027 z m 0.945884,0.12861 c -0.0072,-0.0016 -0.01388,-6.46e-4 -0.02042,1.84e-4 -0.04037,0.0072 -0.06965,0.05537 -0.119811,0.140769 -0.133469,0.227406 -0.127429,0.236629 0.224638,0.359407 0.402346,0.140323 0.50095,-0.04101 0.173719,-0.317473 -0.138368,-0.116922 -0.208082,-0.175985 -0.258146,-0.182887 z m -2.814819,0.04508 c -0.0521,-6.46e-4 -0.08985,0.05385 -0.08985,0.131778 0,0.08912 0.05082,0.144958 0.113811,0.125794 0.06303,-0.01915 0.113818,-0.075 0.113818,-0.125794 0,-0.05082 -0.05082,-0.10963 -0.113818,-0.128786 -0.008,-0.0024 -0.01651,-0.0024 -0.02394,-0.0032 z m -0.694863,0.08685 c -0.08594,0.0056 -0.140769,0.0454 -0.140769,0.122802 0,0.222076 0.24254,0.359574 0.631969,0.356415 l 0.380374,-0.0032 -0.299505,-0.239605 c -0.200727,-0.16101 -0.428827,-0.246083 -0.572069,-0.236613 z m 1.177072,0.110818 c -0.0898,-0.0016 -0.176385,0.04149 -0.215646,0.134778 -0.04468,0.106303 -2.87e-4,0.215446 0.125794,0.299514 0.2309,0.153941 0.409247,0.04268 0.353423,-0.221638 -0.02808,-0.132639 -0.148101,-0.210005 -0.263571,-0.212654 z m 9.865825,0.176712 c 0.03893,0 0.158521,0.295022 0.263572,0.655929 0.10505,0.360899 0.287187,0.799769 0.40434,0.973401 0.148213,0.219675 0.190929,0.397224 0.143762,0.593028 -0.08409,0.349107 -0.651062,1.180064 -0.805682,1.180064 -0.06279,0 0.03303,-0.193211 0.212654,-0.431292 0.474318,-0.628587 0.508721,-0.92001 0.176711,-1.527495 -0.153335,-0.280557 -0.278538,-0.628978 -0.278538,-0.775731 0,-0.402673 -0.139517,-0.406495 -0.557094,-0.009 -0.449314,0.427701 -0.680549,0.8195 -0.823648,1.401701 -0.136086,0.553679 -0.04364,0.844496 0.302505,0.97041 0.15324,0.05577 0.221071,0.122546 0.149753,0.146761 -0.07133,0.02425 -0.255585,-0.03734 -0.407333,-0.134778 -0.255305,-0.163914 -0.272172,-0.218382 -0.230621,-0.760756 0.02601,-0.339453 0.145461,-0.763133 0.281539,-1.006352 0.226608,-0.405019 1.022987,-1.275907 1.16808,-1.275907 z m -5.487002,0.02697 c 0.01412,-0.0095 0.0529,0.02362 0.128786,0.09284 0.09192,0.0838 0.140546,0.1959 0.104835,0.248596 -0.09423,0.139007 -0.804692,0.194719 -0.9165,0.07189 -0.0659,-0.07236 0.03694,-0.09211 0.338447,-0.0659 0.408203,0.0355 0.431116,0.02561 0.371391,-0.182695 -0.02888,-0.100742 -0.04109,-0.155242 -0.02697,-0.164728 z m 6.897695,0.06885 c 0.04444,0.008 0.04005,0.109598 -0.05697,0.317472 -0.08108,0.173776 -0.194463,0.42092 -0.248588,0.551102 -0.07547,0.181483 -0.110755,0.203878 -0.158745,0.08985 -0.03447,-0.0818 0.02266,-0.331938 0.131778,-0.554094 0.13248,-0.269786 0.275324,-0.414146 0.332464,-0.404332 z m -9.254831,0.194678 c -0.209406,0 -0.461242,0.170409 -0.461242,0.311489 0,0.04276 0.07077,0.07787 0.158745,0.07787 0.313811,0 0.154356,0.182759 -0.185703,0.212654 l -0.347432,0.02992 0.02992,0.584044 c 0.04595,0.937244 0.529289,1.054773 0.985385,0.239605 0.230302,-0.411601 0.189764,-0.485017 -0.125794,-0.224629 -0.116659,0.09627 -0.194679,0.115103 -0.194679,0.04795 0,-0.06175 -0.09057,-0.110818 -0.20067,-0.110818 -0.250663,0 -0.498637,-0.248174 -0.33844,-0.338448 0.06143,-0.03463 0.110811,-0.01771 0.110811,0.03893 0,0.150495 0.381522,0.127031 0.527134,-0.03295 0.06869,-0.0754 0.15154,-0.293298 0.185696,-0.4852 0.05329,-0.299498 0.03295,-0.350424 -0.143762,-0.350424 z m -1.614355,0.218638 c -0.06758,0.004 -0.125786,0.07595 -0.125786,0.209654 0,0.184083 0.04221,0.231578 0.164728,0.188695 0.09083,-0.03183 0.149315,-0.124254 0.131778,-0.206662 -0.02808,-0.132033 -0.103135,-0.195605 -0.17072,-0.191687 z m 2.327185,0.07492 c -0.140865,0 -0.536118,0.357572 -0.536118,0.485209 0,0.05345 0.04915,0.09584 0.107819,0.09584 0.05864,0 0.107827,-0.04348 0.107827,-0.09884 0,-0.06798 0.0675,-0.06782 0.212653,0.0032 0.169037,0.08249 0.228858,0.07308 0.278539,-0.04492 0.07771,-0.184722 -0.02202,-0.440283 -0.17072,-0.440283 z m 2.084589,0.26058 c 0.533589,-0.01269 0.753862,0.149106 0.619978,0.467233 -0.04492,0.10679 -0.23173,0.146761 -0.691863,0.146761 -0.345572,0 -0.62897,-0.0355 -0.62897,-0.07787 0,-0.04236 0.252219,-0.0742 0.560086,-0.07188 0.428499,0.0032 0.560085,-0.03215 0.560085,-0.143762 0,-0.111361 -0.119419,-0.140809 -0.506184,-0.128793 -0.569005,0.01771 -0.697567,-0.119683 -0.161728,-0.173712 0.08904,-0.009 0.172371,-0.0162 0.248596,-0.01795 z m -4.166177,0.125794 c -0.132081,0 -0.2972,0.06558 -0.368391,0.143761 -0.105314,0.115701 -0.07571,0.188695 0.161736,0.389357 0.289206,0.244392 0.581045,0.325635 0.581045,0.161745 0,-0.04675 -0.02928,-0.222284 -0.0659,-0.389366 -0.05098,-0.232352 -0.124805,-0.305497 -0.308497,-0.305497 z m -2.830353,0.395349 0.350415,0.20067 c 0.192149,0.110755 0.731914,0.408649 1.201031,0.658921 1.350999,0.720744 3.139281,2.083862 3.707927,2.827361 0.313196,0.409511 0.202904,0.539613 -0.116811,0.137777 -0.622818,-0.782799 -2.234213,-2.032801 -3.537199,-2.746493 -1.496595,-0.819747 -1.499451,-0.821733 -1.662281,-0.625978 -0.235376,0.282983 -0.178203,0.357205 0.46425,0.610995 0.335951,0.132719 0.851756,0.418606 1.147113,0.637962 0.295357,0.219347 0.679617,0.481347 0.8536,0.581044 0.404612,0.231866 2.047617,1.478548 2.369119,1.79705 0.134929,0.133677 0.318255,0.36338 0.407332,0.512168 0.174207,0.290945 0.365399,0.2738 0.365399,-0.03295 0,-0.103782 0.04915,-0.188688 0.107827,-0.188688 0.151747,0 0.131411,0.118454 -0.08985,0.569069 l -0.194687,0.39535 -0.194678,-0.401341 c -0.106846,-0.220824 -0.51125,-0.682728 -0.898526,-1.027319 -0.983661,-0.875229 -3.080784,-2.302955 -3.932556,-2.674609 -0.392708,-0.171366 -0.735034,-0.323393 -0.760748,-0.338448 -0.02569,-0.01508 0.05593,-0.220329 0.182696,-0.45825 z M 45.024686,37.6828 c 0.0048,-0.0016 0.008,-5.75e-4 0.01197,0 0.05609,0.0083 0.08308,0.165103 0.0509,0.425307 -0.02872,0.232776 0.0016,0.517202 0.06885,0.631962 0.06734,0.11476 0.08124,0.209654 0.02992,0.209654 -0.0513,0 -0.147598,-0.112406 -0.215645,-0.248588 -0.135648,-0.271454 -0.160604,-0.620321 -0.05992,-0.859591 0.04165,-0.09888 0.08193,-0.150965 0.113818,-0.158744 z m 2.839344,0.251588 c 0.21784,0.013 0.383302,0.147439 0.527143,0.410332 0.121622,0.222292 0.123002,0.322715 0.01197,0.560077 -0.07436,0.158912 -0.137227,0.396467 -0.14077,0.530135 -0.01237,0.467218 -0.117584,0.513835 -0.94645,0.416316 -0.417242,-0.04915 -0.795901,-0.06327 -0.841616,-0.03295 -0.04572,0.03032 -0.146434,0.274773 -0.221638,0.54211 -0.144607,0.514051 -0.619627,1.144385 -0.901517,1.195039 -0.100479,0.01803 -0.334355,-0.167265 -0.575068,-0.461242 -0.22155,-0.270592 -0.475962,-0.497017 -0.566069,-0.506168 -0.0901,-0.0092 -0.235512,-0.02705 -0.323473,-0.03893 -0.08795,-0.01189 -0.217217,-0.03024 -0.290514,-0.0359 -0.261154,-0.02027 -0.128156,-0.187897 0.395341,-0.494185 0.696148,-0.407308 1.263477,-0.481754 1.539479,-0.20367 0.11172,0.11255 0.182823,0.214409 0.158744,0.227629 -0.02409,0.01324 -0.203152,0.126751 -0.398349,0.251588 -0.427358,0.273305 -0.621789,0.181874 -0.20367,-0.09584 0.161162,-0.107037 0.29353,-0.235528 0.29353,-0.284539 0,-0.157284 -0.635153,-0.0943 -1.063261,0.104835 -0.521909,0.242772 -0.629712,0.389358 -0.284539,0.389358 0.185592,0 0.411513,0.148524 0.751772,0.503176 l 0.482209,0.509167 0.284539,-0.239604 c 0.485735,-0.408514 0.75845,-1.272014 0.440275,-1.389726 -0.105904,-0.03917 -0.105059,-0.06686 0,-0.134785 0.07268,-0.04699 0.457197,-0.05218 0.853599,-0.01197 1.245645,0.126273 1.158028,0.160803 1.302866,-0.53911 0.221518,-1.070426 -0.121143,-1.273849 -1.108187,-0.658929 -0.230589,0.143658 -0.495102,0.380446 -0.587036,0.527143 -0.174127,0.277853 -0.326465,0.35158 -0.326465,0.155745 0,-0.178587 0.946292,-0.961219 1.347784,-1.114171 0.108361,-0.04133 0.204484,-0.06981 0.29353,-0.07787 0.03343,-0.0032 0.0647,-0.0048 0.09583,-0.0032 z m -0.230613,0.74578 c 0.02912,-0.0016 0.05074,0.004 0.0659,0.01795 0.07308,0.06662 0.101907,0.0438 -0.527135,0.431292 -0.641025,0.394886 -0.879879,0.398963 -0.338447,0.0056 0.416132,-0.302027 0.673664,-0.449985 0.799697,-0.455259 z" style="fill:#ffffff;fill-opacity:1;stroke-width:0.0958429" />
  <path d="m 33.007878,31.545112 c 0.0056,-0.310827 -0.416045,-2.02452 -0.498293,-2.02452 -0.05529,0 0.0048,0.899451 0.148859,2.235906 0.06702,0.621167 0.07053,0.626935 0.206399,0.340251 0.07603,-0.160404 0.140394,-0.408641 0.143035,-0.551637 z" id="path3909" style="fill:#ffffff;stroke-width:0.0958429" />
  <path d="m 35.304945,25.764596 c 0.105346,-0.354859 0.196426,-0.801972 0.20241,-0.993603 0.01061,-0.340283 -0.0016,-0.351644 -0.550735,-0.487283 -0.30888,-0.07635 -0.585384,-0.117185 -0.614457,-0.09067 -0.02904,0.02649 0.02441,0.216874 0.118924,0.423049 0.105545,0.230318 0.148604,0.504996 0.111689,0.71244 -0.04308,0.242309 0.0048,0.442548 0.169108,0.709423 0.126065,0.2045 0.261226,0.371821 0.300367,0.371821 0.03917,0 0.157349,-0.290331 0.262694,-0.645174 z m -1.36315,4.339283 c 0.234914,-0.56141 0.55407,-1.415328 0.70924,-1.897601 l 0.282137,-0.876848 -0.240634,-0.566436 c -0.132352,-0.311537 -0.288583,-0.563835 -0.347184,-0.560668 -0.05864,0.0032 -0.133637,0.171446 -0.166739,0.373943 -0.0924,0.565327 -0.493937,1.201996 -1.034316,1.639998 l -0.489676,0.396897 0.230645,0.672443 c 0.126855,0.369851 0.285009,0.971359 0.351444,1.336694 0.06646,0.365343 0.156168,0.627813 0.199386,0.583286 0.04324,-0.04452 0.270784,-0.540307 0.505697,-1.101708 z m -2.635004,6.097295 c 0,-0.04795 0.174853,-0.44424 0.38856,-0.880646 0.433349,-0.884906 0.43986,-0.937531 0.457284,-3.691795 0.01293,-2.047984 -0.122977,-2.983058 -0.433661,-2.983058 -0.1131,0 -0.234211,-0.0679 -0.269124,-0.15083 -0.04556,-0.108249 -0.147056,-0.134099 -0.359431,-0.09157 -0.230932,0.04627 -0.33311,0.01093 -0.465063,-0.160874 -0.165048,-0.21484 -0.172723,-0.215646 -0.318702,-0.03359 -0.125906,0.157005 -0.176249,0.166364 -0.317943,0.05912 -0.09259,-0.07005 -0.227366,-0.276201 -0.299498,-0.45809 -0.07819,-0.197081 -0.203375,-0.330701 -0.309918,-0.330701 -0.248189,0 -0.417616,-0.213524 -0.489373,-0.616748 -0.05481,-0.307986 -0.08146,-0.330868 -0.264649,-0.227405 -0.282727,0.159701 -0.425914,-0.05832 -0.386453,-0.588433 0.01843,-0.247758 -0.01891,-0.429185 -0.09363,-0.455338 -0.09103,-0.03183 -0.09543,-0.142763 -0.01644,-0.414465 0.143714,-0.4944 0.134642,-0.842286 -0.02322,-0.890267 -0.07093,-0.02162 -0.543155,-0.293203 -1.049355,-0.603647 -1.283231,-0.786981 -2.650482,-1.976906 -3.106035,-2.703211 -0.205242,-0.327222 -0.407125,-0.595421 -0.448637,-0.595996 -0.04149,-5.74e-4 -0.206167,0.202298 -0.365917,0.450839 l -0.29045,0.451883 0.186174,0.477933 c 0.337139,0.865511 1.242095,2.090389 1.455547,1.970108 0.07547,-0.04253 -0.159447,-1.244202 -0.277215,-1.417937 -0.03239,-0.04779 0.0056,-0.08683 0.08507,-0.08683 0.173209,0 0.50837,1.075651 0.50837,1.63154 0,0.211457 0.07212,0.761665 0.160316,1.222684 0.327079,1.710174 0.506184,4.114222 0.435767,5.849201 -0.07292,1.796612 -0.280366,3.549686 -0.541528,4.576454 -0.09095,0.357604 -0.140434,0.672931 -0.109957,0.700719 0.07524,0.06861 2.161149,0.206575 4.426757,0.292756 1.576993,0.06 1.886456,0.04883 1.999101,-0.0718 0.07332,-0.07851 0.13327,-0.182026 0.13327,-0.229975 z" id="path3905" style="fill:#ffffff;fill-opacity:1;stroke-width:0.0958429" />
  <path d="m 29.684881,25.035498 c -0.02665,-0.07284 -0.07492,-0.02872 -0.112646,0.102705 -0.04643,0.161704 -0.03247,0.199657 0.04659,0.127517 0.06199,-0.05649 0.09167,-0.160084 0.06606,-0.230222 z" id="path3903" style="fill:#000000;stroke-width:0.0958429" />
  <path d="m 26.029171,14.355327 c 0.03622,-0.05345 0.113875,-0.09722 0.172515,-0.09722 0.05864,0 0.07699,0.04372 0.04069,0.09722 -0.03622,0.05345 -0.113875,0.09721 -0.172507,0.09721 -0.05864,0 -0.07699,-0.04372 -0.04069,-0.09721 z M 25.869254,13.85736 c 0,-0.100391 -0.04627,-0.182519 -0.102872,-0.182519 -0.14574,0 -0.346897,0.373042 -0.265734,0.492796 0.09757,0.143945 0.368606,-0.0842 0.368606,-0.310277 z m 0.08389,1.299635 c -0.151285,-0.365462 -0.07803,-0.468821 0.226823,-0.32005 0.270976,0.132225 0.648844,-0.01843 0.648844,-0.258649 0,-0.202633 -0.306271,-0.5146 -0.505194,-0.5146 -0.08375,0 -0.130294,-0.05465 -0.103415,-0.121518 0.02689,-0.06686 0.09769,-0.112151 0.157364,-0.100694 0.182951,0.0351 0.664482,-0.436733 0.664482,-0.651118 0,-0.268542 -0.266827,-0.349306 -0.619851,-0.18761 -0.157524,0.07212 -0.322388,0.14716 -0.366372,0.166699 -0.04396,0.01955 -0.08061,-0.06654 -0.08141,-0.191312 -0.0024,-0.375707 -0.12135,-0.66429 -0.273775,-0.66429 -0.228619,0 -0.393148,0.384858 -0.334619,0.782736 0.02984,0.203064 0.0016,0.413101 -0.06271,0.472052 -0.161736,0.147464 -0.291615,0.132895 -0.22506,-0.02529 0.06087,-0.144647 -0.431068,-0.485496 -0.618487,-0.428531 -0.3738,0.113611 -0.06207,0.851613 0.359766,0.851613 0.108194,0 0.195979,0.03279 0.195078,0.07292 -0.0032,0.150702 -0.165462,0.267337 -0.371534,0.267337 -0.12064,0 -0.200511,0.05593 -0.18394,0.128738 0.01612,0.07085 -0.01651,0.102912 -0.0726,0.07133 -0.125514,-0.07077 -0.258816,0.106271 -0.174126,0.231211 0.03542,0.05218 0.279903,0.0083 0.57352,-0.102912 0.456208,-0.172866 0.522588,-0.237267 0.610955,-0.592804 0.09607,-0.386565 0.384515,-0.674319 0.536765,-0.535504 0.140466,0.128076 0.05537,0.696538 -0.12198,0.814777 -0.09739,0.06494 -0.145445,0.164704 -0.106798,0.221733 0.03862,0.05696 -0.0016,0.103686 -0.09087,0.103686 -0.216747,0 -0.143538,0.537116 0.107723,0.790259 0.253631,0.25553 0.386525,0.09456 0.231363,-0.280238 z" id="path4395" style="fill:#ff3b3b;fill-opacity:1;stroke-width:0.0958429" />
  <path style="opacity:1;vector-effect:none;fill:#f3e1cc;fill-opacity:1;stroke-width:0.0958429;stroke-linecap:butt;stroke-linejoin:miter;stroke-miterlimit:4;stroke-dasharray:none;stroke-dashoffset:0;stroke-opacity:1" d="m 30.726664,5.508914 c -0.02585,0 -0.07659,0.043721 -0.112877,0.097152 -0.03622,0.053455 -0.01516,0.097343 0.04699,0.097343 0.06207,0 0.112877,-0.043881 0.112877,-0.097343 0,-0.053455 -0.02114,-0.097152 -0.04699,-0.097152 z m 1.560063,0.2012369 c -0.146969,0.00558 -0.140881,0.02226 0.03295,0.09041 0.285297,0.1117841 0.288983,0.1117841 0.213205,0 -0.03622,-0.053455 -0.146993,-0.094168 -0.246155,-0.09041 z m -8.002691,0.9653515 c -0.133357,0 -0.74373,0.4786586 -0.615862,0.4829589 0.05018,0.0016 0.233853,-0.1063109 0.408075,-0.2399795 0.174222,-0.1336686 0.267656,-0.2429794 0.207787,-0.2429794 z m 1.685298,0.1276689 c -0.03,-0.00479 -0.15943,0.04795 -0.313364,0.1308442 -0.175922,0.094758 -0.319723,0.2095663 -0.319723,0.2551464 0,0.045556 0.143801,-0.010691 0.319723,-0.1248606 0.175922,-0.1142095 0.319914,-0.2290253 0.319914,-0.2551463 0,-0.00319 -0.0024,-0.00479 -0.0064,-0.00558 z m 1.868751,0.8728831 c -0.151053,0.01372 -1.009343,0.445341 -1.009343,0.515526 0,0.08478 0.16018,0.0292 0.612119,-0.212271 0.258976,-0.138383 0.446945,-0.273528 0.417633,-0.300263 -0.0032,-0.0032 -0.01037,-0.004 -0.02042,-0.0032 z m 3.516983,0.54136 c -0.04939,0.0048 -0.06191,0.121805 0.009,0.4283 0.03742,0.161728 -0.07468,0.212637 -0.329464,0.224629 -0.455378,0.02146 -1.825086,0.620912 -2.647658,1.1561046 -1.284787,0.835927 -1.722245,1.25932 -2.030671,1.961778 -0.322523,0.734587 -0.30438,0.907349 0.08985,0.838632 0.787124,-0.137195 1.05186,0.279528 0.533126,0.841616 -0.274501,0.297455 -0.277381,0.379034 -0.01795,0.709838 0.175012,0.223185 0.01699,0.465064 -0.431299,0.658921 -0.256718,0.111018 -0.336685,0.206798 -0.33844,0.410332 -0.0016,0.21354 -0.05274,0.269555 -0.248596,0.269555 -0.134874,0 -0.302003,-0.05353 -0.371391,-0.116802 -0.179041,-0.163252 -0.23244,-0.0742 -0.305497,0.488193 l -0.0659,0.494192 -0.599019,0.110819 c -0.595733,0.110029 -1.414818,0.510667 -1.764108,0.862583 -0.173592,0.1749 -0.170752,0.187123 0.0209,0.242604 0.111242,0.03215 0.340578,0.193171 0.512168,0.356415 0.322674,0.306989 0.349713,0.485943 0.260571,1.818025 -0.03351,0.499881 0.566572,1.296787 1.704207,2.261285 1.146627,0.972125 1.759496,1.401382 2.452979,1.71619 0.263875,0.119794 0.487483,0.21997 0.497184,0.221637 0.0097,0.0016 0.277318,-0.242564 0.593028,-0.54211 l 0.572061,-0.54511 0.422308,0.104827 c 0.874877,0.22147 1.967778,0.09714 1.967778,-0.224629 0,-0.198517 0.285607,-0.259479 0.437283,-0.09284 0.368207,0.404516 1.124279,0.545557 1.392717,0.257572 0.275101,-0.295134 0.515152,-0.868096 0.515152,-1.230981 v -0.350424 l -0.88055,0.0032 c -0.483789,6.46e-4 -0.947249,0.03893 -1.030311,0.08686 -0.09171,0.0529 -0.25805,0.04811 -0.425308,-0.015 -0.151492,-0.0572 -1.066931,-0.121302 -2.033663,-0.140769 -1.635082,-0.03295 -1.763406,-0.04875 -1.835992,-0.227621 -0.09076,-0.223712 -0.0513,-0.237116 0.233621,-0.07492 0.1749,0.09959 0.253981,0.08476 0.503168,-0.09884 0.421358,-0.31046 1.103767,-0.596514 1.42566,-0.599019 0.153271,-0.0016 0.386373,-0.111976 0.527143,-0.248588 0.342157,-0.33209 1.214091,-0.568631 1.500536,-0.407333 0.330031,0.185823 0.384012,0.552825 0.107827,0.742781 l -0.233621,0.161728 0.383374,0.125794 c 0.66042,0.217744 1.012343,-0.160683 1.012343,-1.087212 0,-0.282568 -0.201101,-0.967091 -0.65892,-2.255309 -0.562104,-1.581644 -0.595581,-1.752667 -0.437283,-2.114531 0.15442,-0.353016 0.812375,-0.849722 1.443627,-1.090212 0.195269,-0.07436 0.650862,-0.16338 1.012344,-0.20067 l 0.655928,-0.06885 0.06885,-0.419316 c 0.0379,-0.230158 0.02872,-0.474478 -0.02098,-0.54511 -0.04971,-0.07061 -0.170065,-0.413213 -0.266563,-0.760756 -0.0965,-0.347527 -0.239653,-0.786262 -0.317473,-0.973401 -0.160181,-0.385201 -1.020354,-1.5544456 -1.144121,-1.5544456 -0.04468,0 -0.176848,-0.07827 -0.290531,-0.17372 -0.231434,-0.194376 -1.050256,-0.56409 -1.464594,-0.658913 -0.175929,-0.04029 -0.302561,-0.16922 -0.386365,-0.359415 -0.09081,-0.206063 -0.215111,-0.384163 -0.278547,-0.377382 z m -5.272107,0.08779 c -0.0072,-0.0016 -0.02441,0.0072 -0.05369,0.02625 -0.3032,0.19988 -0.697886,0.579927 -0.602203,0.579927 0.04436,0 0.245868,-0.162175 0.447951,-0.360348 0.151563,-0.148628 0.228466,-0.241304 0.207978,-0.245788 z m 2.930321,0.05242 c -0.162661,-0.0072 -1.002051,0.363699 -1.087595,0.489892 -0.03319,0.04899 -0.01771,0.07053 0.03447,0.04795 0.05218,-0.02258 0.329408,-0.138624 0.616244,-0.257947 0.286836,-0.119332 0.493961,-0.242254 0.460125,-0.273122 -0.0048,-0.004 -0.01237,-0.0064 -0.02322,-0.0064 z m -2.349835,0.28978 c -0.15146,0.0229 -1.007477,0.532943 -1.007477,0.608936 0,0.09265 0.137801,0.03383 0.601453,-0.257013 0.263914,-0.16555 0.455745,-0.322946 0.426433,-0.349673 -0.0032,-0.0032 -0.01037,-0.004 -0.02043,-0.0016 z m -1.800792,0.06965 c -0.02585,0 -0.07667,0.04364 -0.112885,0.09715 -0.03622,0.05345 -0.01508,0.09716 0.04699,0.09716 0.06207,0 0.112877,-0.04372 0.112877,-0.09716 0,-0.05345 -0.02114,-0.09715 -0.04699,-0.09715 z m -0.379449,1.3608996 c -0.05864,0 -0.420026,0.575132 -0.466108,0.64712 -1.014267,1.584477 -0.07492,0.342892 0.466108,-0.404149 0.03798,-0.0525 0.106702,-0.101125 0.106702,-0.151436 0,-0.05034 -0.04811,-0.09153 -0.106702,-0.09153 z m 2.307535,0.223504 c -0.01667,-0.0016 -0.05186,0.0085 -0.106702,0.02776 -0.09625,0.03367 -0.568135,0.626337 -0.568135,0.674087 0,0.125004 0.454835,-0.418542 0.608386,-0.587228 0.07045,-0.07739 0.09421,-0.112015 0.06646,-0.11456 z m -1.714874,0.554285 c -0.02585,0 -0.343514,0.417673 -0.380382,0.470784 -0.132424,0.190809 -0.702665,1.087228 0.314489,-0.27648 0.03487,-0.04683 0.112877,-0.04372 0.112877,-0.09716 0,-0.05345 -0.02114,-0.09714 -0.04699,-0.09714 z m 2.825861,2.770827 c 0.101836,0.0048 0.23205,0.05002 0.464242,0.140769 0.274853,0.10742 0.784252,0.262239 1.132138,0.344432 0.818479,0.193386 1.367522,0.495421 1.449627,0.793706 0.09675,0.35146 -0.01739,0.381594 -0.533126,0.146761 -0.637212,-0.290171 -0.881364,-0.271534 -1.081229,0.08086 -0.188743,0.332807 -0.07053,0.384212 0.215654,0.09585 0.106135,-0.106942 0.239732,-0.191695 0.299506,-0.191695 0.05976,0 0.0048,0.100885 -0.122795,0.224637 -0.147654,0.143298 -0.230629,0.347471 -0.230629,0.566069 0,0.519109 -0.401644,0.770162 -0.961418,0.602011 -0.08796,-0.02641 -0.254117,-0.08364 -0.371398,-0.128786 -0.498197,-0.19179 -0.908003,-0.273783 -1.114171,-0.224629 -0.121278,0.02888 -0.218645,0.0081 -0.218645,-0.04492 0,-0.05298 0.137905,-0.121637 0.308497,-0.152752 0.17494,-0.03191 0.547479,-0.271973 0.853599,-0.551094 0.298533,-0.272188 0.542118,-0.458641 0.542118,-0.413325 0,0.04532 -0.05641,0.134403 -0.125802,0.197679 -0.253127,0.230797 0.0056,0.217904 0.302506,-0.015 0.168031,-0.131858 0.268661,-0.271247 0.224637,-0.311481 -0.04404,-0.04029 -0.349697,-0.108904 -0.679887,-0.149761 -0.671487,-0.08308 -0.741664,-0.121989 -0.841624,-0.491193 -0.05625,-0.207851 -0.01755,-0.291352 0.191695,-0.416316 0.121334,-0.07252 0.194678,-0.107093 0.296505,-0.101835 z m -7.678101,1.031994 c -0.0016,0.0016 -0.0048,0.004 -0.0072,0.008 -0.134938,0.190378 -0.452602,1.660812 -0.317665,1.584779 0.05864,-0.03303 0.105912,-0.134036 0.105011,-0.224446 -0.0016,-0.137235 0.28315,-1.403273 0.219954,-1.368009 z m 9.028893,0.124111 c -0.03056,-0.0048 -0.09084,0.04516 -0.185695,0.155744 -0.272148,0.317226 -0.272148,0.467162 0,0.242605 0.117281,-0.09678 0.213946,-0.244184 0.212654,-0.329456 -6.46e-4,-0.04237 -0.0086,-0.0659 -0.02697,-0.06893 z m 5.11262,0.350423 c -0.0799,0 -0.199769,0.108944 -0.266563,0.242605 -0.06678,0.133668 -0.08059,0.242604 -0.03,0.242604 0.05066,0 0.170512,-0.108936 0.266571,-0.242604 0.137985,-0.19203 0.144726,-0.242605 0.02992,-0.242605 z m -0.419316,0.0032 c -0.043,0.0032 -0.09784,0.02154 -0.164728,0.05992 -0.198285,0.113842 -0.310045,0.422307 -0.152753,0.422307 0.05385,0 0.18406,-0.08742 0.290523,-0.194678 0.167879,-0.169148 0.156135,-0.297703 0.02697,-0.287531 z m 0.751764,0.0032 c -0.0087,6.46e-4 -0.01444,0.0048 -0.01795,0.009 -0.385703,0.521471 -0.391073,0.564186 -0.09584,0.658921 0.01316,0.0048 0.09645,-0.121175 0.185695,-0.278539 0.109981,-0.193929 0.124725,-0.307149 0.04795,-0.350431 -0.04675,-0.02633 -0.09351,-0.04141 -0.119811,-0.03893 z m 0.446275,0.08687 c -0.02752,-0.0016 -0.225619,0.291056 -0.380382,0.566069 -0.0387,0.06885 0.03415,0.308952 0.167728,0.269555 0.239565,-0.07061 0.196634,0.07898 0.182424,0.130182 -0.0142,0.05114 -0.215031,0.195213 -0.350152,0.292126 -0.49866,0.357643 -1.770873,0.218326 -1.919852,-0.209654 -0.04891,-0.14057 -0.0093,-0.242565 0.128794,-0.329457 0.337658,-0.212438 0.467233,-0.327956 0.467233,-0.425307 0,-0.156623 -0.275554,-0.104835 -0.57206,0.107826 -0.364992,0.261769 -0.360947,0.555586 0.0209,1.461603 0.442884,1.050679 0.692685,1.985777 0.739789,2.776451 0.04061,0.680909 0.04787,0.700161 0.350423,0.760748 0.170744,0.03415 0.337347,0.105513 0.37139,0.155745 0.115047,0.169722 0.243626,-0.01093 0.359415,-0.503176 0.06343,-0.269484 0.116802,-0.767705 0.116802,-1.108187 0,-0.378491 0.0734,-0.781755 0.191687,-1.039287 0.159064,-0.346227 0.189956,-0.639525 0.164736,-1.638314 -0.01683,-0.668343 -0.03351,-1.237204 -0.0359,-1.263932 -2.79e-4,-0.0024 -0.0016,-0.0024 -0.0032,-0.0032 z m -6.577222,0.37139 c 0,0 -0.50099,0.07029 -0.587036,0.242604 -0.08605,0.172268 0.579153,0.359407 0.605003,0.359407 0.02585,0 -0.161728,-0.07531 -0.155737,-0.28753 0.0056,-0.212207 0.13777,-0.314481 0.13777,-0.314481 z m 0.407332,0.03 c 0,0 0.200671,0.146849 0.200671,0.305498 0,0.158648 -0.197671,0.33844 -0.197671,0.33844 0,0 0.283637,-0.129999 0.308489,-0.30849 0.02489,-0.17849 -0.311489,-0.335448 -0.311489,-0.335448 z m 4.905296,0.280717 c 0,0 -0.769572,0.09629 -0.727151,0.28236 0.05066,0.222156 0.660843,0.284044 0.660843,0.284044 0,0 -0.131737,-0.0363 -0.116419,-0.311944 0.0089,-0.160252 0.182727,-0.25446 0.182727,-0.25446 z m 0.577446,0.07428 c 0,0 0.08745,0.04412 0.06662,0.240865 -0.0209,0.196769 -0.07922,0.214074 -0.07922,0.214074 -0.02162,-9.5e-5 0.155074,0.02027 0.2116,-0.198931 0.05657,-0.219148 -0.198939,-0.256008 -0.198939,-0.256008 z m -5.036467,0.552522 c 0.04779,-0.0064 0.07484,0.02816 0.07484,0.09884 0,0.117561 -0.113316,0.149434 -0.506168,0.140762 -0.490387,-0.01085 -0.496634,-0.01269 -0.131786,-0.07787 0.207229,-0.03702 0.434866,-0.10059 0.506168,-0.140769 0.02018,-0.01141 0.04093,-0.01883 0.05696,-0.0209 z m -9.657488,0.172587 c -0.02441,-0.0088 -0.06335,0.108664 -0.113811,0.350431 -0.04189,0.200423 -0.0276,0.298668 0.03798,0.261697 0.05776,-0.03255 0.105011,-0.195126 0.105011,-0.361282 0,-0.160659 -0.01021,-0.243985 -0.0292,-0.250846 z m 9.732356,0.174844 c 0.05872,0 0.104827,0.0454 0.104827,0.09884 0,0.05345 -0.04619,0.09585 -0.104827,0.09585 -0.05864,0 -0.107818,-0.04237 -0.107818,-0.09585 0,-0.05345 0.04915,-0.09884 0.107818,-0.09884 z m 0.751765,2.432012 c 0.148699,0 0.02776,0.3577 -0.239605,0.703847 -0.291392,0.377222 -0.362319,0.33323 -0.09584,-0.05992 0.122068,-0.180079 0.221645,-0.39795 0.221645,-0.485209 0,-0.08725 0.05122,-0.158736 0.113803,-0.158736 z m -11.094557,0.679513 c -0.05864,0 -0.106702,0.04364 -0.106702,0.09715 0,0.05345 0.04811,0.09715 0.106702,0.09715 0.05864,0 0.106518,-0.04372 0.106518,-0.09715 0,-0.05345 -0.04787,-0.09715 -0.106518,-0.09715 z m 11.867296,0.27593 c -0.05864,0 -0.01524,0.06032 0.02098,0.113818 0.03622,0.05345 0.564345,0.278539 0.622978,0.278539 0.05864,0 -0.260268,-0.17715 -0.296514,-0.230621 -0.03622,-0.05345 -0.288791,-0.161736 -0.347431,-0.161736 z m 12.812997,1.198039 c -0.130454,-2.4e-5 -0.28098,0.01308 -0.452259,0.03893 -0.277788,0.04189 -0.548748,0.0659 -0.602011,0.05385 -0.0304,-0.0072 -0.07109,0.0056 -0.107819,0.03 0.08328,0.09648 0.195612,0.302115 0.25158,0.4253 0.266276,0.58615 1.305244,1.213628 1.752133,1.057269 0.249633,-0.08735 0.228482,-0.808593 -0.0359,-1.204022 -0.186389,-0.278723 -0.414305,-0.401285 -0.805689,-0.401349 z m -12.851931,0.275526 c 0.772364,0 0.847679,0.01763 1.009344,0.242604 0.216619,0.301437 0.356845,0.309622 0.401348,0.02402 0.0288,-0.185201 0.10892,-0.221159 0.515152,-0.242605 0.263882,-0.01388 0.541703,0.01197 0.616986,0.05689 0.219651,0.131107 0.03399,0.388559 -0.332456,0.461242 -0.185679,0.03686 -0.432432,0.12731 -0.548102,0.20067 -0.302888,0.192126 -0.568279,0.155928 -1.230981,-0.16772 -0.322523,-0.157516 -0.763556,-0.312103 -0.982393,-0.344439 -0.657181,-0.0971 -0.340155,-0.230621 0.551102,-0.230621 z m 14.412376,0.08386 v 0.0032 c -0.0205,0.0016 -0.04109,0.0048 -0.06287,0.01197 -0.180836,0.0592 -0.313396,0.09062 -0.404332,0.104827 0.08244,0.162726 0.13666,0.332544 0.137777,0.488193 0.0032,0.44716 0.344743,1.10265 0.67988,1.302866 0.151516,0.09052 0.275546,0.199139 0.275546,0.236613 0,0.0375 -0.196122,0.166946 -0.437275,0.29053 -0.501221,0.256854 -0.959758,1.006448 -0.739796,1.207014 0.388671,0.354381 1.992479,-0.193386 2.300234,-0.784714 0.226624,-0.43544 0.162111,-1.068248 -0.149761,-1.467594 -0.251436,-0.321957 -0.275108,-0.407333 -0.122794,-0.407333 0.05617,0 0.227422,0.197639 0.383374,0.440283 0.245253,0.381571 0.277581,0.522835 0.236612,1.039295 -0.04308,0.543322 -0.08096,0.623672 -0.437283,0.904516 -0.376648,0.296865 -0.510636,0.651701 -0.29053,0.775731 0.140873,0.07938 1.192294,-0.544551 1.479577,-0.877566 0.250112,-0.289915 0.296147,-0.74819 0.119803,-1.171072 -0.06032,-0.144567 -0.07986,-0.285368 -0.04795,-0.314489 0.115662,-0.105457 0.267481,0.144352 0.359407,0.593028 0.07739,0.377653 0.05689,0.527597 -0.11681,0.847615 -0.115893,0.21358 -0.250272,0.386366 -0.296514,0.386366 -0.155154,0 -0.22238,0.324199 -0.08386,0.404341 0.412398,0.238583 0.857229,-0.164393 0.994368,-0.904525 0.08901,-0.48031 0.26058,-0.482201 0.26058,-0.0032 0,0.333812 0.143992,0.602011 0.323464,0.602011 0.124733,0 0.317481,-0.491017 0.317481,-0.811665 0,-0.353232 -0.158433,-0.548102 -0.446266,-0.548102 -0.122874,0 -0.194679,-0.07212 -0.194679,-0.200671 0,-0.332105 -0.184937,-0.548596 -0.527143,-0.610995 -0.178004,-0.03247 -0.323465,-0.109231 -0.323465,-0.170727 0,-0.06183 0.0851,-0.08117 0.242605,-0.06287 -0.06877,-0.132072 -0.14002,-0.335065 -0.179712,-0.560077 -0.03518,-0.199657 -0.293585,-0.326951 -0.494192,-0.242604 -0.450719,0.189517 -0.780941,0.143019 -0.841616,0.04492 -0.04803,-0.02457 -0.103758,-0.05696 -0.167728,-0.101836 -0.203718,-0.142987 -0.504955,-0.140154 -1.072245,0.01197 -0.165981,0.04452 -0.25016,-0.0032 -0.344431,-0.191687 -0.07516,-0.150367 -0.186015,-0.273648 -0.329457,-0.263563 z m -16.22441,0.015 c 0.09767,0 0.257628,0.482783 0.182703,0.551094 -0.02537,0.02314 -0.09637,-0.09145 -0.158744,-0.25458 -0.06239,-0.163125 -0.07316,-0.296514 -0.02402,-0.296514 z m 2.063622,0.015 c -0.01787,2e-4 -0.03774,0.004 -0.05393,0.0056 -0.220137,0.03215 -0.198843,0.05712 0.182696,0.239604 0.499841,0.239039 0.584044,0.256878 0.584044,0.128802 0,-0.152361 -0.444049,-0.37798 -0.71283,-0.37439 z m 1.791058,0.0032 c -0.110396,0.0048 -0.22952,0.0276 -0.326456,0.07492 -0.274789,0.134091 -0.301173,0.443099 -0.03,0.347431 0.102617,-0.03622 0.318662,-0.08971 0.482209,-0.119794 0.163556,-0.03016 0.282121,-0.105003 0.26058,-0.164736 -0.03471,-0.09617 -0.20237,-0.144807 -0.386374,-0.137778 z m 0.736797,0.368399 c 0.157037,0 -0.171063,0.603256 -0.386365,0.709838 -0.188656,0.09339 -0.190411,0.08743 -0.02697,-0.08686 0.09569,-0.102026 0.205401,-0.284036 0.245604,-0.404341 0.04021,-0.120297 0.115861,-0.218637 0.16772,-0.218637 z m 0.09977,1.075053 c -0.03981,0.0024 -0.08838,0.03957 -0.167904,0.112127 -0.151691,0.138264 -0.158241,0.190355 -0.04101,0.319164 0.160077,0.175866 0.362048,0.14815 0.401157,-0.05505 0.0146,-0.07579 -0.01979,-0.203399 -0.07619,-0.283597 -0.045,-0.06399 -0.07619,-0.09539 -0.116068,-0.09266 z m -4.862716,1.296308 c -0.0097,-1.92e-4 -0.02218,0.004 -0.03718,0.01213 -0.05792,0.03263 -0.105393,0.100566 -0.105393,0.150878 0,0.139835 0.07643,0.109079 0.147327,-0.05936 0.02729,-0.06486 0.02417,-0.10304 -0.0048,-0.103702 z m 2.999581,17.381823 c -0.111808,-6.46e-4 -0.213906,-1.91e-4 -0.303247,0.0024 -0.238249,0.0072 -0.386374,0.02784 -0.386374,0.06287 0,0.08687 0.557971,0.6047 1.168088,1.117171 h 5.205472 C 36.87199,42.788842 35.50454,42.33281 34.745515,42.200386 34.039195,42.077169 32.779492,41.988585 31.996764,41.982307 Z m -0.932217,0.274981 c -0.103264,0 -0.192389,0.118685 -0.233621,0.314489 -0.04069,0.193418 -0.08689,0.392931 -0.13777,0.593027 h 1.557446 c -0.05042,-0.0442 -0.09852,-0.08595 -0.149753,-0.131777 -0.477996,-0.427494 -0.944656,-0.775739 -1.036302,-0.775739 z" id="path4407" />
  <path d="m 35.621724,26.790383 c 1.273968,-3.184646 2.190939,-7.129217 2.020666,-6.104268 -0.170265,1.024933 -0.634355,2.718034 -1.109049,3.922552 -0.474693,1.204517 -0.855984,2.943054 -0.911617,2.181716 z m -5.85489,12.239835 c 2.143037,-2.678126 2.965521,-4.288436 2.505245,-3.356961 -0.460269,0.931476 -0.685552,1.139127 -1.489263,2.154136 -0.803695,1.015016 -0.946579,1.376649 -1.015982,1.202825 z m 0.835265,-0.482161 c 1.960294,-2.814643 3.118625,-5.537728 2.721274,-4.577722 -0.397344,0.960006 -1.23182,2.504551 -1.966287,3.57074 -0.734467,1.066181 -0.872739,1.761212 -0.754987,1.006982 z m 3.711629,-6.629033 c 1.104302,-2.514125 1.792112,-5.665031 1.783391,-4.831935 -0.0048,0.413029 -0.584108,2.15964 -0.996123,3.110766 -0.412016,0.951126 -0.766277,2.333249 -0.787268,1.721169 z m 2.047737,-5.348268 c 1.250743,-3.193837 2.138961,-7.144975 1.976163,-6.11882 -0.162797,1.026154 -0.614545,2.72259 -1.080454,3.930522 -0.465918,1.20794 -0.83454,2.949222 -0.895709,2.188298 z m -5.107618,11.527971 c 1.785833,-2.928446 3.345999,-6.665598 3.007663,-5.683245 -0.338344,0.982353 -1.077527,2.574704 -1.745925,3.683498 -0.668391,1.108809 -1.333487,2.759737 -1.261738,1.999747 z m 1.496787,-3.786705 c 1.974304,-4.494812 3.552246,-9.50582 3.430728,-8.880999 -0.214297,1.101812 -1.321032,4.011597 -2.023211,5.803845 -0.676018,1.725437 -1.369971,4.171451 -1.407517,3.077154 z" style="fill:#000000;fill-opacity:1;stroke:none;stroke-width:0.0958429" id="path4119-3" />
  <path transform="matrix(0.8205313,0,0,1.3464171,156.2464,-6.713731)" style="opacity:0.4;fill:url(#linearGradient7865);fill-opacity:1;fill-rule:evenodd;stroke:none;stroke-width:0.99999982;stroke-linecap:square;stroke-linejoin:miter;stroke-miterlimit:4;stroke-dashoffset:0.69999993;stroke-opacity:1" id="path7671" d="M -186.45312,8.9980469 A 1.5027521,1.5027521 0 0 0 -188.00195,10.5 v 27 a 1.5027521,1.5027521 0 0 0 2.26172,1.294922 l 23,-13.5 a 1.5027521,1.5027521 0 0 0 0,-2.589844 l -23,-13.4999999 a 1.5027521,1.5027521 0 0 0 -0.71289,-0.2070312 z" />
  <g id="g7515" transform="matrix(0.76924807,0,0,1.262266,156.2464,-6.713731)">
    <path style="fill:url(#radialGradient7867);fill-opacity:1;fill-rule:evenodd;stroke:#555753;stroke-width:1.06666648;stroke-linecap:square;stroke-linejoin:miter;stroke-miterlimit:4;stroke-dashoffset:0.69999993;stroke-opacity:1" d="M -198.93333,40.000001 V 11.200486 L -174.4,25.613289 Z" id="path7812" />
    <path style="fill:none;fill-opacity:1;fill-rule:evenodd;stroke:#ffffff;stroke-width:1.06666648;stroke-linecap:square;stroke-linejoin:miter;stroke-miterlimit:4;stroke-dashoffset:0.69999993;stroke-opacity:1" d="m -197.86667,38.133363 v -25.06624 l 21.33334,12.544474 z" id="path7828" />
    <path transform="matrix(1.0666667,0,0,-1.0666667,-213.33333,51.2)" d="M 14,11.375 V 36.626953 C 21.170343,32.421421 28.340767,28.205874 35.511719,24 28.341649,19.788433 21.170655,15.586893 14,11.375 Z" id="path7354" style="opacity:0.15;fill:url(#linearGradient7869);fill-opacity:1;fill-rule:evenodd;stroke:none;stroke-width:0.99999982;stroke-linecap:square;stroke-linejoin:miter;stroke-miterlimit:4;stroke-dashoffset:0.69999993;stroke-opacity:1" />
  </g>
</svg>
