<?xml version="1.0" encoding="UTF-8" standalone="no"?>
<svg xmlns:dc="http://purl.org/dc/elements/1.1/" xmlns:cc="http://creativecommons.org/ns#" xmlns:rdf="http://www.w3.org/1999/02/22-rdf-syntax-ns#" xmlns:svg="http://www.w3.org/2000/svg" xmlns="http://www.w3.org/2000/svg" xmlns:xlink="http://www.w3.org/1999/xlink" width="51.200001" height="51.200001" id="svg7733" version="1.1">
  <defs id="defs7735">
    <linearGradient id="linearGradient5113">
      <stop id="stop5115" offset="0" style="stop-color:white;stop-opacity:1;" />
      <stop id="stop5117" offset="1" style="stop-color:white;stop-opacity:0;" />
    </linearGradient>
    <linearGradient xlink:href="#linearGradient5113" id="linearGradient5807" gradientUnits="userSpaceOnUse" gradientTransform="matrix(0.66199712,0,0,0.65510144,-23.183408,-0.67312341)" x1="58.748795" y1="2.047786" x2="105.32369" y2="58.047787" />
    <linearGradient id="linearGradient3163">
      <stop style="stop-color:#a7cc5c;stop-opacity:1" offset="0" id="stop3165" />
      <stop style="stop-color:#789e2d;stop-opacity:1" offset="1" id="stop3167" />
    </linearGradient>
    <linearGradient xlink:href="#linearGradient3163" id="linearGradient3169" x1="17" y1="7" x2="17" y2="26" gradientUnits="userSpaceOnUse" gradientTransform="matrix(1.0666869,0,0,1.0666661,10.67675,-1.0666594)" />
    <linearGradient id="linearGradient6222">
      <stop style="stop-color:#000000;stop-opacity:1;" offset="0" id="stop6224" />
      <stop style="stop-color:#000000;stop-opacity:0;" offset="1" id="stop6226" />
    </linearGradient>
    <linearGradient id="linearGradient6204">
      <stop id="stop6206" offset="0" style="stop-color:#120c02;stop-opacity:1;" />
      <stop id="stop6208" offset="1.0000000" style="stop-color:#b97a1b;stop-opacity:1.0000000;" />
    </linearGradient>
    <linearGradient id="linearGradient6190">
      <stop style="stop-color:#a0670c;stop-opacity:1;" offset="0" id="stop6192" />
      <stop style="stop-color:#e6c99d;stop-opacity:1;" offset="1" id="stop6194" />
    </linearGradient>
    <linearGradient id="linearGradient6210">
      <stop id="stop6212" offset="0" style="stop-color:#f9ead2;stop-opacity:1;" />
      <stop id="stop6214" offset="1" style="stop-color:#e4a546;stop-opacity:1;" />
    </linearGradient>
    <linearGradient id="linearGradient4210">
      <stop style="stop-color:#eaba6f;stop-opacity:1.0000000;" offset="0.0000000" id="stop4212" />
      <stop style="stop-color:#b97a1b;stop-opacity:1.0000000;" offset="1.0000000" id="stop4214" />
    </linearGradient>
    <linearGradient gradientTransform="matrix(1.0033404,0,0,1,-8.2374684,8)" y2="19.9583" x2="71.999496" y1="14.2578" x1="71.999496" gradientUnits="userSpaceOnUse" id="linearGradient4305-4-8">
      <stop id="stop4307-0-1" style="stop-color:#feebd6;stop-opacity:0;" offset="0.00445589" />
      <stop offset="0.46138024" style="stop-color:#f5f5f5;stop-opacity:0.53" id="stop4309-8-0" />
      <stop id="stop4311-0-3" style="stop-color:#f5f5f5;stop-opacity:0" offset="1" />
    </linearGradient>
    <linearGradient gradientTransform="matrix(1.0033404,0,0,1,-8.2374684,8)" y2="19.9583" x2="71.999496" y1="14.2578" x1="71.999496" gradientUnits="userSpaceOnUse" id="linearGradient10580">
      <stop id="stop10582" style="stop-color:#729fcf;stop-opacity:0" offset="0.25" />
      <stop id="stop10584" style="stop-color:#3465a4;stop-opacity:1" offset="1" />
    </linearGradient>
    <linearGradient id="linearGradient10572">
      <stop style="stop-color:#3465a4;stop-opacity:1" offset="0" id="stop10574" />
      <stop style="stop-color:#204a87;stop-opacity:1" offset="1" id="stop10576" />
    </linearGradient>
    <linearGradient id="linearGradient10566">
      <stop style="stop-color:#8fb3d9;stop-opacity:1" offset="0" id="stop10568" />
      <stop style="stop-color:#3465a4;stop-opacity:1" offset="1" id="stop10570" />
    </linearGradient>
    <linearGradient id="linearGradient17648">
      <stop id="stop17650" offset="0" style="stop-color:#ffffff;stop-opacity:0.6" />
      <stop id="stop17652" offset="1" style="stop-color:#ffffff;stop-opacity:0;" />
    </linearGradient>
    <linearGradient id="linearGradient6293">
      <stop style="stop-color:#888a85;stop-opacity:1" offset="0" id="stop6295" />
      <stop style="stop-color:#555753;stop-opacity:0" offset="1" id="stop6297" />
    </linearGradient>
    <linearGradient id="linearGradient5048">
      <stop style="stop-color:black;stop-opacity:0;" offset="0" id="stop5050" />
      <stop id="stop5056" offset="0.5" style="stop-color:black;stop-opacity:1;" />
      <stop style="stop-color:black;stop-opacity:0;" offset="1" id="stop5052" />
    </linearGradient>
    <radialGradient xlink:href="#linearGradient6222" id="radialGradient2097-5" gradientUnits="userSpaceOnUse" gradientTransform="matrix(2.9593483,0,0,2.1010197,-2017.7419,-931.07776)" cx="605.71429" cy="486.64789" fx="605.71429" fy="486.64789" r="117.14286" />
    <radialGradient xlink:href="#linearGradient6222" id="radialGradient2099-6" gradientUnits="userSpaceOnUse" gradientTransform="matrix(-2.9593483,0,0,2.1010197,120.27979,-931.07776)" cx="605.71429" cy="486.64789" fx="605.71429" fy="486.64789" r="117.14286" />
    <linearGradient xlink:href="#linearGradient5048" id="linearGradient4887" gradientUnits="userSpaceOnUse" gradientTransform="matrix(2.9593483,0,0,2.1010197,-2018.3243,-931.07776)" x1="302.85715" y1="366.64789" x2="302.85715" y2="609.50507" />
    <linearGradient xlink:href="#linearGradient6293" id="linearGradient4889" gradientUnits="userSpaceOnUse" gradientTransform="matrix(0.72453397,0,0,0.71078443,-0.32260331,-5.1475351)" x1="23.999998" y1="8.7654715" x2="24.046484" y2="31.230356" />
    <linearGradient xlink:href="#linearGradient17648" id="linearGradient4891" gradientUnits="userSpaceOnUse" gradientTransform="matrix(0.71110944,0,0,0.71111029,-4.1340998e-4,-5.155517)" x1="24.001408" y1="10.238918" x2="23.999996" y2="38.762936" />
    <linearGradient xlink:href="#linearGradient10566" id="linearGradient4893" gradientUnits="userSpaceOnUse" gradientTransform="matrix(0.25826123,0,0,0.25262965,10.83158,-76.861878)" x1="28.272753" y1="325.34204" x2="28.272074" y2="409.80386" />
    <linearGradient xlink:href="#linearGradient10572" id="linearGradient4895" gradientUnits="userSpaceOnUse" gradientTransform="matrix(1.0663781,0,0,1.0666745,-141.82355,-61.867239)" x1="151" y1="64" x2="150.99998" y2="83" />
    <linearGradient xlink:href="#linearGradient10580" id="linearGradient4897" gradientUnits="userSpaceOnUse" gradientTransform="matrix(0.25622464,0,0,0.17777771,1.7339183,1.4222217)" x1="65.306877" y1="22" x2="65.306877" y2="28.003984" />
    <linearGradient xlink:href="#linearGradient4305-4-8" id="linearGradient4899" gradientUnits="userSpaceOnUse" gradientTransform="matrix(0.33093109,0,0,1.0056629,-3.2487398,-28.031158)" x1="7.2379346" y1="36.005047" x2="132.86028" y2="35.857735" />
    <filter x="-0.11116035" width="1.2223207" y="-0.50716913" height="2.0143383" id="filter6290">
      <feGaussianBlur stdDeviation="2.0286765" id="feGaussianBlur6292" />
    </filter>
    <linearGradient xlink:href="#linearGradient4210" id="linearGradient6232" gradientUnits="userSpaceOnUse" gradientTransform="matrix(0.75436181,0,0,0.89544544,12.519077,12.342661)" x1="24.990499" y1="49.424099" x2="23.451571" y2="14.38251" />
    <linearGradient xlink:href="#linearGradient6210" id="linearGradient6216" gradientUnits="userSpaceOnUse" gradientTransform="matrix(0.74690805,0,0,1.0239454,16.346789,6.8894398)" x1="37.308056" y1="20.232172" x2="43.588387" y2="23.422194" />
    <linearGradient xlink:href="#linearGradient6190" id="linearGradient6200" gradientUnits="userSpaceOnUse" x1="41.448223" y1="9.3452396" x2="37.308056" y2="10.742416" gradientTransform="matrix(0.74690805,0,0,0.76993984,16.346789,19.335062)" />
    <linearGradient xlink:href="#linearGradient6204" id="linearGradient4879" gradientUnits="userSpaceOnUse" gradientTransform="matrix(0.75698923,0,0,0.31904363,12.404787,17.255391)" x1="24.990499" y1="49.424099" x2="23.451571" y2="14.38251" />
    <linearGradient xlink:href="#linearGradient6222" id="linearGradient6228" x1="24.5" y1="17.8125" x2="24.5" y2="26.1875" gradientUnits="userSpaceOnUse" gradientTransform="matrix(0.74690805,0,0,0.7466656,16.346789,19.689642)" />
    <linearGradient xlink:href="#linearGradient5113" id="linearGradient6240" x1="29.953026" y1="32.241776" x2="27.595888" y2="14.147761" gradientUnits="userSpaceOnUse" />
    <linearGradient xlink:href="#linearGradient6210" id="linearGradient6218" gradientUnits="userSpaceOnUse" gradientTransform="matrix(0.74690805,0,0,1.0215605,16.346789,6.9185683)" x1="8" y1="16.526962" x2="1.8265705" y2="23.499716" />
    <linearGradient xlink:href="#linearGradient6190" id="linearGradient6198" gradientUnits="userSpaceOnUse" x1="6.6749902" y1="10.140735" x2="8" y2="10.654029" gradientTransform="matrix(0.74690805,0,0,0.76814667,16.346789,19.335205)" />
    <linearGradient xlink:href="#linearGradient6242" id="linearGradient6988" x1="5.5785265" y1="3.273787" x2="27.621359" y2="3.273787" gradientUnits="userSpaceOnUse" gradientTransform="matrix(1.0666667,0,0,0.88888885,16.000485,22.665813)" />
    <linearGradient id="linearGradient6242">
      <stop style="stop-color:#d7b47f;stop-opacity:1;" offset="0" id="stop6244" />
      <stop style="stop-color:#f4dbb3;stop-opacity:1" offset="1" id="stop6246" />
    </linearGradient>
    <linearGradient xlink:href="#linearGradient4210" id="linearGradient6252" gradientUnits="userSpaceOnUse" gradientTransform="matrix(0.74690805,0,0,0.94447253,16.346789,8.6274259)" x1="17.326572" y1="24.163702" x2="17.701572" y2="27.945204" />
    <linearGradient xlink:href="#linearGradient6190" id="linearGradient6254" gradientUnits="userSpaceOnUse" x1="24.88299" y1="14.294987" x2="25.148155" y2="10.941941" gradientTransform="matrix(0.74690805,0,0,0.71018155,16.346789,20.107091)" />
    <linearGradient xlink:href="#linearGradient5113" id="linearGradient6387" x1="23.157747" y1="11.36132" x2="23.157747" y2="5.5276899" gradientUnits="userSpaceOnUse" />
    <radialGradient r="22.627417" fy="41.63604" fx="23.334524" cy="41.63604" cx="23.334524" gradientTransform="matrix(0.78382398,0,0,0.33160738,14.577639,31.071624)" gradientUnits="userSpaceOnUse" id="radialGradient3507" xlink:href="#linearGradient6222" />
  </defs>
  <metadata id="metadata7738">
    <rdf:RDF>
      <cc:Work rdf:about="">
        <dc:format>image/svg+xml</dc:format>
        <dc:type rdf:resource="http://purl.org/dc/dcmitype/StillImage" />
        <dc:title></dc:title>
      </cc:Work>
    </rdf:RDF>
  </metadata>
  <image width="54.645847" height="54.645847" preserveAspectRatio="none" xlink:href="file:///tmp/gtk-file.png" id="image4974" x="-1.7229233" y="-0.60680759" />
  <g transform="matrix(0.05322366,-0.02654859,0.02654859,0.05322366,11.886071,26.193945)" id="g4845">
    <g id="g4784">
      <g id="g4774">
        <path d="m 297.322,84.451 c -2.398,-2.532 -2.748,-6.391 -0.822,-9.303 16.46,-24.971 44.149,-39.879 74.059,-39.879 h 30.942 c 10.505,0 10.505,-15.902 0,-15.902 -29.584,0 -83.238,-6.111 -118.28,47.023 -1.646,2.501 -4.915,3.378 -7.593,2.027 -21.493,-10.863 -45.968,-11.275 -68.284,0 -2.678,1.35 -5.939,0.48 -7.593,-2.027 -33.366,-50.586 -81.964,-47.023 -118.28,-47.023 -10.505,0 -10.505,15.902 0,15.902 h 30.942 c 48.886,0 81.359,40.641 73.237,49.182 -17.502,18.448 -21.19,37.208 -21.19,59.757 46.821,-30.795 107.138,-30.857 154.052,0 10e-4,-22.231 -3.409,-41.021 -21.19,-59.757 z" id="path4772" />
      </g>
      <g id="g4778">
        <path d="M 129.013,177.659 C 80.585,133.625 88.226,135.791 8.179,162.09 c -15.056,4.946 -7.407,27.611 7.439,22.657 l 49.826,-16.368 c 8.121,-2.664 17.082,-0.746 23.395,4.985 53.026,48.203 31.796,27.247 28.349,78.649 -0.52,7.779 -6.981,13.837 -14.776,13.837 -15.592,0 -32.278,0 -69.642,0 -15.786,0 -15.786,23.853 0,23.853 109.661,0 73.509,-9.131 91.941,53.84 1.064,3.611 -2.112,7.105 -5.831,6.353 -44.189,-8.861 -56.457,33.636 -80.737,79.315 -7.407,13.93 13.65,25.127 21.058,11.198 l 29.242,-55.013 c 11.693,-21.959 45.975,-12.3 59.057,8.541 9.987,15.902 42.195,59.135 66.256,68.826 9.475,3.813 19.777,-3.152 19.777,-13.363 V 179.716 c 0,-24.497 -25.833,-40.391 -47.66,-29.514 -35.622,17.805 -40.242,42.567 -56.86,27.457 z" id="path4776" />
      </g>
      <g id="g4782">
        <path d="m 474.793,162.09 c -76.311,-25.073 -70.41,-30.259 -120.834,15.568 -6.159,5.599 -15.654,5.203 -21.331,-0.886 -49.95,-53.552 -83.191,-23.278 -83.191,2.943 V 449.4 c 0,16.888 23.301,22.362 47.66,-6.809 20.685,-24.771 28.621,-33.132 38.38,-48.662 13.31,-21.198 47.652,-29.933 59.051,-8.533 l 29.242,55.013 c 7.377,13.875 28.527,2.864 21.058,-11.198 l -29.242,-55.012 c -10.055,-18.908 -31.78,-28.311 -51.494,-24.303 -3.712,0.744 -6.895,-2.734 -5.831,-6.353 18.278,-62.435 -14.56,-53.84 91.941,-53.84 6.585,0 11.927,-5.341 11.927,-11.927 0,-6.585 -5.341,-11.927 -11.927,-11.927 -37.48,0 -54.159,0 -69.79,0 -7.679,0 -14.1,-5.863 -14.776,-13.511 -2.772,-31.494 -13.929,-40.377 1.158,-54.112 44.771,-40.703 29.149,-36.945 100.561,-13.48 14.931,4.971 22.446,-17.718 7.438,-22.656 z" id="path4780" />
      </g>
    </g>
    <g id="g4786" />
    <g id="g4788" />
    <g id="g4790" />
    <g id="g4792" />
    <g id="g4794" />
    <g id="g4796" />
    <g id="g4798" />
    <g id="g4800" />
    <g id="g4802" />
    <g id="g4804" />
    <g id="g4806" />
    <g id="g4808" />
    <g id="g4810" />
    <g id="g4812" />
    <g id="g4814" />
  </g>
</svg>
