<?xml version="1.0" encoding="UTF-8" standalone="no"?>
<svg xmlns:dc="http://purl.org/dc/elements/1.1/" xmlns:cc="http://creativecommons.org/ns#" xmlns:rdf="http://www.w3.org/1999/02/22-rdf-syntax-ns#" xmlns:svg="http://www.w3.org/2000/svg" xmlns="http://www.w3.org/2000/svg" width="34mm" height="34mm" viewBox="0 0 34 34" version="1.1" id="svg8">
  <defs id="defs2">
    <clipPath clipPathUnits="userSpaceOnUse" id="clipPath4523">
      <g id="use4525">
        <path id="path4534" d="m 77.024784,144.78749 c -2.591911,-1.35164 -4.81538,-2.56335 -4.941041,-2.69268 -0.20953,-0.21564 -0.733947,-6.21021 -0.839411,-9.59525 l -0.04432,-1.42262 c -0.774114,-0.89903 -5.81215,-5.70686 -5.058652,-6.02346 3.891098,-1.19447 6.878696,-2.05582 10.997842,-3.26518 l 3.45324,3.45324 -0.333764,1.16532 c -0.18357,0.64092 -0.432651,1.29739 -0.553515,1.45881 -1.812146,1.32105 -6.845323,1.90078 -8.121684,3.04279 0.09963,0.30176 10.126951,4.44625 10.761582,4.46096 0.346597,0.008 8.847055,-3.43456 10.094564,-4.08819 l 0.856773,-0.37928 -0.843798,-0.26011 c -0.363593,-0.15742 -2.149361,-0.80678 -3.968371,-1.44301 -2.118102,-0.74085 -3.336412,-1.30411 -3.388281,-1.5665 -0.180327,-0.91223 3.784503,-3.88841 5.187719,-3.89413 0.446793,-0.002 0.711784,0.24396 0.995738,0.92356 0.212809,0.50932 0.469604,0.92604 0.570656,0.92604 0.101053,0 0.631747,-0.43748 1.17932,-0.97217 l 0.995588,-0.97216 2.521296,0.74456 c 1.386713,0.40951 2.521297,0.79071 2.521297,0.84712 0,0.0564 -5.437242,5.614 -5.437242,5.614 0,0 -0.03412,0.26825 -0.07769,1.66893 -0.07204,2.31625 -0.608063,9.32063 -0.728155,9.51494 -0.261289,0.42278 -9.931541,5.24888 -10.482182,5.23131 -0.332719,-0.0106 -2.725599,-1.12519 -5.317511,-2.47684 z" style="fill:#8e634b;stroke-width:0.26458332" />
        <path id="path4536" d="m 80.916811,132.28168 c -1.632529,-5.44118 2.011894,-11.16303 8.448381,-13.40406 0.382895,-0.13332 0.447637,-0.33452 0.309707,-0.96252 -0.217724,-0.99129 0.08947,-1.01579 3.130869,-0.24971 4.073724,1.02611 4.145124,1.05165 4.145124,1.48264 0,0.51394 -4.187613,4.85227 -4.683688,4.85227 -0.196072,0 -0.469661,-0.29766 -0.607978,-0.66146 -0.138318,-0.3638 -0.41924,-0.66146 -0.624272,-0.66146 -0.205033,0 -1.319553,0.47387 -2.476713,1.05305 -3.341827,1.67264 -5.828382,4.82842 -6.301762,7.72248 -0.205113,1.25398 -0.311263,2.24685 -0.104635,3.55612 -0.487971,-0.94124 -0.807433,-1.30217 -1.235033,-2.72735 z" style="fill:#8e634b;stroke-width:0.26458332" />
      </g>
    </clipPath>
  </defs>
  <metadata id="metadata5">
    <rdf:RDF>
      <cc:Work rdf:about="">
        <dc:format>image/svg+xml</dc:format>
        <dc:type rdf:resource="http://purl.org/dc/dcmitype/StillImage" />
        <dc:title></dc:title>
      </cc:Work>
    </rdf:RDF>
  </metadata>
  <path style="fill:#4c2b18;fill-opacity:1;stroke-width:0.16924335" d="m 7.6446566,17.089063 c -2.6348527,0.773579 -7.3687726,2.188615 -7.3687726,2.188615 0,0 2.8590363,2.971899 3.4956771,3.67342 l 0.3305551,-0.0165 c -0.00365,-0.0038 -0.010305,-0.0091 -0.011239,-0.0119 0.9087311,-0.3256 7.4517708,-2.478735 7.4517708,-2.478735 0,0 -2.8825718,-2.33962 -3.8979914,-3.3549 z" id="path4552-3" />
  <path style="fill:#4c2b18;fill-opacity:1;stroke-width:0.16924335" d="m 14.972906,17.407517 -3.430258,3.036447 6.557694,2.512527 3.571037,-3.662623 z" id="path4550-6" />
  <path style="fill:#009004;fill-opacity:1;stroke:#f9f9f9;stroke-width:0.39603573;stroke-miterlimit:4;stroke-dasharray:none;stroke-opacity:1" d="M 8.7578692,26.54989 C 6.4677462,17.886812 11.653402,8.0288222 21.654892,5.0008891 21.03753,3.9677863 20.60989,1.9712206 20.60989,1.9712206 24.494282,3.0331888 28.132177,3.9336351 32.092775,5.2653582 L 24.423962,13.94665 c 0,0 -0.365911,-2.177814 -1.044604,-2.993988 -1.04486,0.305912 -2.278766,1.060376 -3.902038,1.982507 -4.687938,2.663064 -8.176095,7.687483 -8.840155,12.295209 -0.287734,1.996502 -0.436642,3.577283 -0.146783,5.661814 C 9.8058529,29.393613 9.3577094,28.818965 8.7578692,26.54989 Z" id="path4504" />
  <path style="fill:#8e634b;stroke:#000000;stroke-width:0.127932;stroke-miterlimit:4;stroke-dasharray:none;stroke-opacity:1" d="m 10.974652,25.776336 c -0.38469,-0.0089 -7.1314222,-2.866342 -7.1314222,-2.866342 l 0.4009863,7.067986 6.7287829,3.407034 6.704946,-3.346189 0.422533,-7.06823 c 0,0 -6.904122,2.810858 -7.125826,2.805741 z" id="path4515-7" />
  <path style="fill:#4c2b18;fill-opacity:1;stroke-width:0.19246921" d="m 3.8178405,22.909994 -2.6736513,4.247233 6.9460769,3.587898 2.8843859,-4.968789 z" id="path4550-3-5" />
  <path style="fill:#4c2b18;fill-opacity:1;stroke-width:0.18891019" d="m 18.100342,22.956491 c -2.547933,0.996692 -7.12569,2.819845 -7.12569,2.819845 0,0 1.749262,3.829036 2.364901,4.732888 l 0.319651,-0.02124 c -0.0035,-0.0051 -0.01,-0.01171 -0.01087,-0.01535 0.878754,-0.419508 7.205951,-3.193637 7.205951,-3.193637 0,0 -1.772021,-3.014404 -2.753945,-4.322508 z" id="path4552-6-3" />
  <path style="fill:none;fill-rule:evenodd;stroke:#000000;stroke-width:0.127932;stroke-linecap:butt;stroke-linejoin:miter;stroke-miterlimit:4;stroke-dasharray:none;stroke-opacity:1" d="m 10.976225,25.805082 -0.0032,7.579932" id="path6145-5" />
</svg>
