<?xml version="1.0" encoding="UTF-8" standalone="no"?>
<svg xmlns:dc="http://purl.org/dc/elements/1.1/" xmlns:cc="http://creativecommons.org/ns#" xmlns:rdf="http://www.w3.org/1999/02/22-rdf-syntax-ns#" xmlns:svg="http://www.w3.org/2000/svg" xmlns="http://www.w3.org/2000/svg" xmlns:xlink="http://www.w3.org/1999/xlink" id="svg8" version="1.1" viewBox="0 0 34 34" height="34mm" width="34mm">
  <defs id="defs2">
    <linearGradient id="linearGradient5146">
      <stop id="stop5142" offset="0" style="stop-color:#009004;stop-opacity:1;" />
      <stop id="stop5144" offset="1" style="stop-color:#405040;stop-opacity:1" />
    </linearGradient>
    <clipPath id="clipPath4523" clipPathUnits="userSpaceOnUse">
      <g id="use4525">
        <path style="fill:#8e634b;stroke-width:0.26458332" d="m 77.024784,144.78749 c -2.591911,-1.35164 -4.81538,-2.56335 -4.941041,-2.69268 -0.20953,-0.21564 -0.733947,-6.21021 -0.839411,-9.59525 l -0.04432,-1.42262 c -0.774114,-0.89903 -5.81215,-5.70686 -5.058652,-6.02346 3.891098,-1.19447 6.878696,-2.05582 10.997842,-3.26518 l 3.45324,3.45324 -0.333764,1.16532 c -0.18357,0.64092 -0.432651,1.29739 -0.553515,1.45881 -1.812146,1.32105 -6.845323,1.90078 -8.121684,3.04279 0.09963,0.30176 10.126951,4.44625 10.761582,4.46096 0.346597,0.008 8.847055,-3.43456 10.094564,-4.08819 l 0.856773,-0.37928 -0.843798,-0.26011 c -0.363593,-0.15742 -2.149361,-0.80678 -3.968371,-1.44301 -2.118102,-0.74085 -3.336412,-1.30411 -3.388281,-1.5665 -0.180327,-0.91223 3.784503,-3.88841 5.187719,-3.89413 0.446793,-0.002 0.711784,0.24396 0.995738,0.92356 0.212809,0.50932 0.469604,0.92604 0.570656,0.92604 0.101053,0 0.631747,-0.43748 1.17932,-0.97217 l 0.995588,-0.97216 2.521296,0.74456 c 1.386713,0.40951 2.521297,0.79071 2.521297,0.84712 0,0.0564 -5.437242,5.614 -5.437242,5.614 0,0 -0.03412,0.26825 -0.07769,1.66893 -0.07204,2.31625 -0.608063,9.32063 -0.728155,9.51494 -0.261289,0.42278 -9.931541,5.24888 -10.482182,5.23131 -0.332719,-0.0106 -2.725599,-1.12519 -5.317511,-2.47684 z" id="path4534" />
        <path style="fill:#8e634b;stroke-width:0.26458332" d="m 80.916811,132.28168 c -1.632529,-5.44118 2.011894,-11.16303 8.448381,-13.40406 0.382895,-0.13332 0.447637,-0.33452 0.309707,-0.96252 -0.217724,-0.99129 0.08947,-1.01579 3.130869,-0.24971 4.073724,1.02611 4.145124,1.05165 4.145124,1.48264 0,0.51394 -4.187613,4.85227 -4.683688,4.85227 -0.196072,0 -0.469661,-0.29766 -0.607978,-0.66146 -0.138318,-0.3638 -0.41924,-0.66146 -0.624272,-0.66146 -0.205033,0 -1.319553,0.47387 -2.476713,1.05305 -3.341827,1.67264 -5.828382,4.82842 -6.301762,7.72248 -0.205113,1.25398 -0.311263,2.24685 -0.104635,3.55612 -0.487971,-0.94124 -0.807433,-1.30217 -1.235033,-2.72735 z" id="path4536" />
      </g>
    </clipPath>
    <linearGradient gradientUnits="userSpaceOnUse" y2="5.5276899" x2="23.157747" y1="11.36132" x1="23.157747" id="linearGradient6387" xlink:href="#linearGradient5113" gradientTransform="matrix(0.70311332,0,0,0.68635035,10.415668,14.545168)" />
    <linearGradient id="linearGradient5113">
      <stop style="stop-color:white;stop-opacity:1;" offset="0" id="stop5115" />
      <stop style="stop-color:white;stop-opacity:0;" offset="1" id="stop5117" />
    </linearGradient>
    <linearGradient y2="27.945204" x2="17.701572" y1="24.163702" x1="17.326572" gradientTransform="matrix(0.49233843,0,0,0.6077241,10.644262,6.3700568)" gradientUnits="userSpaceOnUse" id="linearGradient6252" xlink:href="#linearGradient4210" />
    <linearGradient id="linearGradient4210">
      <stop id="stop4212" offset="0.0000000" style="stop-color:#eaba6f;stop-opacity:1.0000000;" />
      <stop id="stop4214" offset="1.0000000" style="stop-color:#b97a1b;stop-opacity:1.0000000;" />
    </linearGradient>
    <linearGradient gradientTransform="matrix(0.49233843,0,0,0.45696877,10.644262,13.756688)" y2="10.941941" x2="25.148155" y1="14.294987" x1="24.88299" gradientUnits="userSpaceOnUse" id="linearGradient6254" xlink:href="#linearGradient6190" />
    <linearGradient id="linearGradient6190">
      <stop id="stop6192" offset="0" style="stop-color:#a0670c;stop-opacity:1;" />
      <stop id="stop6194" offset="1" style="stop-color:#e6c99d;stop-opacity:1;" />
    </linearGradient>
    <linearGradient gradientTransform="matrix(0.49233843,0,0,0.48044454,10.644262,13.488079)" gradientUnits="userSpaceOnUse" y2="26.1875" x2="24.5" y1="17.8125" x1="24.5" id="linearGradient6228" xlink:href="#linearGradient6222" />
    <linearGradient id="linearGradient6222">
      <stop id="stop6224" offset="0" style="stop-color:#000000;stop-opacity:1;" />
      <stop id="stop6226" offset="1" style="stop-color:#000000;stop-opacity:0;" />
    </linearGradient>
    <linearGradient y2="14.38251" x2="23.451571" y1="49.424099" x1="24.990499" gradientTransform="matrix(0.49725172,0,0,0.57617743,8.1211508,8.7606363)" gradientUnits="userSpaceOnUse" id="linearGradient6232" xlink:href="#linearGradient4210" />
    <filter id="filter6290" height="2.0143383" y="-0.50716913" width="1.2223207" x="-0.11116035">
      <feGaussianBlur id="feGaussianBlur6292" stdDeviation="2.0286765" />
    </filter>
    <linearGradient gradientTransform="matrix(0.70311332,0,0,0.5719586,10.415988,15.403105)" gradientUnits="userSpaceOnUse" y2="3.273787" x2="27.621359" y1="3.273787" x1="5.5785265" id="linearGradient6988" xlink:href="#linearGradient6242" />
    <linearGradient id="linearGradient6242">
      <stop id="stop6244" offset="0" style="stop-color:#d7b47f;stop-opacity:1;" />
      <stop id="stop6246" offset="1" style="stop-color:#f4dbb3;stop-opacity:1" />
    </linearGradient>
    <linearGradient y2="23.499716" x2="1.8265705" y1="16.526962" x1="8" gradientTransform="matrix(0.49233843,0,0,0.65732664,10.644262,5.2704861)" gradientUnits="userSpaceOnUse" id="linearGradient6218" xlink:href="#linearGradient6210" />
    <linearGradient id="linearGradient6210">
      <stop style="stop-color:#f9ead2;stop-opacity:1;" offset="0" id="stop6212" />
      <stop style="stop-color:#e4a546;stop-opacity:1;" offset="1" id="stop6214" />
    </linearGradient>
    <linearGradient gradientTransform="matrix(0.49233843,0,0,0.49426661,10.644262,13.260014)" y2="10.654029" x2="8" y1="10.140735" x1="6.6749902" gradientUnits="userSpaceOnUse" id="linearGradient6198" xlink:href="#linearGradient6190" />
    <linearGradient y2="14.38251" x2="23.451571" y1="49.424099" x1="24.990499" gradientTransform="matrix(0.49898363,0,0,0.20528972,8.0458144,11.921751)" gradientUnits="userSpaceOnUse" id="linearGradient4879" xlink:href="#linearGradient6204" />
    <linearGradient id="linearGradient6204">
      <stop style="stop-color:#120c02;stop-opacity:1;" offset="0" id="stop6206" />
      <stop style="stop-color:#b97a1b;stop-opacity:1.0000000;" offset="1.0000000" id="stop6208" />
    </linearGradient>
    <linearGradient y2="23.422194" x2="43.588387" y1="20.232172" x1="37.308056" gradientTransform="matrix(0.49233843,0,0,0.6588612,10.644262,5.2517435)" gradientUnits="userSpaceOnUse" id="linearGradient6216" xlink:href="#linearGradient6210" />
    <linearGradient gradientTransform="matrix(0.49233843,0,0,0.49542043,10.644262,13.259923)" y2="10.742416" x2="37.308056" y1="9.3452396" x1="41.448223" gradientUnits="userSpaceOnUse" id="linearGradient6200" xlink:href="#linearGradient6190" />
    <linearGradient gradientUnits="userSpaceOnUse" y2="17.451044" x2="23.635448" y1="8.8116999" x1="20.590914" id="linearGradient5148" xlink:href="#linearGradient5146" />
  </defs>
  <metadata id="metadata5">
    <rdf:RDF>
      <cc:Work rdf:about="">
        <dc:format>image/svg+xml</dc:format>
        <dc:type rdf:resource="http://purl.org/dc/dcmitype/StillImage" />
        <dc:title></dc:title>
      </cc:Work>
    </rdf:RDF>
  </metadata>
  <path style="display:block;overflow:visible;visibility:visible;opacity:1;fill:url(#linearGradient6216);fill-opacity:1;fill-rule:nonzero;stroke:url(#linearGradient6200);stroke-width:0.69468141;stroke-linecap:butt;stroke-linejoin:round;stroke-miterlimit:4;stroke-dasharray:none;stroke-dashoffset:0;stroke-opacity:1;marker:none;marker-start:none;marker-mid:none;marker-end:none;enable-background:accumulate" d="m 29.599303,18.947545 2.982616,1.860028 -0.463754,-3.321777 -2.598432,-1.911102 z" id="path4881" />
  <rect ry="0.38001958" rx="0.38779449" y="15.574695" x="14.283096" height="4.3993864" width="15.468493" id="rect4877" style="display:block;overflow:visible;visibility:visible;opacity:1;fill:url(#linearGradient4879);fill-opacity:1;fill-rule:nonzero;stroke:#a0670c;stroke-width:0.69468188;stroke-linecap:butt;stroke-linejoin:miter;stroke-miterlimit:4;stroke-dasharray:none;stroke-dashoffset:0;stroke-opacity:1;marker:none;marker-start:none;marker-mid:none;marker-end:none;enable-background:accumulate" />
  <path style="display:block;overflow:visible;visibility:visible;opacity:1;fill:url(#linearGradient6218);fill-opacity:1;fill-rule:nonzero;stroke:url(#linearGradient6198);stroke-width:0.69468188;stroke-linecap:butt;stroke-linejoin:round;stroke-miterlimit:4;stroke-dasharray:none;stroke-dashoffset:0;stroke-opacity:1;marker:none;marker-start:none;marker-mid:none;marker-end:none;enable-background:accumulate" d="m 14.367574,15.574694 -0.03077,3.369388 -2.881931,2.471333 0.435171,-3.88175 z" id="path4883" />
  <rect style="opacity:0.61363639;fill:none;fill-opacity:1;fill-rule:evenodd;stroke:url(#linearGradient6988);stroke-width:0.69468129;stroke-linecap:round;stroke-linejoin:round;stroke-miterlimit:4;stroke-dasharray:none;stroke-dashoffset:0.69999993;stroke-opacity:1" id="rect6003" width="15.468493" height="3.431752" x="14.283096" y="16.261042" rx="0.32570657" ry="0.31794134" />
  <path id="path4504" d="m 25.368225,11.625923 c 1.584817,-0.140338 2.457534,-1.100772 3.634338,-1.7060861 -1.335919,3.9532951 -2.799876,8.0035511 -4.403887,12.0182831 l -9.204922,-8.980982 c 0,0 3.666274,0.308921 4.512478,-0.341025 C 17.578284,1.2103937 5.9010892,2.1771537 -0.04192782,4.0417892 V 2.1488631 C 12.549359,-0.26552121 23.07032,0.99265235 25.368225,11.625923 Z" style="fill:url(#linearGradient5148);fill-opacity:1;stroke:#2a2a2a;stroke-width:0.39825162;stroke-miterlimit:4;stroke-dasharray:none;stroke-opacity:1" />
  <rect style="display:block;overflow:visible;visibility:visible;opacity:0.5;fill:#000000;fill-opacity:1;fill-rule:nonzero;stroke:none;stroke-width:1;stroke-linecap:butt;stroke-linejoin:round;stroke-miterlimit:4;stroke-dasharray:none;stroke-dashoffset:0;stroke-opacity:1;marker:none;marker-start:none;marker-mid:none;marker-end:none;filter:url(#filter6290);enable-background:accumulate" id="rect6264" width="36.5" height="8" x="5" y="31" rx="5.7124391" ry="5.7142935" transform="matrix(0.49233847,0,0,0.48044457,10.644262,13.488079)" />
  <rect style="display:block;overflow:visible;visibility:visible;opacity:1;fill:url(#linearGradient6232);fill-opacity:1;fill-rule:nonzero;stroke:#a0670c;stroke-width:0.69468188;stroke-linecap:butt;stroke-linejoin:miter;stroke-miterlimit:4;stroke-dasharray:none;stroke-dashoffset:0;stroke-opacity:1;marker:none;marker-start:none;marker-mid:none;marker-end:none;enable-background:accumulate" id="rect4873" width="15.414804" height="12.347561" x="14.336785" y="19.013191" rx="1.345909" ry="1.3138211" />
  <rect style="display:block;overflow:visible;visibility:visible;opacity:0.55294118;fill:url(#linearGradient6228);fill-opacity:1;fill-rule:nonzero;stroke:none;stroke-width:0.69468188;stroke-linecap:butt;stroke-linejoin:miter;stroke-miterlimit:4;stroke-dasharray:none;stroke-dashoffset:0;stroke-opacity:1;marker:none;marker-start:none;marker-mid:none;marker-end:none;enable-background:accumulate" id="rect6220" width="14.893238" height="5.5851679" x="14.459873" y="20.814859" />
  <path style="display:block;overflow:visible;visibility:visible;opacity:1;fill:url(#linearGradient6252);fill-opacity:1;fill-rule:nonzero;stroke:url(#linearGradient6254);stroke-width:0.69468188;stroke-linecap:butt;stroke-linejoin:miter;stroke-miterlimit:4;stroke-dasharray:none;stroke-dashoffset:0;stroke-opacity:1;marker:none;marker-start:none;marker-mid:none;marker-end:none;enable-background:accumulate" d="M 14.365387,18.985298 13.38071,23.124547 H 30.569047 L 29.632261,18.999158 Z" id="path4885" />
  <path style="display:block;overflow:visible;visibility:visible;opacity:0.3;fill:none;fill-opacity:1;fill-rule:nonzero;stroke:url(#linearGradient6387);stroke-width:0.69468188;stroke-linecap:butt;stroke-linejoin:miter;stroke-miterlimit:4;stroke-dasharray:none;stroke-dashoffset:0;stroke-opacity:1;marker:none;marker-start:none;marker-mid:none;marker-end:none;enable-background:accumulate" id="path5406" d="m 14.935098,19.682072 -0.655049,2.746742 H 29.678512 L 29.067408,19.70084 Z" />
</svg>
