<?xml version="1.0" encoding="UTF-8" standalone="no"?>
<svg xmlns:dc="http://purl.org/dc/elements/1.1/" xmlns:cc="http://creativecommons.org/ns#" xmlns:rdf="http://www.w3.org/1999/02/22-rdf-syntax-ns#" xmlns:svg="http://www.w3.org/2000/svg" xmlns="http://www.w3.org/2000/svg" xmlns:xlink="http://www.w3.org/1999/xlink" version="1.1" width="51.200001" height="51.200001" id="svg249">
  <defs id="defs3">
    <linearGradient id="linearGradient3656">
      <stop id="stop3658" offset="0" style="stop-color:#ffffff;stop-opacity:1;" />
      <stop id="stop3660" offset="1" style="stop-color:#ffffff;stop-opacity:0;" />
    </linearGradient>
    <linearGradient y2="9.687501" x2="-24.75" y1="11.566258" x1="-26.753757" gradientUnits="userSpaceOnUse" id="linearGradient7576" xlink:href="#linearGradient3656" />
    <linearGradient id="linearGradient3520">
      <stop id="stop3522" offset="0" style="stop-color:#000000;stop-opacity:0.41295547" />
      <stop id="stop3524" offset="1" style="stop-color:#000000;stop-opacity:0;" />
    </linearGradient>
    <linearGradient y2="14.069944" x2="-28.789402" y1="11.052948" x1="-18.588562" gradientTransform="matrix(0.98379285,0,0,0.97981344,-98.610526,321.41408)" gradientUnits="userSpaceOnUse" id="linearGradient7580" xlink:href="#linearGradient3520" />
    <linearGradient id="linearGradient3671">
      <stop id="stop3673" offset="0" style="stop-color:#ffffff;stop-opacity:1;" />
      <stop style="stop-color:#ffffff;stop-opacity:1;" offset="0.47533694" id="stop3691" />
      <stop id="stop3675" offset="1" style="stop-color:#ffffff;stop-opacity:0;" />
    </linearGradient>
    <radialGradient r="7.0421038" fy="10.108011" fx="-26.305403" cy="10.108011" cx="-26.305403" gradientTransform="matrix(0.43449195,-0.29848277,0.80109792,1.1661325,-122.86383,310.99961)" gradientUnits="userSpaceOnUse" id="radialGradient7583" xlink:href="#linearGradient3671" />
    <linearGradient id="linearGradient4202">
      <stop id="stop4204" offset="0" style="stop-color:#ffffff;stop-opacity:1;" />
      <stop id="stop4206" offset="1" style="stop-color:#ffffff;stop-opacity:0;" />
    </linearGradient>
    <linearGradient gradientTransform="scale(1.0666667)" y2="310.11795" x2="-116.61133" y1="315.52698" x1="-120.58881" gradientUnits="userSpaceOnUse" id="linearGradient7570" xlink:href="#linearGradient4202" />
    <linearGradient id="linearGradient3613">
      <stop id="stop3615" offset="0" style="stop-color:#888a85;stop-opacity:1" />
      <stop id="stop3617" offset="1" style="stop-color:#babdb6;stop-opacity:1" />
    </linearGradient>
    <linearGradient y2="-22.502075" x2="-62.75" y1="49.020683" x1="-47.5" gradientTransform="matrix(1.0666667,0,0,1.0666667,-96,320)" gradientUnits="userSpaceOnUse" id="linearGradient7613" xlink:href="#linearGradient3613" />
    <linearGradient id="linearGradient3683">
      <stop style="stop-color:#f6f6f5;stop-opacity:1;" offset="0" id="stop3685" />
      <stop style="stop-color:#d3d7cf;stop-opacity:1" offset="1" id="stop3689" />
    </linearGradient>
    <radialGradient r="18.000002" fy="35.357208" fx="-30.249996" cy="35.357208" cx="-30.249996" gradientTransform="matrix(4.2621325,0,0,2.0640391,0.66283733,286.75475)" gradientUnits="userSpaceOnUse" id="radialGradient7611" xlink:href="#linearGradient3683" />
    <linearGradient gradientTransform="scale(1.0666667)" y2="39.999443" x2="25.058096" y1="47.027729" x1="25.058096" gradientUnits="userSpaceOnUse" id="linearGradient7564" xlink:href="#linearGradient3702" />
    <radialGradient r="2.5" fy="43.5" fx="4.9929786" cy="43.5" cx="4.9929786" gradientTransform="matrix(2.1373696,0,0,1.4933333,-21.345995,-111.36)" gradientUnits="userSpaceOnUse" id="radialGradient7562" xlink:href="#linearGradient3688" />
    <radialGradient r="2.5" fy="43.5" fx="4.9929786" cy="43.5" cx="4.9929786" gradientTransform="matrix(2.1373696,0,0,1.4933333,29.854005,-18.56)" gradientUnits="userSpaceOnUse" id="radialGradient7560" xlink:href="#linearGradient3688" />
    <linearGradient id="linearGradient3702">
      <stop style="stop-color:black;stop-opacity:0;" offset="0" id="stop3704" />
      <stop id="stop3710" offset="0.5" style="stop-color:black;stop-opacity:1;" />
      <stop style="stop-color:black;stop-opacity:0;" offset="1" id="stop3706" />
    </linearGradient>
    <linearGradient gradientTransform="scale(1.0666667)" y2="39.999443" x2="25.058096" y1="47.027729" x1="25.058096" gradientUnits="userSpaceOnUse" id="linearGradient7558" xlink:href="#linearGradient3702" />
    <radialGradient r="2.5" fy="43.5" fx="4.9929786" cy="43.5" cx="4.9929786" gradientTransform="matrix(2.1373696,0,0,1.4933333,-21.345995,-111.36)" gradientUnits="userSpaceOnUse" id="radialGradient7556" xlink:href="#linearGradient3688" />
    <linearGradient id="linearGradient3688">
      <stop style="stop-color:black;stop-opacity:1;" offset="0" id="stop3690" />
      <stop style="stop-color:black;stop-opacity:0;" offset="1" id="stop3692" />
    </linearGradient>
    <radialGradient r="2.5" fy="43.5" fx="4.9929786" cy="43.5" cx="4.9929786" gradientTransform="matrix(2.1373696,0,0,1.4933333,29.854005,-18.56)" gradientUnits="userSpaceOnUse" id="radialGradient7554" xlink:href="#linearGradient3688" />
  </defs>
  <metadata id="metadata4">
    <rdf:RDF>
      <cc:Work rdf:about="">
        <dc:format>image/svg+xml</dc:format>
        <dc:type rdf:resource="http://purl.org/dc/dcmitype/StillImage" />
        <dc:title></dc:title>
        <dc:subject>
          <rdf:Bag>
            <rdf:li>template</rdf:li>
            <rdf:li>text</rdf:li>
            <rdf:li>document</rdf:li>
          </rdf:Bag>
        </dc:subject>
        <cc:license rdf:resource="" />
        <dc:creator>
          <cc:Agent>
            <dc:title />
          </cc:Agent>
        </dc:creator>
        <dc:source />
        <dc:date />
        <dc:rights>
          <cc:Agent>
            <dc:title />
          </cc:Agent>
        </dc:rights>
        <dc:publisher>
          <cc:Agent>
            <dc:title />
          </cc:Agent>
        </dc:publisher>
        <dc:identifier />
        <dc:relation />
        <dc:language />
        <dc:coverage />
        <dc:description />
        <dc:contributor>
          <cc:Agent>
            <dc:title>Jakub Steiner</dc:title>
          </cc:Agent>
        </dc:contributor>
      </cc:Work>
    </rdf:RDF>
  </metadata>
  <g id="layer6" />
  <g id="layer1" style="display:inline" />
  <g style="display:inline" id="layer5">
    <g transform="translate(160,-320)" id="g9453" style="display:inline">
      <g id="g7799">
        <rect y="320" x="-160" height="51.200001" width="51.200001" id="rect3925" style="display:inline;opacity:0;fill:#000000;fill-opacity:1;stroke:none;stroke-width:1.06666672;stroke-miterlimit:4;stroke-dasharray:none" />
        <g id="g7777">
          <g style="display:inline;opacity:0.65587045" id="g3929" transform="matrix(1.0464281,0,0,0.8888889,-161.26476,326.10372)">
            <g id="g3931" style="opacity:0.4" transform="matrix(1.052632,0,0,1.285713,-1.3473685,-14.323776)">
              <rect y="42.666668" x="40.533333" height="7.4666667" width="5.3333335" id="rect3933" style="opacity:1;fill:url(#radialGradient7554);fill-opacity:1;stroke:none;stroke-width:1.06666672;stroke-linecap:round;stroke-linejoin:miter;stroke-miterlimit:4;stroke-dasharray:none;stroke-opacity:1" />
              <rect transform="scale(-1)" y="-50.133335" x="-10.666667" height="7.4666667" width="5.3333335" id="rect3935" style="opacity:1;fill:url(#radialGradient7556);fill-opacity:1;stroke:none;stroke-width:1.06666672;stroke-linecap:round;stroke-linejoin:miter;stroke-miterlimit:4;stroke-dasharray:none;stroke-opacity:1" />
              <rect y="42.666668" x="10.666667" height="7.4666672" width="29.866667" id="rect3937" style="opacity:1;fill:url(#linearGradient7558);fill-opacity:1;stroke:none;stroke-width:1.06666672;stroke-linecap:round;stroke-linejoin:miter;stroke-miterlimit:4;stroke-dasharray:none;stroke-opacity:1" />
            </g>
          </g>
          <g style="display:inline" id="g3939" transform="matrix(0.9548466,0,0,0.5555562,-158.92028,341.21479)">
            <g id="g3941" style="opacity:0.4" transform="matrix(1.052632,0,0,1.285713,-1.3473685,-14.323776)">
              <rect y="42.666668" x="40.533333" height="7.4666667" width="5.3333335" id="rect3943" style="opacity:1;fill:url(#radialGradient7560);fill-opacity:1;stroke:none;stroke-width:1.06666672;stroke-linecap:round;stroke-linejoin:miter;stroke-miterlimit:4;stroke-dasharray:none;stroke-opacity:1" />
              <rect transform="scale(-1)" y="-50.133335" x="-10.666667" height="7.4666667" width="5.3333335" id="rect3945" style="opacity:1;fill:url(#radialGradient7562);fill-opacity:1;stroke:none;stroke-width:1.06666672;stroke-linecap:round;stroke-linejoin:miter;stroke-miterlimit:4;stroke-dasharray:none;stroke-opacity:1" />
              <rect y="42.666668" x="10.666667" height="7.4666672" width="29.866667" id="rect3947" style="opacity:1;fill:url(#linearGradient7564);fill-opacity:1;stroke:none;stroke-width:1.06666672;stroke-linecap:round;stroke-linejoin:miter;stroke-miterlimit:4;stroke-dasharray:none;stroke-opacity:1" />
            </g>
          </g>
          <path style="display:inline;fill:url(#radialGradient7611);fill-opacity:1;stroke:url(#linearGradient7613);stroke-width:1.06666672;stroke-miterlimit:4" d="m -150.90788,323.73333 c 0,0 18.64121,0 20.24121,0 4.13552,0.0778 6.93334,2.66667 9.6,5.33334 2.66667,2.66666 4.91486,5.6028 5.33334,9.6 0,1.6 0,26.64121 0,26.64121 0,1.19597 -0.96282,2.15879 -2.15878,2.15879 h -33.01577 c -1.19597,0 -2.15879,-0.96282 -2.15879,-2.15879 v -39.41576 c 0,-1.19597 0.96282,-2.15879 2.15879,-2.15879 z" id="path3949" />
          <g id="g4176" transform="translate(0.12250667,0.05720533)">
            <path style="display:inline;opacity:0.3;fill:url(#linearGradient7570);fill-opacity:1;fill-rule:evenodd;stroke:none;stroke-width:1.06666672px;stroke-linecap:butt;stroke-linejoin:miter;stroke-opacity:1" d="m -116.32251,366.07613 -18.2,-35.46667 v -6.4 h 8.53334 l 9.06666,10.73333 z" id="path5493" />
            <path style="opacity:0.05;fill:#707070;fill-opacity:1;fill-rule:evenodd;stroke:none;stroke-width:1.06666672px;stroke-linecap:butt;stroke-linejoin:miter;stroke-opacity:1" d="m -152.65584,366.07613 18.2,-35.46667 v -6.4 h -18.13333 z" id="path4544" />
          </g>
          <path style="display:inline;fill:url(#radialGradient7583);fill-opacity:1;stroke:none;stroke-width:1.06666672;stroke-miterlimit:4" d="m -130.66667,324.26667 c -1.48148,0 -0.0449,0.53023 1.43334,1.2 1.4782,0.66977 5.3044,3.42938 4.43333,7.33333 4.61153,-0.45929 7.12441,3.33054 7.46667,4.56667 0.34226,1.23612 1.06666,2.78148 1.06666,1.3 0.0302,-4.05929 -3.03512,-6.86048 -5.16666,-9.23334 -2.13154,-2.37285 -5.33596,-4.65812 -9.23334,-5.16666 z" id="path3953" />
          <path style="display:inline;opacity:0.87854249;fill:url(#linearGradient7580);fill-opacity:1;stroke:none;stroke-width:1.06666672;stroke-miterlimit:4" d="m -129.49239,325.34864 c 0.98378,0 3.209,6.6087 2.22521,11.01787 4.58129,-0.45628 9.44361,0.0941 9.93385,1.00016 -0.34226,-1.23613 -2.85514,-5.02596 -7.46667,-4.56667 0.9223,-4.13359 -3.39901,-7.05845 -4.69239,-7.45136 z" id="path3955" />
          <path style="display:inline;fill:none;fill-opacity:1;stroke:url(#linearGradient7576);stroke-width:1;stroke-miterlimit:4" id="path3957" d="m -51.46875,4.4941406 c -0.583166,0 -1.037109,0.4539436 -1.037109,1.0371094 v 36.9375 c 0,0.583165 0.453945,1.037109 1.037109,1.037109 h 30.9375 c 0.583165,0 1.037109,-0.453945 1.037109,-1.037109 V 17.5 c 0,-1.279029 -0.501953,-4.089844 -2.208984,-5.796875 l -5,-5 C -28.410156,4.9960937 -31.220971,4.4941406 -32.5,4.4941406 Z" transform="matrix(1.0666667,0,0,1.0666667,-96,320)" />
        </g>
      </g>
      <g style="display:inline;opacity:0.7" id="g8466">
        <path transform="matrix(1.0666667,0,0,1.0666667,-0.4,-0.13333333)" d="m -125.5,307.17578 c -0.72723,0 -1.32422,0.59698 -1.32422,1.32422 0,0.72724 0.59699,1.32421 1.32422,1.32422 0.72724,0 1.32422,-0.59699 1.32422,-1.32422 0,-0.72724 -0.59698,-1.32423 -1.32422,-1.32422 z m 0,4 c -0.72723,0 -1.32422,0.59698 -1.32422,1.32422 0,0.72724 0.59699,1.32421 1.32422,1.32422 0.72724,0 1.32422,-0.59699 1.32422,-1.32422 0,-0.72724 -0.59698,-1.32423 -1.32422,-1.32422 z m -3,4 c -0.72724,0 -1.32422,0.59698 -1.32422,1.32422 0,0.72724 0.59698,1.32422 1.32422,1.32422 0.72724,0 1.32422,-0.59698 1.32422,-1.32422 0,-0.72724 -0.59698,-1.32422 -1.32422,-1.32422 z m 6,0 c -0.72724,0 -1.32422,0.59698 -1.32422,1.32422 0,0.72724 0.59698,1.32422 1.32422,1.32422 0.72724,0 1.32422,-0.59698 1.32422,-1.32422 0,-0.72724 -0.59698,-1.32422 -1.32422,-1.32422 z m -8,4 c -0.72724,0 -1.32422,0.59698 -1.32422,1.32422 0,0.72724 0.59698,1.32422 1.32422,1.32422 0.72724,0 1.32422,-0.59698 1.32422,-1.32422 0,-0.72724 -0.59698,-1.32422 -1.32422,-1.32422 z m 5,0 c -0.72724,0 -1.32422,0.59698 -1.32422,1.32422 0,0.72724 0.59698,1.32422 1.32422,1.32422 0.72724,0 1.32422,-0.59698 1.32422,-1.32422 0,-0.72724 -0.59698,-1.32422 -1.32422,-1.32422 z m 5,0 c -0.72724,0 -1.32422,0.59698 -1.32422,1.32422 0,0.72724 0.59698,1.32422 1.32422,1.32422 0.72724,0 1.32422,-0.59698 1.32422,-1.32422 0,-0.72724 -0.59698,-1.32422 -1.32422,-1.32422 z m -12,4 c -0.72724,0 -1.32422,0.59698 -1.32422,1.32422 0,0.72724 0.59698,1.32422 1.32422,1.32422 0.72724,0 1.32422,-0.59698 1.32422,-1.32422 0,-0.72724 -0.59698,-1.32422 -1.32422,-1.32422 z m 7,0 c -0.72724,0 -1.32422,0.59698 -1.32422,1.32422 0,0.72724 0.59698,1.32422 1.32422,1.32422 0.72724,0 1.32422,-0.59698 1.32422,-1.32422 0,-0.72724 -0.59698,-1.32422 -1.32422,-1.32422 z m 7,0 c -0.72724,0 -1.32422,0.59698 -1.32422,1.32422 0,0.72724 0.59698,1.32422 1.32422,1.32422 0.72724,0 1.32422,-0.59698 1.32422,-1.32422 0,-0.72724 -0.59698,-1.32422 -1.32422,-1.32422 z m -16,4 c -0.72724,0 -1.32422,0.59698 -1.32422,1.32422 0,0.72724 0.59698,1.32422 1.32422,1.32422 0.72724,0 1.32422,-0.59698 1.32422,-1.32422 0,-0.72724 -0.59698,-1.32422 -1.32422,-1.32422 z m 9,0 c -0.72724,0 -1.32422,0.59698 -1.32422,1.32422 0,0.72724 0.59698,1.32422 1.32422,1.32422 0.72724,0 1.32422,-0.59698 1.32422,-1.32422 0,-0.72724 -0.59698,-1.32422 -1.32422,-1.32422 z m 9,0 c -0.72724,0 -1.32422,0.59698 -1.32422,1.32422 0,0.72724 0.59698,1.32422 1.32422,1.32422 0.72724,0 1.32422,-0.59698 1.32422,-1.32422 0,-0.72724 -0.59698,-1.32422 -1.32422,-1.32422 z m -20,4 c -0.72724,0 -1.32422,0.59698 -1.32422,1.32422 0,0.72724 0.59698,1.32422 1.32422,1.32422 0.72724,0 1.32422,-0.59698 1.32422,-1.32422 0,-0.72724 -0.59698,-1.32422 -1.32422,-1.32422 z m 11,0 c -0.72724,0 -1.32422,0.59698 -1.32422,1.32422 0,0.72724 0.59698,1.32422 1.32422,1.32422 0.72724,0 1.32422,-0.59698 1.32422,-1.32422 0,-0.72724 -0.59698,-1.32422 -1.32422,-1.32422 z m 11,0 c -0.72724,0 -1.32422,0.59698 -1.32422,1.32422 0,0.72724 0.59698,1.32422 1.32422,1.32422 0.72724,0 1.32422,-0.59698 1.32422,-1.32422 0,-0.72724 -0.59698,-1.32422 -1.32422,-1.32422 z m -24,4 c -0.72724,0 -1.32422,0.59698 -1.32422,1.32422 0,0.72724 0.59698,1.32422 1.32422,1.32422 0.72724,0 1.32422,-0.59698 1.32422,-1.32422 0,-0.72724 -0.59698,-1.32422 -1.32422,-1.32422 z m 13,0 c -0.72724,0 -1.32422,0.59698 -1.32422,1.32422 0,0.72724 0.59698,1.32422 1.32422,1.32422 0.72724,0 1.32422,-0.59698 1.32422,-1.32422 0,-0.72724 -0.59698,-1.32422 -1.32422,-1.32422 z m 13,0 c -0.72724,0 -1.32422,0.59698 -1.32422,1.32422 0,0.72724 0.59698,1.32422 1.32422,1.32422 0.72724,0 1.32422,-0.59698 1.32422,-1.32422 0,-0.72724 -0.59698,-1.32422 -1.32422,-1.32422 z m -28,4 c -0.72724,0 -1.32422,0.59698 -1.32422,1.32422 0,0.72724 0.59698,1.32422 1.32422,1.32422 0.72724,0 1.32422,-0.59698 1.32422,-1.32422 0,-0.72724 -0.59698,-1.32422 -1.32422,-1.32422 z m 15,0 c -0.72724,0 -1.32422,0.59698 -1.32422,1.32422 0,0.72724 0.59698,1.32422 1.32422,1.32422 0.72724,0 1.32422,-0.59698 1.32422,-1.32422 0,-0.72724 -0.59698,-1.32422 -1.32422,-1.32422 z m 15,0 c -0.72724,0 -1.32422,0.59698 -1.32422,1.32422 0,0.72724 0.59698,1.32422 1.32422,1.32422 0.72724,0 1.32422,-0.59698 1.32422,-1.32422 0,-0.72724 -0.59698,-1.32422 -1.32422,-1.32422 z" id="path7633" style="display:inline;opacity:1;fill:#ffffff;fill-opacity:1;stroke:none;stroke-width:1;stroke-linecap:round;stroke-linejoin:miter;stroke-miterlimit:4;stroke-dasharray:1, 3;stroke-dashoffset:0;stroke-opacity:1" />
        <path id="path7635" d="m -134.4,327.46667 c -0.5888,0 -1.06667,0.47785 -1.06667,1.06666 0,0.5888 0.47787,1.06666 1.06667,1.06667 0.5888,0 1.06667,-0.47788 1.06667,-1.06667 0,-0.5888 -0.47787,-1.06667 -1.06667,-1.06666 z m 0,4.26666 c -0.5888,0 -1.06667,0.47786 -1.06667,1.06667 0,0.5888 0.47787,1.06666 1.06667,1.06667 0.5888,0 1.06667,-0.47788 1.06667,-1.06667 0,-0.5888 -0.47787,-1.06668 -1.06667,-1.06667 z M -137.6,336 c -0.5888,0 -1.06667,0.47787 -1.06667,1.06667 0,0.5888 0.47787,1.06666 1.06667,1.06666 0.5888,0 1.06667,-0.47786 1.06667,-1.06666 0,-0.5888 -0.47787,-1.06667 -1.06667,-1.06667 z m 6.4,0 c -0.5888,0 -1.06667,0.47787 -1.06667,1.06667 0,0.5888 0.47787,1.06666 1.06667,1.06666 0.5888,0 1.06667,-0.47786 1.06667,-1.06666 0,-0.5888 -0.47787,-1.06667 -1.06667,-1.06667 z m -8.53333,4.26667 c -0.5888,0 -1.06667,0.47786 -1.06667,1.06666 0,0.5888 0.47787,1.06667 1.06667,1.06667 0.5888,0 1.06666,-0.47787 1.06666,-1.06667 0,-0.5888 -0.47786,-1.06666 -1.06666,-1.06666 z m 5.33333,0 c -0.5888,0 -1.06667,0.47786 -1.06667,1.06666 0,0.5888 0.47787,1.06667 1.06667,1.06667 0.5888,0 1.06667,-0.47787 1.06667,-1.06667 0,-0.5888 -0.47787,-1.06666 -1.06667,-1.06666 z m 5.33333,0 c -0.5888,0 -1.06666,0.47786 -1.06666,1.06666 0,0.5888 0.47786,1.06667 1.06666,1.06667 0.5888,0 1.06667,-0.47787 1.06667,-1.06667 0,-0.5888 -0.47787,-1.06666 -1.06667,-1.06666 z m -12.8,4.26666 c -0.5888,0 -1.06666,0.47787 -1.06666,1.06667 0,0.5888 0.47786,1.06667 1.06666,1.06667 0.5888,0 1.06667,-0.47787 1.06667,-1.06667 0,-0.5888 -0.47787,-1.06667 -1.06667,-1.06667 z m 7.46667,0 c -0.5888,0 -1.06667,0.47787 -1.06667,1.06667 0,0.5888 0.47787,1.06667 1.06667,1.06667 0.5888,0 1.06667,-0.47787 1.06667,-1.06667 0,-0.5888 -0.47787,-1.06667 -1.06667,-1.06667 z m 7.46667,0 c -0.5888,0 -1.06667,0.47787 -1.06667,1.06667 0,0.5888 0.47787,1.06667 1.06667,1.06667 0.5888,0 1.06666,-0.47787 1.06666,-1.06667 0,-0.5888 -0.47786,-1.06667 -1.06666,-1.06667 z M -144,348.8 c -0.5888,0 -1.06667,0.47787 -1.06667,1.06667 0,0.5888 0.47787,1.06666 1.06667,1.06666 0.5888,0 1.06667,-0.47786 1.06667,-1.06666 0,-0.5888 -0.47787,-1.06667 -1.06667,-1.06667 z m 9.6,0 c -0.5888,0 -1.06667,0.47787 -1.06667,1.06667 0,0.5888 0.47787,1.06666 1.06667,1.06666 0.5888,0 1.06667,-0.47786 1.06667,-1.06666 0,-0.5888 -0.47787,-1.06667 -1.06667,-1.06667 z m 9.6,0 c -0.5888,0 -1.06667,0.47787 -1.06667,1.06667 0,0.5888 0.47787,1.06666 1.06667,1.06666 0.5888,0 1.06667,-0.47786 1.06667,-1.06666 0,-0.5888 -0.47787,-1.06667 -1.06667,-1.06667 z m -21.33333,4.26667 c -0.5888,0 -1.06667,0.47786 -1.06667,1.06666 0,0.5888 0.47787,1.06667 1.06667,1.06667 0.5888,0 1.06666,-0.47787 1.06666,-1.06667 0,-0.5888 -0.47786,-1.06666 -1.06666,-1.06666 z m 11.73333,0 c -0.5888,0 -1.06667,0.47786 -1.06667,1.06666 0,0.5888 0.47787,1.06667 1.06667,1.06667 0.5888,0 1.06667,-0.47787 1.06667,-1.06667 0,-0.5888 -0.47787,-1.06666 -1.06667,-1.06666 z m 11.73333,0 c -0.5888,0 -1.06666,0.47786 -1.06666,1.06666 0,0.5888 0.47786,1.06667 1.06666,1.06667 0.5888,0 1.06667,-0.47787 1.06667,-1.06667 0,-0.5888 -0.47787,-1.06666 -1.06667,-1.06666 z m -25.6,4.26666 c -0.5888,0 -1.06666,0.47787 -1.06666,1.06667 0,0.5888 0.47786,1.06667 1.06666,1.06667 0.5888,0 1.06667,-0.47787 1.06667,-1.06667 0,-0.5888 -0.47787,-1.06667 -1.06667,-1.06667 z m 13.86667,0 c -0.5888,0 -1.06667,0.47787 -1.06667,1.06667 0,0.5888 0.47787,1.06667 1.06667,1.06667 0.5888,0 1.06667,-0.47787 1.06667,-1.06667 0,-0.5888 -0.47787,-1.06667 -1.06667,-1.06667 z m 13.86667,0 c -0.5888,0 -1.06667,0.47787 -1.06667,1.06667 0,0.5888 0.47787,1.06667 1.06667,1.06667 0.5888,0 1.06666,-0.47787 1.06666,-1.06667 0,-0.5888 -0.47786,-1.06667 -1.06666,-1.06667 z M -150.4,361.6 c -0.5888,0 -1.06667,0.47787 -1.06667,1.06667 0,0.5888 0.47787,1.06666 1.06667,1.06666 0.5888,0 1.06667,-0.47786 1.06667,-1.06666 0,-0.5888 -0.47787,-1.06667 -1.06667,-1.06667 z m 16,0 c -0.5888,0 -1.06667,0.47787 -1.06667,1.06667 0,0.5888 0.47787,1.06666 1.06667,1.06666 0.5888,0 1.06667,-0.47786 1.06667,-1.06666 0,-0.5888 -0.47787,-1.06667 -1.06667,-1.06667 z m 16,0 c -0.5888,0 -1.06667,0.47787 -1.06667,1.06667 0,0.5888 0.47787,1.06666 1.06667,1.06666 0.5888,0 1.06667,-0.47786 1.06667,-1.06666 0,-0.5888 -0.47787,-1.06667 -1.06667,-1.06667 z" style="display:inline;opacity:1;fill:#d3d7cf;fill-opacity:1;stroke:none;stroke-width:1.06666672;stroke-linecap:round;stroke-linejoin:miter;stroke-miterlimit:4;stroke-dasharray:1.06666667, 3.2;stroke-dashoffset:0;stroke-opacity:1" />
        <path transform="matrix(1.0666667,0,0,1.0666667,0.5,0.5)" d="m -126,307.46484 c -0.30008,0 -0.53516,0.23508 -0.53516,0.53516 0,0.30007 0.23508,0.53515 0.53516,0.53516 0.30006,0 0.53516,-0.2351 0.53516,-0.53516 0,-0.30007 -0.2351,-0.53516 -0.53516,-0.53516 z m 0,4 c -0.30008,0 -0.53516,0.23508 -0.53516,0.53516 0,0.30007 0.23508,0.53515 0.53516,0.53516 0.30006,0 0.53516,-0.2351 0.53516,-0.53516 0,-0.30007 -0.2351,-0.53516 -0.53516,-0.53516 z m -3,4 c -0.30007,0 -0.53516,0.23509 -0.53516,0.53516 0,0.30007 0.23509,0.53516 0.53516,0.53516 0.30007,0 0.53516,-0.23509 0.53516,-0.53516 0,-0.30007 -0.23509,-0.53516 -0.53516,-0.53516 z m 6,0 c -0.30007,0 -0.53516,0.23509 -0.53516,0.53516 0,0.30007 0.23509,0.53516 0.53516,0.53516 0.30007,0 0.53516,-0.23509 0.53516,-0.53516 0,-0.30007 -0.23509,-0.53516 -0.53516,-0.53516 z m -8,4 c -0.30007,0 -0.53516,0.23509 -0.53516,0.53516 0,0.30007 0.23509,0.53516 0.53516,0.53516 0.30007,0 0.53516,-0.23509 0.53516,-0.53516 0,-0.30007 -0.23509,-0.53516 -0.53516,-0.53516 z m 5,0 c -0.30007,0 -0.53516,0.23509 -0.53516,0.53516 0,0.30007 0.23509,0.53516 0.53516,0.53516 0.30007,0 0.53516,-0.23509 0.53516,-0.53516 0,-0.30007 -0.23509,-0.53516 -0.53516,-0.53516 z m 5,0 c -0.30007,0 -0.53516,0.23509 -0.53516,0.53516 0,0.30007 0.23509,0.53516 0.53516,0.53516 0.30007,0 0.53516,-0.23509 0.53516,-0.53516 0,-0.30007 -0.23509,-0.53516 -0.53516,-0.53516 z m -12,4 c -0.30007,0 -0.53516,0.23509 -0.53516,0.53516 0,0.30007 0.23509,0.53516 0.53516,0.53516 0.30007,0 0.53516,-0.23509 0.53516,-0.53516 0,-0.30007 -0.23509,-0.53516 -0.53516,-0.53516 z m 7,0 c -0.30007,0 -0.53516,0.23509 -0.53516,0.53516 0,0.30007 0.23509,0.53516 0.53516,0.53516 0.30007,0 0.53516,-0.23509 0.53516,-0.53516 0,-0.30007 -0.23509,-0.53516 -0.53516,-0.53516 z m 7,0 c -0.30007,0 -0.53516,0.23509 -0.53516,0.53516 0,0.30007 0.23509,0.53516 0.53516,0.53516 0.30007,0 0.53516,-0.23509 0.53516,-0.53516 0,-0.30007 -0.23509,-0.53516 -0.53516,-0.53516 z m -16,4 c -0.30007,0 -0.53516,0.23509 -0.53516,0.53516 0,0.30007 0.23509,0.53516 0.53516,0.53516 0.30007,0 0.53516,-0.23509 0.53516,-0.53516 0,-0.30007 -0.23509,-0.53516 -0.53516,-0.53516 z m 9,0 c -0.30007,0 -0.53516,0.23509 -0.53516,0.53516 0,0.30007 0.23509,0.53516 0.53516,0.53516 0.30007,0 0.53516,-0.23509 0.53516,-0.53516 0,-0.30007 -0.23509,-0.53516 -0.53516,-0.53516 z m 9,0 c -0.30007,0 -0.53516,0.23509 -0.53516,0.53516 0,0.30007 0.23509,0.53516 0.53516,0.53516 0.30007,0 0.53516,-0.23509 0.53516,-0.53516 0,-0.30007 -0.23509,-0.53516 -0.53516,-0.53516 z m -20,4 c -0.30007,0 -0.53516,0.23509 -0.53516,0.53516 0,0.30007 0.23509,0.53516 0.53516,0.53516 0.30007,0 0.53516,-0.23509 0.53516,-0.53516 0,-0.30007 -0.23509,-0.53516 -0.53516,-0.53516 z m 11,0 c -0.30007,0 -0.53516,0.23509 -0.53516,0.53516 0,0.30007 0.23509,0.53516 0.53516,0.53516 0.30007,0 0.53516,-0.23509 0.53516,-0.53516 0,-0.30007 -0.23509,-0.53516 -0.53516,-0.53516 z m 11,0 c -0.30007,0 -0.53516,0.23509 -0.53516,0.53516 0,0.30007 0.23509,0.53516 0.53516,0.53516 0.30007,0 0.53516,-0.23509 0.53516,-0.53516 0,-0.30007 -0.23509,-0.53516 -0.53516,-0.53516 z m -24,4 c -0.30007,0 -0.53516,0.23509 -0.53516,0.53516 0,0.30007 0.23509,0.53516 0.53516,0.53516 0.30007,0 0.53516,-0.23509 0.53516,-0.53516 0,-0.30007 -0.23509,-0.53516 -0.53516,-0.53516 z m 13,0 c -0.30007,0 -0.53516,0.23509 -0.53516,0.53516 0,0.30007 0.23509,0.53516 0.53516,0.53516 0.30007,0 0.53516,-0.23509 0.53516,-0.53516 0,-0.30007 -0.23509,-0.53516 -0.53516,-0.53516 z m 13,0 c -0.30007,0 -0.53516,0.23509 -0.53516,0.53516 0,0.30007 0.23509,0.53516 0.53516,0.53516 0.30007,0 0.53516,-0.23509 0.53516,-0.53516 0,-0.30007 -0.23509,-0.53516 -0.53516,-0.53516 z m -28,4 c -0.30007,0 -0.53516,0.23509 -0.53516,0.53516 0,0.30007 0.23509,0.53516 0.53516,0.53516 0.30007,0 0.53516,-0.23509 0.53516,-0.53516 0,-0.30007 -0.23509,-0.53516 -0.53516,-0.53516 z m 15,0 c -0.30007,0 -0.53516,0.23509 -0.53516,0.53516 0,0.30007 0.23509,0.53516 0.53516,0.53516 0.30007,0 0.53516,-0.23509 0.53516,-0.53516 0,-0.30007 -0.23509,-0.53516 -0.53516,-0.53516 z m 15,0 c -0.30007,0 -0.53516,0.23509 -0.53516,0.53516 0,0.30007 0.23509,0.53516 0.53516,0.53516 0.30007,0 0.53516,-0.23509 0.53516,-0.53516 0,-0.30007 -0.23509,-0.53516 -0.53516,-0.53516 z" id="path8462" style="display:inline;opacity:1;fill:#555753;fill-opacity:1;stroke:none;stroke-width:1;stroke-linecap:round;stroke-linejoin:miter;stroke-miterlimit:4;stroke-dasharray:1, 3;stroke-dashoffset:0;stroke-opacity:1" />
      </g>
    </g>
  </g>
</svg>
