<?xml version="1.0" encoding="UTF-8" standalone="no"?>
<svg xmlns:dc="http://purl.org/dc/elements/1.1/" xmlns:cc="http://creativecommons.org/ns#" xmlns:rdf="http://www.w3.org/1999/02/22-rdf-syntax-ns#" xmlns:svg="http://www.w3.org/2000/svg" xmlns="http://www.w3.org/2000/svg" version="1.0" width="34mm" height="34mm" id="svg2">
  <metadata id="metadata5935">
    <rdf:RDF>
      <cc:Work rdf:about="">
        <dc:format>image/svg+xml</dc:format>
        <dc:type rdf:resource="http://purl.org/dc/dcmitype/StillImage" />
        <dc:title></dc:title>
      </cc:Work>
    </rdf:RDF>
  </metadata>
  <defs id="defs4" />
  <g transform="matrix(0.99902131,0,0,1.2009439,0.06298853,-0.1803522)" id="g5228">
    <path d="M 68.96706,0.58630955 C 69.253536,9.8923595 124.46946,15.59093 126.70449,37.6501 c 0,0 -124.7751971,0 -124.7751971,0 C 1.1948249,16.05426 59.560337,9.2654695 59.666713,0.58630955" id="path7613" style="fill:#fffd58;fill-opacity:1;fill-rule:evenodd;stroke:#000000;stroke-width:1.74630773;stroke-linecap:butt;stroke-linejoin:miter;stroke-miterlimit:4;stroke-dasharray:none;stroke-opacity:1" />
    <path d="m 126.70449,37.65008 c 0,-4.84552 -30.868366,-4.97428 -65.306317,-4.97428 -34.437949,0 -59.4688801,0.12876 -59.4688801,4.97428 0,4.84555 27.9496321,8.77816 62.3875941,8.77816 34.437951,0 62.387603,-3.93261 62.387603,-8.77816 z" id="path7621" style="display:inline;overflow:visible;visibility:visible;fill:#fffe95;fill-opacity:1;fill-rule:evenodd;stroke:#000000;stroke-width:1.74630773;stroke-linecap:butt;stroke-linejoin:miter;stroke-miterlimit:4;stroke-dasharray:none;stroke-dashoffset:0;stroke-opacity:1;marker:none" />
    <path style="display:inline;overflow:visible;visibility:visible;fill:#ffaa58;fill-opacity:1;fill-rule:evenodd;stroke:#000000;stroke-width:1.30973148;stroke-linecap:butt;stroke-linejoin:miter;stroke-miterlimit:4;stroke-dasharray:none;stroke-dashoffset:0;stroke-opacity:1;marker:none" id="path7625" d="m 74.547911,40.12644 c 0,0.98256 -4.582778,1.77908 -10.235919,1.77908 -5.653143,0 -10.23592,-0.79652 -10.23592,-1.77908 0,-0.98256 4.582777,-1.77908 10.23592,-1.77908 5.653141,0 10.235919,0.79652 10.235919,1.77908 z" />
    <path style="display:inline;overflow:visible;visibility:visible;fill:#ffaa58;fill-opacity:1;fill-rule:evenodd;stroke:#000000;stroke-width:1.30973148;stroke-linecap:butt;stroke-linejoin:miter;stroke-miterlimit:4;stroke-dasharray:none;stroke-dashoffset:0;stroke-opacity:1;marker:none" id="path7627" d="m 102.4781,41.79115 c 0,0.98255 -4.582784,1.77907 -10.235927,1.77907 -5.653141,0 -10.235919,-0.79652 -10.235919,-1.77907 0,-0.98256 4.582778,-1.77908 10.235919,-1.77908 5.653143,0 10.235927,0.79652 10.235927,1.77908 z" />
    <path style="display:inline;overflow:visible;visibility:visible;fill:#ffaa58;fill-opacity:1;fill-rule:evenodd;stroke:#000000;stroke-width:1.30973148;stroke-linecap:butt;stroke-linejoin:miter;stroke-miterlimit:4;stroke-dasharray:none;stroke-dashoffset:0;stroke-opacity:1;marker:none" id="path7629" d="m 31.702423,37.69814 c 0,0.98256 -4.582777,1.77907 -10.235919,1.77907 -5.653141,0 -10.235919,-0.79651 -10.235919,-1.77907 0,-0.98255 4.582778,-1.77908 10.235919,-1.77908 5.653142,0 10.235919,0.79653 10.235919,1.77908 z" />
    <path style="display:inline;overflow:visible;visibility:visible;fill:#ffaa58;fill-opacity:1;fill-rule:evenodd;stroke:#000000;stroke-width:1.30973148;stroke-linecap:butt;stroke-linejoin:miter;stroke-miterlimit:4;stroke-dasharray:none;stroke-dashoffset:0;stroke-opacity:1;marker:none" id="path7631" d="m 117.2868,36.94334 c 0,0.98256 -4.58278,1.77907 -10.23591,1.77907 -5.65314,0 -10.235929,-0.79651 -10.235929,-1.77907 0,-0.98255 4.582789,-1.77908 10.235929,-1.77908 5.65313,0 10.23591,0.79653 10.23591,1.77908 z" />
    <path style="display:inline;overflow:visible;visibility:visible;fill:#ffaa58;fill-opacity:1;fill-rule:evenodd;stroke:#000000;stroke-width:1.30973148;stroke-linecap:butt;stroke-linejoin:miter;stroke-miterlimit:4;stroke-dasharray:none;stroke-dashoffset:0;stroke-opacity:1;marker:none" id="path7633" d="m 59.130091,36.1967 c 0,0.98256 -4.582777,1.77908 -10.235919,1.77908 -5.653142,0 -10.235919,-0.79652 -10.235919,-1.77908 0,-0.98256 4.582777,-1.77908 10.235919,-1.77908 5.653142,0 10.235919,0.79652 10.235919,1.77908 z" />
    <path style="display:inline;overflow:visible;visibility:visible;fill:#ffaa58;fill-opacity:1;fill-rule:evenodd;stroke:#000000;stroke-width:1.30973148;stroke-linecap:butt;stroke-linejoin:miter;stroke-miterlimit:4;stroke-dasharray:none;stroke-dashoffset:0;stroke-opacity:1;marker:none" id="path7635" d="m 92.19554,36.29152 c 0,0.98256 -4.582777,1.77908 -10.235919,1.77908 -5.653142,0 -10.235919,-0.79652 -10.235919,-1.77908 0,-0.98256 4.582777,-1.77908 10.235919,-1.77908 5.653142,0 10.235919,0.79652 10.235919,1.77908 z" />
    <path style="display:inline;overflow:visible;visibility:visible;fill:#ffaa58;fill-opacity:1;fill-rule:evenodd;stroke:#000000;stroke-width:1.30973148;stroke-linecap:butt;stroke-linejoin:miter;stroke-miterlimit:4;stroke-dasharray:none;stroke-dashoffset:0;stroke-opacity:1;marker:none" id="path7637" d="m 49.153855,42.4147 c 0,0.98256 -4.582777,1.77908 -10.235919,1.77908 -5.653142,0 -10.235919,-0.79652 -10.235919,-1.77908 0,-0.98255 4.582777,-1.77907 10.235919,-1.77907 5.653142,0 10.235919,0.79652 10.235919,1.77907 z" />
  </g>
  <g transform="matrix(1,0,0,1.122108,0,-7.7796843)" id="g5239">
    <path d="m 68.96706,40.36739 c 0.286476,9.30603 55.5024,15.0046 57.73743,37.06378 0,0 -124.7751971,0 -124.7751971,0 C 1.1948249,55.83533 59.560337,49.04654 59.666713,40.36739" id="path7641" style="fill:#ffaa58;fill-opacity:1;fill-rule:evenodd;stroke:#000000;stroke-width:1.74630773;stroke-linecap:butt;stroke-linejoin:miter;stroke-miterlimit:4;stroke-dasharray:none;stroke-opacity:1" />
    <path d="m 126.70449,77.43116 c 0,-4.84554 -30.868366,-4.97429 -65.306317,-4.97429 -34.437949,0 -59.4688801,0.12875 -59.4688801,4.97429 0,4.84553 27.9496321,8.77814 62.3875941,8.77814 34.437951,0 62.387603,-3.93261 62.387603,-8.77814 z" id="path7649" style="display:inline;overflow:visible;visibility:visible;fill:#ffca95;fill-opacity:1;fill-rule:evenodd;stroke:#000000;stroke-width:1.74630773;stroke-linecap:butt;stroke-linejoin:miter;stroke-miterlimit:4;stroke-dasharray:none;stroke-dashoffset:0;stroke-opacity:1;marker:none" />
    <path d="m 74.547959,79.90797 c 0,0.98256 -4.582777,1.77908 -10.235919,1.77908 -5.653143,0 -10.23592,-0.79652 -10.23592,-1.77908 0,-0.98256 4.582777,-1.77908 10.23592,-1.77908 5.653142,0 10.235919,0.79652 10.235919,1.77908 z" id="path7653" style="display:inline;overflow:visible;visibility:visible;fill:#e28d54;fill-opacity:1;fill-rule:evenodd;stroke:#000000;stroke-width:1.30973148;stroke-linecap:butt;stroke-linejoin:miter;stroke-miterlimit:4;stroke-dasharray:none;stroke-dashoffset:0;stroke-opacity:1;marker:none" />
    <path d="m 102.47814,81.57268 c 0,0.98256 -4.582775,1.77907 -10.235918,1.77907 -5.653142,0 -10.235919,-0.79651 -10.235919,-1.77907 0,-0.98255 4.582777,-1.77908 10.235919,-1.77908 5.653143,0 10.235918,0.79653 10.235918,1.77908 z" id="path7655" style="display:inline;overflow:visible;visibility:visible;fill:#e28d54;fill-opacity:1;fill-rule:evenodd;stroke:#000000;stroke-width:1.30973148;stroke-linecap:butt;stroke-linejoin:miter;stroke-miterlimit:4;stroke-dasharray:none;stroke-dashoffset:0;stroke-opacity:1;marker:none" />
    <path d="m 31.702472,77.47967 c 0,0.98256 -4.582777,1.77907 -10.235919,1.77907 -5.653142,0 -10.235919,-0.79651 -10.235919,-1.77907 0,-0.98255 4.582777,-1.77907 10.235919,-1.77907 5.653142,0 10.235919,0.79652 10.235919,1.77907 z" id="path7657" style="display:inline;overflow:visible;visibility:visible;fill:#e28d54;fill-opacity:1;fill-rule:evenodd;stroke:#000000;stroke-width:1.30973148;stroke-linecap:butt;stroke-linejoin:miter;stroke-miterlimit:4;stroke-dasharray:none;stroke-dashoffset:0;stroke-opacity:1;marker:none" />
    <path d="m 117.28685,76.72487 c 0,0.98256 -4.58278,1.77907 -10.23592,1.77907 -5.65314,0 -10.23592,-0.79651 -10.23592,-1.77907 0,-0.98255 4.58278,-1.77907 10.23592,-1.77907 5.65314,0 10.23592,0.79652 10.23592,1.77907 z" id="path7659" style="display:inline;overflow:visible;visibility:visible;fill:#e28d54;fill-opacity:1;fill-rule:evenodd;stroke:#000000;stroke-width:1.30973148;stroke-linecap:butt;stroke-linejoin:miter;stroke-miterlimit:4;stroke-dasharray:none;stroke-dashoffset:0;stroke-opacity:1;marker:none" />
    <path d="m 59.13014,75.97823 c 0,0.98256 -4.582778,1.77908 -10.235919,1.77908 -5.653142,0 -10.235919,-0.79652 -10.235919,-1.77908 0,-0.98256 4.582777,-1.77908 10.235919,-1.77908 5.653141,0 10.235919,0.79652 10.235919,1.77908 z" id="path7661" style="display:inline;overflow:visible;visibility:visible;fill:#e28d54;fill-opacity:1;fill-rule:evenodd;stroke:#000000;stroke-width:1.30973148;stroke-linecap:butt;stroke-linejoin:miter;stroke-miterlimit:4;stroke-dasharray:none;stroke-dashoffset:0;stroke-opacity:1;marker:none" />
    <path d="m 92.195588,76.07305 c 0,0.98256 -4.582777,1.77908 -10.235918,1.77908 -5.653142,0 -10.235919,-0.79652 -10.235919,-1.77908 0,-0.98255 4.582777,-1.77907 10.235919,-1.77907 5.653141,0 10.235918,0.79652 10.235918,1.77907 z" id="path7663" style="display:inline;overflow:visible;visibility:visible;fill:#e28d54;fill-opacity:1;fill-rule:evenodd;stroke:#000000;stroke-width:1.30973148;stroke-linecap:butt;stroke-linejoin:miter;stroke-miterlimit:4;stroke-dasharray:none;stroke-dashoffset:0;stroke-opacity:1;marker:none" />
    <path d="m 49.153904,82.19624 c 0,0.98256 -4.582777,1.77907 -10.235919,1.77907 -5.653142,0 -10.235919,-0.79651 -10.235919,-1.77907 0,-0.98256 4.582777,-1.77908 10.235919,-1.77908 5.653142,0 10.235919,0.79652 10.235919,1.77908 z" id="path7665" style="display:inline;overflow:visible;visibility:visible;fill:#e28d54;fill-opacity:1;fill-rule:evenodd;stroke:#000000;stroke-width:1.30973148;stroke-linecap:butt;stroke-linejoin:miter;stroke-miterlimit:4;stroke-dasharray:none;stroke-dashoffset:0;stroke-opacity:1;marker:none" />
  </g>
  <g id="layer1" transform="matrix(4.5842132,0,0,2.8259433,-13.679655,-690.90166)">
    <path d="m 18.007026,270.21226 c 0.06243,3.92103 12.095416,6.32207 12.582487,15.61652 0,0 -27.1917591,0 -27.1917591,0 -0.1600597,-9.09923 12.5593021,-11.95963 12.5824841,-15.61652" id="path7669-3" style="fill:#d96d25;fill-opacity:1;fill-rule:evenodd;stroke:#000000;stroke-width:0.52916664;stroke-linecap:butt;stroke-linejoin:miter;stroke-miterlimit:4;stroke-dasharray:none;stroke-opacity:1" />
    <path style="display:inline;overflow:visible;visibility:visible;fill:#ebae85;fill-opacity:1;fill-rule:evenodd;stroke:#000000;stroke-width:0.52916664;stroke-linecap:butt;stroke-linejoin:miter;stroke-miterlimit:4;stroke-dasharray:none;stroke-dashoffset:0;stroke-opacity:1;marker:none" id="path7677-6" d="m 30.589513,285.82877 c 0,-2.04162 -6.727019,-2.09587 -14.231944,-2.09587 -7.5049244,0 -12.9598151,0.0542 -12.9598151,2.09587 0,2.04163 6.0909517,3.6986 13.5958781,3.6986 7.504925,0 13.595881,-1.65697 13.595881,-3.6986 z" />
    <path d="m 19.223238,286.19823 c 0,0.41399 -0.998706,0.7496 -2.230673,0.7496 -1.231966,0 -2.230673,-0.33561 -2.230673,-0.7496 0,-0.41399 0.998707,-0.7496 2.230673,-0.7496 1.231967,0 2.230673,0.33561 2.230673,0.7496 z" id="path7625-6" style="display:inline;overflow:visible;visibility:visible;fill:#ffaa58;fill-opacity:1;fill-rule:evenodd;stroke:#000000;stroke-width:0.39687526;stroke-linecap:butt;stroke-linejoin:miter;stroke-miterlimit:4;stroke-dasharray:none;stroke-dashoffset:0;stroke-opacity:1;marker:none" />
    <path d="m 25.309951,287.5494 c 0,0.41399 -0.998706,0.7496 -2.230672,0.7496 -1.231967,0 -2.230673,-0.33561 -2.230673,-0.7496 0,-0.41399 0.998706,-0.7496 2.230673,-0.7496 1.231966,0 2.230672,0.33561 2.230672,0.7496 z" id="path7627-7" style="display:inline;overflow:visible;visibility:visible;fill:#ffaa58;fill-opacity:1;fill-rule:evenodd;stroke:#000000;stroke-width:0.39687526;stroke-linecap:butt;stroke-linejoin:miter;stroke-miterlimit:4;stroke-dasharray:none;stroke-dashoffset:0;stroke-opacity:1;marker:none" />
    <path d="m 9.8860933,285.82484 c 0,0.414 -0.9987063,0.7496 -2.2306729,0.7496 -1.2319667,0 -2.230673,-0.3356 -2.230673,-0.7496 0,-0.41399 0.9987063,-0.74959 2.230673,-0.74959 1.2319666,0 2.2306729,0.3356 2.2306729,0.74959 z" id="path7629-5" style="display:inline;overflow:visible;visibility:visible;fill:#ffaa58;fill-opacity:1;fill-rule:evenodd;stroke:#000000;stroke-width:0.39687526;stroke-linecap:butt;stroke-linejoin:miter;stroke-miterlimit:4;stroke-dasharray:none;stroke-dashoffset:0;stroke-opacity:1;marker:none" />
    <path d="m 28.537153,285.50682 c 0,0.41399 -0.998706,0.74959 -2.230672,0.74959 -1.231967,0 -2.230673,-0.3356 -2.230673,-0.74959 0,-0.414 0.998706,-0.7496 2.230673,-0.7496 1.231966,0 2.230672,0.3356 2.230672,0.7496 z" id="path7631-3" style="display:inline;overflow:visible;visibility:visible;fill:#ffaa58;fill-opacity:1;fill-rule:evenodd;stroke:#000000;stroke-width:0.39687526;stroke-linecap:butt;stroke-linejoin:miter;stroke-miterlimit:4;stroke-dasharray:none;stroke-dashoffset:0;stroke-opacity:1;marker:none" />
    <path d="m 14.804961,285.19223 c 0,0.41399 -0.998706,0.74959 -2.230672,0.74959 -1.231967,0 -2.230673,-0.3356 -2.230673,-0.74959 0,-0.414 0.998706,-0.7496 2.230673,-0.7496 1.231966,0 2.230672,0.3356 2.230672,0.7496 z" id="path7633-5" style="display:inline;overflow:visible;visibility:visible;fill:#ffaa58;fill-opacity:1;fill-rule:evenodd;stroke:#000000;stroke-width:0.39687526;stroke-linecap:butt;stroke-linejoin:miter;stroke-miterlimit:4;stroke-dasharray:none;stroke-dashoffset:0;stroke-opacity:1;marker:none" />
    <path d="m 23.598283,285.23218 c 0,0.41399 -0.998707,0.7496 -2.230673,0.7496 -1.231967,0 -2.230673,-0.33561 -2.230673,-0.7496 0,-0.41399 0.998706,-0.7496 2.230673,-0.7496 1.231966,0 2.230673,0.33561 2.230673,0.7496 z" id="path7635-6" style="display:inline;overflow:visible;visibility:visible;fill:#ffaa58;fill-opacity:1;fill-rule:evenodd;stroke:#000000;stroke-width:0.39687526;stroke-linecap:butt;stroke-linejoin:miter;stroke-miterlimit:4;stroke-dasharray:none;stroke-dashoffset:0;stroke-opacity:1;marker:none" />
    <path d="m 13.689213,287.81213 c 0,0.41399 -0.998706,0.7496 -2.230672,0.7496 -1.231966,0 -2.2306728,-0.33561 -2.2306728,-0.7496 0,-0.41399 0.9987068,-0.7496 2.2306728,-0.7496 1.231966,0 2.230672,0.33561 2.230672,0.7496 z" id="path7637-2" style="display:inline;overflow:visible;visibility:visible;fill:#ffaa58;fill-opacity:1;fill-rule:evenodd;stroke:#000000;stroke-width:0.39687526;stroke-linecap:butt;stroke-linejoin:miter;stroke-miterlimit:4;stroke-dasharray:none;stroke-dashoffset:0;stroke-opacity:1;marker:none" />
    <path d="m 19.434635,288.21849 c 0,0.41399 -0.998707,0.74959 -2.230673,0.74959 -1.231967,0 -2.230673,-0.3356 -2.230673,-0.74959 0,-0.414 0.998706,-0.7496 2.230673,-0.7496 1.231966,0 2.230673,0.3356 2.230673,0.7496 z" id="path7637-2-9" style="display:inline;overflow:visible;visibility:visible;fill:#ffaa58;fill-opacity:1;fill-rule:evenodd;stroke:#000000;stroke-width:0.39687526;stroke-linecap:butt;stroke-linejoin:miter;stroke-miterlimit:4;stroke-dasharray:none;stroke-dashoffset:0;stroke-opacity:1;marker:none" />
  </g>
</svg>
