<?xml version="1.0" encoding="UTF-8" standalone="no"?>
<!-- Created with Inkscape (http://www.inkscape.org/) -->

<svg xmlns:dc="http://purl.org/dc/elements/1.1/" xmlns:cc="http://creativecommons.org/ns#" xmlns:rdf="http://www.w3.org/1999/02/22-rdf-syntax-ns#" xmlns:svg="http://www.w3.org/2000/svg" xmlns="http://www.w3.org/2000/svg" xmlns:xlink="http://www.w3.org/1999/xlink" version="1.1" width="744.09448" height="1052.3622" id="svg2">
  <defs id="defs3470">
    <path id="U0020" d="" style="fill:none;stroke:#000000" />
    <path id="U0041" d="m 8.5,0.5 -8,21 m 8,-21 8,21 m -13,-7 10,0" style="fill:none;stroke:#000000" />
    <path id="U0042" d="m 0.5,0.5 0,21 m 0,-21 9,0 3,1 1,1 1,2 0,2 -1,2 -1,1 -3,1 m -9,0 9,0 3,1 1,1 1,2 0,3 -1,2 -1,1 -3,1 -9,0" style="fill:none;stroke:#000000" />
    <path id="U0043" d="m 15.5,5.5 -1,-2 -2,-2 -2,-1 -4,0 -2,1 -2,2 -1,2 -1,3 0,5 1,3 1,2 2,2 2,1 4,0 2,-1 2,-2 1,-2" style="fill:none;stroke:#000000" />
    <path id="U0044" d="m 0.5,0.5 0,21 m 0,-21 7,0 3,1 2,2 1,2 1,3 0,5 -1,3 -1,2 -2,2 -3,1 -7,0" style="fill:none;stroke:#000000" />
    <path id="U0045" d="m 0.5,0.5 0,21 m 0,-21 13,0 m -13,10 8,0 m -8,11 13,0" style="fill:none;stroke:#000000" />
    <path id="U0046" d="m 0.5,0.5 0,21 m 0,-21 13,0 m -13,10 8,0" style="fill:none;stroke:#000000" />
    <path id="U0047" d="m 15.5,5.5 -1,-2 -2,-2 -2,-1 -4,0 -2,1 -2,2 -1,2 -1,3 0,5 1,3 1,2 2,2 2,1 4,0 2,-1 2,-2 1,-2 0,-3 m -5,0 5,0" style="fill:none;stroke:#000000" />
    <path id="U0048" d="m 0.5,0.5 0,21 m 14,-21 0,21 m -14,-11 14,0" style="fill:none;stroke:#000000" />
    <path id="U0049" d="m 0.5,0.5 0,21" style="fill:none;stroke:#000000" />
    <path id="U004A" d="m 10.5,0.5 0,16 -1,3 -1,1 -2,1 -2,0 -2,-1 -1,-1 -1,-3 0,-2" style="fill:none;stroke:#000000" />
    <path id="U004B" d="m 0.5,0.5 0,21 m 14,-21 -14,14 m 5,-5 9,12" style="fill:none;stroke:#000000" />
    <path id="U004C" d="m 0.5,0.5 0,21 m 0,0 12,0" style="fill:none;stroke:#000000" />
    <path id="U004D" d="m 0.5,0.5 0,21 m 0,-21 8,21 m 8,-21 -8,21 m 8,-21 0,21" style="fill:none;stroke:#000000" />
    <path id="U004E" d="m 0.5,0.5 0,21 m 0,-21 14,21 m 0,-21 0,21" style="fill:none;stroke:#000000" />
    <path id="U004F" d="m 6.5,0.5 -2,1 -2,2 -1,2 -1,3 0,5 1,3 1,2 2,2 2,1 4,0 2,-1 2,-2 1,-2 1,-3 0,-5 -1,-3 -1,-2 -2,-2 -2,-1 -4,0" style="fill:none;stroke:#000000" />
    <path id="U0050" d="m 0.5,0.5 0,21 m 0,-21 9,0 3,1 1,1 1,2 0,3 -1,2 -1,1 -3,1 -9,0" style="fill:none;stroke:#000000" />
    <path id="U0051" d="m 6.5,0.5 -2,1 -2,2 -1,2 -1,3 0,5 1,3 1,2 2,2 2,1 4,0 2,-1 2,-2 1,-2 1,-3 0,-5 -1,-3 -1,-2 -2,-2 -2,-1 -4,0 m 3,17 6,6" style="fill:none;stroke:#000000" />
    <path id="U0052" d="m 0.5,0.5 0,21 m 0,-21 9,0 3,1 1,1 1,2 0,2 -1,2 -1,1 -3,1 -9,0 m 7,0 7,11" style="fill:none;stroke:#000000" />
    <path id="U0053" d="m 14.5,3.5 -2,-2 -3,-1 -4,0 -3,1 -2,2 0,2 1,2 1,1 2,1 6,2 2,1 1,1 1,2 0,3 -2,2 -3,1 -4,0 -3,-1 -2,-2" style="fill:none;stroke:#000000" />
    <path id="U0054" d="m 7.5,0.5 0,21 m -7,-21 14,0" style="fill:none;stroke:#000000" />
    <path id="U0055" d="m 0.5,0.5 0,15 1,3 2,2 3,1 2,0 3,-1 2,-2 1,-3 0,-15" style="fill:none;stroke:#000000" />
    <path id="U0056" d="m 0.5,0.5 8,21 m 8,-21 -8,21" style="fill:none;stroke:#000000" />
    <path id="U0057" d="m 0.5,0.5 5,21 m 5,-21 -5,21 m 5,-21 5,21 m 5,-21 -5,21" style="fill:none;stroke:#000000" />
    <path id="U0058" d="m 0.5,0.5 14,21 m 0,-21 -14,21" style="fill:none;stroke:#000000" />
    <path id="U0059" d="m 0.5,0.5 8,10 0,11 m 8,-21 -8,10" style="fill:none;stroke:#000000" />
    <path id="U005A" d="m 14.5,0.5 -14,21 m 0,-21 14,0 m -14,21 14,0" style="fill:none;stroke:#000000" />
    <path id="U005B" d="m 0.5,0.5 0,32 m 1,-32 0,32 m -1,-32 7,0 m -7,32 7,0" style="fill:none;stroke:#000000" />
    <path id="U005C" d="m 0.5,0.5 14,24" style="fill:none;stroke:#000000" />
    <path id="U005D" d="m 6.5,0.5 0,32 m 1,-32 0,32 m -7,-32 7,0 m -7,32 7,0" style="fill:none;stroke:#000000" />
    <path id="U005E" d="m 8.5,0.5 -8,14 m 8,-14 8,14" style="fill:none;stroke:#000000" />
    <path id="U005F" d="m 0.5,0.5 18,0" style="fill:none;stroke:#000000" />
    <path id="U0060" d="m 2.5,0.5 -2,2 0,2 1,1 1,-1 -1,-1 -1,1" style="fill:none;stroke:#000000" />
    <path id="U0021" d="m 1.5,0.5 0,14 m 0,5 -1,1 1,1 1,-1 -1,-1" style="fill:none;stroke:#000000" />
    <path id="U0022" d="m 0.5,0.5 0,7 m 8,-7 0,7" style="fill:none;stroke:#000000" />
    <path id="U0023" d="m 8.5,0.5 -7,32 m 13,-32 -7,32 m -6,-19 14,0 m -15,6 14,0" style="fill:none;stroke:#000000" />
    <path id="U0024" d="m 5.5,0.5 0,29 m 4,-29 0,29 m 5,-22 -2,-2 -3,-1 -4,0 -3,1 -2,2 0,2 1,2 1,1 2,1 6,2 2,1 1,1 1,2 0,3 -2,2 -3,1 -4,0 -3,-1 -2,-2" style="fill:none;stroke:#000000" />
    <path id="U0025" d="m 18.5,0.5 -18,21 m 5,-21 2,2 0,2 -1,2 -2,1 -2,0 -2,-2 0,-2 1,-2 2,-1 2,0 2,1 3,1 3,0 3,-1 2,-1 m -4,14 -2,1 -1,2 0,2 2,2 2,0 2,-1 1,-2 0,-2 -2,-2 -2,0" style="fill:none;stroke:#000000" />
    <path id="U0026" d="m 20.5,9.5 0,-1 -1,-1 -1,0 -1,1 -1,2 -2,5 -2,3 -2,2 -2,1 -4,0 -2,-1 -1,-1 -1,-2 0,-2 1,-2 1,-1 7,-4 1,-1 1,-2 0,-2 -1,-2 -2,-1 -2,1 -1,2 0,2 1,3 2,3 5,7 2,2 2,1 2,0 1,-1 0,-1" style="fill:none;stroke:#000000" />
    <path id="U0027" d="m 1.5,2.5 -1,-1 1,-1 1,1 0,2 -1,2 -1,1" style="fill:none;stroke:#000000" />
    <path id="U0028" d="m 7.5,0.5 -2,2 -2,3 -2,4 -1,5 0,4 1,5 2,4 2,3 2,2" style="fill:none;stroke:#000000" />
    <path id="U0029" d="m 0.5,0.5 2,2 2,3 2,4 1,5 0,4 -1,5 -2,4 -2,3 -2,2" style="fill:none;stroke:#000000" />
    <path id="U002A" d="m 5.5,0.5 0,12 m -5,-9 10,6 m 0,-6 -10,6" style="fill:none;stroke:#000000" />
    <path id="U002B" d="m 9.5,0.5 0,18 m -9,-9 18,0" style="fill:none;stroke:#000000" />
    <path id="U002C" d="m 2.5,1.5 -1,1 -1,-1 1,-1 1,1 0,2 -2,2" style="fill:none;stroke:#000000" />
    <path id="U002D" d="m 0.5,20.5 18,0" style="fill:none;stroke:#000000" />
    <path id="U002E" d="m 5,20.5 -1,1 1,1 1,-1 -1,-1" style="fill:none;stroke:#000000" />
    <path id="U002F" d="m 18.5,0.5 -18,32" style="fill:none;stroke:#000000" />
    <path id="U0030" d="m 6.5,0.5 -3,1 -2,3 -1,5 0,3 1,5 2,3 3,1 2,0 3,-1 2,-3 1,-5 0,-3 -1,-5 -2,-3 -3,-1 -2,0" style="fill:none;stroke:#000000" />
    <path id="U0031" d="m 0.5,4.5 2,-1 3,-3 0,21" style="fill:none;stroke:#000000" />
    <path id="U0032" d="m 1.5,5.5 0,-1 1,-2 1,-1 2,-1 4,0 2,1 1,1 1,2 0,2 -1,2 -2,3 -10,10 14,0" style="fill:none;stroke:#000000" />
    <path id="U0033" d="m 2.5,0.5 11,0 -6,8 3,0 2,1 1,1 1,3 0,2 -1,3 -2,2 -3,1 -3,0 -3,-1 -1,-1 -1,-2" style="fill:none;stroke:#000000" />
    <path id="U0034" d="m 10.5,0.5 -10,14 15,0 m -5,-14 0,21" style="fill:none;stroke:#000000" />
    <path id="U0035" d="m 12.5,0.5 -10,0 -1,9 1,-1 3,-1 3,0 3,1 2,2 1,3 0,2 -1,3 -2,2 -3,1 -3,0 -3,-1 -1,-1 -1,-2" style="fill:none;stroke:#000000" />
    <path id="U0036" d="m 12.5,3.5 -1,-2 -3,-1 -2,0 -3,1 -2,3 -1,5 0,5 1,4 2,2 3,1 1,0 3,-1 2,-2 1,-3 0,-1 -1,-3 -2,-2 -3,-1 -1,0 -3,1 -2,2 -1,3" style="fill:none;stroke:#000000" />
    <path id="U0037" d="m 14.5,0.5 -10,21 m -4,-21 14,0" style="fill:none;stroke:#000000" />
    <path id="U0038" d="m 5.5,0.5 -3,1 -1,2 0,2 1,2 2,1 4,1 3,1 2,2 1,2 0,3 -1,2 -1,1 -3,1 -4,0 -3,-1 -1,-1 -1,-2 0,-3 1,-2 2,-2 3,-1 4,-1 2,-1 1,-2 0,-2 -1,-2 -3,-1 -4,0" style="fill:none;stroke:#000000" />
    <path id="U0039" d="m 13.5,7.5 -1,3 -2,2 -3,1 -1,0 -3,-1 -2,-2 -1,-3 0,-1 1,-3 2,-2 3,-1 1,0 3,1 2,2 1,4 0,5 -1,5 -2,3 -3,1 -2,0 -3,-1 -1,-2" style="fill:none;stroke:#000000" />
    <path id="U003A" d="m 1.5,0.5 -1,1 1,1 1,-1 -1,-1 m 0,7 -1,1 1,1 1,-1 -1,-1" style="fill:none;stroke:#000000" />
    <path id="U003B" d="m 1.5,0.5 -1,1 1,1 1,-1 -1,-1 m 1,8 -1,1 -1,-1 1,-1 1,1 0,2 -2,2" style="fill:none;stroke:#000000" />
    <path id="U003C" d="m 16.5,0.5 -16,9 16,9" style="fill:none;stroke:#000000" />
    <path id="U003D" d="m 0.5,0.5 18,0 m -18,6 18,0" style="fill:none;stroke:#000000" />
    <path id="U003E" d="m 0.5,0.5 16,9 -16,9" style="fill:none;stroke:#000000" />
    <path id="U003F" d="m 0.5,5.5 0,-1 1,-2 1,-1 2,-1 4,0 2,1 1,1 1,2 0,2 -1,2 -1,1 -4,2 0,3 m 0,5 -1,1 1,1 1,-1 -1,-1" style="fill:none;stroke:#000000" />
    <path id="U0040" d="m 15.5,8.5 -1,-2 -2,-1 -3,0 -2,1 -1,1 -1,3 0,3 1,2 2,1 3,0 2,-1 1,-2 m -5,-8 -2,2 -1,3 0,3 1,2 1,1 m 7,-11 -1,8 0,2 2,1 2,0 2,-2 1,-3 0,-2 -1,-3 -1,-2 -2,-2 -2,-1 -3,-1 -3,0 -3,1 -2,1 -2,2 -1,2 -1,3 0,3 1,3 1,2 2,2 2,1 3,1 3,0 3,-1 2,-1 1,-1 m -2,-13 -1,8 0,2 1,1" style="fill:none;stroke:#000000" />
    <path id="U0061" d="m 12.5,0.5 0,14 m 0,-11 -2,-2 -2,-1 -3,0 -2,1 -2,2 -1,3 0,2 1,3 2,2 2,1 3,0 2,-1 2,-2" style="fill:none;stroke:#000000" />
    <path id="U0062" d="m 0.5,0.5 0,21 m 0,-11 2,-2 2,-1 3,0 2,1 2,2 1,3 0,2 -1,3 -2,2 -2,1 -3,0 -2,-1 -2,-2" style="fill:none;stroke:#000000" />
    <path id="U0063" d="m 12.5,3.5 -2,-2 -2,-1 -3,0 -2,1 -2,2 -1,3 0,2 1,3 2,2 2,1 3,0 2,-1 2,-2" style="fill:none;stroke:#000000" />
    <path id="U0064" d="m 12.5,0.5 0,21 m 0,-11 -2,-2 -2,-1 -3,0 -2,1 -2,2 -1,3 0,2 1,3 2,2 2,1 3,0 2,-1 2,-2" style="fill:none;stroke:#000000" />
    <path id="U0065" d="m 0.5,6.5 12,0 0,-2 -1,-2 -1,-1 -2,-1 -3,0 -2,1 -2,2 -1,3 0,2 1,3 2,2 2,1 3,0 2,-1 2,-2" style="fill:none;stroke:#000000" />
    <path id="U0066" d="m 8.5,0.5 -2,0 -2,1 -1,3 0,17 m -3,-14 7,0" style="fill:none;stroke:#000000" />
    <path id="U0067" d="m 12.5,0.5 0,16 -1,3 -1,1 -2,1 -3,0 -2,-1 m 9,-17 -2,-2 -2,-1 -3,0 -2,1 -2,2 -1,3 0,2 1,3 2,2 2,1 3,0 2,-1 2,-2" style="fill:none;stroke:#000000" />
    <path id="U0068" d="m 0.5,0.5 0,21 m 0,-10 3,-3 2,-1 3,0 2,1 1,3 0,10" style="fill:none;stroke:#000000" />
    <path id="U0069" d="m 0.5,1.5 1,1 1,-1 -1,-1 -1,1 m 1,7 0,14" style="fill:none;stroke:#000000" />
    <path id="U006A" d="m 4.5,1.5 1,1 1,-1 -1,-1 -1,1 m 1,7 0,17 -1,3 -2,1 -2,0" style="fill:none;stroke:#000000" />
    <path id="U006B" d="m 0.5,0.5 0,21 m 10,-14 -10,10 m 4,-4 7,8" style="fill:none;stroke:#000000" />
    <path id="U006C" d="m 0.5,0.5 0,21" style="fill:none;stroke:#000000" />
    <path id="U006D" d="m 0.5,0.5 0,14 m 0,-10 3,-3 2,-1 3,0 2,1 1,3 0,10 m 0,-10 3,-3 2,-1 3,0 2,1 1,3 0,10" style="fill:none;stroke:#000000" />
    <path id="U006E" d="m 0.5,0.5 0,14 m 0,-10 3,-3 2,-1 3,0 2,1 1,3 0,10" style="fill:none;stroke:#000000" />
    <path id="U006F" d="m 5.5,0.5 -2,1 -2,2 -1,3 0,2 1,3 2,2 2,1 3,0 2,-1 2,-2 1,-3 0,-2 -1,-3 -2,-2 -2,-1 -3,0" style="fill:none;stroke:#000000" />
    <path id="U0070" d="m 0.5,0.5 0,21 m 0,-18 2,-2 2,-1 3,0 2,1 2,2 1,3 0,2 -1,3 -2,2 -2,1 -3,0 -2,-1 -2,-2" style="fill:none;stroke:#000000" />
    <path id="U0071" d="m 12.5,0.5 0,21 m 0,-18 -2,-2 -2,-1 -3,0 -2,1 -2,2 -1,3 0,2 1,3 2,2 2,1 3,0 2,-1 2,-2" style="fill:none;stroke:#000000" />
    <path id="U0072" d="m 0.5,0.5 0,14 m 0,-8 1,-3 2,-2 2,-1 3,0" style="fill:none;stroke:#000000" />
    <path id="U0073" d="m 11.5,3.5 -1,-2 -3,-1 -3,0 -3,1 -1,2 1,2 2,1 5,1 2,1 1,2 0,1 -1,2 -3,1 -3,0 -3,-1 -1,-2" style="fill:none;stroke:#000000" />
    <path id="U0074" d="m 3.5,0.5 0,17 1,3 2,1 2,0 m -8,-14 7,0" style="fill:none;stroke:#000000" />
    <path id="U0075" d="m 0.5,0.5 0,10 1,3 2,1 3,0 2,-1 3,-3 m 0,-10 0,14" style="fill:none;stroke:#000000" />
    <path id="U0076" d="m 0.5,0.5 6,14 m 6,-14 -6,14" style="fill:none;stroke:#000000" />
    <path id="U0077" d="m 0.5,0.5 4,14 m 4,-14 -4,14 m 4,-14 4,14 m 4,-14 -4,14" style="fill:none;stroke:#000000" />
    <path id="U0078" d="m 0.5,0.5 11,14 m 0,-14 -11,14" style="fill:none;stroke:#000000" />
    <path id="U0079" d="m 1.5,0.5 6,14 m 6,-14 -6,14 -2,4 -2,2 -2,1 -1,0" style="fill:none;stroke:#000000" />
    <path id="U007A" d="m 11.5,0.5 -11,14 m 0,-14 11,0 m -11,14 11,0" style="fill:none;stroke:#000000" />
    <path id="U007B" d="m 5.5,0.5 -2,1 -1,1 -1,2 0,2 1,2 1,1 1,2 0,2 -2,2 m 1,-14 -1,2 0,2 1,2 1,1 1,2 0,2 -1,2 -4,2 4,2 1,2 0,2 -1,2 -1,1 -1,2 0,2 1,2 m -1,-14 2,2 0,2 -1,2 -1,1 -1,2 0,2 1,2 1,1 2,1" style="fill:none;stroke:#000000" />
    <path id="U007C" d="m 0.5,0.5 0,32" style="fill:none;stroke:#000000" />
    <path id="U007D" d="m 0.5,0.5 2,1 1,1 1,2 0,2 -1,2 -1,1 -1,2 0,2 2,2 m -1,-14 1,2 0,2 -1,2 -1,1 -1,2 0,2 1,2 4,2 -4,2 -1,2 0,2 1,2 1,1 1,2 0,2 -1,2 m 1,-14 -2,2 0,2 1,2 1,1 1,2 0,2 -1,2 -1,1 -2,1" style="fill:none;stroke:#000000" />
    <path id="U007E" d="m 0.5,6.5 0,-2 1,-3 2,-1 2,0 2,1 4,3 2,1 2,0 2,-1 1,-2 m -18,2 1,-2 2,-1 2,0 2,1 4,3 2,1 2,0 2,-1 1,-3 0,-2" style="fill:none;stroke:#000000" />
    <path id="U00D7" d="m 0.5,8.5 8,-8 m -8,0 8,8" style="fill:none;stroke:#000000" />
    <path id="U00E0" d="m 2.99533,0.5 7.71028,3.54673 m 1.79439,6.22193 -2,-2 -2,-1 -3,0 -2,1 -2,2 -1,3 0,2 1,3 2,2 2,1 3,0 2,-1 2,-2 m 0,-11 0,14" style="color:#000000;fill:none;stroke:#000000" />
    <path id="U00E1" d="m 12.5,10.63086 -2,-2 -2,-1 -3,0 -2,1 -2,2 -1,3 0,2 1,3 2,2 2,1 3,0 2,-1 2,-2 m 0,-11 0,14 M 2.99533,4.04673 10.70561,0.5" style="color:#000000;fill:none;stroke:#000000" />
    <path id="U00E2" d="m 12.5,10.63086 -2,-2 -2,-1 -3,0 -2,1 -2,2 -1,3 0,2 1,3 2,2 2,1 3,0 2,-1 2,-2 m 0,-11 0,14 M 2.99533,4.04673 6.85047,0.5 10.70561,4.04673" style="color:#000000;fill:none;stroke:#000000" />
    <path id="path_00E4" d="m 12.5,9.8575 -2,-2 -2,-1 -3,0 -2,1 -2,2 -1,3 0,2 1,3 2,2 2,1 3,0 2,-1 2,-2 m 0,-11 0,14 M 2.79437,1.5 l 1,1 1,-1 -1,-1 -1,1 m 6,0 1,1 1,-1 -1,-1 -1,1" style="color:#000000;fill:none;stroke:#000000" />
    <path id="U00E3" d="M 2.99533,3.58552 5.87342,0.5 8.7515,4.04814 11.62959,0.96262 M 12.5,7.27007 l 0,14 m 0,-11 -2,-2 -2,-1 -3,0 -2,1 -2,2 -1,3 0,2 1,3 2,2 2,1 3,0 2,-1 2,-2" style="color:#000000;fill:none;stroke:#000000" />
    <path id="U00E5" d="m 6.01345,0.5 -0.78893,0.23567 -0.78891,0.47134 -0.39445,0.707 0,0.47134 0.39445,0.707 0.78891,0.47134 0.78893,0.23567 1.18338,0 0.78893,-0.23567 0.78891,-0.47134 0.39445,-0.707 0,-0.47134 L 8.77467,1.20701 7.98576,0.73567 7.19683,0.5 6.01345,0.5 M 12.5,7.14498 l 0,14 m 0,-11 -2,-2 -2,-1 -3,0 -2,1 -2,2 -1,3 0,2 1,3 2,2 2,1 3,0 2,-1 2,-2" style="color:#000000;fill:none;stroke:#000000" />
    <path id="U00E6" d="m 5.79625,8.65048 -2.10039,0 -1.59793,0 L 0.5,9.66929 l 0,1.01881 0.53264,2.03762 0.53264,1.01881 1.0653,1.01881 1.59793,0 1.06529,-1.01881 1.06529,-2.03762 m 0,-8.15048 L 5.2938,1.51881 4.22851,0.5 2.63058,0.5 1.56528,1.51881 0.5,3.55643 m 5.53265,3.06244 7.68356,0 0,-2.02557 -0.66542,-2.02558 -0.66543,-1.01279 -1.33084,-1.0128 -1.99627,0 -1.33084,1.0128 -1.33085,2.02558 -0.36391,3.03836 0,2.0256 0.36391,3.03836 1.33085,2.02558 1.33084,1.0128 1.99627,0 1.33084,-1.0128 1.33085,-2.02558" style="color:#000000;fill:none;stroke:#000000" />
  </defs>
  <g transform="translate(14,4)scale(4,4)matrix(1,0,-0.1,1,0,0)" id="layer2">
    <path d="m 0,25 0,-25 40,0 0,25 -40,0 z" id="path3092" style="fill:none;stroke:#ccc" />
    <use id="use3094" xlink:href="#U0049" />
    <use id="use3094" xlink:href="#U0030" transform="translate(18,0)"/>
  </g>
  <metadata id="metadata7">
    <rdf:RDF>
      <cc:Work rdf:about="">
        <dc:format>image/svg+xml</dc:format>
        <dc:type rdf:resource="http://purl.org/dc/dcmitype/StillImage" />
        <dc:title></dc:title>
      </cc:Work>
    </rdf:RDF>
  </metadata>
</svg>
