/* XPM */
static char * bauble_xpm[] = {
"64 64 635 2",
"  	c None",
". 	c #C8C9C7",
"+ 	c #787B74",
"@ 	c #EDEDED",
"# 	c #DCDCDB",
"$ 	c #474C41",
"% 	c #050605",
"& 	c #000000",
"* 	c #20211E",
"= 	c #959793",
"- 	c #E2E2E2",
"; 	c #FFFFFF",
"> 	c #DEDEDD",
", 	c #4C5145",
"' 	c #2B3A16",
") 	c #77A03E",
"! 	c #2F3A1F",
"~ 	c #7A836A",
"{ 	c #131511",
"] 	c #7D7F7B",
"^ 	c #D4D5D4",
"/ 	c #FCFCFC",
"( 	c #E0E0E0",
"_ 	c #50554A",
": 	c #293715",
"< 	c #769E3D",
"[ 	c #8BBA48",
"} 	c #87B445",
"| 	c #10120E",
"1 	c #43483A",
"2 	c #D6E6BB",
"3 	c #C4D3AB",
"4 	c #8C977A",
"5 	c #2F3229",
"6 	c #636560",
"7 	c #C4C5C3",
"8 	c #F7F7F7",
"9 	c #555A4E",
"0 	c #263313",
"a 	c #759C3C",
"b 	c #6C9038",
"c 	c #869075",
"d 	c #CCDBB2",
"e 	c #9CA889",
"f 	c #484D3E",
"g 	c #4B4D49",
"h 	c #D5D6D5",
"i 	c #E4E4E4",
"j 	c #595E52",
"k 	c #233012",
"l 	c #749B3C",
"m 	c #465B28",
"n 	c #B5C39E",
"o 	c #D1E1B7",
"p 	c #ABB795",
"q 	c #4A5041",
"r 	c #363834",
"s 	c #CACBCA",
"t 	c #E6E6E6",
"u 	c #5E6357",
"v 	c #212C11",
"w 	c #72993B",
"x 	c #242B1A",
"y 	c #060705",
"z 	c #D0DFB5",
"A 	c #BFCDA7",
"B 	c #5B624F",
"C 	c #20211F",
"D 	c #BEBEBD",
"E 	c #FEFEFE",
"F 	c #E8E8E8",
"G 	c #62675B",
"H 	c #1E280F",
"I 	c #71973A",
"J 	c #80AB42",
"K 	c #585F4D",
"L 	c #C5D4AC",
"M 	c #6A725D",
"N 	c #0A0A09",
"O 	c #B0B1AE",
"P 	c #EAEAEA",
"Q 	c #676B60",
"R 	c #1B250E",
"S 	c #70953A",
"T 	c #5F7F32",
"U 	c #95A182",
"V 	c #CBDAB1",
"W 	c #798269",
"X 	c #A1A29F",
"Y 	c #F8F8F8",
"Z 	c #DFDFDF",
"` 	c #5F6358",
" .	c #18210C",
"..	c #6E9439",
"+.	c #394923",
"@.	c #BFCDA6",
"#.	c #CFDFB5",
"$.	c #91928E",
"%.	c #F3F3F3",
"&.	c #4E5446",
"*.	c #37481D",
"=.	c #89B847",
"-.	c #8AB847",
";.	c #1B1F15",
">.	c #1F221B",
",.	c #D3E3B9",
"'.	c #D2E2B8",
").	c #929D80",
"!.	c #040403",
"~.	c #7F817D",
"{.	c #0D1007",
"].	c #698C36",
"^.	c #779F3D",
"/.	c #6B735E",
"(.	c #D1E0B6",
"_.	c #D5E5BA",
":.	c #9EAA8A",
"<.	c #181A15",
"[.	c #6D6E6A",
"}.	c #F0F0F0",
"|.	c #89AD4E",
"1.	c #37461F",
"2.	c #35471C",
"3.	c #89B747",
"4.	c #181C13",
"5.	c #828C72",
"6.	c #CFDEB5",
"7.	c #A8B593",
"8.	c #2C2F26",
"9.	c #B9BAB8",
"0.	c #6D8A3E",
"a.	c #9BC358",
"b.	c #718E40",
"c.	c #0C0F06",
"d.	c #688B35",
"e.	c #3A4B22",
"f.	c #ADC08E",
"g.	c #4C543F",
"h.	c #7B846C",
"i.	c #CCDCB3",
"j.	c #818B71",
"k.	c #6D6F6B",
"l.	c #F9F9F9",
"m.	c #4B4F44",
"n.	c #445627",
"o.	c #92B853",
"p.	c #394820",
"q.	c #34451B",
"r.	c #88B746",
"s.	c #658734",
"t.	c #87956E",
"u.	c #C7DCA3",
"v.	c #BBCE99",
"w.	c #535B45",
"x.	c #020201",
"y.	c #747D65",
"z.	c #CAD9B0",
"A.	c #B4C19D",
"B.	c #060605",
"C.	c #0C0C0B",
"D.	c #D8D8D8",
"E.	c #989B94",
"F.	c #0E1208",
"G.	c #728F40",
"H.	c #0B0E06",
"I.	c #668935",
"J.	c #85B245",
"K.	c #0C0D0A",
"L.	c #474E3A",
"M.	c #BED29B",
"N.	c #5A634A",
"O.	c #070706",
"P.	c #6C745E",
"Q.	c #C7D6AE",
"R.	c #D0DFB6",
"S.	c #5B6250",
"T.	c #9B9C99",
"U.	c #D4D4D3",
"V.	c #96BD55",
"W.	c #93B853",
"X.	c #3A4A21",
"Y.	c #33431B",
"Z.	c #88B646",
"`.	c #2C371C",
" +	c #BDD19B",
".+	c #C0D59E",
"++	c #616B50",
"@+	c #0B0C09",
"#+	c #646C57",
"$+	c #9AA687",
"%+	c #454642",
"&+	c #EEEEEE",
"*+	c #F5F5F5",
"=+	c #84A74B",
"-+	c #739141",
";+	c #0A0D05",
">+	c #54702D",
",+	c #9EAE81",
"'+	c #C3D79F",
")+	c #687356",
"!+	c #0E0F0C",
"~+	c #5C6350",
"{+	c #C1CFA8",
"]+	c #C3D2AA",
"^+	c #2E3228",
"/+	c #C1C1C0",
"(+	c #0A0B08",
"_+	c #658039",
":+	c #93B953",
"<+	c #3C4C22",
"[+	c #32421A",
"}+	c #7BA540",
"|+	c #687355",
"1+	c #C4D9A1",
"2+	c #6F7B5B",
"3+	c #11130F",
"4+	c #535A49",
"5+	c #BDCBA5",
"6+	c #787975",
"7+	c #FBFBFB",
"8+	c #5D6257",
"9+	c #749242",
"0+	c #090C05",
"a+	c #648634",
"b+	c #1E2416",
"c+	c #1C1F17",
"d+	c #C5DAA1",
"e+	c #C6DAA2",
"f+	c #768361",
"g+	c #151712",
"h+	c #3C4132",
"i+	c #5A634D",
"j+	c #59614B",
"k+	c #575F4A",
"l+	c #565E48",
"m+	c #545C47",
"n+	c #515944",
"o+	c #505743",
"p+	c #4E5641",
"q+	c #4D5440",
"r+	c #4B533E",
"s+	c #4A513D",
"t+	c #0A0D06",
"u+	c #191C13",
"v+	c #CCCDCC",
"w+	c #A8AAA4",
"x+	c #93BA53",
"y+	c #3D4D23",
"z+	c #304019",
"A+	c #87B546",
"B+	c #445827",
"C+	c #B0C290",
"D+	c #C6DBA2",
"E+	c #7D8B67",
"F+	c #010200",
"G+	c #030401",
"H+	c #040602",
"I+	c #060703",
"J+	c #070904",
"K+	c #090B05",
"L+	c #0C0F07",
"M+	c #0D1107",
"N+	c #0F1308",
"O+	c #101509",
"P+	c #12170A",
"Q+	c #5E6258",
"R+	c #759342",
"S+	c #080B04",
"T+	c #58752E",
"U+	c #84926C",
"V+	c #B6C995",
"W+	c #82A349",
"X+	c #69853C",
"Y+	c #7E9F48",
"Z+	c #94BA54",
"`+	c #3F4F24",
" @	c #0E100B",
".@	c #434A37",
"+@	c #A0B183",
"@@	c #8EB350",
"#@	c #8FB451",
"$@	c #E1E1E1",
"%@	c #1D1F19",
"&@	c #5D7534",
"*@	c #98BF56",
"=@	c #040503",
"-@	c #181B12",
";@	c #404634",
">@	c #A7B989",
",@	c #83916B",
"'@	c #0C1007",
")@	c #94978F",
"!@	c #707369",
"~@	c #2E391A",
"{@	c #9EBE6C",
"]@	c #7A9253",
"^@	c #202519",
"/@	c #2D3225",
"(@	c #9EAF81",
"_@	c #636E4F",
":@	c #9AC257",
"<@	c #546A30",
"[@	c #252821",
"}@	c #B6B8B3",
"|@	c #637D39",
"1@	c #A8CA72",
"2@	c #A9CB73",
"3@	c #849F5A",
"4@	c #29301F",
"5@	c #191B14",
"6@	c #93A379",
"7@	c #434B34",
"8@	c #83A54A",
"9@	c #F2F2F2",
"0@	c #90B551",
"a@	c #3E4D25",
"b@	c #242B18",
"c@	c #8EAA60",
"d@	c #333B25",
"e@	c #030403",
"f@	c #87966F",
"g@	c #C3D8A0",
"h@	c #282E1D",
"i@	c #303C1B",
"j@	c #99C157",
"k@	c #B7B9B4",
"l@	c #789744",
"m@	c #1C2211",
"n@	c #546439",
"o@	c #96B466",
"p@	c #3D472B",
"q@	c #7A8764",
"r@	c #C0D49D",
"s@	c #14180C",
"t@	c #4B5F2A",
"u@	c #3B4B22",
"v@	c #52564B",
"w@	c #30332A",
"x@	c #53692F",
"y@	c #799152",
"z@	c #9DBD6B",
"A@	c #475432",
"B@	c #6C7758",
"C@	c #637C38",
"D@	c #81857B",
"E@	c #212A13",
"F@	c #91B752",
"G@	c #93B164",
"H@	c #A2C36E",
"I@	c #526239",
"J@	c #070806",
"K@	c #5C664B",
"L@	c #B4C894",
"M@	c #C1D59E",
"N@	c #769443",
"O@	c #C3C4C1",
"P@	c #779543",
"Q@	c #A3C46F",
"R@	c #A6C871",
"S@	c #5E7040",
"T@	c #0F110C",
"U@	c #ADBF8E",
"V@	c #B1C491",
"W@	c #85A84B",
"X@	c #1F2711",
"Y@	c #7D8077",
"Z@	c #8CB04F",
"`@	c #526730",
" #	c #697E48",
".#	c #161912",
"+#	c #393F2F",
"@#	c #A4B687",
"##	c #9AAA7E",
"$#	c #90B652",
"%#	c #617A37",
"&#	c #2E391C",
"*#	c #374326",
"=#	c #748B4F",
"-#	c #1E2217",
";#	c #21241A",
">#	c #000100",
",#	c #8AAE4E",
"'#	c #E9E9E9",
")#	c #43473C",
"!#	c #495C29",
"~#	c #0F120A",
"{#	c #637743",
"]#	c #7C9554",
"^#	c #0E150A",
"/#	c #050803",
"(#	c #1A2510",
"_#	c #425526",
":#	c #708D3F",
"<#	c #A3A69F",
"[#	c #92958C",
"}#	c #14190B",
"|#	c #99C057",
"1#	c #1E2814",
"2#	c #040603",
"3#	c #619B45",
"4#	c #568A3D",
"5#	c #40662D",
"6#	c #213517",
"7#	c #070C05",
"8#	c #202C13",
"9#	c #4B5F2B",
"0#	c #779643",
"a#	c #4A5E2A",
"b#	c #383C32",
"c#	c #CFD0CE",
"d#	c #97BE56",
"e#	c #87AA4C",
"f#	c #9BBA69",
"g#	c #A7C971",
"h#	c #212C16",
"i#	c #609A44",
"j#	c #68A74A",
"k#	c #619D45",
"l#	c #52843A",
"m#	c #3B5E2A",
"n#	c #1A2B13",
"o#	c #0A1007",
"p#	c #273417",
"q#	c #536A2F",
"r#	c #7E9E47",
"s#	c #97BE55",
"t#	c #7D9E47",
"u#	c #87A94C",
"v#	c #66813A",
"w#	c #A7C871",
"x#	c #A8C972",
"y#	c #243019",
"z#	c #5F9843",
"A#	c #67A649",
"B#	c #5F9944",
"C#	c #4F7F38",
"D#	c #355626",
"E#	c #14200E",
"F#	c #0E1509",
"G#	c #2E3D1B",
"H#	c #5B7434",
"I#	c #69843B",
"J#	c #415126",
"K#	c #171C10",
"L#	c #27341B",
"M#	c #5E9742",
"N#	c #66A549",
"O#	c #5D9542",
"P#	c #4B7835",
"Q#	c #304D22",
"R#	c #0C1409",
"S#	c #565A4F",
"T#	c #3E4E23",
"U#	c #202714",
"V#	c #495832",
"W#	c #2B381D",
"X#	c #5C9542",
"Y#	c #53853B",
"Z#	c #111B0C",
"`#	c #6B7168",
" $	c #A1A49D",
".$	c #060803",
"+$	c #030402",
"@$	c #71884D",
"#$	c #2E3B1F",
"$$	c #5B9341",
"%$	c #172611",
"&$	c #646A61",
"*$	c #EBEBEB",
"=$	c #DADAD9",
"-$	c #95BB54",
";$	c #313F22",
">$	c #5A9140",
",$	c #598F3F",
"'$	c #1E3015",
")$	c #565C53",
"!$	c #81A249",
"~$	c #799845",
"{$	c #A0C16D",
"]$	c #344324",
"^$	c #243A19",
"/$	c #474E44",
"($	c #151611",
"_$	c #607937",
":$	c #556B31",
"<$	c #374726",
"[$	c #578C3E",
"}$	c #5E9743",
"|$	c #2A431E",
"1$	c #393F36",
"2$	c #D8D8D7",
"3$	c #686C61",
"4$	c #33401D",
"5$	c #313D1D",
"6$	c #2C351E",
"7$	c #3B4B28",
"8$	c #609B44",
"9$	c #2F4C22",
"0$	c #2B3029",
"a$	c #B0B2AD",
"b$	c #14180D",
"c$	c #5A6C3D",
"d$	c #3E4E2A",
"e$	c #54873C",
"f$	c #629E46",
"g$	c #355525",
"h$	c #1D211B",
"i$	c #C6C7C5",
"j$	c #E3E3E2",
"k$	c #9AC157",
"l$	c #7D9655",
"m$	c #41522C",
"n$	c #64A047",
"o$	c #3A5D29",
"p$	c #10130F",
"q$	c #BCBEBA",
"r$	c #7B9B46",
"s$	c #89AC4D",
"t$	c #96B566",
"u$	c #44552F",
"v$	c #518239",
"w$	c #65A248",
"x$	c #3F652C",
"y$	c #B1B4AF",
"z$	c #282B23",
"A$	c #576E31",
"B$	c #69843C",
"C$	c #A5C670",
"D$	c #475931",
"E$	c #4F8038",
"F$	c #66A449",
"G$	c #436C30",
"H$	c #A5A9A3",
"I$	c #FDFDFD",
"J$	c #7A7D73",
"K$	c #263116",
"L$	c #445427",
"M$	c #0A0C07",
"N$	c #4A5D33",
"O$	c #4D7D37",
"P$	c #477333",
"Q$	c #999D97",
"R$	c #BEBFBB",
"S$	c #232B15",
"T$	c #3E4B2A",
"U$	c #4E6035",
"V$	c #4C7A36",
"W$	c #4B7936",
"X$	c #030502",
"Y$	c #8C918A",
"Z$	c #8DB250",
"`$	c #090B06",
" %	c #687E47",
".%	c #516337",
"+%	c #4A7734",
"@%	c #0A1107",
"#%	c #7F847C",
"$%	c #F4F4F4",
"%%	c #88A35C",
"&%	c #546739",
"*%	c #487433",
"=%	c #111C0C",
"-%	c #71776E",
";%	c #3B3E35",
">%	c #4D612C",
",%	c #576A3B",
"'%	c #467032",
")%	c #182611",
"!%	c #636A60",
"~%	c #8B8E85",
"{%	c #1A200E",
"]%	c #576D32",
"^%	c #5A6E3D",
"/%	c #446D30",
"(%	c #1E3115",
"_%	c #555C52",
":%	c #E6E6E5",
"<%	c #CACBC8",
"[%	c #98C056",
"}%	c #333F1E",
"|%	c #1F2615",
"1%	c #5C713F",
"2%	c #426A2F",
"3%	c #5C9341",
"4%	c #243A1A",
"5%	c #474D44",
"6%	c #F1F1F1",
"7%	c #171C0E",
"8%	c #506036",
"9%	c #5F7441",
"0%	c #3F662D",
"a%	c #2A441E",
"b%	c #D7D8D7",
"c%	c #6C883D",
"d%	c #768D50",
"e%	c #627743",
"f%	c #3D632B",
"g%	c #2B3028",
"h%	c #4E5247",
"i%	c #435426",
"j%	c #91AF63",
"k%	c #657A45",
"l%	c #3B5F2A",
"m%	c #355526",
"n%	c #C5C7C4",
"o%	c #9B9E96",
"p%	c #6B863C",
"q%	c #687D46",
"r%	c #395B28",
"s%	c #0F120E",
"t%	c #BBBEBA",
"u%	c #D5D6D4",
"v%	c #455628",
"w%	c #6A8048",
"x%	c #365726",
"y%	c #65A348",
"z%	c #3F652D",
"A%	c #020302",
"B%	c #B0B3AF",
"C%	c #F6F6F6",
"D%	c #242D16",
"E%	c #333D23",
"F%	c #6D834A",
"G%	c #345325",
"H%	c #A5A8A3",
"I%	c #0C0E0A",
"J%	c #0D0F08",
"K%	c #516237",
"L%	c #314F23",
"M%	c #989D96",
"N%	c #FAFAFA",
"O%	c #5F6359",
"P%	c #8C9189",
"Q%	c #8F918C",
"R%	c #7E847C",
"                                      . + @                                                                                     ",
"                                  # $ % & & * = - ;                                                                             ",
"                              > , & ' ) ! & ~ { & & ] ^ /                                                                       ",
"                          ( _ & : < [ [ } | 1 2 3 4 5 & & 6 7 8                                                                 ",
"                      - 9 & 0 a [ [ [ [ [ b & c 2 2 2 d e f & & g h                                                             ",
"                  i j & k l [ [ [ [ [ [ [ [ m & n 2 2 2 2 2 o p q & r s ;                                                       ",
"              t u & v w [ [ [ [ [ [ [ [ [ [ [ x y z 2 2 2 2 2 2 2 A B & C D E                                                   ",
"          F G & H I [ [ [ [ [ [ [ [ [ [ [ [ [ J y K 2 2 2 2 2 2 2 2 2 L M & N O /                                               ",
"      P Q & R S [ [ [ [ [ [ [ [ [ [ [ [ [ [ [ [ T & U 2 2 2 2 2 2 2 2 2 2 V W & & X Y                                           ",
"  Z ` &  ...[ [ [ [ [ [ [ [ [ [ [ [ [ [ [ [ [ [ [ +.& @.2 2 2 2 2 2 2 2 2 2 2 #.c & & $.%.                                      ",
"  &.& *.=.[ [ [ [ [ [ [ [ [ [ [ [ [ [ [ [ [ [ [ [ -.;.>.,.2 2 2 2 2 2 2 2 2 2 2 2 '.).!.& ~.@                                   ",
"  . & & {.].[ [ [ [ [ [ [ [ [ [ [ [ [ [ [ [ [ [ [ [ ^.& /.(.2 2 2 2 2 2 2 2 2 2 2 2 2 _.:.<.& [.P                               ",
"  }.& |.1.& 2.3.[ [ [ [ [ [ [ [ [ [ [ [ [ [ [ [ [ [ -.4.& & 5.6.2 2 2 2 2 2 2 2 2 2 2 2 2 2 7.8.& 9.                            ",
"  ; & 0.a.b.& c.d.[ [ [ [ [ [ [ [ [ [ [ [ [ [ [ [ [ e.& f.g.& & h.i.2 2 2 2 2 2 2 2 2 2 2 2 2 2 j.& k.l.                        ",
"    m.n.a.a.o.p.& q.r.[ [ [ [ [ [ [ [ [ [ [ [ [ [ s.& t.u.u.v.w.x.& y.z.2 2 2 2 2 2 2 2 2 2 2 2 2 A.B.C.D.                      ",
"    E.F.a.a.a.a.G.& H.I.[ [ [ [ [ [ [ [ [ [ [ [ J.K.L.u.u.u.u.u.M.N.O.& P.Q.2 2 2 2 2 2 2 2 2 2 2 2 R.S.& T.;                   ",
"    U.& V.a.a.a.a.W.X.& Y.Z.[ [ [ [ [ [ [ [ [ [ `.&  +u.u.u.u.u.u.u..+++@+& #+3 2 2 2 2 2 2 2 2 2 2 2 2 $+& %+&+                ",
"    *+& =+a.a.a.a.a.a.-+& ;+s.[ [ [ [ [ [ [ [ >+& ,+u.u.u.u.u.u.u.u.u.u.'+)+!+& ~+{+2 2 2 2 2 2 2 2 2 2 2 ]+^+& /+              ",
"      (+_+a.a.a.a.a.a.a.:+<+& [+Z.[ [ [ [ [ }+& |+u.u.u.u.u.u.u.u.u.u.u.u.u.1+2+3+& 4+5+2 2 2 2 2 2 2 2 2 2 _.~ & 6+7+          ",
"      8+p.a.a.a.a.a.a.a.a.a.9+& 0+a+[ [ [ [ b+c+d+u.u.u.u.u.u.u.u.u.u.u.u.u.u.u.e+f+g+& h+i+j+k+l+m+w.n+o+p+q+r+s+t+u+v+        ",
"      w+& a.a.a.a.a.a.a.a.a.a.x+y+& z+A+[ B+& C+u.u.u.u.u.u.u.u.u.u.u.u.u.u.u.u.u.u.D+E+& & & F+G+H+I+J+K+t+L+M+N+O+P+Q+        ",
"      > & :+a.a.a.a.a.a.a.a.a.a.a.R+& S+T+& U+u.u.u.u.u.u.u.u.u.u.u.u.u.u.u.u.u.u.u.u.V+& W+a.a.a.a.a.a.a.a.a.a.a.a.X+& ;       ",
"      l.& Y+a.a.a.a.a.a.a.a.a.a.a.a.Z+`+ @.@C+u.u.u.u.u.u.u.u.u.u.u.u.u.u.u.u.u.u.u.u.+@& @@a.a.a.a.a.a.a.a.a.a.a.a.#@& $@      ",
"        %@&@a.a.a.a.a.a.a.a.a.a.a.a.a.*@=@-@& ;@>@u.u.u.u.u.u.u.u.u.u.u.u.u.u.u.u.u.u.,@& V.a.a.a.a.a.a.a.a.a.a.a.a.a.'@)@      ",
"        !@~@a.a.a.a.a.a.a.a.a.a.a.a.a.=+& {@]@^@& /@(@u.u.u.u.u.u.u.u.u.u.u.u.u.u.u.u._@& :@a.a.a.a.a.a.a.a.a.a.a.a.a.<@[@      ",
"        }@& :@a.a.a.a.a.a.a.a.a.a.a.a.|@& 1@2@2@3@4@& 5@6@D+u.u.u.u.u.u.u.u.u.u.u.u.u.7@O+a.a.a.a.a.a.a.a.a.a.a.a.a.a.8@& 9@    ",
"        t & 0@a.a.a.a.a.a.a.a.a.a.a.a.a@b@2@2@2@2@2@c@d@& e@f@g@u.u.u.u.u.u.u.u.u.u.u.h@i@a.a.a.a.a.a.a.a.a.a.a.a.a.a.j@& k@    ",
"        / & l@a.a.a.a.a.a.a.a.a.a.a.a.m@n@2@2@2@2@2@2@2@o@p@& & q@r@u.u.u.u.u.u.u.u.u.s@t@a.a.a.a.a.a.a.a.a.a.a.a.a.a.a.u@v@    ",
"          w@x@a.a.a.a.a.a.a.a.a.a.a.a.& y@2@2@2@2@2@2@2@2@2@z@A@& & B@v.u.u.u.u.u.u.u.J+C@a.a.a.a.a.a.a.a.a.a.a.a.a.a.a.9+& /   ",
"          D@E@a.a.a.a.a.a.a.a.a.a.a.F@& G@2@2@2@2@2@2@2@2@2@2@2@H@I@J@& K@L@u.u.u.u.M@& N@a.a.a.a.a.a.a.a.a.a.a.a.a.a.a.Z+& U.  ",
"          O@& j@a.a.a.a.a.a.a.a.a.a.P@& Q@2@2@2@2@2@2@2@2@2@2@2@2@2@R@S@T@& r+U@u.u.V@& W@a.a.a.a.a.a.a.a.a.a.a.a.a.a.a.a.X@Y@  ",
"          @ & Z@a.a.a.a.a.a.a.a.a.a.`@x.2@2@2@2@2@2@2@2@2@2@2@2@2@2@2@2@1@ #.#& +#@###& $#a.a.a.a.a.a.a.a.a.a.a.a.a.a.a.a.%#@+; ",
"          E & b.a.a.a.a.a.a.a.a.a.a.&#*#2@2@2@2@2@2@2@2@2@2@2@2@2@2@2@2@2@2@2@=#-#& ;#>#Z@:@a.a.a.a.a.a.a.a.a.a.a.a.a.a.a.,#& '#",
"            )#!#a.a.a.a.a.a.a.a.a.a.~#{#2@2@2@2@2@2@2@2@2@2@2@2@2@2@2@2@2@2@2@2@2@]#^#& & /#(#_#:#$#a.a.a.a.a.a.a.a.a.a.a.a.& <#",
"            [#}#a.a.a.a.a.a.a.a.a.|#& 3@2@2@2@2@2@2@2@2@2@2@2@2@2@2@2@2@2@2@2@2@R@1#2#3#4#5#6#& & & 7#8#9#0#Z+a.a.a.a.a.a.a.a#b#",
"            c#& d#a.a.a.a.a.a.a.a.e#& f#2@2@2@2@2@2@2@2@2@2@2@2@2@2@2@2@2@2@2@g#h#>#i#j#j#j#j#j#k#l#m#n#& & & o#p#q#r#s#a.a.t#& ",
"            %.& u#a.a.a.a.a.a.a.a.v#& w#2@2@2@2@2@2@2@2@2@2@2@2@2@2@2@2@2@2@x#y#& z#j#j#j#j#j#j#j#j#j#j#A#B#C#D#E#& & & F#G#H#& ",
"            ; x.I#a.a.a.a.a.a.a.a.J#K#2@2@2@2@2@2@2@2@2@2@2@2@2@2@2@2@2@2@1@L#& M#j#j#j#j#j#j#j#j#j#j#j#j#j#j#j#j#N#O#P#Q#R#& & ",
"              S#T#a.a.a.a.a.a.a.a.U#V#2@2@2@2@2@2@2@2@2@2@2@2@2@2@2@2@2@1@W#& X#j#j#j#j#j#j#j#j#j#j#j#j#j#j#j#j#j#j#j#j#Y#Z#& `#",
"               $.$a.a.a.a.a.a.a.a.+$@$2@2@2@2@2@2@2@2@2@2@2@2@2@2@2@2@2@#$& $$j#j#j#j#j#j#j#j#j#j#j#j#j#j#j#j#j#j#j#4#%$& &$*$  ",
"              =$& -$a.a.a.a.a.a.:+& c@2@2@2@2@2@2@2@2@2@2@2@2@2@2@2@2@;$& >$j#j#j#j#j#j#j#j#j#j#j#j#j#j#j#j#j#j#,$'$& )$t       ",
"              Y & !$a.a.a.a.a.a.~$& {$2@2@2@2@2@2@2@2@2@2@2@2@2@2@2@]$& ,$j#j#j#j#j#j#j#j#j#j#j#j#j#j#j#j#j#$$^$& /$Z           ",
"                ($_$a.a.a.a.a.a.:$& 2@2@2@2@2@2@2@2@2@2@2@2@2@2@2@<$& [$j#j#j#j#j#j#j#j#j#j#j#j#j#j#j#j#}$|$& 1$2$              ",
"                3$4$a.a.a.a.a.a.5$6$2@2@2@2@2@2@2@2@2@2@2@2@2@2@7$& 4#j#j#j#j#j#j#j#j#j#j#j#j#j#j#j#8$9$& 0$c#                  ",
"                a$& a.a.a.a.a.a.b$c$2@2@2@2@2@2@2@2@2@2@2@2@2@d$& e$j#j#j#j#j#j#j#j#j#j#j#j#j#j#f$g$& h$i$                      ",
"                j$& F@a.a.a.a.k$& l$2@2@2@2@2@2@2@2@2@2@2@2@m$& Y#j#j#j#j#j#j#j#j#j#j#j#j#j#n$o$& p$q$;                         ",
"                7+& r$a.a.a.a.s$& t$2@2@2@2@2@2@2@2@2@2@2@u$& v$j#j#j#j#j#j#j#j#j#j#j#j#w$x$& e@y$E                             ",
"                  z$A$a.a.a.a.B$& C$2@2@2@2@2@2@2@2@2@2@D$& E$j#j#j#j#j#j#j#j#j#j#j#F$G$& & H$I$                                ",
"                  J$K$a.a.a.a.L$M$2@2@2@2@2@2@2@2@2@2@N$& O$j#j#j#j#j#j#j#j#j#j#A#P$& & Q$7+                                    ",
"                  R$& :@a.a.a.S$T$2@2@2@2@2@2@2@2@2@U$& V$j#j#j#j#j#j#j#j#j#j#W$X$& Y$Y                                         ",
"                  P & Z$a.a.a.`$ %2@2@2@2@2@2@2@2@.%& +%j#j#j#j#j#j#j#j#j#E$@%& #%$%                                            ",
"                  E & 9+a.a.Z+& %%2@2@2@2@2@2@2@&%& *%j#j#j#j#j#j#j#j#Y#=%& -%}.                                                ",
"                    ;%>%a.a.r$& z@2@2@2@2@2@2@,%& '%j#j#j#j#j#j#j#4#)%& !%*$                                                    ",
"                    ~%{%a.a.]%& 1@2@2@2@2@2@^%& /%j#j#j#j#j#j#,$(%& _%:%                                                        ",
"                    <%& [%a.}%|%2@2@2@2@2@1%& 2%j#j#j#j#j#3%4%& 5%Z                                                             ",
"                    6%& s$a.7%8%2@2@2@2@9%& 0%j#j#j#j#}$a%& 1$b%                                                                ",
"                    ; & c%:@& d%2@2@2@e%& f%j#j#j#8$Q#& g%c#                                                                    ",
"                      h%i%,#& j%2@2@k%& l%j#j#f$m%& h$n%                                                                        ",
"                      o%L+p%& H@2@q%& r%j#n$o$& s%t%;                                                                           ",
"                      u%& v%& 2@w%& x%y%z%& A%B%E                                                                               ",
"                      C%& D%E%F%& G%G$& & H%I$                                                                                  ",
"                        I%J%K%& L%& & M%N%                                                                                      ",
"                        O%>#& X$& P%Y                                                                                           ",
"                        Q%& & R%$%                                                                                              "};
