/* XPM */
static char *icon[] = {
/* columns rows colors chars-per-pixel */
"64 64 216 2 ",
"   c #010101",
".  c #080806",
"X  c #0B0B0B",
"o  c #170909",
"O  c #11100F",
"+  c #141413",
"@  c #181918",
"#  c #1B1B1A",
"$  c #230808",
"%  c #211F1C",
"&  c #23241E",
"*  c #1B1E20",
"=  c #1E2124",
"-  c #232323",
";  c #282727",
":  c #2C2C2D",
">  c #322F2B",
",  c #35312C",
"<  c #373F2B",
"1  c #282D31",
"2  c #2E343A",
"3  c #333435",
"4  c #383836",
"5  c #3C3C3D",
"6  c #521313",
"7  c #6A1717",
"8  c #423E38",
"9  c #6D3F3A",
"0  c #3C462B",
"q  c #3F4437",
"w  c #414C2F",
"e  c #434D34",
"r  c #44453C",
"t  c #4A5537",
"y  c #505A3C",
"u  c #53613D",
"i  c #353C43",
"p  c #3C424B",
"a  c #3F4851",
"s  c #454545",
"d  c #474845",
"f  c #41454A",
"g  c #4C4C4C",
"h  c #514C45",
"j  c #564F48",
"k  c #4D5343",
"l  c #565649",
"z  c #424A53",
"x  c #474E55",
"c  c #49535B",
"v  c #525353",
"b  c #585955",
"n  c #5B5B5B",
"m  c #635C53",
"M  c #59644A",
"N  c #5E6359",
"B  c #66774B",
"V  c #636B55",
"C  c #6E665C",
"Z  c #70685E",
"A  c #6A7152",
"S  c #6B7B51",
"D  c #4D5864",
"F  c #535D69",
"G  c #57636B",
"H  c #5A6773",
"J  c #5E6C7A",
"K  c #636363",
"L  c #6A6D64",
"P  c #6B6B6B",
"I  c #7A746A",
"U  c #636B73",
"Y  c #6C7076",
"T  c #747474",
"R  c #767778",
"E  c #7C7C7C",
"W  c #A92828",
"Q  c #B53836",
"!  c #C73937",
"~  c #83796E",
"^  c #847F79",
"/  c #BE776E",
"(  c #6F8050",
")  c #768857",
"_  c #7B8E5B",
"`  c #7C905A",
"'  c #788464",
"]  c #7A846A",
"[  c #7D8176",
"{  c #82975E",
"}  c #869B63",
"|  c #84867A",
" . c #94897C",
".. c #8B9875",
"X. c #8BA265",
"o. c #8EA468",
"O. c #90A768",
"+. c #94AC6C",
"@. c #98B06F",
"#. c #9CB472",
"$. c #A2BC76",
"%. c #A6C078",
"&. c #AAC57B",
"*. c #ADC97E",
"=. c #647383",
"-. c #687887",
";. c #6B7A8B",
":. c #747A81",
">. c #6E7E90",
",. c #6F8093",
"<. c #718193",
"1. c #798899",
"2. c #7D90A4",
"3. c #838382",
"4. c #8C8C8C",
"5. c #94908B",
"6. c #939393",
"7. c #969797",
"8. c #9B9B9B",
"9. c #A59A8C",
"0. c #AD988D",
"q. c #B2B58D",
"w. c #AEA092",
"e. c #B4A798",
"r. c #BBAD9D",
"t. c #8496AA",
"y. c #959DA6",
"u. c #869BB2",
"i. c #899EB5",
"p. c #9EA3A8",
"a. c #8DA3BC",
"s. c #99AABB",
"d. c #A3A3A3",
"f. c #A9A7A4",
"g. c #ACACAC",
"h. c #B6AEA4",
"j. c #B8B2AA",
"k. c #AAB0B2",
"l. c #B4B4B4",
"z. c #B9B5B0",
"x. c #B6B7B8",
"c. c #BCBCBC",
"v. c #D0A799",
"b. c #C3B5A4",
"n. c #C7B9AA",
"m. c #CBBCAB",
"M. c #C4BDB7",
"N. c #B2CC83",
"B. c #B7D485",
"V. c #BDDC8A",
"C. c #B9C291",
"Z. c #C0DE8C",
"A. c #C4C39E",
"S. c #C3E28E",
"D. c #C6E690",
"F. c #CBEB93",
"G. c #CFF097",
"H. c #D0F197",
"J. c #D1F298",
"K. c #CDC5A9",
"L. c #D0C3AE",
"P. c #D5D1AD",
"I. c #C7C2BC",
"U. c #D4C5B3",
"Y. c #D8C8B6",
"T. c #DDCDB9",
"R. c #E0CFBC",
"E. c #E1D1BD",
"W. c #94ABC4",
"Q. c #95ACC6",
"!. c #9AB2CD",
"~. c #9EB6D2",
"^. c #9FB8D4",
"/. c #A8B6C6",
"(. c #BDBFC2",
"). c #A4BBD5",
"_. c #A3BDD9",
"`. c #B7C0CA",
"'. c #A8C1DC",
"]. c #A7C2E0",
"[. c #AAC5E3",
"{. c #ADC8E6",
"}. c #AECBEA",
"|. c #B1CEED",
" X c #B3CFF0",
".X c #B6D3F4",
"XX c #B8D6F6",
"oX c #B9D7F8",
"OX c #BCDBFD",
"+X c #C4C4C4",
"@X c #C8C7C6",
"#X c #CCCBCB",
"$X c #D1CECA",
"%X c #DAD2C9",
"&X c #CFCFD0",
"*X c #D3D3D3",
"=X c #DFDAD4",
"-X c #DCDCDB",
";X c #E5D5C1",
":X c #E9D6C2",
">X c #EBDAC5",
",X c #EFDDC8",
"<X c #F0DFCA",
"1X c #F4E2CC",
"2X c #F8E5CF",
"3X c #E2E0DF",
"4X c #F7E5D0",
"5X c #C0DFFF",
"6X c #E0DFE1",
"7X c #C1E1FF",
"8X c #E3E3E3",
"9X c #E9E6E4",
"0X c #ECEBEC",
"qX c #F3F3F3",
"wX c #F8F7F7",
"eX c #FFFFFF",
/* pixels */
"eXeXeXeXeXeXeXeXeXeXeXeXeXeXeXeXeXeXeXeXeXeXeXeXeXeXeXeXwX0X-X8X#X*X-X9XwXeXeXeXeXeXeXeXeXeXeXeXeXeXeXeXeXeXeXeXeXeXeXeXeXeXeXeX",
"eXeXeXeXeXeXeXeXeXeXeXeXeXeXeXeXeXeXeXeXeXeXeXwX8X-Xd.P g 3 z U G U =.-.4.6.g.0XeXeXeXeXeXeXeXeXeXeXeXeXeXeXeXeXeXeXeXeXeXeXeXeX",
"eXeXeXeXeXeXeXeXeXeXeXeXeXeXeXeXeXeXeXeXwX&X8.R Y <.=.J =.2.]..XXXOXOX.X|.~.t.<.E g.0XeXeXeXeXeXeXeXeXeXeXeXeXeXeXeXeXeXeXeXeXeX",
"eXeXeXeXeXeXeXeXeXeXeXeXeXeXeXeXeXeXwXc.T J t.'.[.W.,.H G 1.W.;.x G u. XOX5X5X.X!.;.U 8.9XeXeXeXeXeXeXeXeXeXeXeXeXeXeXeXeXeXeXeX",
"eXeXeXeXeXeXeXeXeXeXeXeXeXeXeXeXeX#XT J W.oX|.1.i X         X .   X X D {.OXOXOXOXOX[.;.v 8.0XeXeXeXeXeXeXeXeXeXeXeXeXeXeXeXeXeX",
"eXeXeXeXeXeXeXeXeXeXeXeXeXeXeX9XE z t.oX5XQ.x . X                       F XXOXOXOXOXOXOX!.D b +XeXeXeXeXeXeXeXeXeXeXeXeXeXeXeXeX",
"eXeXeXeXeXeXeXeXeXeXeXeXeXeX#Xs z ).OXOXt.* X   +   . X                 X u.OXOXOXOXOXOXOX.X2.z 4.wXeXeXeXeXeXeXeXeXeXeXeXeXeXeX",
"eXeXeXeXeXeXeXeXeXeXeXeXeXk.: G |.OXOXa.@       . . % @ + .     @         z XXOXOXOXOXOXOXOXOX_.x P 0XeXeXeXeXeXeXeXeXeXeXeXeXeX",
"eXeXeXeXeXeXeXeXeXeXeXeXg.- =..XOXOX}.2       X - > . X - . % m 0.m @     + !.OXOXOXOXOXOXOXOXOX}.F G 9XeXeXeXeXeXeXeXeXeXeXeXeX",
"eXeXeXeXeXeXeXeXeXeXeXc.; >.oXOXOXOX;.        . X X     % ~ Y.<X2X1Xm.m X   ,.OXOXOXOXOXOXOXOXoX5X|.D n 0XeXeXeXeXeXeXeXeXeXeXeX",
"eXeXeXeXeXeXeXeXeXeX*X3 -.OXOXOXOX'.-       ; +   + o j m.<X2X<X1X1X2X,XC   c oXOXOXOXOXOXOXOXOXOXOX|.c P qXeXeXeXeXeXeXeXeXeXeX",
"eXeXeXeXeXeXeXeXeX9Xd H oXOXOXOXOX>.      X ; # . @ ~ >X2X<X<X2X1X1X1X2XT.> 1 |.OXOXOXOXOXOXOXoXOXOXOX[.i E wXeXeXeXeXeXeXeXeXeX",
"eXeXeXeXeXeXeXeXwXT x |.OXOXOXOX}.2       . . X   s ;X4X2X<X<X<X<X1X1X1X1X~ @ _.OXOXOXOXOXOXOXOXOXOXOXOX~.2 w.eXeXeXeXeXeXeXeXeX",
"eXeXeXeXeXeXeXeXl.a ].OXOXOXOXOXi.X           . 6 / ;X1X<X<X2X<X1X1X1X1X2Xb.& !.OXOXOXOXOXoXOXOXOXOXOXOXOXu.2 +XeXeXeXeXeXeXeXeX",
"eXeXeXeXeXeXeX8Xv W.OXOXOXOXOXOXH           $ 7 W ! / ;X,X<X<X<X1X1X1X2X2XE.r a.OXOXOXOXOXOXOXOXOXOXOXOXOXOXJ s 9XeXeXeXeXeXeXeX",
"eXeXeXeXeXeXeX4.=.OXOXOXOXOXOX.X2           o W W W 0.N h 9.m.<X1X<X1XE.b.5., a.5XOXOXOXOXOXOXOXOXoXOXOXOXOX}.i 3.eXeXeXeXeXeXeX",
"eXeXeXeXeXeX*Xz ].OXOXOXOXOXOX^.= X         o 6 7 Q v.r.Z 8 y ^ ,X1X0.8 % . + ~.OXOXOXOXOXOXOXOXOXOXOXOXOXOX5Xi.; #XeXeXeXeXeXeX",
"eXeXeXeXeXeXR ;.OXOXOXOXOXOXOXa.; #             9 0.E.0.j l U.Y.1Xm.h h Z b 2 .XOXOXoXOXOXOXOXOXOXOXoXOXoXOXOXoXF v qXeXeXeXeXeX",
"eXeXeXeXeX&Xf {.OXOXOXOXOXOXOX,.+ X           % m.<XU. .m Z >X2X2Xm. .m 4 ~ ;.OXOXOXOXOXoXOXOXOXOXOXOXOXOXOXOXOX).= 6.eXeXeXeXeX",
"eXeXeXeXeXR -.5XOXOXOXoXOXOXOXH + .       , ~ b.,X1X1X1XE.E.<X1X2XE.r.m.b.r.'.OXOXOXOXOXOXOXoXOXOXOXOXOXOXOXOXOXOX=.: 6XeXeXeXeX",
"eXeXeXeX-Xf ).OXOXOXOXOXOXOXoXa .       ; m.2X2X1X<X1X1X1X1X1X1X1X,Xr.>X4XI.|.OXOXOXOXOXOXOXOXOXOXoXOXOXOXOXOXOXOX'.- 4.eXeXeXeX",
"eXeXeXeX8.F OXOXOXOXOXOXOXOX X2         . C ,X1X1X1X1X1X1X<X1X1X<X2Xm.U.1Xx.XXOXOXOXOXOXOXOXOXOXOXOXOXoXOXOXOXOXOXOX=.5 0XeXeXeX",
"eXeXeXeXK u.OXOXOXOXOXOXOXOX{.=           , E.2X1X1X1X1X1X1X<X1X1X2XE.m.>X/.OXOXOXOXXX.XOXOXOXOXOXOXOXOXOXOXOXOXOXOX~.- x.eXeXeX",
"eXeXeX6Xv [.OXOXOXOXOXOXOXOX_.=           , ;X1X<X1X1X1X1X1XE.T.5.9.>XL.>X`.OXOX{._.y.y.).XXOXOXOXOXOXOXOXoXOXOXOXOXXXz T eXeXeX",
"eXeXeXl.F OXOXOXOXOXOXOXOXOX~.@           P ;X4X1X1X1X<X,Xb.~ 4 % 8 b.Z 0.'.5X Xs.*Xg.9X*X/.{.OXOXOXOXOXOXOXOX5XOXOX5X1.5 0XeXeX",
"eXeXeXE <.5XOXOXOXOXoXOXOXOX~.+         ; -X=X;X1X1X1X>Xe.m 8 > & > r , ; t.5X{.x.#Xz.#X#X9X`.s./.x.).|.XXoX5X5XOXOXOX_.1 @XeXeX",
"eXeXwXn a.OXOXOXOXOXOXOXOXOX'.*     # B y x.qX$XE.1X1X<X,X:X:Xe.0. .w.b.7.}.OX/.l.l.+X`.@X(.8X-Xn.>Xb.f.d.k.s.)..XOXOXoXa 4.eXeX",
"eXeX8Xf _.OXOXOXOXOXOXOXOXOX.X2 . u *.J.&.V @X*X=X%X1X1X1X,X:X,XY. .L.b.Q.OXXXs.x.8.*X+X6X@Xx.@X@XU.r.r.>X%XU.Y./.OXOXOX;.b wXeX",
"eXeX&Xp }.OXOXOXOXOXOXOXOXOXa.q } F.J.G.G.o.P k.eX9X;X>X;XC 4 h 8 + 4 m 4.[.}.y.x.w.-X#X*X*X-X*X(.M.#Xz.E.E.L.:Xh.!.OX5Xa.3 8XeX",
"eXeXM.z .XOXOXOXOXOXOXOX.X,.M *.J.J.G.G.G.G.) [ eXeXwX*Xb .           X p :.F g.l.l.@X6X@X&X0XwXwX*X0Xz.U.:Xr.U.U.h.s.{.W.: *XeX",
"eXeXl.D OXOXOXOXOXOXOX.XJ B V.J.G.G.G.G.G.J.*.I eXeXeX0X3 .             s =XC `.d.@X#X*X@X8X8XeXeXeX#XU.:Xr.b.b.r.r.4.c.@Xi x.eX",
"eXeXd.H OXOXOXOXoXOX.XJ ( D.J.G.G.G.G.G.G.G.V.V 0XeXeX9X:               > z.<.I.d.*X(.x.c.*XwXeXeXeX-XI.j.7.e.9.h.z.#X*X*Xb 4.eX",
"eXeX8.-.OXOXOXOXOXOX1.B F.J.G.G.G.G.G.G.G.G.D.V 6XeXeXwXK .             v g w.k.c.eX-Xc.@X9XwXeXeXeXwX9X8X-X9X6X9XqX#X*X6Xv P eX",
"eXeX7.,.5XOXOXOXOX~.M V.G.G.G.G.G.G.G.G.G.G.G.A &XeXeXeX9Xg           - +XR x.d.8XeXeXwX-X@X-XwXeXeX6X-Xx.8X*X6X*X*X9XeXeXn v eX",
"eXeX4.<.5XOXOXOXoXH +.J.G.G.G.G.G.G.G.G.G.G.J.) (.eXeXeXeX8Xg +     X 6.0Xp.d.g.eXeX0XwX0X0X-X+X6XwX@X8Xl.qX#X-X6X-X-X-X0Xn v wX",
"eXeX3.-.OXOXOX5Xa.M F.G.G.G.G.G.G.G.G.G.G.G.J.} x.eXeXeXeXeX9X#X6.@ E eX#Xd.7.@XeXwXg.&Xd.*XeX0X#Xk.-X@X@X-X#X#XqXwXeXeXwXb n eX",
"eXeX3.H 5XOXOXXXc O.J.G.G.G.G.G.G.G.G.G.G.G.J.X.g.eXeXeXeXeXeXeXeXK R eXg.g.6.0XeXwXd.g.c.0XqX@XwX0XqXf.0X-X-X@Xx.c.#X*XqXv T eX",
"eXeXE D OXOXOXQ.q S.G.G.G.G.G.G.G.G.G.G.G.G.J.O.g.eXeXeXeXeXeXeXeX4.K *Xf.g.g.eXeX@X7.+X@X9X#Xd.9XeX3Xg.eX6X#X#X#X#X-X9XqXg 6.eX",
"eXeX4.i XXOX5X-.( J.G.G.G.G.G.G.G.G.G.G.H.G.H.} g.eXeXeXeXeXeXeXeX7.P 4.x.8.-XwXx.7.g.*Xg.f.E E `.eXl.*XeXeXeXeX*Xc.wXeXwXg `.eX",
"eXeXl.2 }.OX.Xc %.J.G.G.G.G.G.G.G.G.G.G.H.H.J.) x.eXeXeXeXeXeXeXeX6.n P c.d.wXqXg.l.c.`.d.6.R +X0XqXd.wXeXwX0X0Xx.x.qXeX8Xg 3XeX",
"eXeX*X3 ^.5X_.M D.G.G.G.G.G.G.G.G.G.G.G.G.G.G.S (.eXeXeXeXeXeXeXeX4.: 8.c.@XeXqXg.-X*Xg.4.*X&XwXeX*Xx.eXwX#Xx.g.3.x.6X*Xx.K wXeX",
"eXeXwXs i.5Xi._ J.G.G.G.G.G.G.G.G.G.G.G.G.G.D.M #XeXeXeXeXeXeXeXeX3.s l.f.qXeX#X4.8Xx.&Xc.8XeXeXeXl.-XeXwX#Xc.8.l.c.d.I.E 4.eXeX",
"eXeXeXT -.7X;.#.J.G.G.G.G.G.G.G.G.G.G.G.H.H.Z.t 6XeXeXeXeXeXeXeXeX3.T 8.+XeX0X*X@X#X+X#Xl.9XeXeX0Xd.wXeXeXeXqX6Xg.8.k.8Xg @XeXeX",
"eXeXeXg.c |.G B.G.G.G.G.J.J.G.G.G.G.G.G.G.J.&.g 0XeXeXeXeXeXeXeXwXd.8.6.0X0Xl.M.x.d.8.x.qXwXeXeX@X+XeXeXeX9Xc.0XqXM.eXc.g 0XeXeX",
"eXeXeX8Xg a.N D.G.G.G.G.Z.%.Z.G.J.J.G.G.G.J.X.K eXeXeXeXeXeXeXeX9X(.d.c.#XT I 5.6.P 1 x.qXg.*XwXg.9XeXeXeX@X*XqX9X&XeXT R eXeXeX",
"eXeXeXeX[ a S J.G.G.G.G.B.S B ) #.Z.J.J.G.J.B T 0X0XqXqXwXeXeXeX@Xd.8.9Xc.T <.g.T P 5 @X8Xf.c.8Xl.eXwX-X-Xc.*X0X@XqX-X5 @XeXeXeX",
"eXeXeXeX`.O ) J.G.G.G.G.G.G.S.&.} ` +.B.G.J.%.) ' ] ] ] | | [ P 4.8.x.eXwX8X4.8.6.4.6.#X+X@XwXc.*XeX*Xx.x.g.`.@X9XeX6.n wXeXeXeX",
"eXeXeXeXwXK B J.G.G.G.G.G.G.G.J.J.F.N.O.X.$.D.G.G.F.F.S.Z.Z.{ l d.g.*X#X0XeX*X6.7.[ d.&X#X+XqXg.wX0X#X0X@X+XI.9XeX8Xg x.eXeXeXeX",
"eXeXeXeXeX*Xr &.J.J.G.G.G.G.G.G.G.H.H.H.V.@._ O.S.H.H.H.G.Z.' k.x.c.3Xg.+X*X0X`.x.g.8.9XeXeX#X@XeX6X@X-X@X*X@X#XeX4.K wXeXeXeXeX",
"eXeXeXeXeXeX8.M F.G.G.G.G.G.G.G.G.G.H.G.H.H.S.@.) +.D.J.D...d.x.@X*X*X-X@XI.@X8X0X8X6XeXeXeXg.0XeX9X*X*X+Xx.#Xc.(.s *XeXeXeXeXeX",
"eXeXeXeXeXeXwXE ` J.H.H.G.G.G.G.G.G.G.G.H.G.H.H.S.+.{ *.#.r g.8XeXwX*Xx.6X-X@X+X*XwXeXeXeX-Xc.eXeXwX-X#X+Xg.#Xl.v 4.eXeXeXeXeXeX",
"eXeXeXeXeXeXeX9XN { J.H.G.G.G.G.G.G.G.G.H.G.G.G.H.H.V.X._ } ..h.9XeXeX0Xc.#X9X#X+X@XqXeXeXc.9XeXwXx.@Xc.x.6X9XP K qXeXeXeXeXeXeX",
"eXeXeXeXeXeXeXeX*Xl O.J.H.G.G.G.G.G.G.G.G.G.G.G.H.H.J.F.&._ #.$.] l.wXeXeX&X+X0X*Xx.#XeX9XI.eXeXeXqX-X&X#XeX6.g 8XeXeXeXeXeXeXeX",
"eXeXeXeXeXeXeXeXeX*XN +.H.H.G.G.H.H.G.G.G.G.G.G.F.H.H.H.J.S.{ y l k 6.@X-X0X-Xc.0X&Xx.0X`.8XeXeXeXeXwX8XqX8.d *XeXeXeXeXeXeXeXeX",
"eXeXeXeXeXeXeXeXeXeX-XL o.G.H.H.H.H.G.G.G.G.H.G.J.H.H.H.H.J.*.r w.Y.E.E.R.U.L.z.7.3X#X-Xx.9X8X0XqXwXeXeX7.g #XeXeXeXeXeXeXeXeXeX",
"eXeXeXeXeXeXeXeXeXeXeX9X| _ V.G.J.H.H.G.G.G.H.H.H.H.F.J.H.J.X.I 1XU.Y.1X2X<XT.U.e.8.8X@X-Xx.x.+X#XqXwX4.v *XeXeXeXeXeXeXeXeXeXeX",
"eXeXeXeXeXeXeXeXeXeXeXeXwXd.k u { *.S.G.J.J.H.H.H.H.G.G.J.F.B 0.2X1XL.m.:XE.w.+X$Xj.| 8.eXwX0X0X0X8XR n -XeXeXeXeXeXeXeXeXeXeXeX",
"eXeXeXeXeXeXeXeXeXeXeXeXeXeX&Xb @ e S { +.*.D.H.H.J.H.H.J.B.k Y.1X1X1XE.b.L.U.h.$Xg.5 6.*X-X9XeX*Xn P 9XeXeXeXeXeXeXeXeXeXeXeXeX",
"eXeXeXeXeXeXeXeXeXeXeXeXeXeXeXwXx.L y ) X.X.o.O.@.$.N.V.B.( I 4X1X1X1X1X<XY.b.n.L.e. .M.h.| 8.R p w.wXeXeXeXeXeXeXeXeXeXeXeXeXeX",
"eXeXeXeXeXeXeXeXeXeXeXeXeXeXeXeXeXwX@XR M ` $.*.&.@.O.X.S e 9.;X,X<X1X1X2X<X>Xm.9.e.L.e.Z b s d (.eXeXeXeXeXeXeXeXeXeXeXeXeXeXeX",
"eXeXeXeXeXeXeXeXeXeXeXeXeXeXeXeXeXeXeXeX-X8.T M M ) X.O.%.V.N.N.C.A.P.K.A.q.q.N.#.} S t & 5 8.0XeXeXeXeXeXeXeXeXeXeXeXeXeXeXeXeX",
"eXeXeXeXeXeXeXeXeXeXeXeXeXeXeXeXeXeXeXeXeXeXeX8Xl.4.C d r e < 0 t e e 0 0 w 0 0 0 d n 6.+X0XeXeXeXeXeXeXeXeXeXeXeXeXeXeXeXeXeXeX",
"eXeXeXeXeXeXeXeXeXeXeXeXeXeXeXeXeXeXeXeXeXeXeXeXeXeXeXqX8X*Xx.8.| P P P P R 4.g.*X0XeXeXeXeXeXeXeXeXeXeXeXeXeXeXeXeXeXeXeXeXeXeX",
"eXeXeXeXeXeXeXeXeXeXeXeXeXeXeXeXeXeXeXeXeXeXeXeXeXeXeXeXeXeXeXeXeXeXeXeXeXeXeXeXeXeXeXeXeXeXeXeXeXeXeXeXeXeXeXeXeXeXeXeXeXeXeXeX"
};
