/* XPM */
static char *ghini[] = {
/* columns rows colors chars-per-pixel */
"64 64 252 2 ",
"   c #00F300E800E4",
".  c #059109E208FD",
"X  c #0B840BAF0BA6",
"o  c #15520A9409DE",
"O  c #061015D817FB",
"+  c #1412139E1316",
"@  c #14F7197C1865",
"#  c #1BF01B531A9D",
"$  c #238223751DC9",
"%  c #0B501DA02022",
"&  c #0B2A28E22CBB",
"*  c #1A9025B525F7",
"=  c #0E1B361F3B7D",
"-  c #243425002463",
";  c #286C298C275A",
":  c #2CD72CC62CC6",
">  c #357734152CA1",
",  c #2B492FB62FB1",
"<  c #2ACC36A736AE",
"1  c #347C3512348B",
"2  c #366937F734F5",
"3  c #3B7F3C233C1C",
"4  c #53251303130B",
"5  c #6BEC17F21812",
"6  c #43053E16384B",
"7  c #65AC36BE32E0",
"8  c #3B1D454A2A9A",
"9  c #39EC462B3767",
"0  c #45014575383B",
"q  c #494E545C3576",
"w  c #4B98545737F8",
"e  c #558863293E5D",
"r  c #38683FB640BA",
"t  c #18234DD654B9",
"y  c #37FF456F4520",
"u  c #3C2D4C1B4C2C",
"i  c #297A54A65048",
"p  c #3B6A549154FC",
"a  c #3F8360E64CA5",
"s  c #1CDE685F7233",
"d  c #277E6C7A7307",
"f  c #43534454443A",
"g  c #489B4AB146E9",
"h  c #4B2B4BC14B8C",
"j  c #55D64F79480F",
"k  c #4A2053594762",
"l  c #56DD550D4A95",
"z  c #4704577C5760",
"x  c #55D159785881",
"c  c #62115AB65236",
"v  c #597766FB47B7",
"b  c #4F4966655203",
"n  c #66EB77D84C36",
"m  c #637D65E957F1",
"M  c #71866BEE5DF8",
"N  c #6B577BA65175",
"B  c #49F56523655D",
"V  c #5A0D68FC67CB",
"C  c #4A83705A7179",
"Z  c #58427728774F",
"A  c #644F666C63E1",
"S  c #6EBF6DBA644B",
"D  c #62DD6D026CB7",
"F  c #6AC16B4D6ABA",
"G  c #775372BF6759",
"H  c #6A9278517742",
"J  c #7417740E7442",
"K  c #77407C1C7BDA",
"L  c #A8EA275E2755",
"P  c #B1A933453201",
"I  c #C72F37583630",
"U  c #82A678F56DAC",
"Y  c #9913773F6CD2",
"T  c #B6F56E08659C",
"R  c #6E2B80125036",
"E  c #74D486E855BD",
"W  c #7A918E605A82",
"Q  c #7B5984697143",
"!  c #829897955EE9",
"~  c #85F19A106388",
"^  c #86E586C478BE",
"/  c #949B899C7CF4",
"(  c #ADCE89597D45",
")  c #8C32A28465D9",
"_  c #8F26A5B468A5",
"`  c #90C9A7DB6997",
"'  c #94D8AC486BDE",
"]  c #9884B0FA6F01",
"[  c #9D2AB54372B0",
"{  c #A30FBD1B7670",
"}  c #A8E6C3B67A9E",
"|  c #AE60CA527E94",
" . c #1DDD74E78084",
".. c #2A427D748717",
"X. c #5ECD7D2C8167",
"o. c #330B84428BE3",
"O. c #26CC88A99580",
"+. c #270798CEA8B2",
"@. c #2AC0AA5CBBF0",
"#. c #335DA9CEB841",
"$. c #5B40877187D6",
"%. c #548C8E9692C9",
"&. c #680B86478614",
"*. c #762D88F0882A",
"=. c #684195489610",
"-. c #7AAF983397A0",
";. c #5EDB9E13A140",
":. c #5183AEECB846",
">. c #761BAAA6AB4E",
",. c #6CF8B23FB500",
"<. c #2C6EB26FC594",
"1. c #44E9BD60CA97",
"2. c #6112BDC0C37F",
"3. c #33E6C4A6D876",
"4. c #34AACE37E343",
"5. c #35D4D530EB2A",
"6. c #38F8DD0AF2D7",
"7. c #38B8E172F852",
"8. c #3B9AE7EBFF8A",
"9. c #3CA6E98BFF98",
"0. c #52D6C81FD43A",
"q. c #6853D874E15D",
"w. c #488DE501F710",
"e. c #4372E964FDC9",
"r. c #4BD5EAA8FC6E",
"t. c #5D5CE68CF2F0",
"y. c #53C1EBDEFB8C",
"u. c #5C87ECC3FA41",
"i. c #6AE9EDBEF82B",
"p. c #6DCFEE2CF834",
"a. c #635AEDCAF9CD",
"s. c #6C1AEEBFF8F2",
"d. c #7678F014F85E",
"f. c #78C8F062F854",
"g. c #73F7EFD7F8A2",
"h. c #7DAFF0FAF818",
"j. c #7776F147F98F",
"k. c #7C57F258F9EB",
"l. c #83A983A383A6",
"z. c #84588C108B11",
"x. c #8CAE8CA68CA7",
"c. c #99A7914885C5",
"v. c #8876939D9213",
"b. c #8DF39B5C9AD0",
"n. c #931693979385",
"m. c #9A1A9D0B965E",
"M. c #9BAA9B7D9B49",
"N. c #A5A399C88C04",
"B. c #AA979DE88E7A",
"V. c #A81D9E40933B",
"C. c #8F0BA24A9CD4",
"Z. c #B019B38F8BDA",
"A. c #A8A6A39E9B32",
"S. c #B389A6C296A4",
"D. c #BB3DAD419D05",
"F. c #8A27AAFCAA52",
"G. c #97C8A7D0A6A2",
"H. c #8993B879B89D",
"J. c #994BB775B7FF",
"K. c #A3B6A3B2A3AF",
"L. c #A3EAABF3AB40",
"P. c #AC6DAC72AC5F",
"I. c #B4D0ACB7A3B9",
"U. c #BFA1B182A0F2",
"Y. c #A6BBB804B63A",
"T. c #B4D8B4CFB4D2",
"R. c #B660BADCB925",
"E. c #BC99BCB9BCB2",
"W. c #C2A7A68E9741",
"Q. c #C457B5CAA4D5",
"!. c #C6F2B919A8F7",
"~. c #CC03BCE8AB49",
"^. c #C043C025C021",
"/. c #B2B6CCE38345",
"(. c #B549C68A89B7",
"). c #B8C9D5FF8628",
"_. c #BE6FDCE08A53",
"`. c #C101DFDC8CA6",
"'. c #C3AEC2E19DCE",
"]. c #C483E3C28ECD",
"[. c #C7CEE75E9150",
"{. c #CBF2EC6B9458",
"}. c #CFD5F0F7979B",
"|. c #D066F19F9800",
" X c #D1E8F3619919",
".X c #CC4DC42FAAB2",
"XX c #D18EC749AD69",
"oX c #C5A5C1DDBD74",
"OX c #D441C458B22E",
"+X c #D85DC970B80B",
"@X c #DE0CCDCFBAFC",
"#X c #D92AD5E9B046",
"$X c #E295D003BCA6",
"%X c #E29ED210BE83",
"&X c #C047BFE1C0F3",
"*X c #8C3BC544C5FC",
"=X c #91C4CD29CDEE",
"-X c #8923D682D90D",
";X c #9657D868D989",
":X c #A983C874C768",
">X c #B8E7C89BC81A",
",X c #A8FAD62CD59B",
"<X c #B762DA33D905",
"1X c #B9C9E091DF7D",
"2X c #8DF7DDBCE08B",
"3X c #92E8E6ADE99F",
"4X c #830FF1BAF7FE",
"5X c #8B17F2CFF7EE",
"6X c #8948F4C9FA7B",
"7X c #91ECF324F760",
"8X c #9C32F478F762",
"9X c #93FDF60DFA48",
"0X c #9BD9F705FA30",
"qX c #9D1AF8A5FBF2",
"wX c #AAA9E9A5EA48",
"eX c #B947E931E88F",
"rX c #A128F063F25B",
"tX c #A4D7F3CFF5A3",
"yX c #A6FDF809F9FE",
"uX c #B5AEF89BF91C",
"iX c #C4E1C4DBC4D9",
"pX c #C69ECE01CC30",
"aX c #CC43CC4FCC4E",
"sX c #CE26D0BBCF3C",
"dX c #C9AAD70AD67E",
"fX c #D3A6D39ED39C",
"gX c #D51AD9D7D739",
"hX c #DC7DDC90DC8F",
"jX c #E754D652C236",
"kX c #EC40DA6AC601",
"lX c #EE95DC38C7A8",
"zX c #F20ADFC8CACC",
"xX c #F4B0E286CD6C",
"cX c #E25CE12CDFC7",
"vX c #F95BE62CD083",
"bX c #CBBBE5B5E4A2",
"nX c #DB04E63DE570",
"mX c #D7D6E98EE857",
"MX c #D780F0D8EF77",
"NX c #C836F89FF7C6",
"BX c #DB09F8ECF781",
"VX c #E45AE43FE447",
"CX c #E44EEDACECCA",
"ZX c #EC64EC7AEC81",
"AX c #EF1FF011F0A9",
"SX c #EAC2F718F636",
"DX c #E526FED0FDA4",
"FX c #ED3FFEA5FD77",
"GX c #F3DAF3F0F3F7",
"HX c #F53EF886F8D1",
"JX c #F4C7FF40FE72",
"KX c #FF0FFFBBFFA1",
/* pixels */
"KXKXKXKXKXKXKXKXKXKXKXKXKXKXKXKXKXKXKXKXKXKXKXJXKXKXJXJXSXmXgXnXpXpXgXnXSXJXKXKXKXKXKXKXKXKXKXKXKXKXKXKXKXKXKXKXKXKXKXKXKXKXKXKX",
"KXKXKXKXKXKXKXKXKXKXKXKXKXKXKXKXKXKXKXKXJXKXKXSXnXdXG.F h , z D D H H *.v.v.L.mXFXJXJXKXKXKXKXKXKXKXKXKXKXKXKXKXKXKXKXKXKXKXKXKX",
"KXKXKXKXKXKXKXKXKXKXKXKXKXKXKXKXKXKXJXKXSXpXb.H H z.H H &.b.1XNXNXNXNXMXbX<XG.*.K L.CXJXJXKXKXKXKXKXKXKXKXKXKXKXKXKXKXKXKXKXKXKX",
"KXKXKXKXKXKXKXKXKXKXKXKXKXKXKXKXJXKXSXR.H D G.1XeX*X*.Z Z -.H.&.z V F.uXuXNXBXNX:X*.D C.mXKXJXJXKXKXKXKXKXKXKXKXKXKXKXKXKXKXKXKX",
"KXKXKXKXKXKXKXKXKXKXKXKXKXKXKXJXFX>XH H Y.NXeX-.3 X         .       . B 3XyXuXuXNXNX1X*.x b.mXJXKXJXKXKXKXKXKXKXKXKXKXKXKXKXKXKX",
"KXKXKXKXKXKXKXKXKXKXKXKXKXJXJXnXK h F.NXNX*Xp   .                       B 4X7X7XtXyXuXNX:Xx z >XJXJXKXKXKXKXKXKXKXKXKXKXKXKXKXKX",
"KXKXKXKXKXKXKXKXKXKXKXJXJXJX>Xy z ,XuXuX>.%     .   . .                 X ;.f.k.4X7X8XtXuXuXF.y z.SXJXJXKXKXKXKXKXKXKXKXKXKXKXKX",
"KXKXKXKXKXKXKXKXKXKXKXJXJXL.; V wXuXyX,.@           @ o .       +         t t.a.s.g.4X5X8XtXuX,Xz V mXJXJXKXKXKXKXKXKXKXKXKXKXKX",
"KXKXKXKXKXKXKXKXKXKXJXFXG.# &.uXyX8X-X<       . + #     +   # j c.l +     O 1.y.u.a.i.p.4X5X8XuXeXB z mXJXJXJXKXKXKXKXKXKXKXKXKX",
"KXKXKXKXKXKXKXKXJXJXFXY.; =.tX8X5Xf.o.            X     # G ~.zXvXlXQ.l .   O.e.r.r.y.u.i.p.4X8XyXwXB x mXJXJXKXKXKXKXKXKXKXKXKX",
"KXKXKXKXKXKXKXJXJXFXpX, &.tX8X5Xf.q.&       @ X   X o g ~.xXvXzXzXxXvXlXc   t 9.e.e.r.r.y.a.p.f.7XqXwXz V MXJXKXKXKXKXKXKXKXKXKX",
"KXKXKXKXKXKXKXJXFXbXy Z tX8X4Xg.a.o.      . @ o   + M jXxXxXxXxXxXzXzXvX+X: & 5.9.e.e.e.r.y.u.i.f.6XqX;Xy K BXJXJXKXKXKXKXKXKXKX",
"KXKXKXKXKXKXJXJXBXD z rX8X4Xp.u.t.&           o   6 kXvXxXzXxXzXxXxXxXxXvXG O 4.9.9.8.9.e.e.r.u.i.g.4XqX=X< C.DXFXKXKXKXKXKXKXKX",
"KXKXKXKXKXJXFXDXG.u ;X9Xh.p.u.y.#..             4 Y $XzXxXzXxXxXxXzXzXxXvXU.@ <.9.8.8.9.8.e.e.r.y.a.d.5XyX>., :XDXJXJXKXKXKXKXKX",
"KXKXKXKXKXJXSXbXp *XqX4Xs.u.y.r.s           o 5 L I T %XlXvXvXvXxXxXzXxXvXjX1 @.9.9.9.8.8.8.e.e.r.y.a.d.6X8XZ y mXFXJXKXKXKXKXKX",
"KXKXKXKXJXFXBX&.$.8X4Xg.u.y.r.6.=           o L L L ( l g Y U.lXxXxXvX$XD./ - @.9.9.8.8.8.8.8.e.e.r.y.i.d.9X3X< K DXFXKXKXKXKXKX",
"KXKXKXJXFXDX>Xp ;X6Xj.a.y.r.e.3.% .         o 4 5 P W.S.c ; 6 U lXzXN.> +   O 3.8.8.8.8.8.8.8.8.8.e.r.u.i.f.9X>.; :XDXJXKXKXKXKX",
"KXKXKXJXFXBXZ $.9Xk.i.y.r.e.9.@.@ X             7 N.$XY > 6 ~.~.zXU.6 2 j 0 = 6.8.8.8.8.8.8.8.8.8.9.w.r.u.p.4X8XB z MXFXKXKXKXKX",
"KXKXJXJXDX:Xu 2X4Xp.u.r.e.9.9.O.X .           + U.zX~.U > c kXvXvXU.M # $ m ..8.8.8.8.8.8.8.8.8.8.9.e.e.y.a.d.7X=X* *.FXJXKXKXKX",
"KXKXJXFXBXZ $.7Xd.a.y.w.9.9.9.s X         ; U D.lXxXzXxX$XQ.kXzXxX@XN.D.D.A.4.9.8.8.8.8.8.8.8.8.8.9.9.e.r.y.i.4XqX$.: bXFXJXKXKX",
"KXJXFXDX<Xy -Xk.i.y.r.e.9.9.6.t         $ Q.vXvXxXzXxXzXxXzXzXxXxXzXB.jXvXY.5.8.8.8.8.8.8.8.8.8.8.8.8.e.e.y.u.d.7X2X; *.FXJXKXKX",
"KXKXFXBXb.B 7Xg.a.y.r.9.9.9.5.=           c lXzXxXxXxXxXxXxXxXxXxXvXQ.Q.zX>.7.9.8.8.8.8.8.8.8.8.8.8.8.9.8.r.y.i.h.0XX.1 mXJXJXKX",
"KXJXDXBXB >.6Xs.y.r.9.8.8.9.5.&           - @XxXxXzXzXxXxXxXlXzXvXvX@XD.kX2.8.8.8.9.7.7.8.8.8.8.8.8.8.8.e.e.y.u.d.8X=X* Y.FXJXKX",
"KXFXDX1Xu 2Xk.a.y.r.9.8.8.9.3.O           ; $XxXxXxXxXxXzXvXOXOX/ / jXD.%X0.8.8.4.@.d %.3.7.8.8.8.8.8.8.8.e.r.u.p.4X8Xp D FXJXKX",
"JXFXBXF.B 5Xg.u.r.e.9.9.8.9.3.O           F @XvXxXxXxXzXkXD.M : o 2 S.c c.1.9.7.t   1 VX>X:.4.8.9.9.9.9.8.9.r.y.a.4XqX=.3 MXJXKX",
"JXFXBXH =.6Xi.u.r.e.9.8.8.9.3.O         - cXfX%XxXxXxX%XN.j > $ $ - 6 $ # +.9.4.%   D sXaXZXJ.:.:.:.1.5.7.9.e.y.a.f.8X;X, :XJXJX",
"KXDXNXz ,.6Xi.y.e.e.8.8.8.8.4.O     # n w R.GXiX@XxXxXxXkX+X@Xc.U G / B.%.5.9.@..   K.iXaX&XVXaXI.%XV.v.;.:.:.1.t.g.6XtXu z.JXJX",
"JXDX1Xy -Xk.a.y.e.e.8.8.8.8.6.= . e |  X{ S aXsXfX+XzXxXxXjXjXzX~.M U.B.:.9.9. .  @ aXiXcXiXE.iXR.!.S.S.kX+X~.~.,.a.6XyX&.z SXJX",
"FXDX,Xy 2Xg.a.y.e.e.9.8.9.8.<.y ) {. X|.|.) F T.KXcX+X%X$Xc > 0 2 o > g O.5.5.=   j hXaXsXfXhXfXE.T.E.A.@X+XQ.%Xm.2.4XyXH.< bXJX",
"FXDXJ.p 5Xg.u.r.e.8.9.9.6.O.a /. X|.{.}.|.|.E Q KXKXGXaXl             . y X.t .   M.aXhXiXfXZXHXHXfXZXA.~.kXS.Q.!.m.2.2XH., pXKX",
"FXDXF.p 5Xg.u.r.e.8.9.6.s n `.|.|.|.|.|.|. X| G KXKXKXZX:               f hX,   # iXaXfXiXcXVXKXKXKXE.Q.jXB.D.D.B.N.K Y.R.3 Y.JX",
"JXDXC.C 9Xg.u.r.e.8.7.d R {.}.}.|.|.|.|.|.|._.m ZXKXKXZX:               , R.+   x fXoXT.E.hXHXKXKXKXsXI.K.U N.^ m.V.iXsXfXh z.JX",
"FXDX-.$.6Xg.a.r.e.9.O.n [.}.}.}.}.}.}.}.}.}.{.m cXKXKXHXA               x f     P.KXhXE.iXZXGXKXKXKXHXVXVXfXhXhXVXGXaXsXhXh D HX",
"FXBX-.$.9Xg.u.r.e.3.a `. X}.}.}.}.}.}.}.}.}.}.N aXKXKXKXZXh           # iXf   : VXKXKXGXhXiXhXKXKXKXhXhXT.ZXfXcXfXsXVXKXKXh x HX",
"FXDX*.=.9Xj.u.r.8.d '  X X}.}.}.}.}.}.}.}.}. XE iXKXKXKXKXVXh @     . n.ZX1   J KXKXZXKXZXAXhX&XcXKXiXVXT.AXiXhXhXhXhXhXZXh h SX",
"JXDX*.$.0Xj.a.y.@.e [. X}.}.}.}.}.}.}.}.}.}. X! T.KXKXKXKXKXVXaXn.# K KXE.X . E.KXHXP.fXK.fXKXZXaXP.hXaXiXhXaXaXGXKXKXKXKXh x JX",
"JXDXH Z 8Xh.a.w.t '  X|.}.}.}.}.}.}.}.}.}.}. X_ P.KXKXKXKXKXKXKXKXA J KXF   6 AXKXGXM.P.E.AXAXK.HXZXGXK.ZXhXhX&XT.E.aXfXAXh D KX",
"JXFXH B rX4Xs.1.9 [.|.|.}.}.}.}.}.}.}.}.}.}. X_ P.KXKXKXKXKXKXKXKXK 3 fX;   x.KXKXiXM.&XiXVXaXM.hXKXhXP.KXhXaXaXaXaXhXVXGXg v.KX",
"JXDX*.y rX4Xp.o.R  X|.|.}.}.}.}.}.}.}.}.}.}. X~ P.KXKXKXKXKXKXKXKXl.+ F   @ gXHXT.M.K.fXP.J x 1 n.KXT.hXKXKXKXKXgXE.HXKXGXf R.KX",
"KXFXJ.< wX7Xp.i }  X}.}.}.}.}.}.}.}.}.}. X X XW T.KXKXKXKXKXKXKXKXl.  .   A KXGXP.T.&XE.J h ; M.VXGXK.GXKXHXAXZXT.E.HXKXhXf nXJX",
"JXJXdX< =XqXq.b [. X}.}.}.}.}.}.}.}.}.}.}.}.}.n &XKXKXKXKXKXKXKXKXl.    X T.KXGXK.hXfXF f fXP.AXKXfXT.KXKXiXT.P.U T.VXfXP.x HXKX",
"KXJXBXg H.yX,.E  X}.}.}.}.}.}.}.}.}.}.}.}.}.{.v aXKXKXKXKXKXKXKXKXl.    f GXKXaXn.VXT.^.P.ZXKXKXKXP.hXKXGXaXE.K.T.E.K.&XJ z.JXKX",
"KXJXFXD &.uX$.]  X}.}.}.}.}.}.}.}.}.}.}.|.|.`.k cXKXKXKXKXKXKXKXKXK     M.KXZXgXiXaX&XsXT.VXKXKXAXK.HXKXKXKXGXhXT.M.T.hXf >XKXKX",
"KXJXJXG.B uXb | }.}.}.}. X X}.}.}.}.}.}.|.|.| g AXKXKXKXKXKXKXKXKXA   2 ZXZXT.^.T.K.M.T.AXGXKXKXiXiXKXKXKXZXE.AXAXE.JXT.f CXKXKX",
"KXKXJXbXu H.b }.}.}.}. X].} `.}. X}.}.}.|. X) m KXKXKXKXKXKXKXKXcX-   n.aXJ J x.M.F 1 R.GXP.fXKXK.ZXKXKXKXiXsXGXVXsXKXD J KXKXKX",
"KXKXHXJXQ u N  X}.}.}. X/.R v E [ `. X}.|. Xn J ZXZXGXHXHXKXKXKXx.  : VXE.J l.P.K F 3 iXVXK.E.cXT.KXKXgXhXE.fXZXaXAXhX1 >XKXKXKX",
"KXKXJXJX>XX E  X}.}.}.}. X}.].} ~ W ' ).}. X{ E W Q Q ^ ^ ^ ^ A -   x.KXHXVXx.M.n.x.n.aXiXiXKXR.fXKXfXT.E.P.E.iXVXKXz.x HXKXKXKX",
"KXKXKXKXSXV n  X}.}.}.}.}.}. X X X{./.` _ { [. X{.{.[.].`.].! .   - fXaXAXKXfXn.M.U K.sXiXiXGXP.KXAXiXZXiX^.^.ZXKXVX3 R.KXKXKXKX",
"KXKXKXKXJXdX2 |  X}.}.}.}.}.}.}.}.}. X}._.] W _ _. X}.}. X`.8     K VXP.&XfXZXoXT.P.M.VXKXKXaXiXKXcXaXfXiXfXaXaXKXl.V HXKXKXKXKX",
"KXKXKXKXKXFXb.v {.}.}.}.}.}.}.}.}.}.}.}.}. X].] E ] {. X[.n   ; U aXfXhXiX&XaXVXAXVXVXKXKXKXP.AXKXVXsXhX&XE.aXE.E.2 pXKXKXKXKXKX",
"KXKXKXKXKXJXSXH W }.}.}.}.}.}.}.}.}.}.}.}.}.}. X].] ! | [ - K nXKXJXfXE.VXhXiXiXsXKXKXKXKXhXE.KXKXGXfXaX&XP.aXP.f x.KXKXKXKXKXKX",
"KXKXKXKXKXKXKXnXb )  X}.}.}.}.}.}.}.}.}.}.}.}.}.}. X_.~ W ~ ~ A.VXKXKXZXE.aXZXaX^.iXHXKXKXE.ZXKXHXT.aX&XR.hXVXA A AXKXKXKXKXKXKX",
"KXKXKXKXKXKXJXJXdXk '  X}.}.}.}.}.}.}.}.}.}.}.}.}.}.}.}.{ W ] [ G L.HXKXKXsX&XAXfXT.sXKXVX&XKXKXKXAXhXaXsXKXl.h nXKXKXKXKXKXKXKX",
"KXKXKXKXKXKXKXKXKX<Xl ]  X}.}.}.}.}.}.}.}.}.}.}.}.}.}.}. X[.~ w w 0 l.oXfXcXfX&XZXfXT.ZXiXVXKXKXKXKXHXcXGXx.y sXKXKXKXKXKXKXKXKX",
"KXKXKXKXKXKXKXKXKXJXdXA ) }.}.}.}.}.}.}.}.}.}.}.}.}.}.}.}. X| 0 / ~.@X@XOX!.I.K.l.cXaXhXE.VXcXZXHXKXKXKXx.f pXKXKXKXKXKXKXKXKXKX",
"KXKXKXKXKXKXKXKXKXJXJXmXK W `.}. X X}.}.}.}.}.}.}.}.}.}.}. X) G xX~.OXzXvXzX@X~.B.c.hX^.hXP.T.oXsXAXGXl.h fXKXKXKXKXKXKXKXKXKXKX",
"KXKXKXKXKXKXKXKXKXKXJXJXSXC.k e ! | ]. X X X X}.}.}.}.}.}.}.n B.vXzXOXQ.kXjXc.T.oXA.F m.KXGXZXZXZXVXF x hXKXKXKXKXKXKXKXKXKXKXKX",
"KXKXKXKXKXKXKXKXKXKXKXKXJXJX>Xz + q N ! ' | [. X X X X X X).j +XvXxXxX@XQ.~.OXS.oXK., K ^.aXVXKXpXh F CXKXKXKXKXKXKXKXKXKXKXKXKX",
"KXKXKXKXKXKXKXKXKXKXKXKXKXJXKXSXY.V e E ` ) ) ` ] { /._.).R G zXzXxXzXvXzX+XQ.!..XB./ I.V.F l.A 2 K.GXKXKXKXKXKXKXKXKXKXKXKXKXKX",
"KXKXKXKXKXKXKXKXKXKXKXKXKXKXJXJXHXSX:XH v W { | } ] ) ~ n q Z.%XzXzXvXzXzXxXkX~.B.S.XXS.M g 3 f R.KXKXKXKXKXKXKXKXKXKXKXKXKXKXKX",
"KXKXKXKXKXKXKXKXKXKXKXKXKXKXKXKXJXJXJXDXdXC.D v v E _ ` | _./.(.(.'.#XXX'.(.Z.(.[ ! R w $ 3 b.ZXKXKXKXKXKXKXKXKXKXKXKXKXKXKXKXKX",
"KXKXKXKXKXKXKXKXKXKXKXKXKXKXKXKXKXJXKXJXFXFXSXbXL.*.V 9 r q > 8 q q q 0 0 8 8 8 > y m v.E.AXKXKXKXKXKXKXKXKXKXKXKXKXKXKXKXKXKXKX",
"KXKXKXKXKXKXKXKXKXKXKXKXKXKXKXKXKXKXKXKXKXJXJXJXJXFXDXMXbX>XY.b.H D D V D J z.L.pXSXJXKXKXKXKXKXKXKXKXKXKXKXKXKXKXKXKXKXKXKXKXKX",
"KXKXKXKXKXKXKXKXKXKXKXKXKXKXKXKXKXKXKXKXKXKXJXKXJXKXJXJXFXJXJXJXJXJXJXJXHXJXKXJXKXKXKXKXKXKXKXKXKXKXKXKXKXKXKXKXKXKXKXKXKXKXKXKX"
};
