<?xml version="1.0" encoding="UTF-8" standalone="no"?>
<!-- Created with Inkscape (http://www.inkscape.org/) -->

<svg
   xmlns:dc="http://purl.org/dc/elements/1.1/"
   xmlns:cc="http://creativecommons.org/ns#"
   xmlns:rdf="http://www.w3.org/1999/02/22-rdf-syntax-ns#"
   xmlns:svg="http://www.w3.org/2000/svg"
   xmlns="http://www.w3.org/2000/svg"
   version="1.1"
   width="488"
   height="488"
   id="svg3039">
  <metadata
     id="metadata3045">
    <rdf:RDF>
      <cc:Work
         rdf:about="">
        <dc:format>image/svg+xml</dc:format>
        <dc:type
           rdf:resource="http://purl.org/dc/dcmitype/StillImage" />
        <dc:title></dc:title>
      </cc:Work>
    </rdf:RDF>
  </metadata>
  <defs
     id="defs3043">
    <filter
       x="-0.16032389"
       y="-0.16032389"
       width="1.3206478"
       height="1.3206478"
       color-interpolation-filters="sRGB"
       id="filter4781">
      <feGaussianBlur
         id="feGaussianBlur4783"
         stdDeviation="8" />
    </filter>
  </defs>
  <path
     d="m 508.23302,241.61748 a 261.85049,261.85049 0 1 1 -523.700992,0 261.85049,261.85049 0 1 1 523.700992,0 z"
     transform="matrix(0.86,0,0,0.895,33,30)"
     id="path4614"
     style="color:#000000;fill:#3be7ff;fill-opacity:1;fill-rule:nonzero;stroke:#00ff00;stroke-width:2;stroke-linecap:round;stroke-linejoin:round;stroke-miterlimit:4;stroke-opacity:1;stroke-dasharray:none;stroke-dashoffset:0;marker:none;visibility:visible;display:inline;overflow:visible;filter:url(#filter4781);enable-background:accumulate" />
  <path
     d="m 255.48557,12.650401 c 10.91841,-0.150496 24.4149,0.631361 35.94537,4.279068 0,0.557864 0.97697,1.014298 2.1901,1.014298 1.21312,0 6.91792,2.053953 12.65388,4.564341 5.73597,2.510386 11.07472,4.564339 11.85432,4.564339 1.86426,0 5.7933,2.190541 28.36696,15.816706 16.7054,10.083904 20.39888,12.84706 31.59995,23.645818 6.97406,6.723582 13.65144,13.70709 14.84397,15.531434 1.19254,1.824345 3.78645,4.925685 5.77073,6.878207 4.90535,4.826828 17.17375,21.246708 22.35288,29.921788 2.33137,3.90504 5.37264,8.74307 6.7441,10.74522 3.65691,5.33857 13.99838,24.46426 18.59843,34.39103 5.19456,11.2097 15.17755,42.12612 17.52076,54.26493 0.53845,2.78932 1.26193,6.03032 1.63389,7.19518 0.63032,1.97399 0.0173,2.19589 -9.10802,3.35986 -5.38488,0.68685 -9.93951,0.86911 -10.11615,0.41205 -1.37912,-3.56844 -3.49917,-5.94626 -5.52739,-6.21257 -1.60905,-0.21128 -2.62412,-1.28271 -3.09394,-3.23307 -0.80675,-3.34909 -2.33545,-4.70297 -6.32695,-5.54694 -0.0598,-0.96422 -0.30228,-2.44213 -0.90385,-4.65944 -0.15821,-0.5832 -1.44543,-2.42731 -3.19823,-4.02549 -2.2375,-2.04013 -3.84071,-2.39491 -5.56215,-2.31386 -3.09116,0.14552 -5.13358,0.58311 -6.39647,1.10938 -1.70524,-1.69704 -6.29136,-2.9396 -10.32473,-2.50405 -4.38196,0.4732 -5.52193,0.20736 -7.64795,-1.80672 -1.59266,-1.5088 -3.34319,-2.34586 -4.69306,-1.8384 -1.8821,0.70752 -3.39324,1.48192 -4.31067,2.12367 -1.31822,-2.10155 -3.12131,-3.913 -5.04069,-4.8496 -3.10464,-1.51498 -15.36321,-0.94007 -17.69458,0.82412 -0.9989,0.75587 -4.87591,-1.09012 -14.14871,-6.75142 -7.0217,-4.28695 -14.55683,-9.05261 -16.75598,-10.58674 -4.51474,-3.14949 -6.78685,-3.47425 -8.79514,-1.26787 -1.57769,1.73331 -11.22118,4.56434 -15.53925,4.56434 -2.8115,0 -2.94937,0.30651 -4.90164,10.9037 -1.85417,10.06475 -7.75665,28.989 -9.69899,31.06287 -0.45735,0.48833 -3.04978,-0.0823 -5.73597,-1.26788 -2.68619,-1.18565 -6.35472,-2.15537 -8.1694,-2.15537 -2.92394,0 -3.44908,-0.50101 -4.69307,-4.34247 -1.1859,-3.66211 -1.13775,-4.91708 0.31288,-8.08269 0.94439,-2.06086 1.7034,-5.1233 1.7034,-6.81481 0,-2.56627 0.42423,-3.07458 2.64202,-3.07458 1.46181,0 3.83962,-0.89974 5.28405,-1.99691 l 2.64201,-1.99689 -3.75444,-0.0316 c -3.74558,-0.0336 -3.76912,-0.0473 -2.9549,-3.83531 0.44966,-2.09199 1.40353,-9.05262 2.12058,-15.46804 0.71704,-6.41544 1.92791,-12.66469 2.67677,-13.8832 0.74886,-1.21852 1.35578,-4.92563 1.35578,-8.24118 0,-4.0165 0.52909,-6.44886 1.59912,-7.25856 1.86616,-1.41216 5.36895,-10.95903 7.33508,-20.03238 1.88013,-8.67646 0.6478,-28.141865 -2.74631,-43.488023 -8.06497,-36.464917 -22.17416,-54.77455 -43.76714,-56.832373 -5.67786,-0.541103 -7.56812,-0.276511 -12.86247,1.933505 l -6.18789,2.599139 -5.66644,-1.965254 c -9.10696,-3.155118 -19.65796,-2.808568 -31.98234,1.014298 -19.39118,6.014894 -34.82036,16.168152 -44.77529,29.509727 -11.2661,15.098794 -24.15225,44.642501 -27.67168,63.393611 -0.62823,3.34719 -1.91702,10.1937 -2.8506,15.21447 -5.72834,30.80685 -7.54745,58.6829 -4.55401,69.98655 0.88641,3.34717 1.64685,6.82328 1.66865,7.73402 0.0225,0.94092 -3.03283,3.48439 -7.09174,5.8956 -3.92868,2.33384 -11.312429,8.25094 -16.408335,13.12248 -7.399257,7.07348 -11.102623,11.81311 -18.320322,23.51903 -12.364442,20.05308 -17.149056,31.45599 -21.518556,51.25374 -1.221492,5.53447 -2.989043,12.55826 -3.928267,15.62652 -0.939224,3.06825 -2.515537,9.91476 -3.511105,15.21447 -0.995569,5.2997 -2.165511,9.97185 -2.572493,10.39655 -0.406983,0.42471 -1.810779,-1.62924 -3.128708,-4.56435 -5.288,-11.77663 -10.051867,-34.76357 -13.175335,-63.67888 -1.981716,-18.34559 -1.756694,-25.13044 1.772934,-59.30472 2.431715,-23.54417 7.453699,-43.01044 17.555526,-67.95795 2.516706,-6.21528 14.11476,-29.62696 16.860259,-34.04237 0.545268,-0.87692 2.29631,-3.84374 3.893503,-6.59294 2.682222,-4.61681 5.722058,-8.41246 24.682028,-30.555716 12.037361,-14.058396 37.741701,-36.281435 52.805631,-45.675098 6.6037,-4.117975 20.70751,-10.486571 30.52228,-13.78811 10.80878,-3.635905 18.33271,-4.401643 35.49346,-4.65943 8.11491,-0.121902 16.50106,-1.035451 16.92978,-1.426356 0.42873,-0.390908 3.83691,-3.708527 7.36984,-3.708527 1.23555,-0.02298 9.59201,-1.117376 20.51043,-1.267872 z m -6.98746,-5.5786383 c -9.82371,0.2833551 -10.05366,3.9809363 -14.07918,0.4120585 1.07071,-0.2437436 -0.30592,-0.1893572 -3.05918,0.095091 -7.31148,0.7553708 -9.45565,1.0278561 -9.45565,1.2678719 0,0.304127 -3.10662,0.8065045 -14.11395,2.2504729 -7.37764,0.985558 -15.54115,7.940016 -18.45937,3.803618 -1.28565,0 -12.00785,2.870631 -15.26114,4.088887 -1.22367,0.458226 -4.22724,1.410184 -6.67458,2.091989 -5.44233,1.516176 -18.81168,7.787489 -27.81074,13.059084 -3.67101,2.150463 -9.27303,5.298347 -12.4453,7.004995 -5.3325,2.868821 -10.61217,6.769949 -22.04001,16.228764 -4.57311,3.785157 -13.078453,12.734179 -18.911299,19.905594 -1.814939,2.231455 -3.888341,4.741842 -4.623534,5.578638 -11.990421,13.647597 -27.452979,38.912414 -39.386955,64.407914 -2.611228,5.57856 -5.150436,11.51221 -5.631674,13.18586 -0.481236,1.67367 -1.870438,6.23793 -3.128707,10.14298 -8.824335,27.38642 -11.976383,43.97861 -12.931992,68.4651 -1.879317,48.15566 -1.883877,53.1981 -0.139054,59.33643 0.951438,3.34718 2.740514,11.38535 3.997793,17.877 2.028104,10.47158 6.407738,23.92037 10.67237,32.83789 0.800371,1.67359 1.751787,4.59848 2.120568,6.49784 0.694334,3.57605 2.441838,6.18088 4.136847,6.18088 4.941379,10.09193 7.116199,13.76395 9.664231,15.78501 2.548032,2.02105 7.120361,12.15856 25.724931,30.33384 12.279774,11.99643 36.752645,30.24903 46.791565,34.89818 3.3651,1.55842 11.62489,5.37081 18.35508,8.49474 12.28738,5.70342 26.04088,10.70599 32.26046,11.69613 1.8355,0.2922 4.33847,1.07696 5.56215,1.77502 4.19438,2.39277 26.28417,6.4209 53.3966,9.73092 4.8947,0.59757 10.65152,1.45865 12.79295,1.90181 2.14142,0.44316 12.40985,0.86154 22.80479,0.91921 19.13522,0.10613 28.69532,-1.05265 47.45207,-5.70543 3.45207,-0.8563 6.77611,-1.27338 7.40462,-0.91921 0.62849,0.35417 1.81844,0.0535 2.64201,-0.69732 0.82357,-0.75092 3.52478,-1.62908 6.01408,-1.93351 5.43157,-0.66426 16.32518,-3.9125 17.17313,-5.9273 2.81813,2.08608 6.50776,-3.66998 8.72561,-3.99381 2.21123,-0.0164 16.82549,-10.12167 16.82549,-11.63272 -2.75173,-1.30351 0.042,-1.82538 0.97338,-1.87011 1.75656,1.00022 4.42326,-0.97848 20.57995,-15.11937 22.18981,-19.42127 36.97083,-36.21723 47.10443,-53.53592 13.76689,-23.52809 17.17481,-31.67298 24.96014,-59.84357 10.89255,-39.41383 12.10961,-55.68588 6.22264,-82.15812 -0.68233,-3.06824 -1.36805,-8.08901 -1.52958,-11.15727 -0.16154,-3.06825 -1.52527,-9.45832 -3.02442,-14.20016 -1.49917,-4.74185 -3.8072,-12.95766 -5.14499,-18.25737 -5.20497,-20.61945 -14.68476,-43.12882 -22.66574,-53.75779 -1.88391,-2.50894 -5.41683,-7.98616 -7.82178,-12.17157 C 420.77265,100.52496 391.24793,66.311701 371.28252,51.162021 365.27494,46.603496 347.69054,35.18683 346.67001,35.18683 c -0.24491,0 -5.14302,-2.394379 -10.88095,-5.325063 -5.73792,-2.930685 -11.68051,-5.879115 -13.21009,-6.529543 -12.22219,-5.197227 -16.0086,-6.402755 -19.84992,-6.402755 -2.94167,0 -4.59968,-0.505242 -5.04069,-1.553142 -0.98431,-2.338798 -8.30588,-4.762853 -13.14058,-4.342464 -2.33811,0.203307 -4.24113,0.116111 -4.24113,-0.19018 0,-1.2893385 -12.72288,-2.9991283 -26.97641,-3.6451327 -1.83424,-0.131051 -3.42874,-0.1672669 -4.83213,-0.1267876 z"
     id="path4354"
     style="fill:#000000" />
  <path
     d="m 224.80363,448.00922 c 4.37625,-4.64532 13.71837,-36.47898 11.34138,-38.64628 -1.27739,-1.16471 -22.19954,-14.415 -34.26464,-21.70027 -9.67943,-5.84474 -33.04367,-17.66351 -41.46071,-20.97286 -2.89373,-1.13775 -9.01578,-3.71693 -13.60455,-5.73154 -4.58876,-2.01461 -10.34559,-4.20136 -12.79293,-4.85945 -2.44735,-0.65811 -8.17134,-2.39893 -12.71997,-3.86852 -4.54862,-1.46959 -11.80722,-3.39179 -16.13023,-4.27156 -9.23011,-1.87844 -10.692075,-2.78496 -8.182156,-5.07347 1.668143,-1.52099 2.520765,-1.47236 11.071796,0.63143 5.09547,1.25361 10.25408,2.91129 11.46358,3.68372 1.2095,0.77243 2.9906,1.40442 3.958,1.40442 0.96739,0 4.23503,1.07689 7.26138,2.3931 19.10928,8.31086 26.58209,11.41551 34.98183,14.53347 11.51823,4.27554 28.70085,12.90333 31.14803,15.64017 0.30592,0.34211 2.30829,1.43775 4.44971,2.43473 2.14143,0.99698 5.89588,3.25397 8.34323,5.01551 2.44734,1.76156 5.76473,3.71275 7.37197,4.336 1.60724,0.62324 4.61079,2.45235 6.67457,4.06468 2.06378,1.61231 6.13015,4.17732 9.03637,5.70001 2.90621,1.52268 5.28404,3.21223 5.28404,3.75454 0,0.5653 1.54259,0.7175 3.61539,0.35672 1.98847,-0.34611 5.24233,-0.59475 7.2308,-0.55251 1.98846,0.0422 3.61539,-0.26817 3.61539,-0.68978 0,-1.31458 -22.15514,-13.92597 -23.76854,-13.5298 -0.53006,0.13015 -2.03185,-0.39351 -3.3373,-1.16369 -1.30544,-0.77018 -3.75017,-1.70944 -5.43272,-2.08725 -1.68255,-0.37781 -3.05919,-1.1835 -3.05919,-1.79042 0,-0.60692 0.69424,-0.86059 1.54275,-0.56371 1.06771,0.37357 1.37688,-0.0386 1.00408,-1.33828 -0.32553,-1.13504 0.4173,-2.60985 1.87758,-3.72772 1.32891,-1.01733 4.17865,-4.58828 6.33272,-7.93547 2.15409,-3.34718 5.12029,-7.53874 6.59156,-9.31458 5.04185,-6.08553 5.29792,-6.01746 -27.91677,-7.42133 -26.39464,-1.11561 -29.86919,-1.49027 -33.56022,-3.61876 -2.32188,-1.33895 -2.35669,-1.61055 -0.92967,-7.2541 6.01216,-23.77681 9.98446,-54.35389 8.86542,-68.24237 -1.10245,-13.68254 -2.77294,-27.68277 -4.73159,-39.65499 l -1.92423,-11.76183 -5.88151,-5.86761 c -3.23483,-3.22718 -7.87594,-9.18103 -10.3136,-13.23075 l -4.43209,-7.36313 -8.83914,4.34506 c -4.86153,2.38979 -14.17446,8.15442 -20.69539,12.81026 -39.353753,28.09801 -47.302928,39.68456 -66.562208,97.01973 -2.170806,6.46253 -7.053736,29.42639 -8.349862,39.26845 -0.884893,6.71939 -0.755251,7.42638 2.417999,13.18587 1.844163,3.34718 4.044627,6.80637 4.889906,7.6871 0.845268,0.88072 1.536866,2.3261 1.536866,3.21194 0,0.88585 0.404591,1.76277 0.899077,1.94874 0.494496,0.18595 2.439613,2.39204 4.322477,4.90243 4.648365,6.19756 24.34355,26.99803 29.746063,31.41539 2.406708,1.96784 5.660564,4.65955 7.230792,5.9816 5.19429,4.37324 9.97689,7.41316 10.87201,6.91047 0.48533,-0.27254 5.38775,0.86021 10.89427,2.51724 13.93204,4.19245 36.30768,9.95236 38.71217,9.96525 1.10109,0.006 3.46215,0.69919 5.24677,1.54064 4.11329,1.93943 15.3973,4.31903 28.70626,6.05363 5.70305,0.74329 10.70898,1.66453 11.1243,2.0472 0.41533,0.38265 4.50958,0.39733 9.09836,0.0326 6.13903,-0.48793 8.81534,-1.16429 10.13032,-2.56008 z m 80.53268,18.24722 c 1.83551,-0.67313 7.27009,-1.63978 12.07686,-2.1481 9.18229,-0.97104 18.70085,-3.9965 22.34665,-7.10287 3.02356,-2.57619 1.40544,-3.47629 -2.9576,-1.6452 -6.25311,2.62432 -18.50006,4.38947 -20.91483,3.01445 -1.61463,-0.9194 -3.04634,-0.88373 -6.31934,0.15746 -4.0046,1.27391 -9.34323,2.08087 -31.48627,4.75933 -11.12923,1.3462 -29.37583,-0.54216 -40.60367,-4.20216 -9.24489,-3.01359 -13.75526,-3.82278 -27.50967,-4.93544 -6.56462,-0.53104 -15.82559,-1.87303 -20.57995,-2.98219 -4.75435,-1.10918 -17.41412,-3.8613 -28.13283,-6.11585 -10.7187,-2.25453 -22.48264,-5.00008 -26.14209,-6.10121 -12.47397,-3.75343 -8.36109,-0.49115 9.19521,7.29353 20.15937,8.93891 26.12048,10.9747 39.21651,13.39291 5.20061,0.96031 10.60553,2.15852 12.01095,2.66271 1.40543,0.50417 6.84036,0.91668 12.07764,0.91668 7.55919,0 9.40295,0.28365 8.9433,1.3758 -0.44989,1.06899 1.68097,1.52206 9.55571,2.03171 6.43792,-1.23227 13.18217,0.17616 19.70845,0.92857 8.66861,0.943 56.23157,-0.0961 59.51497,-1.30017 z"
     id="path3925"
     style="fill:#cff097;fill-opacity:1" />
  <path
     d="m 317.89027,439.19433 c 9.0409,-5.12394 8.60533,-7.41706 -1.40882,-7.41706 -3.83455,0 -9.10016,-0.68466 -11.70136,-1.52145 -5.23692,-1.6847 -10.67462,-1.99115 -11.58184,-0.65272 -1.37893,2.03434 14.65854,11.22417 19.68609,11.28057 1.09224,0.0123 3.34491,-0.74796 5.00593,-1.68934 z m 32.94571,4.91668 c 0.85642,-1.26346 -20.04718,-5.02291 -22.10119,-3.97482 -2.05812,1.05018 -2.24017,3.44711 -0.31557,4.1552 2.37906,0.87528 21.80716,0.71896 22.41676,-0.18038 z m -1.0025,-25.48792 c 0.44814,-0.0107 0.97325,-0.002 1.5296,0 6.34887,0.0224 25.68805,2.64322 26.66354,3.61344 0.39204,0.38993 -1.27234,0.39563 -3.71969,0.0316 -2.44735,-0.36392 -9.09776,-0.9415 -14.77445,-1.29957 -9.31676,-0.58767 -10.46536,-0.46408 -11.85433,1.26788 -1.79563,2.23905 -1.26873,3.61028 1.07767,2.78932 1.6755,-0.58624 20.64385,2.00854 26.66354,3.64512 3.06172,0.8324 3.11034,0.88751 0.55621,0.88751 -1.52958,0 -4.28285,-0.40743 -6.11836,-0.9192 -1.8355,-0.51177 -8.50879,-1.22135 -14.80921,-1.58484 -9.90005,-0.57114 -11.32242,-0.8839 -10.67238,-2.28217 0.41369,-0.88986 0.98769,-2.64352 1.28626,-3.8987 0.41014,-1.72432 1.03468,-2.1749 4.1716,-2.25048 z m 67.44103,-42.41032 c 0.30347,-0.0127 0.53712,0.0459 0.69527,0.19018 0.76252,0.69525 1.07064,0.4578 -5.49262,4.50094 -6.68827,4.12016 -9.19508,4.16362 -3.54586,0.0634 4.34175,-3.15127 7.0282,-4.69947 8.34321,-4.75452 z m 1.42531,-7.73402 c 2.78691,-0.25228 4.7856,1.11254 6.50076,4.24736 1.26899,2.31936 1.26263,3.35566 0.10421,5.83222 -0.77549,1.65801 -1.42309,4.15228 -1.46006,5.54694 -0.12921,4.87482 -1.22467,5.35996 -9.87281,4.34246 -4.35349,-0.5122 -8.31812,-0.66503 -8.79515,-0.34866 -0.47704,0.31636 -1.50972,2.85271 -2.29439,5.64203 -1.50879,5.36347 -6.4797,11.95999 -9.42088,12.48854 -1.04835,0.18839 -3.46782,-1.75063 -5.97931,-4.81791 -2.31168,-2.82327 -4.96968,-5.19794 -5.90978,-5.29337 -0.94011,-0.0954 -2.4543,-0.28785 -3.37206,-0.41206 -0.91774,-0.12421 -2.29438,-0.28937 -3.05917,-0.34867 -2.72483,-0.21127 -1.32526,-1.97075 4.13684,-5.16657 7.26333,-4.24972 13.18089,-5.02514 16.0607,-2.12369 1.16557,1.17432 1.91983,2.23933 1.66865,2.37726 -0.25119,0.13794 -2.13505,1.3284 -4.17161,2.63084 -4.45893,2.85158 -6.48321,1.88331 -2.12058,-1.01431 1.68144,-1.11678 3.05919,-2.46815 3.05919,-2.9795 0,-1.64111 -6.62273,-0.96838 -11.08953,1.1094 -5.44552,2.53303 -6.55639,4.05719 -2.95489,4.05719 1.93638,0 4.27165,1.56136 7.82177,5.26166 l 5.04069,5.29338 2.95489,-2.50405 c 5.06808,-4.26227 7.94332,-13.25723 4.62354,-14.48544 -1.10499,-0.4088 -1.09613,-0.68614 0,-1.39467 0.75876,-0.49039 4.76351,-0.54606 8.89944,-0.12678 12.99671,1.31752 12.08124,1.66072 13.59249,-5.64203 2.31122,-11.1685 -1.27768,-13.29414 -11.57621,-6.87821 -2.40593,1.49888 -5.1592,3.98464 -6.11837,5.51524 -1.81674,2.89906 -3.40681,3.6598 -3.40681,1.61654 0,-1.86329 9.89004,-10.03679 14.07918,-11.63272 1.1305,-0.43069 2.13022,-0.70833 3.05919,-0.79242 z m -28.50601,-2.66254 c 0.58542,0.0863 0.85708,1.72265 0.52146,4.43756 -0.30024,2.4287 0.0271,5.39552 0.73003,6.59293 0.70283,1.19742 0.84802,2.18708 0.31287,2.18708 -0.53516,0 -1.54959,-1.17823 -2.25963,-2.59914 -1.41531,-2.83226 -1.67639,-6.47375 -0.62573,-8.97019 0.49624,-1.17911 0.96976,-1.70005 1.321,-1.64824 z M 342.116,356.40226 c 5.56732,-0.13188 7.86293,1.56208 6.466,4.88131 -0.46895,1.11422 -2.39508,1.52145 -7.19603,1.52145 -3.60554,0 -6.57029,-0.3502 -6.57029,-0.79243 0,-0.44221 2.62812,-0.78453 5.84027,-0.76072 4.47082,0.0331 5.84025,-0.32505 5.84025,-1.48975 0,-1.16191 -1.2487,-1.48837 -5.28405,-1.36296 -5.93691,0.18451 -7.25945,-1.243 -1.66864,-1.80672 0.92903,-0.0937 1.77717,-0.17134 2.57249,-0.19018 z m 67.37151,-7.79742 c 0.46369,0.0797 0.42107,1.12754 -0.59097,3.29647 -0.846,1.81306 -2.00766,4.41052 -2.5725,5.76882 -0.78742,1.89353 -1.16794,2.10893 -1.66865,0.91921 -0.35917,-0.85345 0.25237,-3.4509 1.39055,-5.76882 1.3822,-2.81492 2.8454,-4.31803 3.44157,-4.21568 z m -71.96028,-0.72902 c 0.14737,-0.099 0.56414,0.2608 1.35578,0.9826 0.959,0.87441 1.45031,2.01769 1.07766,2.56744 -0.98313,1.45042 -8.39335,2.04238 -9.55994,0.76072 -0.68724,-0.75502 0.40007,-0.97086 3.54588,-0.69732 4.25915,0.37034 4.48195,0.27115 3.85873,-1.90181 -0.30145,-1.05109 -0.42548,-1.61263 -0.27811,-1.71163 z m 57.25535,-0.28527 c 0.40596,0 1.65027,3.08092 2.74632,6.84651 1.09602,3.76558 2.98407,8.33132 4.20637,10.14298 1.54638,2.29202 2.02172,4.16955 1.52959,6.21257 -0.87741,3.64241 -6.79957,12.29836 -8.41275,12.29836 -0.6547,0 0.35044,-2.01689 2.22486,-4.50094 4.94892,-6.5585 5.30659,-9.60514 1.84246,-15.9435 -1.59984,-2.92725 -2.92013,-6.55155 -2.92013,-8.08269 0,-4.20144 -1.44861,-4.24244 -5.80549,-0.095 -4.68807,4.46255 -7.09354,8.53774 -8.58656,14.61223 -1.41989,5.77689 -0.48324,8.82922 3.12871,10.14297 1.59891,0.58156 2.30852,1.26879 1.56435,1.52144 -0.74419,0.25267 -2.65788,-0.37816 -4.24113,-1.39465 -2.66376,-1.71018 -2.83222,-2.29685 -2.39868,-7.9559 0.27134,-3.54181 1.50026,-7.95397 2.92012,-10.49164 2.36442,-4.22587 10.68801,-13.31266 12.20196,-13.31266 z m -38.62215,-6.02239 c 0.72535,-0.0786 0.92474,0.42966 0.45192,1.55314 -0.37139,0.88241 -0.6605,1.96641 -0.6605,2.44066 0,1.30582 -5.85602,4.84214 -9.35136,5.64203 -2.91843,0.66786 -3.00793,0.57977 -1.63389,-1.42637 0.99388,-1.45103 2.18973,-1.95086 3.78922,-1.58483 1.38157,0.31616 2.93752,-0.11031 3.78921,-1.046 1.68699,-1.8534 0.89343,-2.01608 -2.50297,-0.50714 -1.68833,0.75008 -1.30757,0.13102 1.21673,-2.0286 2.21183,-1.8923 3.96905,-2.94184 4.90164,-3.04289 z m -8.51704,-1.71163 c -0.41542,0.0241 -1.06452,0.5239 -1.66865,1.55314 -0.86099,1.46687 -0.85752,2.12368 -0.0347,2.12368 0.65257,0 1.48017,-0.69228 1.84246,-1.55313 0.58212,-1.38315 0.39508,-2.15476 -0.13905,-2.12369 z m 1.63388,-4.43755 c 1.52595,0 1.40758,4.67767 -0.17382,7.41705 -2.38087,4.12425 -5.39468,4.94159 -5.38833,1.45805 0.004,-2.65511 3.90914,-8.8751 5.56215,-8.8751 z m 66.25908,-8.08269 c 2.54246,-0.0759 3.82701,2.64901 3.78921,8.01929 -0.0433,6.14554 -2.16596,15.50406 -4.41496,19.39845 -4.09726,7.09486 -10.01186,13.28673 -10.01186,10.49164 0,-0.32972 1.70712,-2.40986 3.78922,-4.62773 6.17402,-6.57669 11.00294,-21.80163 9.10801,-28.68562 -0.88096,-3.20034 -2.49162,-3.35269 -3.47635,-0.31697 -0.40715,1.2552 -3.42212,7.13874 -6.70934,13.0591 -3.2872,5.92034 -5.74078,11.05059 -5.45785,11.41084 0.28295,0.36026 -0.0833,0.20217 -0.79956,-0.34867 -0.96255,-0.74019 0.55439,-4.56533 5.84026,-14.67561 3.93352,-7.52367 7.70079,-13.70555 8.34322,-13.72472 z m -73.31606,-9.66753 c -1.75629,-0.001 -5.52162,1.93519 -6.01407,3.29647 -0.25227,0.69733 0.44265,1.31892 1.56436,1.36297 1.16929,0.0459 1.45775,0.27722 0.6605,0.57054 -1.51794,0.55847 -1.91559,2.37726 -0.52145,2.37726 0.47571,0 1.97748,-0.71642 3.33729,-1.58484 2.43329,-1.554 3.31917,-4.90674 1.56435,-5.89561 -0.15405,-0.0868 -0.34008,-0.12663 -0.59098,-0.12679 z m -0.69527,-1.39465 c 1.56122,-0.1107 2.68088,0.73518 3.58064,2.53574 1.19247,2.38632 0.99655,2.89943 -1.77294,5.07148 -3.38768,2.65692 -6.25687,3.07508 -8.30845,1.20448 -2.22734,-2.03085 -1.49314,-4.63572 1.91199,-6.84651 1.88497,-1.22381 3.37449,-1.8791 4.58876,-1.96519 z m -14.49634,-3.83532 c 0.44637,-0.0488 0.77708,0.19263 1.11242,0.66564 1.42835,2.01458 1.39038,8.2286 -0.0695,10.14297 -0.83487,1.09474 -0.97394,0.028 -0.45193,-3.80362 0.47864,-3.51322 0.33203,-5.32506 -0.45192,-5.32506 -1.98253,0 -4.40428,5.38799 -3.96303,8.84341 0.42095,3.29651 -0.9808,5.2857 -2.32915,3.29646 -0.4058,-0.59866 -0.43532,-2.18957 -0.0696,-3.51834 0.36575,-1.32876 0.19065,-2.68827 -0.3824,-3.0112 -0.57304,-0.32291 0.70627,-2.29197 2.81583,-4.37415 1.98741,-1.96162 3.04527,-2.83478 3.78922,-2.91611 z m 125.2526,-0.76073 c -0.41776,-0.0221 -1.20804,0.54539 -2.36392,1.74333 -1.51025,1.56524 -2.7463,3.99198 -2.7463,5.38846 0,3.30609 1.96218,2.19167 3.99779,-2.25047 1.4547,-3.17445 1.80871,-4.84448 1.11243,-4.88132 z m 0.66051,-3.64512 c 1.82625,0 0.89375,8.63381 -1.25149,11.60103 -2.99014,4.13585 -8.12278,6.68922 -9.45564,4.72282 -0.33852,-0.4994 0.20423,-1.17936 1.18195,-1.52145 1.05258,-0.36829 1.50545,-1.25323 1.11243,-2.18708 -1.09258,-2.59607 5.5874,-12.61532 8.41275,-12.61532 z m -38.30929,-1.0143 c -2.23859,0 -8.62133,5.44765 -8.62133,7.35365 0,1.80787 0.51327,1.98817 4.58878,1.48975 2.53151,-0.30959 5.3803,-1.29225 6.32693,-2.15537 1.47935,-1.34885 1.53775,-1.91534 0.24334,-4.1206 -0.82826,-1.41112 -1.98844,-2.56743 -2.53772,-2.56743 z m -0.27811,-3.0746 2.50297,2.82102 c 1.37359,1.54067 2.49993,3.18981 2.50297,3.67683 0.01,1.68371 10.11285,13.81981 11.50669,13.81981 0.76932,0 1.89182,-1.91434 2.46819,-4.24738 1.30147,-5.26791 3.16366,-5.94902 5.4231,-1.96519 3.32633,5.86499 1.42354,17.96444 -4.20638,26.59362 -5.008,7.67593 -19.23594,20.21452 -22.90908,20.19086 -1.06758,-0.007 -0.22461,-1.07678 2.15533,-2.75762 9.7235,-6.86728 16.88288,-14.0852 20.3366,-20.47614 3.13105,-5.79384 3.58063,-7.65448 3.58063,-14.67562 0,-8.86048 -2.06008,-11.85605 -3.44158,-5.00809 -0.70446,3.49187 -2.02285,5.34539 -3.8935,5.38845 -0.37107,0.008 -2.88178,-2.76143 -5.56215,-6.11748 -3.39379,-4.24929 -5.39849,-5.88981 -6.57029,-5.45185 -4.52757,1.6922 -7.54426,2.03697 -10.84619,1.23618 -5.14361,-1.24746 -4.6421,-3.92115 1.66865,-8.87512 l 5.28404,-4.15228 z m -91.46256,-6.75141 c 0.43131,-0.0426 0.85255,0.3719 1.49483,1.17278 1.89672,2.36508 2.02475,8.83569 0.20858,10.49164 -2.3548,2.14708 -3.23254,1.28038 -1.35578,-1.33127 1.13853,-1.58431 1.5511,-3.47792 1.11244,-5.07149 -0.95059,-3.45334 -2.80612,-3.21402 -3.6154,0.47546 -0.36512,1.66453 -1.09654,2.80685 -1.63388,2.50404 -1.42253,-0.8016 -1.21723,-1.58318 1.39054,-5.48354 1.25367,-1.87508 1.84412,-2.70286 2.39867,-2.75762 z m 112.56395,-4.24738 c -0.70384,-0.0242 -1.29308,0.43005 -2.12057,1.42636 -2.41704,2.91018 -7.77461,15.57444 -6.91791,16.35556 1.11682,1.01831 5.3151,-2.89617 4.69306,-4.37417 -0.57421,-1.36435 2.1153,-4.40585 3.8935,-4.40585 1.90528,0 1.0679,2.85495 -1.73817,5.8956 -1.52959,1.65747 -2.78108,3.30726 -2.78108,3.64514 0,1.21374 2.8233,0.51539 5.45786,-1.33127 2.34823,-1.64596 2.69767,-2.73591 2.78108,-8.71662 0.0756,-5.42738 -0.28678,-7.06584 -1.8077,-7.9559 -0.57116,-0.33424 -1.03775,-0.52428 -1.46007,-0.53885 z m -0.10421,-2.53574 c 0.73143,-0.11379 1.5038,0.21129 2.71155,0.9826 2.12082,1.35445 2.43344,2.47752 2.43344,9.00189 0,4.10673 -0.31521,8.22562 -0.69527,9.12869 -1.03319,2.45474 -6.38637,4.59603 -11.47201,4.59603 -4.19349,0 -4.51924,-0.2063 -4.51924,-2.85271 0,-3.15613 7.61254,-18.24651 10.18568,-20.19086 0.48955,-0.36992 0.91692,-0.59737 1.35577,-0.66564 z m -91.7059,-3.23307 c -0.6529,0.0213 -1.41571,0.2074 -2.22485,0.60224 -2.25855,1.1021 -2.30023,1.33266 -0.62575,2.18707 1.02846,0.52479 1.51638,1.43265 1.11243,2.0286 -0.41568,0.61326 -0.0997,0.88609 0.73003,0.63393 0.80625,-0.24504 2.00023,-1.19598 2.64202,-2.12368 1.34868,-1.9495 0.32483,-3.39213 -1.63388,-3.32816 z m -1.21672,-1.23618 c 0.2125,-0.0115 0.43089,-0.025 0.62574,0 3.07732,0.39572 4.86004,3.3949 3.33729,5.61034 -1.74247,2.5351 -10.22936,3.03986 -11.22858,0.66563 -0.85099,-2.02202 4.0781,-6.10425 7.26555,-6.27597 z m 113.81543,-6.11749 c 4.3617,-0.14349 4.42113,1.40573 -1.00814,2.34557 -2.29438,0.39718 -12.1811,1.13922 -21.97047,1.64824 -9.78938,0.50901 -20.23772,1.18798 -23.22197,1.52144 -3.28529,0.36709 -5.18978,0.2303 -4.79735,-0.34866 0.86862,-1.28147 16.29474,-3.14515 31.3566,-3.80362 6.7302,-0.29422 14.61455,-0.82439 17.52077,-1.17278 0.79568,-0.0953 1.49747,-0.16968 2.12056,-0.19019 z m -27.15028,-4.21566 c 6.6444,0.003 13.50939,0.23671 14.35729,0.72902 0.70588,0.40986 -5.1761,0.75963 -13.07104,0.76073 -7.89494,0.001 -14.3573,-0.34123 -14.3573,-0.76073 0,-0.4919 6.42666,-0.7323 13.07105,-0.72902 z m -6.67458,-4.97641 c 4.71665,0.10714 4.92568,0.19637 1.94676,0.88751 -4.92054,1.14162 -7.2308,1.14162 -7.2308,0 0,-0.55786 2.37783,-0.95351 5.28404,-0.88751 z m -96.32946,-3.16968 c -1.14988,0 -3.51109,4.55983 -3.51109,6.78312 0,1.43006 0.274,1.41957 2.22485,-0.19018 1.22367,-1.00973 2.22486,-2.90747 2.22486,-4.21567 0,-1.3082 -0.425,-2.37727 -0.93862,-2.37727 z m 96.67708,-1.0143 c 1.98535,0 3.11267,0.42254 2.71154,1.0143 -0.37813,0.55787 -1.91333,1.0143 -3.40682,1.0143 -1.49347,0 -2.71153,-0.45643 -2.71153,-1.0143 0,-0.55786 1.53519,-1.0143 3.40681,-1.0143 z m -80.75543,-1.17278 1.94676,2.21878 c 1.08287,1.21934 1.98151,2.87413 1.98151,3.67683 0,2.38083 -3.09706,7.15643 -5.11022,7.86081 -2.93876,1.02822 -2.91254,0.1435 0.10421,-2.44066 1.6901,-1.44769 2.78107,-3.51717 2.78107,-5.26167 0,-3.81483 -2.35747,-3.68299 -6.04883,0.31697 -3.02122,3.27379 -3.09799,5.21319 -0.10422,2.94781 0.93255,-0.70568 1.68811,-0.89877 1.66865,-0.41207 -0.05,1.25111 -2.82038,4.43756 -3.85874,4.43756 -0.47693,0 -1.51637,0.79876 -2.32914,1.77502 -1.40636,1.6892 -1.49593,1.69972 -1.5296,0 -0.059,-2.9813 4.49325,-10.81466 7.57843,-13.02739 l 2.92012,-2.09199 z m -15.85212,-0.53884 c 0.0999,-0.0173 0.19943,-0.0236 0.27812,0 1.69678,0.50918 1.93202,10.94875 0.31286,13.78811 -1.66989,2.92837 -4.57397,4.2121 -3.44158,1.52145 0.50878,-1.20888 0.33137,-1.51446 -0.55621,-1.0143 -2.09997,1.18337 -1.59201,-8.24127 0.62575,-11.66443 0.92147,-1.42234 2.0815,-2.51016 2.78106,-2.63083 z m 100.67486,-4.15228 c 9.55327,-0.0725 29.21469,0.81187 33.68577,1.77502 l 3.8935,0.82411 -3.8935,-0.0634 c -2.14144,-0.0408 -8.64915,-0.35148 -14.4616,-0.69733 -5.81243,-0.34587 -13.69678,-0.61013 -17.52076,-0.57054 -3.82397,0.0396 -6.95268,-0.34556 -6.95268,-0.85581 0,-0.26933 2.06486,-0.3879 5.24927,-0.41206 z m 9.38613,-6.30767 c 6.83216,0 12.21354,0.17768 11.95862,0.38036 -1.25214,0.99556 -24.36916,1.62637 -24.36916,0.66564 0,-0.65642 4.61737,-1.046 12.41054,-1.046 z m -17.45124,-3.77192 c 1.55076,-0.10312 -0.10901,7.12886 -3.16346,13.21757 -1.60455,3.19841 -2.92013,6.25308 -2.92013,6.78312 0,2.04913 -3.6393,9.12868 -4.69306,9.12868 -0.6169,0 -0.75137,-0.78911 -0.31288,-1.77502 0.43422,-0.97627 1.68554,-4.05719 2.78107,-6.84651 1.09556,-2.78933 3.05647,-7.2884 4.34544,-9.9845 1.28897,-2.69609 2.32914,-5.97478 2.32914,-7.29026 0,-1.31549 0.5813,-2.70903 1.28625,-3.10629 0.1325,-0.0746 0.24426,-0.11991 0.34763,-0.12679 z m 43.21093,-8.58983 c 1.46133,0.0187 2.43211,0.18535 2.60726,0.44375 1.03415,1.52569 -0.12187,1.83894 -9.76852,2.75763 -5.11939,0.48753 -10.19264,1.20346 -11.26335,1.58484 -1.34765,0.48001 -1.94675,0.20902 -1.94675,-0.88751 0,-1.70231 2.19767,-2.24409 14.80921,-3.58174 2.15603,-0.22869 4.10082,-0.3356 5.56215,-0.31697 z m -135.40351,-3.61344 c 2.13505,-0.2829 12.34451,3.82935 14.42682,5.92731 1.06081,1.06878 1.7426,1.89183 1.49482,1.83841 -0.24779,-0.0534 -3.95608,-1.52449 -8.23893,-3.26477 -9.21285,-3.74351 -8.88298,-3.56504 -7.99558,-4.37416 0.0655,-0.0598 0.17053,-0.10793 0.31287,-0.12679 z m 3.96303,-5.32506 c 2.32253,0 19.25732,8.90018 22.00524,11.56933 2.48626,2.41499 2.96042,3.86192 0.55622,1.67993 -2.34353,-2.12693 -20.08577,-11.21998 -21.90096,-11.22066 -1.07072,-4.1e-4 -1.94675,-0.45644 -1.94675,-1.01431 0,-0.55786 0.5835,-1.01429 1.28625,-1.01429 z m 2.01627,-5.83222 c 1.90709,-0.0382 8.18584,2.70993 11.71527,5.19828 3.14439,2.21689 2.10728,1.96601 -6.11835,-1.58484 -3.97694,-1.71677 -6.62888,-3.31412 -5.90978,-3.55004 0.0861,-0.0283 0.18572,-0.0609 0.31286,-0.0634 z m 2.39868,-6.08578 c 2.77162,0.20374 13.97225,5.37875 17.8684,8.36796 1.67761,1.28709 3.69707,2.5651 4.48448,2.82101 0.78739,0.25592 1.175,0.67671 0.86909,0.95091 -0.30593,0.2742 -3.30948,-1.07287 -6.67458,-2.9795 -3.3651,-1.90664 -8.87163,-4.63951 -12.23673,-6.08579 -3.3651,-1.44628 -5.51345,-2.80853 -4.76259,-3.04289 0.10517,-0.0329 0.26715,-0.0452 0.45193,-0.0317 z m 2.78108,-6.24427 c 0.85212,0.0404 2.62054,0.80078 5.9793,2.44066 5.64708,2.7571 3.86693,3.23075 -2.50297,0.66562 -2.29127,-0.92267 -4.16849,-2.02225 -4.1716,-2.44065 -0.003,-0.44842 0.18399,-0.68984 0.69527,-0.66563 z m 0.73002,-5.9907 c 3.45014,0.0611 14.64604,5.81773 23.04815,11.9497 4.39453,3.20718 1.93731,2.39741 -3.37205,-1.10939 -2.64464,-1.74677 -8.55209,-4.79628 -13.14057,-6.78312 -4.58848,-1.98684 -7.7983,-3.78961 -7.1265,-3.99379 0.15801,-0.048 0.36097,-0.0674 0.59097,-0.0634 z m 26.0378,-9.9528 c 0.0848,-0.0629 0.18065,-0.12936 0.24335,-0.22187 0.20504,-0.30252 0.47597,-0.54082 0.76479,-0.72903 -0.38366,-0.44447 -0.73839,-0.68971 -0.9386,-0.50715 -0.19858,0.18105 -0.17926,0.75062 -0.0696,1.45805 z m -34.65913,-19.39844 c -0.10589,0.009 -0.20779,0.0237 -0.2781,0.0634 -0.56251,0.31698 -1.91072,4.14201 -2.98965,8.49475 -5.40771,21.81631 -7.51191,28.19817 -23.43055,71.31781 -14.82705,40.1628 -20.47906,53.75975 -33.96386,81.65097 -5.93374,12.27301 -11.70526,24.59672 -12.8277,27.38604 -1.12245,2.78933 -2.82782,5.78863 -3.78921,6.65634 -2.56168,2.31205 -21.05082,10.07958 -23.98676,10.07958 -3.69666,0 -1.2259,1.99563 7.5089,6.11748 10.16812,4.7982 21.01399,11.12857 25.41205,14.8341 2.22801,1.87718 4.84181,2.63762 11.68051,3.35987 11.87294,1.25391 22.1676,3.53242 29.75749,6.59293 4.75287,1.91651 6.29218,2.1992 6.29218,1.14109 0,-2.9941 -28.74017,-24.40026 -48.04304,-35.7857 -4.42541,-2.61025 -7.43988,-4.91285 -6.70934,-5.13488 1.41322,-0.42952 12.75402,5.50388 17.79886,9.31886 1.66205,1.25685 5.77768,4.02111 9.14279,6.14919 9.35369,5.91523 29.92203,22.69261 31.739,25.89629 0.88863,1.56686 3.72088,4.17296 6.32693,5.76881 3.25458,1.99299 4.934,3.82457 5.31881,5.83222 0.30813,1.60759 1.18196,3.09617 1.94675,3.32815 0.7648,0.23197 1.39053,0.24895 1.39053,0.0317 0,-0.21724 3.29306,-6.99824 7.33509,-15.05598 10.99579,-21.91998 21.48047,-45.87834 32.36475,-73.98035 0.9723,-2.51038 2.15954,-5.93364 2.64202,-7.60723 0.48247,-1.67359 2.2211,-6.23793 3.85874,-10.14297 1.63763,-3.90505 4.6911,-12.34908 6.77886,-18.76451 3.14685,-9.66987 9.84391,-27.20372 13.73155,-36.00757 3.57858,-8.10396 4.53655,-10.80928 5.63168,-15.9435 1.17108,-5.49033 2.63391,-7.83652 4.10208,-6.49785 0.35841,0.32678 -0.2424,3.70686 -1.32101,7.48045 -1.72002,6.01763 -3.96719,12.03129 -13.80108,36.7683 -1.21975,3.06824 -3.0722,8.31724 -4.10208,11.66442 -1.02989,3.34718 -3.36817,9.96548 -5.21451,14.70732 -1.84635,4.74184 -5.11402,13.41409 -7.26556,19.27165 -4.95354,13.48606 -15.419,38.64031 -19.18941,46.15055 -0.56014,1.11574 -3.57322,7.50581 -6.70934,14.20018 -3.13611,6.69436 -7.99831,16.96413 -10.77666,22.8217 -2.77836,5.85756 -5.07734,11.78334 -5.14498,13.15417 -0.11498,2.33058 0.4852,2.59558 9.31659,4.24738 5.19458,0.97158 10.59963,2.25924 12.02815,2.85271 1.42851,0.59345 3.00923,0.85336 3.5111,0.57054 0.50187,-0.28282 1.21539,0.1534 1.56435,0.9826 0.41832,0.99392 -0.59661,2.06226 -2.95489,3.16968 -5.49135,2.57868 -10.86623,6.60319 -10.18568,7.60724 0.86235,1.2722 6.15418,-1.07451 8.86468,-2.40896 2.65274,-1.30603 7.12584,-3.75284 6.91792,-5.32506 -0.21085,-1.59437 0.29115,-1.97197 2.32914,-1.71164 7.25914,0.92732 48.24153,-35.47532 63.51278,-56.42031 1.49468,-2.05001 4.60109,-6.30732 6.88315,-9.44564 11.96956,-16.46076 25.29364,-48.78013 32.57333,-78.98845 1.44813,-6.00929 1.85493,-13.5729 1.91198,-36.00757 0.0397,-15.62019 -0.14954,-29.54142 -0.41716,-30.93608 -0.55016,-2.86714 -2.62214,-2.98861 -14.53111,-0.85581 -5.85312,1.04823 -6.64037,1.52973 -8.58657,5.00809 -2.83663,5.06978 -4.10991,5.59898 -7.05697,3.07459 l -2.43344,-2.09199 -2.0858,3.51835 c -1.64898,2.79191 -2.76373,3.51839 -5.35357,3.51839 -1.79772,0 -4.67016,-0.73716 -6.3617,-1.64824 -2.93254,-1.57947 -3.23086,-1.54555 -6.60505,0.72904 -4.33203,2.92027 -6.72959,1.93952 -9.73376,-3.96211 -0.0884,-0.17351 -3.13837,0.25876 -6.81363,0.95091 -5.90691,1.11243 -7.03927,1.05124 -9.5947,-0.47545 -1.58999,-0.9499 -2.88537,-2.5787 -2.88537,-3.61344 0,-3.60277 3.2902,-9.0626 7.30032,-12.07649 3.94806,-2.96725 3.99745,-3.08294 1.98151,-5.00809 -1.13369,-1.08264 -2.5919,-2.83578 -3.26776,-3.89871 -1.06157,-1.66955 -1.50207,-1.74344 -3.09394,-0.53884 -3.82607,2.89524 -17.43702,-4.27137 -21.41427,-11.28406 -0.74219,-1.30863 -1.6257,-3.83029 -1.87723,-5.45186 -0.78739,0.58357 -2.56849,-0.1262 -6.53551,-2.53574 -14.43755,-8.76927 -21.69855,-13.28748 -24.43869,-15.24616 -1.41878,-1.01416 -2.9439,-1.68117 -3.68493,-1.61654 z m 47.30138,94.64687 c -2.69876,-2.96495 -26.09473,-16.12238 -40.93116,-23.01887 -8.41743,-3.91272 -16.23146,-7.9388 -17.36451,-8.94682 -1.89545,-1.68629 -1.92143,-2.02577 -0.32512,-4.24712 5.14842,-7.16436 12.15862,-27.19452 13.52864,-38.65525 0.38345,-3.20772 1.12335,-5.83221 1.64421,-5.83221 0.52088,0 2.36208,1.07831 4.09156,2.39627 1.7295,1.31793 8.65106,5.7084 15.38127,9.75658 12.38532,7.44969 28.52105,17.30184 29.40521,17.95421 0.26513,0.19562 0.004,0.79132 -0.57969,1.32376 -0.67403,0.61458 -3.08425,-0.47966 -6.60041,-2.99658 -3.04626,-2.18056 -9.79372,-6.35223 -14.99433,-9.27037 -5.20061,-2.91813 -12.65901,-7.51091 -16.57423,-10.20618 -3.91521,-2.69528 -7.56024,-4.9005 -8.10004,-4.9005 -1.23343,0 -1.73242,1.39179 -2.49961,6.97199 -1.11266,8.09294 -7.55759,25.68072 -11.90251,32.48115 -1.21079,1.89505 -1.79945,3.79092 -1.30813,4.21305 0.4913,0.42212 7.46553,3.78424 15.49828,7.47139 8.03276,3.68717 21.21505,10.57765 29.29399,15.31219 8.07893,4.73455 14.86085,8.60826 15.07093,8.60826 0.63844,0 5.55303,-10.22993 8.40562,-17.49663 1.47819,-3.76559 3.06754,-6.84651 3.53189,-6.84651 1.12532,0 1.14421,-0.0947 -1.23436,6.18057 -3.80954,10.05037 -9.49703,21.20547 -10.81175,21.20547 -0.71433,0 -1.89591,-0.65604 -2.62575,-1.45785 z m -65.02727,24.27792 c -0.395,-3.37803 -1.36844,-4.1055 -3.41813,-2.55446 -2.73685,2.07101 -2.13785,5.09183 1.00965,5.09183 2.22344,0 2.65234,-0.45186 2.40848,-2.53737 z m -6.03132,3.32355 c -1.94098,-1.76977 -1.58404,-5.31482 0.72714,-7.22191 2.27124,-1.87413 4.64023,-2.2133 4.64023,-0.66436 0,0.55787 0.78044,1.0143 1.73429,1.0143 0.95387,0 1.42848,-0.45116 1.0547,-1.0026 -0.87755,-1.29467 3.40091,-10.15468 4.90366,-10.15468 0.62874,0 1.54899,1.42795 2.04499,3.17322 l 0.90181,3.17323 3.03928,-4.18752 c 3.58925,-4.94529 4.80824,-5.2152 5.75742,-1.27481 0.94879,3.93875 -0.32895,8.07759 -2.87767,9.32131 -2.4969,1.21842 -2.97511,-0.52782 -0.49156,-1.79508 1.92183,-0.98064 3.29708,-7.02122 1.79165,-7.86956 -0.58328,-0.32868 -1.658,0.42035 -2.38826,1.6645 -1.02186,1.74093 -1.02403,2.35441 -0.008,2.66279 1.96308,0.59663 -0.74777,3.24631 -3.32127,3.24631 -1.12724,0 -2.58534,0.91287 -3.24023,2.02859 -1.93548,3.29747 -3.32162,2.31163 -1.48068,-1.05308 1.74503,-3.18941 1.18058,-7.19338 -0.7641,-5.42024 -1.85146,1.68812 -3.51036,11.82348 -2.06824,12.63614 1.28277,0.72286 0.32296,1.11115 -5.78216,2.33919 -1.57541,0.3169 -3.45263,0.0398 -4.1716,-0.61574 z m 25.67481,11.13182 c -1.60862,-1.85219 -1.1533,-13.17552 0.55061,-13.69319 0.9199,-0.27947 1.39053,0.67975 1.39053,2.83415 l 0,3.25659 4.98109,-4.18637 c 2.73959,-2.30251 5.43211,-4.18637 5.9834,-4.18637 0.55127,0 1.62438,-1.3693 2.38467,-3.0429 1.5787,-3.4751 4.3786,-4.01709 5.23982,-1.01429 0.32,1.11573 0.94367,2.02859 1.38595,2.02859 1.46027,0 3.6234,-5.508 3.82245,-9.73322 0.30494,-6.47322 5.23455,-12.08915 6.97717,-7.94856 0.88601,2.10525 -1.77623,6.5245 -3.93048,6.5245 -1.25527,0 -1.37609,0.29822 -0.45949,1.13397 0.70186,0.63994 0.9777,2.62845 0.63315,4.56434 -0.76831,4.31694 0.52626,4.36172 4.32282,0.14954 3.55327,-3.94226 4.85018,-3.16573 4.70778,2.8188 -0.179,7.52218 -4.21839,9.58234 -10.49381,5.35199 -1.80321,-1.21556 -3.65924,-1.863 -4.12453,-1.43877 -0.46528,0.42425 0.52975,1.68508 2.21118,2.80187 1.68142,1.1168 3.05714,2.65864 3.05714,3.42633 0,2.14557 -5.78934,6.54938 -8.60996,6.54938 -2.77678,0 -3.46446,-2.78514 -1.19796,-4.85172 1.52955,-1.39462 1.25056,-1.74459 -2.15069,-2.69786 -1.83064,-0.51307 -2.50297,-0.2899 -2.50297,0.83078 0,0.84275 -1.04905,2.20225 -2.3312,3.02109 -1.61518,1.03151 -2.1139,2.1131 -1.6237,3.52132 1.29941,3.73291 -7.47182,7.14772 -10.22297,3.98001 z m -18.60326,-3.70152 c -0.85719,-2.46253 -2.60777,-2.7928 -3.50487,-0.66125 -0.75146,1.78553 1.9785,4.77811 3.30174,3.61935 0.51965,-0.45507 0.61107,-1.78621 0.20313,-2.9581 z m -8.0066,9.3363 c -3.46507,-0.61612 -3.999,-2.98362 -1.15587,-5.12526 1.34881,-1.016 3.22245,-3.20085 4.16365,-4.85523 0.94121,-1.65437 2.43095,-3.00795 3.3105,-3.00795 2.31016,0 4.11316,5.24164 2.54791,7.40719 -1.31201,1.81517 -1.63543,1.85864 -5.62295,0.75568 -3.43397,-0.94986 -3.16742,0.8713 0.34083,2.32876 1.5641,0.64978 2.53573,1.63592 2.15921,2.19141 -0.69605,1.02688 -1.45785,1.06738 -5.74328,0.3054 z m 8.18515,4.1117 c 0.33894,-0.80534 1.09271,-1.31945 1.67505,-1.14246 1.81537,0.55174 1.53946,2.09408 -0.42158,2.3565 -1.22798,0.16434 -1.6582,-0.25236 -1.25347,-1.21404 z m -17.35389,20.02786 c -2.97726,-2.08698 -3.8578,-7.6561 -1.49339,-9.44526 0.76479,-0.57873 1.3982,-2.70798 1.40757,-4.73166 0.008,-2.02369 0.45944,-4.31647 1.00016,-5.0951 1.07702,-1.55086 4.54496,-0.83625 4.54496,0.93655 0,0.6083 -0.55657,0.79237 -1.23681,0.40904 -0.68024,-0.38333 -1.67376,-0.0679 -2.20782,0.70086 -1.55652,2.24067 -1.15287,6.70773 0.66355,7.34326 2.35558,0.82418 2.07105,2.34354 -0.55622,2.96999 -1.22367,0.29177 -2.22485,1.31376 -2.22485,2.27109 0,1.42557 0.29944,1.514 1.65448,0.48863 0.90996,-0.68859 2.37893,-0.9985 3.26439,-0.68869 1.31886,0.46146 1.37789,1.12377 0.3265,3.66352 -1.49728,3.61681 -1.6222,3.64542 -5.14252,1.17777 z m 26.73736,-9.91785 c 1.37081,-1.52399 1.2427,-1.629 -1.25433,-1.02816 -1.5296,0.36806 -3.40682,0.67544 -4.17162,0.68305 -0.7648,0.008 -1.39053,0.47028 -1.39053,1.02815 0,1.66583 5.16964,1.14781 6.81648,-0.68304 z m -4.89713,2.89139 c -1.08578,-0.18007 -2.75049,-1.40771 -3.69936,-2.72811 -1.00254,-1.3951 -2.39492,-2.16639 -3.32405,-1.8413 -0.87937,0.30768 -2.26428,0.0559 -3.07758,-0.55956 -2.26751,-1.71585 -2.82114,-0.37991 -1.48615,3.58615 0.71632,2.1281 2.21066,3.94185 3.66224,4.44506 1.34867,0.46754 2.79193,1.35136 3.20723,1.96406 0.48112,0.70979 1.83211,0.0884 3.72345,-1.71246 2.59352,-2.46952 2.71907,-2.86779 0.99422,-3.15384 z m -33.06738,4.89174 c 0,-0.55787 -0.75089,-1.0143 -1.66864,-1.0143 -0.91776,0 -1.66864,0.45643 -1.66864,1.0143 0,0.55786 0.75088,1.01429 1.66864,1.01429 0.91775,0 1.66864,-0.45643 1.66864,-1.01429 z m 27.81074,2.02859 c 0,-1.127 -0.74163,-2.02859 -1.66864,-2.02859 -2.01149,0 -2.15056,1.18347 -0.33373,2.84003 1.79523,1.63686 2.00237,1.55291 2.00237,-0.81144 z m -24.30659,2.53574 c 0,-0.52997 -0.53813,-1.12713 -1.19586,-1.32703 -0.65772,-0.19991 -1.19586,0.39725 -1.19586,1.32703 0,0.92978 0.53814,1.52695 1.19586,1.32704 0.65773,-0.1999 1.19586,-0.79707 1.19586,-1.32704 z m 30.62571,0.0809 c -2.93312,-2.47853 -2.98154,-2.48372 -4.17723,-0.44662 -1.39266,2.37267 -1.32479,2.48139 2.34857,3.76249 4.19802,1.46408 5.24298,-0.43073 1.82866,-3.31587 z m -6.87533,2.92337 c 0,-1.73636 -4.85459,-6.75926 -5.94106,-6.14701 -1.58452,0.8929 2.34358,7.72125 4.27241,7.42687 0.91776,-0.14006 1.66865,-0.716 1.66865,-1.27986 z m -26.48223,-1.00767 c -3.35088,-2.68791 -7.44688,-3.33974 -7.44688,-1.18509 0,2.31706 2.55583,3.75381 6.61896,3.72084 l 3.94912,-0.0321 z m 9.05301,0.91217 c -0.51966,-2.4603 -4.06705,-3.03344 -5.00348,-0.8084 -0.46679,1.10911 0.0185,2.24449 1.33411,3.12166 2.40911,1.6062 4.25184,0.44449 3.66937,-2.31326 z m 3.30035,6.93713 c -0.58637,-2.75517 -3.11379,-2.60843 -3.11379,0.18079 0,1.92057 0.44463,2.43286 1.72326,1.98549 0.94778,-0.33162 1.57352,-1.30644 1.39053,-2.16628 z m 19.1348,3.8115 c 0,-0.70931 0.72723,-0.69512 2.24137,0.0437 1.76371,0.86064 2.38172,0.76017 2.90009,-0.47147 0.81115,-1.92736 -0.2181,-4.60806 -1.76927,-4.60806 -1.46975,0 -5.59705,3.73974 -5.59705,5.07149 0,0.55786 0.50059,1.0143 1.11243,1.0143 0.61183,0 1.11243,-0.47249 1.11243,-1.04998 z m -14.46158,6.24825 c 0,-0.48812 -0.31287,-2.31386 -0.69528,-4.05718 -0.53177,-2.42433 -1.28451,-3.16968 -3.20107,-3.16968 -1.37819,0 -3.11356,0.66768 -3.85637,1.48376 -1.09879,1.20717 -0.78283,1.96348 1.69488,4.05719 3.01756,2.54987 6.05784,3.396 6.05784,1.68591 z m 12.25569,0.8536 c 2.40292,-4.29459 1.97056,-5.06144 -1.32192,-2.34462 -1.21717,1.00436 -2.03434,1.20807 -2.03434,0.50715 0,-0.64434 -0.9399,-1.1715 -2.08865,-1.1715 -2.61535,0 -5.1989,-2.57776 -3.52752,-3.51961 0.64155,-0.36151 1.16645,-0.17394 1.16645,0.41685 0,1.57026 3.96046,1.31238 5.47977,-0.35678 0.71637,-0.78702 1.59404,-3.06918 1.95041,-5.07149 0.55615,-3.12487 0.34368,-3.64054 -1.49999,-3.64054 -2.18496,0 -4.81776,1.77373 -4.81776,3.24575 0,0.44628 0.75089,0.81143 1.66864,0.81143 3.27426,0 1.60131,1.90599 -1.94675,2.21791 l -3.61539,0.31783 0.29851,6.0858 c 0.47965,9.77899 5.52973,11.007 10.28854,2.50182 z m 4.98696,9.44833 c -7.17803,-0.9133 -14.62428,-3.49139 -18.05751,-6.25199 -1.97777,-1.59028 -4.63799,-3.52293 -5.91164,-4.2948 -1.68004,-1.01812 -2.41117,-2.69699 -2.66343,-6.11586 -0.19126,-2.59187 -0.65357,-5.16371 -1.02737,-5.71518 -0.37381,-0.55147 -3.06362,-1.3286 -5.97736,-1.72697 -8.85666,-1.21087 -12.17635,-4.15342 -8.19357,-7.26275 1.19662,-0.9342 1.83352,-2.41413 1.51576,-3.52206 -0.4455,-1.55336 0.0672,-1.91085 2.74043,-1.91085 2.42817,0 3.61996,-0.66336 4.55561,-2.53573 1.57271,-3.14724 3.0722,-3.24348 3.95097,-0.25358 0.9771,3.32434 0.84959,4.81792 -0.41127,4.81792 -0.61184,0 -1.11243,-1.00416 -1.11243,-2.23146 0,-1.43726 -0.38295,-1.88228 -1.07599,-1.25037 -1.21542,1.10818 -0.24114,5.74549 1.05378,5.01577 0.46052,-0.25949 1.722,0.41953 2.80329,1.50894 1.08129,1.08942 2.37456,1.75053 2.87392,1.46913 1.11972,-0.63098 3.43522,3.09031 2.47033,3.97009 -1.03802,0.94644 3.2814,7.74666 4.92057,7.74666 2.53471,0 5.7375,-3.77692 5.09689,-6.01052 -0.73726,-2.57056 -2.09105,-2.69563 -3.55959,-0.32885 -0.80746,1.30132 -0.98489,0.44425 -0.66487,-3.21158 0.24008,-2.74262 1.1357,-5.6241 1.99026,-6.40328 1.33005,-1.21272 1.3113,-2.21092 -0.1302,-6.93306 -1.85912,-6.0902 -1.28074,-7.72992 1.82315,-5.16874 1.12264,0.92637 2.434,1.68429 2.91415,1.68429 0.79658,0 0.50583,-3.38859 -0.60401,-7.03985 -0.2591,-0.85238 0.48286,-1.61468 1.7807,-1.82955 1.82396,-0.30197 1.92418,-0.1802 0.55621,0.67576 -1.45983,0.91342 -1.38757,1.52315 0.57746,4.87243 2.35205,4.00892 3.786,4.3757 10.82494,2.7688 3.65047,-0.83335 4.08959,0.78213 0.89132,3.27901 -1.19235,0.93084 -1.91368,2.06746 -1.60301,2.52582 1.12505,1.65978 2.59018,0.76398 4.38224,-2.67939 1.71345,-3.29229 5.40816,-5.53698 6.88994,-4.18592 1.10172,1.00453 1.74333,11.75587 0.70156,11.75587 -0.53465,0 -0.97207,-2.01593 -0.97207,-4.47982 0,-5.6411 -1.08243,-6.64848 -4.14414,-3.85686 l -2.41368,2.20078 2.63849,2.5608 c 2.56734,2.49174 1.78161,3.75599 -0.84559,1.36055 -0.724,-0.66015 -1.62089,-0.92259 -1.9931,-0.58323 -1.33542,1.21762 1.55375,4.15886 5.15004,5.24287 2.01615,0.60773 3.90892,1.78145 4.20618,2.60828 0.40818,1.13548 0.069,1.07343 -1.38645,-0.25358 -3.65503,-3.3326 -8.00627,-1.01641 -6.73906,3.58724 0.9104,3.3073 -1.9632,4.32098 -6.45598,2.2774 -4.40194,-2.00225 -5.25937,-1.93739 -5.25937,0.39788 0,1.43598 0.57413,1.79675 2.23078,1.40174 1.22694,-0.29255 2.95707,0.0177 3.84478,0.68943 0.88769,0.67173 2.1365,0.92688 2.77515,0.56699 0.66298,-0.37359 1.16115,0.24168 1.16115,1.43412 0,2.56022 3.85648,2.87489 5.35293,0.43677 0.60458,-0.98502 1.29547,-1.23611 1.71168,-0.62208 1.16899,1.72461 -2.40741,3.57948 -5.7325,2.97313 -2.30476,-0.42029 -3.45578,-0.0657 -4.43698,1.36683 -0.72869,1.06387 -1.99345,1.7004 -2.8106,1.41449 -0.98401,-0.34429 -1.99327,0.94972 -2.98872,3.83196 -0.82666,2.39348 -2.18268,5.09026 -3.01341,5.99284 -1.33051,1.44557 -1.09165,1.71741 2.00535,2.28217 6.02083,1.09793 7.68739,0.79714 7.68739,-1.38747 0,-1.31418 -0.74162,-2.0286 -2.10583,-2.0286 -1.15823,0 -2.40971,-0.72197 -2.78108,-1.6044 -1.02943,-2.446 -0.81311,-2.98422 0.65968,-1.64135 3.02248,2.75586 10.90181,0.62801 10.90181,-2.94408 0,-1.66747 -0.47818,-1.92839 -2.50297,-1.36578 -1.37663,0.3825 -3.379,1.39688 -4.44971,2.25415 -1.11793,0.89507 -1.94675,1.08439 -1.94675,0.44469 0,-1.48971 4.46546,-4.27191 6.85644,-4.27191 4.41891,0 3.79359,6.4163 -0.81176,8.32954 -1.58998,0.66055 -2.55027,1.73808 -2.22908,2.50126 0.6417,1.52475 -0.35173,4.46114 -1.43166,4.2317 -0.39341,-0.0836 -2.21708,-0.34306 -4.05259,-0.5766 z m 3.37149,38.05218 c -1.11487,-2.30402 -5.33311,-7.13075 -9.37384,-10.72606 -10.26333,-9.13196 -32.16951,-24.01378 -41.05669,-27.89157 -4.0975,-1.78789 -7.66956,-3.37924 -7.93792,-3.53634 -0.26836,-0.1571 0.5943,-2.31667 1.917,-4.79903 l 2.40493,-4.5134 3.64514,2.10101 c 2.00483,1.15556 7.64989,4.2375 12.54458,6.84875 14.09591,7.52001 32.75253,21.75072 38.68562,29.50829 3.26782,4.27268 2.10648,5.64056 -1.22931,1.44794 -6.49836,-8.16753 -23.30508,-21.22756 -36.9001,-28.67405 -15.61508,-8.55296 -15.62843,-8.55798 -17.32733,-6.51556 -2.45593,2.95252 -1.87583,3.71747 4.82724,6.36548 3.50529,1.38474 8.89465,4.39026 11.97638,6.67892 3.08172,2.28868 7.08839,5.01237 8.90368,6.05262 4.22159,2.41922 21.35589,15.40651 24.71035,18.72973 1.40778,1.39465 3.32007,3.80585 4.24953,5.35823 1.81756,3.03565 3.82004,2.85396 3.82004,-0.34661 0,-1.0828 0.50059,-1.96873 1.11242,-1.96873 1.58328,0 1.39249,1.23672 -0.91611,5.93829 l -2.02854,4.13122 z"
     id="path3921"
     style="fill:#ffffff;fill-opacity:1" />
  <path
     d="m 230.69978,382.34033 c 0.4528,-0.41286 3.16435,-1.4769 6.02566,-2.36454 9.4692,-2.93754 14.64748,-5.48053 15.34328,-7.53495 1.34815,-3.98038 14.69167,-32.15654 17.1727,-36.26183 7.15462,-11.83851 49.37506,-123.62284 52.19653,-138.19739 0.75598,-3.90505 2.08957,-9.10076 2.96354,-11.54603 0.87397,-2.44528 1.36602,-4.64931 1.09343,-4.89784 -0.27258,-0.24853 -3.418,0.32719 -6.98982,1.2794 -3.57182,0.95221 -7.02897,1.85489 -7.68255,2.00595 -1.18594,0.27408 -3.07628,7.05559 -4.37477,15.69427 -0.37734,2.51038 -3.38778,12.32371 -6.68986,21.8074 -3.30209,9.48369 -8.30329,24.31779 -11.1138,32.96468 -2.81052,8.64689 -6.3955,18.91665 -7.96662,22.8217 -11.38953,28.30855 -17.71911,43.52352 -20.88696,50.20774 -1.45413,3.06825 -4.46508,9.45833 -6.69099,14.20017 -5.55656,11.83715 -7.05187,14.57266 -12.75229,23.32885 -5.3387,8.20055 -10.15201,14.50302 -11.49048,15.04541 -1.13426,0.45965 -1.06096,2.19765 0.0927,2.19765 0.50987,0 1.29751,-0.33779 1.7503,-0.75064 z"
     id="path3919"
     style="fill:#000000" />
  <path
     d="m 264.68246,301.77018 c 0.06,-3.24302 -4.34088,-21.12328 -5.19906,-21.12328 -0.57622,0 0.0486,9.38461 1.55314,23.32884 0.6993,6.48108 0.73585,6.54131 2.15356,3.55004 0.7932,-1.67358 1.46477,-4.2636 1.49236,-5.7556 z"
     id="path3909"
     style="fill:#000000" />
  <path
     d="m 288.64946,241.45773 c 1.09916,-3.70241 2.0495,-8.36751 2.11187,-10.36691 0.11069,-3.55041 -0.0233,-3.66907 -5.74618,-5.08422 -3.22276,-0.79693 -6.10773,-1.22268 -6.41107,-0.94611 -0.30332,0.27656 0.25501,2.26284 1.24076,4.41395 1.10127,2.40321 1.55056,5.26908 1.16535,7.43346 -0.44995,2.52815 0.048,4.61741 1.76448,7.40192 1.31526,2.13374 2.7255,3.87955 3.13386,3.87955 0.40836,0 1.64178,-3.02925 2.74093,-6.73164 z m -14.22271,45.27495 c 2.45099,-5.85757 5.781,-14.76712 7.40002,-19.79899 l 2.94368,-9.14888 -2.51068,-5.91001 c -1.38087,-3.25049 -3.01097,-5.88293 -3.62244,-5.84985 -0.61147,0.0331 -1.39431,1.78879 -1.73967,3.90159 -0.96414,5.8985 -5.15363,12.54127 -10.79184,17.11131 l -5.10909,4.14116 2.40646,7.01612 c 1.32356,3.85886 2.97365,10.13488 3.66686,13.94671 0.6932,3.81183 1.62937,6.55044 2.08036,6.08578 0.45099,-0.46464 2.82534,-5.63737 5.27634,-11.49494 z m -27.49299,63.61764 c 0,-0.50034 1.82437,-4.6351 4.05414,-9.18839 4.52143,-9.23292 4.58944,-9.78202 4.77122,-38.51927 0.13516,-21.36813 -1.28317,-31.12445 -4.52475,-31.12445 -1.18006,0 -2.44363,-0.7082 -2.80793,-1.57379 -0.4753,-1.12936 -1.53435,-1.39917 -3.75027,-0.9554 -2.40946,0.48253 -3.47558,0.11373 -4.85239,-1.67853 -1.72199,-2.24162 -1.80206,-2.25006 -3.32523,-0.35077 -1.31364,1.63805 -1.83886,1.73574 -3.31727,0.61699 -0.96609,-0.73105 -2.3723,-2.88188 -3.12493,-4.77962 -0.81552,-2.05635 -2.122,-3.45045 -3.23358,-3.45045 -2.58951,0 -4.35727,-2.22787 -5.10604,-6.43498 -0.57194,-3.21351 -0.84981,-3.4523 -2.76119,-2.37267 -2.94991,1.66621 -4.44391,-0.60864 -4.03221,-6.13964 0.19241,-2.58506 -0.19682,-4.47794 -0.97694,-4.75089 -0.94978,-0.33232 -0.99571,-1.48949 -0.17165,-4.32436 1.49951,-5.15846 1.40481,-8.78828 -0.24232,-9.28888 -0.74021,-0.22498 -5.66712,-3.05919 -10.94868,-6.29824 -13.38894,-8.21117 -27.65448,-20.62657 -32.40761,-28.20459 -2.14143,-3.41413 -4.24784,-6.21246 -4.68093,-6.2185 -0.43309,-0.006 -2.15112,2.11071 -3.81787,4.70389 l -3.03043,4.7149 1.94244,4.9866 c 3.51765,9.03049 12.95972,21.81056 15.18673,20.5556 0.78757,-0.4438 -1.6636,-12.98166 -2.89233,-14.7944 -0.33773,-0.49825 0.0618,-0.90592 0.88761,-0.90592 1.80723,0 5.30422,11.22308 5.30422,17.0231 0,2.2063 0.7527,7.94698 1.67267,12.75709 3.4127,17.84355 5.28141,42.92677 4.54666,61.02904 -0.76083,18.74539 -2.92518,37.03653 -5.65007,47.74959 -0.94903,3.73116 -1.46532,7.02116 -1.14729,7.31113 0.78531,0.71603 22.54888,2.15533 46.18764,3.05455 16.4539,0.62591 19.68276,0.50993 20.85804,-0.74925 0.7648,-0.81938 1.39054,-1.89915 1.39054,-2.39949 z"
     id="path3905"
     style="fill:#ffffff;fill-opacity:1" />
  <path
     d="m 230.01121,233.85053 c -0.27771,-0.75966 -0.78196,-0.29988 -1.17533,1.07166 -0.48387,1.68713 -0.3391,2.08315 0.4864,1.33046 0.64643,-0.5894 0.95646,-1.67036 0.68893,-2.40212 z"
     id="path3903"
     style="fill:#000000" />
  <path
     d="m 191.8685,122.41644 c 0.37814,-0.55786 1.18811,-1.0143 1.79995,-1.0143 0.61183,0 0.80306,0.45644 0.42492,1.0143 -0.37814,0.55786 -1.18811,1.0143 -1.79995,1.0143 -0.61183,0 -0.80305,-0.45644 -0.42492,-1.0143 z m -1.66863,-5.19568 c 0,-1.04742 -0.48299,-1.9044 -1.0733,-1.9044 -1.52058,0 -3.61948,3.89231 -2.77262,5.1417 1.01804,1.50192 3.84592,-0.87846 3.84592,-3.2373 z m 0.87537,13.56 c -1.57854,-3.81311 -0.81426,-4.89152 2.36663,-3.33933 2.82721,1.37961 6.76986,-0.19204 6.76986,-2.69864 0,-2.11415 -3.19557,-5.36925 -5.27105,-5.36925 -0.87391,0 -1.3595,-0.57054 -1.07907,-1.26786 0.28042,-0.69733 1.01927,-1.17011 1.64187,-1.05061 1.90889,0.36637 6.9331,-4.55675 6.9331,-6.79361 0,-2.80189 -2.78405,-3.64455 -6.46741,-1.9575 -1.64353,0.75277 -3.36368,1.53545 -3.82255,1.73931 -0.45889,0.20386 -0.84116,-0.69436 -0.84952,-1.99606 -0.0252,-3.91998 -1.26609,-6.93102 -2.85649,-6.93102 -2.38537,0 -4.10197,4.01549 -3.4913,8.16683 0.31167,2.11869 0.0208,4.31025 -0.65373,4.92527 -1.68745,1.53859 -3.04256,1.38661 -2.34815,-0.26334 0.63516,-1.5092 -4.49765,-5.06552 -6.4532,-4.47115 -3.90008,1.18534 -0.64709,8.88545 3.75375,8.88545 1.12884,0 2.04478,0.34233 2.03541,0.76072 -0.0353,1.57239 -1.72645,2.78932 -3.87647,2.78932 -1.25873,0 -2.09212,0.58329 -1.91918,1.34327 0.16811,0.73879 -0.17274,1.07367 -0.75747,0.74418 -1.30961,-0.738 -2.70043,1.10876 -1.8168,2.41237 0.36932,0.54486 2.92048,0.0871 5.98396,-1.07372 4.75998,-1.80366 5.45257,-2.47567 6.37456,-6.18518 1.00247,-4.03331 4.01193,-7.03569 5.60047,-5.58729 1.46554,1.33626 0.57755,7.26747 -1.27273,8.50108 -1.01614,0.67747 -1.51755,1.71857 -1.11425,2.31356 0.40329,0.59497 -0.0233,1.08177 -0.94819,1.08177 -2.26153,0 -1.49759,5.60414 1.12398,8.24541 2.6463,2.66618 4.03288,0.98665 2.41397,-2.92398 z"
     id="path4395"
     style="fill:#ff3b3b;fill-opacity:1" />
  <path
     d="m 275.57743,219.70498 c 0.15219,-0.79057 -0.20516,-2.12205 -0.7941,-2.95885 -0.93962,-1.33504 -1.30252,-1.31021 -2.96221,0.20267 -1.58266,1.44266 -1.65278,1.98631 -0.42949,3.33025 1.67019,1.83493 3.77768,1.54589 4.1858,-0.57407 z M 241.37161,31.129638 c 0,-0.557863 -0.22075,-1.014297 -0.49055,-1.014297 -0.26981,0 -0.79995,0.456434 -1.17809,1.014297 -0.37814,0.557864 -0.15739,1.014298 0.49056,1.014298 0.64794,0 1.17808,-0.456434 1.17808,-1.014298 z m 18.35509,2.028596 c -0.37814,-0.557863 -1.53402,-0.982217 -2.56862,-0.943008 -1.53347,0.05812 -1.46996,0.232381 0.34376,0.943008 2.97677,1.16632 3.01542,1.16632 2.22486,0 z m -88.23526,11.664424 c 1.8178,-1.394659 2.79402,-2.535744 2.16937,-2.535744 -1.39138,0 -7.76043,4.994511 -6.42634,5.039436 0.52352,0.01763 2.43914,-1.109032 4.25697,-2.503692 z m 19.82085,-1.140709 c 0,-0.272484 -1.50178,0.31344 -3.33729,1.302055 -1.83551,0.988614 -3.33728,2.186585 -3.33728,2.662157 0,0.475572 1.50177,-0.110354 3.33728,-1.302056 1.83551,-1.191703 3.33729,-2.389673 3.33729,-2.662156 z m 15.28551,12.208564 c 2.70208,-1.443842 4.66258,-2.853383 4.35667,-3.132315 -0.55422,-0.505336 -10.74274,4.565534 -10.74274,5.346712 0,0.884552 1.67066,0.305244 6.38607,-2.214397 z m 11.84835,6.866441 c 2.99282,-1.245014 5.15256,-2.5271 4.79942,-2.849081 -0.73526,-0.670413 -10.63752,3.637549 -11.58949,5.041996 -0.34637,0.510988 -0.18462,0.735946 0.35941,0.499908 0.54405,-0.236039 3.43785,-1.447809 6.43066,-2.692823 z m -28.1864,-0.900652 c 2.10848,-2.067704 2.83242,-3.09945 1.60875,-2.292767 -3.16351,2.085485 -7.28181,6.052229 -6.28346,6.052229 0.4626,0 2.56621,-1.691759 4.67471,-3.759462 z m -10.07176,2.745164 c 0,-0.557865 -0.22074,-1.014298 -0.49055,-1.014298 -0.26981,0 -0.79995,0.456433 -1.17809,1.014298 -0.37813,0.557863 -0.15739,1.014298 0.49056,1.014298 0.64795,0 1.17808,-0.456435 1.17808,-1.014298 z m 14.06123,1.930826 c 2.75354,-1.727365 4.75614,-3.36888 4.45021,-3.647813 -0.56312,-0.513448 -10.72443,5.484224 -10.72443,6.330054 0,0.966666 1.4366,0.352519 6.27422,-2.682241 z m -17.39851,12.209481 c 0,-0.52494 -0.50059,-0.954436 -1.11243,-0.954436 -0.61183,0 -4.38301,6.000651 -4.86383,6.751789 -10.58259,16.531964 -0.78152,3.578334 4.86383,-4.216044 0.39636,-0.547246 1.11243,-1.056368 1.11243,-1.581309 z m 22.26973,2.572386 c 1.17558,-1.291552 1.10677,-1.439976 -0.42002,-0.905779 -1.00428,0.351387 -5.92635,6.535152 -5.92635,7.033331 0,1.304345 4.74432,-4.367497 6.34637,-6.127552 z m -16.70758,5.601858 c 0,-0.557864 -0.22075,-1.014298 -0.49056,-1.014298 -0.26981,0 -3.58521,4.357874 -3.96983,4.912046 -1.38174,1.990914 -7.3304,11.345155 3.2823,-2.88345 0.36438,-0.488521 1.17809,-0.456435 1.17809,-1.014298 z m -53.41364,52.937193 c -0.0147,-1.4781 3.1491,-15.50495 2.21978,-14.19378 -1.40789,1.98637 -4.72308,17.32918 -3.31518,16.53582 0.61183,-0.34478 1.10476,-1.3987 1.0954,-2.34204 z m -2.20783,9.72037 c 0,-3.83142 -0.55519,-3.44444 -1.49211,1.04004 -0.43692,2.09123 -0.28818,3.11525 0.39643,2.72946 0.60262,-0.33959 1.09568,-2.03587 1.09568,-3.7695 z m -5.56215,32.68643 c 0,-0.55786 -0.50059,-1.0143 -1.11243,-1.0143 -0.61183,0 -1.11244,0.45644 -1.11244,1.0143 0,0.55786 0.50061,1.0143 1.11244,1.0143 0.61184,0 1.11243,-0.45644 1.11243,-1.0143 z m 101.65553,48.12646 c 0.37988,-0.90265 0.1934,-1.30978 -0.43719,-0.95443 -0.60483,0.34082 -1.0997,1.04919 -1.0997,1.57413 0,1.45899 0.79736,1.13749 1.53689,-0.6197 z"
     id="path4407"
     style="fill:#bbbbbb;fill-opacity:1" />
  <path
     d="m 248.04619,205.49317 c -3.3651,-1.64342 -7.98648,-3.26409 -10.26975,-3.60147 -6.85686,-1.01317 -3.54132,-2.38863 5.75775,-2.38863 8.05868,0 8.8413,0.1885 10.52807,2.53575 2.26015,3.14514 3.73227,3.23409 4.19653,0.25357 0.30099,-1.9323 1.12293,-2.32268 5.36141,-2.54642 2.75327,-0.14532 5.64863,0.11937 6.43415,0.58825 2.29184,1.36797 0.35538,4.05671 -3.4679,4.81511 -1.93735,0.3843 -4.50989,1.32506 -5.71674,2.09057 -3.16022,2.00455 -5.90904,1.63014 -12.82352,-1.74673 z m 5.56215,-0.89523 c 0,-1.69562 -5.30463,-4.25589 -8.00079,-3.86156 -2.29682,0.3359 -2.09851,0.59964 1.88242,2.50343 5.21512,2.49399 6.11837,2.6945 6.11837,1.35813 z m 12.55828,-0.73627 c 1.70646,-0.31395 2.91872,-1.08076 2.69393,-1.70399 -0.57903,-1.60549 -4.71049,-1.97024 -7.40782,-0.65402 -2.86699,1.39903 -3.16529,4.61372 -0.33549,3.61554 1.07071,-0.37768 3.34294,-0.94357 5.04938,-1.25753 z m -41.29496,-0.24963 c -0.65075,-1.70207 -0.76289,-3.09467 -0.24921,-3.09467 1.019,0 2.69585,5.03733 1.91413,5.75011 -0.26496,0.24157 -1.01417,-0.95337 -1.66492,-2.65544 z m 7.50979,-22.73962 c 1.27358,-1.87891 2.31559,-4.16108 2.31559,-5.07149 0,-0.91043 0.53432,-1.65531 1.18739,-1.65531 1.55145,0 0.26833,3.74208 -2.52152,7.35367 -3.0403,3.93582 -3.76181,3.47498 -0.98146,-0.62687 z m 50.06002,3.35713 c 0.66135,-2.81176 1.20246,-8.0188 1.20246,-11.57121 0,-3.94911 0.78459,-8.16666 2.01912,-10.85376 1.65961,-3.61234 1.96213,-6.65238 1.699,-17.07359 -0.17606,-6.97329 -0.34116,-12.90694 -0.36688,-13.18587 -0.0433,-0.4688 -2.27636,2.80936 -3.99874,5.87 -0.40412,0.7181 0.10306,2.14965 1.12684,3.18121 1.75602,1.76923 1.6921,1.99715 -1.12753,4.01942 -5.2029,3.73157 -18.46825,2.29098 -20.02262,-2.17443 -0.51054,-1.46665 -0.096,-2.52404 1.34507,-3.43067 3.52308,-2.21653 4.86416,-3.4469 4.86416,-4.46263 0,-1.63419 -2.87461,-1.09096 -5.96834,1.1279 -3.80816,2.73127 -3.76347,5.81648 0.22123,15.26963 4.62095,10.96256 7.2172,20.7192 7.70861,28.96882 0.42321,7.10449 0.51676,7.30669 3.67335,7.93883 1.78149,0.35677 3.5297,1.07743 3.88491,1.60148 1.20035,1.77087 2.53126,-0.0888 3.73936,-5.22513 z m -34.88616,1.5904 c -0.37814,-0.55786 -3.02017,-1.69044 -3.63201,-1.69044 -0.61185,0 -0.14875,0.61553 0.22939,1.17339 0.37814,0.55787 5.89917,2.9234 6.511,2.9234 0.61184,0 -2.73024,-1.84848 -3.10838,-2.40635 z m -20.64528,-36.01747 c 0,-0.55786 0.5006,-1.0143 1.11243,-1.0143 0.61184,0 1.11243,0.45644 1.11243,1.0143 0,0.55786 -0.50059,1.0143 -1.11243,1.0143 -0.61183,0 -1.11243,-0.45644 -1.11243,-1.0143 z m -5.52436,-2.96426 c 2.16221,-0.38629 4.54003,-1.04539 5.28405,-1.46465 0.84109,-0.47398 1.35274,-0.16419 1.35274,0.819 0,1.22665 -1.18513,1.55516 -5.28403,1.46467 -5.11658,-0.11294 -5.15945,-0.1389 -1.35276,-0.81902 z m -3.37507,-2.76863 c -0.91776,-0.27567 -2.66983,-0.88666 -3.8935,-1.35776 -5.19808,-2.00112 -9.45363,-2.8629 -11.60467,-2.35001 -1.26539,0.30172 -2.3007,0.096 -2.3007,-0.45724 0,-0.5532 1.45633,-1.27137 3.23631,-1.59597 1.82531,-0.33285 5.70537,-2.84143 8.89943,-5.75372 3.11471,-2.83996 5.66313,-4.77668 5.66313,-4.30382 0,0.47285 -0.59237,1.39984 -1.31637,2.05999 -2.64111,2.40812 0.0386,2.28068 3.13476,-0.14908 1.75315,-1.37581 2.81168,-2.84497 2.3523,-3.2648 -0.45939,-0.41983 -3.65397,-1.11208 -7.09908,-1.53835 -7.00616,-0.8669 -7.72853,-1.29042 -8.77145,-5.14261 -0.58711,-2.16864 -0.19081,-3.03126 1.99163,-4.33511 2.532,-1.51267 3.09318,-1.48369 7.93858,0.41008 2.86771,1.12081 8.18386,2.7395 11.8137,3.59711 8.53975,2.01767 14.26999,5.14602 15.12668,8.25823 1.00943,3.6671 -0.17395,3.99648 -5.55482,1.54621 -6.64849,-3.02751 -9.1874,-2.83875 -11.27272,0.83808 -1.96932,3.47233 -0.76142,4.02301 2.22487,1.0143 1.10741,-1.11573 2.52373,-2.0286 3.14739,-2.0286 0.62367,0 0.0455,1.0564 -1.28484,2.34754 -1.5405,1.49515 -2.41877,3.64783 -2.41877,5.92859 0,5.41622 -4.17126,8.03139 -10.01186,6.27694 z m 8.17562,-2.85616 c 0.34466,-0.81892 0.14792,-1.75873 -0.43719,-2.08845 -0.58512,-0.32973 -1.06385,0.34031 -1.06385,1.48896 0,2.44909 0.61863,2.69616 1.50104,0.59949 z m -9.28806,-2.56822 c 0,-0.55787 -0.53013,-1.0143 -1.17807,-1.0143 -0.64795,0 -0.8687,0.45643 -0.49056,1.0143 0.37813,0.55786 0.90827,1.01429 1.17807,1.01429 0.26982,0 0.49056,-0.45643 0.49056,-1.01429 z m 8.8747,-11.06092 c -0.018,-1.17771 -0.6165,-0.92802 -2.20012,0.91794 -2.83949,3.30984 -2.83949,4.87876 0,2.53574 1.22368,-1.00972 2.21373,-2.56387 2.20012,-3.45368 z m 56.40613,13.91363 c -0.35511,-0.80914 -0.61872,-0.5688 -0.67209,0.61281 -0.0483,1.06922 0.21462,1.6683 0.58427,1.33126 0.36965,-0.33705 0.40916,-1.21188 0.0877,-1.94407 z m -15.2215,-0.37683 c 0,-0.86973 -0.50059,-1.29922 -1.11242,-0.95444 -0.61185,0.34478 -1.11244,1.05637 -1.11244,1.58131 0,0.52494 0.50059,0.95444 1.11244,0.95444 0.61183,0 1.11242,-0.71159 1.11242,-1.58131 z m 16.09758,-6.47552 c 1.14756,-2.02338 1.31214,-3.20001 0.51077,-3.6516 -0.65029,-0.36646 -1.30056,-0.50647 -1.44503,-0.31115 -4.02431,5.44091 -4.08872,5.87956 -1.00841,6.868 0.13725,0.044 1.01146,-1.26331 1.94267,-2.90525 z m -8.86061,-1.07807 c 2.33554,-2.3531 1.34161,-3.98784 -1.45007,-2.38494 -2.06876,1.18783 -3.23229,4.41975 -1.59116,4.41975 0.56186,0 1.93042,-0.91566 3.04123,-2.03481 z m 4.34124,-0.50094 c 1.4398,-2.00356 1.50413,-2.53574 0.30651,-2.53574 -0.83365,0 -2.08594,1.14109 -2.78287,2.53574 -0.69693,1.39467 -0.83485,2.53575 -0.3065,2.53575 0.52835,0 1.78064,-1.14108 2.78286,-2.53575 z m -56.94891,86.11143 5.98908,-5.68254 4.3949,1.11255 c 9.12822,2.31071 20.52514,1.00397 20.52514,-2.35337 0,-2.0713 2.98301,-2.69853 4.56547,-0.95996 3.84176,4.22069 11.7423,5.66689 14.54313,2.66215 2.87035,-3.07934 5.36485,-9.04584 5.36485,-12.83202 l 0,-3.65032 -9.17754,0.0155 c -5.04765,0.008 -9.88666,0.42479 -10.75334,0.92498 -0.95687,0.55224 -2.70457,0.48343 -4.44972,-0.17519 -1.58066,-0.59656 -11.12665,-1.25085 -21.21332,-1.45399 -17.05997,-0.34355 -18.39619,-0.50932 -19.15356,-2.37606 -0.94697,-2.33408 -0.54282,-2.46205 2.42976,-0.76939 1.82493,1.03914 2.66897,0.87194 5.26895,-1.04369 4.39635,-3.23917 11.50203,-6.23107 14.86065,-6.25718 1.59917,-0.0125 4.02809,-1.15086 5.49683,-2.57636 3.57008,-3.46494 12.68298,-5.941 15.67173,-4.25814 3.44348,1.93888 3.99188,5.76594 1.11024,7.74783 l -2.42861,1.6703 3.99318,1.31658 c 6.89067,2.27191 10.55774,-1.66374 10.55774,-11.33097 0,-2.94824 -2.08057,-10.08668 -6.85736,-23.5276 -5.86485,-16.50249 -6.23423,-18.28028 -4.58266,-22.05583 1.61123,-3.68328 8.47574,-8.86875 15.06208,-11.37794 2.03739,-0.77619 6.79021,-1.72957 10.56181,-2.11865 l 6.85745,-0.70739 0.7181,-4.3662 c 0.39495,-2.40142 0.29371,-4.96916 -0.22497,-5.70609 -0.51869,-0.73694 -1.76685,-4.30671 -2.77368,-7.93282 -1.00684,-3.626119 -2.49493,-8.190459 -3.30689,-10.142982 -1.67138,-4.01924 -10.67165,-16.228765 -11.96304,-16.228765 -0.46555,0 -1.81689,-0.815042 -3.00297,-1.811205 -2.41474,-2.028085 -10.98659,-5.866797 -15.30972,-6.856119 -1.83553,-0.420047 -3.14688,-1.777559 -4.02128,-3.761935 -1.68428,-3.822323 -4.50732,-6.778943 -2.81583,0.530336 0.39053,1.687482 -0.75591,2.22713 -3.41447,2.352249 -4.75136,0.223612 -19.06347,6.45739 -27.64591,12.041444 -13.40511,8.721854 -17.97734,13.136783 -21.19536,20.466125 -3.36511,7.664412 -3.17104,9.466412 0.94234,8.749452 8.21262,-1.43145 10.97001,2.93394 5.55767,8.79872 -2.86407,3.1035 -2.88477,3.96498 -0.17817,7.4165 1.82607,2.32865 0.19114,4.82388 -4.48599,6.84651 -2.67854,1.15834 -3.52394,2.18715 -3.54227,4.31077 -0.0192,2.22804 -0.53893,2.78931 -2.58267,2.78931 -1.40722,0 -3.15095,-0.5401 -3.87496,-1.20024 -1.86808,-1.7033 -2.4437,-0.79189 -3.20593,5.07624 l -0.67095,5.16538 -6.24718,1.15379 c -6.21571,1.14798 -14.75987,5.32448 -18.40425,8.99623 -1.81127,1.82488 -1.80088,1.95695 0.19945,2.53582 1.16063,0.33587 3.57499,2.00423 5.36527,3.70747 3.36674,3.20304 3.63456,5.08284 2.70446,18.98137 -0.34905,5.2157 5.92345,13.53439 17.79325,23.59775 11.96363,10.14291 18.35024,14.60958 25.58588,17.89421 2.75325,1.24986 5.08876,2.28673 5.19002,2.30418 0.10126,0.0175 2.87918,-2.52542 6.17317,-5.65081 z m 46.62966,-8.10365 c 0.99835,-1.06449 2.15841,-2.96242 2.57793,-4.21761 0.41951,-1.25519 1.20546,-2.28217 1.74652,-2.28217 1.63849,0 -1.79812,6.286 -4.04461,7.3981 -1.96832,0.9744 -1.98524,0.92008 -0.27984,-0.89832 z M 393.9135,200.39058 c 1.49668,-0.10518 2.65757,1.15701 3.44158,2.72593 0.98361,1.96832 1.84879,2.46134 3.58063,1.99689 5.91889,-1.58731 9.06829,-1.61862 11.19382,-0.12678 0.66738,0.46841 1.23718,0.82132 1.73817,1.07769 0.63309,1.02349 4.09237,1.50191 8.79515,-0.47545 2.09304,-0.88005 4.77746,0.45255 5.14498,2.53574 0.41419,2.34774 1.15963,4.45415 1.87722,5.83222 -1.6433,-0.19071 -2.53772,0.0201 -2.53772,0.66562 0,0.64155 1.5148,1.43635 3.37205,1.77503 3.57042,0.65109 5.52738,2.9059 5.52738,6.37106 0,1.34146 0.73428,2.09199 2.01628,2.09199 3.00321,0 4.6583,2.05156 4.6583,5.73712 0,3.34553 -2.00113,8.46304 -3.30252,8.46304 -1.8726,0 -3.37206,-2.79315 -3.37206,-6.27597 0,-4.99988 -1.81771,-4.97972 -2.74631,0.0317 -1.4309,7.72234 -6.05669,11.93501 -10.3595,9.44565 -1.44533,-0.83608 -0.74982,-4.21562 0.86909,-4.21562 0.48244,0 1.88471,-1.82872 3.09395,-4.0572 1.81182,-3.33897 2.02407,-4.90302 1.21672,-8.8434 -0.9592,-4.68141 -2.54763,-7.28125 -3.75445,-6.18088 -0.33324,0.30384 -0.10747,1.78813 0.52144,3.29647 1.83988,4.41234 1.35811,9.17836 -1.25148,12.20327 -2.99745,3.47448 -13.96519,9.98861 -15.43496,9.16038 -2.29657,-1.29416 -0.9054,-4.9853 3.02442,-8.08269 3.71783,-2.93031 4.10428,-3.77672 4.55401,-9.44565 0.42748,-5.38863 0.0907,-6.85911 -2.46821,-10.84031 -1.62722,-2.53171 -3.41174,-4.59603 -3.99779,-4.59603 -1.58925,0 -1.33719,0.88805 1.28626,4.24737 3.25393,4.16661 3.92887,10.76624 1.56434,15.30956 -3.211,6.16976 -19.96631,11.87525 -24.02152,8.17777 -2.29512,-2.09266 2.48791,-9.90372 7.71748,-12.58363 2.51618,-1.28941 4.58877,-2.65191 4.58877,-3.04289 0,-0.39099 -1.30451,-1.49621 -2.88536,-2.44066 -3.49675,-2.08903 -7.05847,-8.93244 -7.09173,-13.59793 -0.0116,-1.62405 -0.56511,-3.40535 -1.42531,-5.10318 0.94888,-0.14829 2.31949,-0.49172 4.20637,-1.10939 0.22729,-0.0745 0.4467,-0.11177 0.66051,-0.12679 z m -28.40172,-2.47235 c 0.86897,1.00669 2.02335,3.15221 2.60726,4.43756 2.77827,6.11564 13.6229,12.66187 18.28556,11.03049 2.60463,-0.91134 2.37659,-8.45785 -0.3824,-12.58364 -2.5929,-3.87746 -5.95745,-4.84905 -13.10581,-3.77192 -2.89838,0.43673 -5.7364,0.69552 -6.29217,0.57055 -0.3169,-0.0712 -0.72928,0.0672 -1.11244,0.31696 z M 329.48894,455.245 c 6.35571,-1.38763 16.99563,-5.58065 18.02878,-7.10486 0.51554,-0.76057 -1.61431,-1.08207 -6.81028,-1.02802 -11.19613,0.11648 -27.53509,-2.79138 -37.39298,-6.65485 -4.7967,-1.87992 -14.10838,-9.2896 -14.10838,-11.22664 0,-2.75166 9.47993,-3.32171 16.68644,-1.00341 5.61367,1.8059 10.40311,1.94475 13.5816,0.39372 2.18193,-1.06471 2.03801,-1.28108 -2.5761,-3.87291 -7.31813,-4.11073 -24.94613,-10.22068 -34.09058,-11.81597 -11.22977,-1.95906 -35.87368,-3.05155 -35.87368,-1.5903 0,1.51522 16.21508,15.58833 24.17197,20.97894 3.53092,2.3921 9.924,6.04434 14.20685,8.1161 22.91356,11.08401 26.42567,12.64072 28.51877,12.64072 1.32613,0 2.5188,0.82799 2.84849,1.97752 0.63079,2.19934 3.41641,2.24065 12.8091,0.18996 z m -49.22966,6.41814 c 15.61355,-1.74275 33.42024,-5.29688 33.42024,-6.67054 0,-0.49543 -0.87603,-0.90843 -1.94675,-0.91777 -1.07071,-0.009 -4.70001,-1.35822 -8.06511,-2.99749 -3.3651,-1.63928 -10.4081,-4.98964 -15.65113,-7.44526 -12.38633,-5.80127 -21.61665,-11.99097 -32.8108,-22.00242 -4.98728,-4.46036 -9.85014,-8.10976 -10.80635,-8.10976 -1.07746,0 -2.00248,1.2535 -2.43262,3.29647 -2.72414,12.9383 -7.92627,28.19048 -11.75766,34.47236 -1.8259,2.99373 -1.27768,3.60091 5.32226,5.89476 5.0317,1.74878 23.66523,5.48302 29.71012,5.95401 0.58579,0.0456 7.3438,-0.61782 15.0178,-1.47436 z"
     id="path3899"
     style="fill:#f3e1cc;fill-opacity:1" />
</svg>
