<?xml version="1.0" encoding="UTF-8" standalone="no"?>
<svg xmlns:dc="http://purl.org/dc/elements/1.1/" xmlns:cc="http://creativecommons.org/ns#" xmlns:rdf="http://www.w3.org/1999/02/22-rdf-syntax-ns#" xmlns:svg="http://www.w3.org/2000/svg" xmlns="http://www.w3.org/2000/svg" version="1.1" width="488" height="488" id="svg3039">
  <metadata id="metadata3045">
    <rdf:RDF>
      <cc:Work rdf:about="">
        <dc:format>image/svg+xml</dc:format>
        <dc:type rdf:resource="http://purl.org/dc/dcmitype/StillImage" />
        <dc:title></dc:title>
      </cc:Work>
    </rdf:RDF>
  </metadata>
  <defs id="defs3043">
    <filter x="-0.16032389" y="-0.16032389" width="1.3206478" height="1.3206478" color-interpolation-filters="sRGB" id="filter4781">
      <feGaussianBlur stdDeviation="8" id="feGaussianBlur4783" />
    </filter>
  </defs>
  <path d="m 246.8125,25.1875 c -2.57815,0.09407 -4.58809,0.705927 -8.0625,2.15625 l -6.1875,2.625 L 226.90625,28 c -9.10696,-3.155118 -19.64437,-2.822866 -31.96875,1 -19.39118,6.014894 -34.82632,16.189675 -44.78125,29.53125 -11.2661,15.098794 -24.16807,44.62389 -27.6875,63.375 -0.62823,3.34719 -1.91017,10.19798 -2.84375,15.21875 -5.72834,30.80685 -7.55594,58.69635 -4.5625,70 0.88641,3.34717 1.6657,6.80801 1.6875,7.71875 0.0225,0.94092 -3.03484,3.49504 -7.09375,5.90625 -3.92868,2.33384 -11.310344,8.25346 -16.40625,13.125 -7.399257,7.07348 -11.094801,11.79408 -18.3125,23.5 -12.364442,20.05308 -17.16175,31.45225 -21.53125,51.25 -1.221492,5.53447 -2.998276,12.55674 -3.9375,15.625 -3.966799,11.90188 -4.000531,28.55117 -3.96875,36.21875 0.03178,7.66758 3.889332,15.86577 5.4375,17.09375 2.548032,2.02105 7.11418,12.16847 25.71875,30.34375 4.604915,4.49866 14.749845,14.24837 21.383588,19.46071 101.999022,0.31828 175.073082,1.77816 227.306082,0.37012 8.04106,0.0398 16.02263,-0.10122 23.84004,-0.50359 7.81741,-0.40236 20.92937,0.57159 28.31381,-0.43376 7.38443,-1.00535 9.58723,-5.62761 16.32937,-7.39673 6.74215,-1.76913 9.28973,-12.14838 15.18027,-14.84207 5.89054,-2.69369 8.02773,-8.07334 12.85734,-11.85238 4.82961,-3.77904 5.80122,-9.77857 9.36059,-14.80375 3.55937,-5.02519 6.43129,-11.80538 8.5111,-18.2375 2.07981,-6.43211 14.83077,-19.61246 15.2217,-27.61229 1.20442,-28.91763 -3.902,-47.97911 -3.96014,-102.68001 -2.64045,0.18588 -4.5463,0.15951 -4.65625,-0.125 -1.37912,-3.56844 -3.50303,-5.95244 -5.53125,-6.21875 -1.60905,-0.21128 -2.62393,-1.29964 -3.09375,-3.25 -0.80675,-3.34909 -2.35225,-4.68728 -6.34375,-5.53125 -0.0598,-0.96422 -0.27343,-2.43894 -0.875,-4.65625 -0.15821,-0.5832 -1.46595,-2.43307 -3.21875,-4.03125 -2.2375,-2.04013 -3.84106,-2.39355 -5.5625,-2.3125 -3.09116,0.14552 -5.14336,0.56748 -6.40625,1.09375 -1.70524,-1.69704 -6.27913,-2.93555 -10.3125,-2.5 -4.38196,0.4732 -5.53023,0.20158 -7.65625,-1.8125 -1.59266,-1.5088 -3.33763,-2.31996 -4.6875,-1.8125 -1.8821,0.70752 -3.39507,1.452 -4.3125,2.09375 -1.31822,-2.10155 -3.11187,-3.90715 -5.03125,-4.84375 -3.10464,-1.51498 -15.35613,-0.92044 -17.6875,0.84375 -0.9989,0.75587 -4.88345,-1.0887 -14.15625,-6.75 -7.0217,-4.28695 -14.55085,-9.05962 -16.75,-10.59375 -4.51474,-3.14949 -6.80421,-3.48763 -8.8125,-1.28125 -1.57769,1.73331 -11.21318,4.5625 -15.53125,4.5625 -2.8115,0 -2.95398,0.30906 -4.90625,10.90625 -1.85417,10.06475 -7.74516,28.98863 -9.6875,31.0625 -0.45735,0.48833 -3.06381,-0.0644 -5.75,-1.25 -2.68619,-1.18565 -6.34157,-2.15625 -8.15625,-2.15625 -2.92394,0 -3.44351,-0.50229 -4.6875,-4.34375 -1.1859,-3.66211 -1.13813,-4.92814 0.3125,-8.09375 0.94439,-2.06086 1.6875,-5.12099 1.6875,-6.8125 0,-2.56627 0.43846,-3.0625 2.65625,-3.0625 1.46181,0 3.83682,-0.90283 5.28125,-2 l 2.625,-2 -3.75,-0.0312 c -3.74558,-0.0336 -3.75172,-0.0557 -2.9375,-3.84375 0.44966,-2.09199 1.40795,-9.05333 2.125,-15.46875 0.71704,-6.41544 1.90739,-12.65649 2.65625,-13.875 0.74886,-1.21852 1.375,-4.93445 1.375,-8.25 0,-4.0165 0.52372,-6.4403 1.59375,-7.25 1.86616,-1.41216 5.34637,-10.9579 7.3125,-20.03125 1.88013,-8.67646 0.67536,-28.153842 -2.71875,-43.5 -8.06497,-36.464917 -22.18827,-54.754677 -43.78125,-56.8125 -1.41947,-0.135276 -2.59786,-0.233244 -3.65625,-0.25 -0.3969,-0.0063 -0.78794,-0.01344 -1.15625,0 z" id="path4354" style="fill:#000000" />
  <path d="m 153.4375,199.71875 -8.84375,4.34375 c -4.86153,2.38979 -14.19782,8.15666 -20.71875,12.8125 -39.353753,28.09801 -47.30322,39.69608 -66.5625,97.03125 -2.170806,6.46253 -5.797624,21.40794 -7.09375,31.25 -0.884893,6.71939 -1.98575,15.42801 1.1875,21.1875 1.844163,3.34718 4.029721,6.80677 4.875,7.6875 0.845268,0.88072 1.53125,2.33291 1.53125,3.21875 0,0.88585 0.411764,1.75153 0.90625,1.9375 0.494496,0.18595 2.429636,2.39586 4.3125,4.90625 4.648365,6.19756 24.347487,27.02014 29.75,31.4375 2.406708,1.96784 5.679772,4.6467 7.25,5.96875 0.62612,0.52715 1.23568,1.01547 1.84375,1.5 l 132.4375,0 c 1.80223,-6.90916 2.81459,-12.73981 1.84375,-13.625 -1.27739,-1.16471 -22.21615,-14.43348 -34.28125,-21.71875 -9.67943,-5.84474 -33.05171,-17.6594 -41.46875,-20.96875 -2.89373,-1.13775 -9.00498,-3.70414 -13.59375,-5.71875 -4.58876,-2.01461 -10.33391,-4.21691 -12.78125,-4.875 -2.44735,-0.65811 -8.17012,-2.40541 -12.71875,-3.875 -4.54862,-1.46959 -11.80199,-3.37023 -16.125,-4.25 C 95.95739,346.09031 94.490081,345.16351 97,342.875 c 1.668143,-1.52099 2.511469,-1.44754 11.0625,0.65625 5.09547,1.25361 10.25925,2.88382 11.46875,3.65625 1.2095,0.77243 2.9701,1.40625 3.9375,1.40625 0.96739,0 4.2549,1.09004 7.28125,2.40625 19.10928,8.31086 26.56901,11.41329 34.96875,14.53125 11.51823,4.27554 28.70907,12.88816 31.15625,15.625 0.30592,0.34211 2.29608,1.44052 4.4375,2.4375 2.14143,0.99698 5.8964,3.26971 8.34375,5.03125 2.44734,1.76156 5.76776,3.7205 7.375,4.34375 1.60724,0.62324 4.62372,2.45017 6.6875,4.0625 2.06378,1.61231 6.12503,4.16481 9.03125,5.6875 2.90621,1.52268 5.28125,3.20769 5.28125,3.75 0,0.5653 1.5522,0.73578 3.625,0.375 1.98847,-0.34611 5.23028,-0.60474 7.21875,-0.5625 1.98846,0.0422 3.625,-0.26589 3.625,-0.6875 0,-1.31458 -22.16785,-13.92742 -23.78125,-13.53125 -0.53006,0.13015 -2.0383,-0.38607 -3.34375,-1.15625 -1.30544,-0.77018 -3.7237,-1.71594 -5.40625,-2.09375 -1.68255,-0.37781 -3.0625,-1.17433 -3.0625,-1.78125 0,-0.60692 0.68274,-0.85938 1.53125,-0.5625 1.06771,0.37357 1.3728,-0.0441 1,-1.34375 -0.32553,-1.13504 0.41472,-2.63213 1.875,-3.75 1.32891,-1.01733 4.18968,-4.55906 6.34375,-7.90625 2.15409,-3.34718 5.12248,-7.56791 6.59375,-9.34375 5.04185,-6.08553 5.30844,-6.00238 -27.90625,-7.40625 -26.39464,-1.11561 -29.87147,-1.49651 -33.5625,-3.625 -2.32188,-1.33895 -2.36452,-1.60645 -0.9375,-7.25 6.01216,-23.77681 9.99404,-54.36152 8.875,-68.25 -1.10245,-13.68254 -2.79135,-27.68403 -4.75,-39.65625 l -1.90625,-11.75 -5.90625,-5.875 c -3.23483,-3.22718 -7.87484,-9.16903 -10.3125,-13.21875 z" id="path3925" style="fill:#cff097;fill-opacity:1" />
  <path d="m 230.69978,382.34033 c 0.4528,-0.41286 3.16435,-1.4769 6.02566,-2.36454 9.4692,-2.93754 14.64748,-5.48053 15.34328,-7.53495 1.34815,-3.98038 14.69167,-32.15654 17.1727,-36.26183 7.15462,-11.83851 49.37506,-123.62284 52.19653,-138.19739 0.75598,-3.90505 2.08957,-9.10076 2.96354,-11.54603 0.87397,-2.44528 1.36602,-4.64931 1.09343,-4.89784 -0.27258,-0.24853 -3.418,0.32719 -6.98982,1.2794 -3.57182,0.95221 -7.02897,1.85489 -7.68255,2.00595 -1.18594,0.27408 -3.07628,7.05559 -4.37477,15.69427 -0.37734,2.51038 -3.38778,12.32371 -6.68986,21.8074 -3.30209,9.48369 -8.30329,24.31779 -11.1138,32.96468 -2.81052,8.64689 -6.3955,18.91665 -7.96662,22.8217 -11.38953,28.30855 -17.71911,43.52352 -20.88696,50.20774 -1.45413,3.06825 -4.46508,9.45833 -6.69099,14.20017 -5.55656,11.83715 -7.05187,14.57266 -12.75229,23.32885 -5.3387,8.20055 -10.15201,14.50302 -11.49048,15.04541 -1.13426,0.45965 -1.06096,2.19765 0.0927,2.19765 0.50987,0 1.29751,-0.33779 1.7503,-0.75064 z" id="path3919" style="fill:#000000" />
  <path id="path3921" d="M 329.84375 179.46875 C 329.73786 179.47775 329.63281 179.49155 329.5625 179.53125 C 328.99999 179.84823 327.64143 183.67851 326.5625 188.03125 C 321.15479 209.84756 319.07489 216.22411 303.15625 259.34375 C 288.3292 299.50655 282.6723 313.10878 269.1875 341 C 263.25376 353.27301 257.46619 365.58568 256.34375 368.375 C 255.2213 371.16433 253.52389 374.16354 252.5625 375.03125 C 250.00082 377.3433 231.52969 385.125 228.59375 385.125 C 224.89709 385.125 227.35895 387.12815 236.09375 391.25 C 246.26187 396.0482 257.10194 402.35697 261.5 406.0625 C 263.72801 407.93968 266.3488 408.71525 273.1875 409.4375 C 285.06044 410.69141 295.34761 412.97074 302.9375 416.03125 C 307.69037 417.94776 309.21875 418.21436 309.21875 417.15625 C 309.21875 414.16215 280.49037 392.76044 261.1875 381.375 C 256.76209 378.76475 253.73821 376.47203 254.46875 376.25 C 255.88197 375.82048 267.23641 381.74752 272.28125 385.5625 C 273.9433 386.81935 278.04114 389.59067 281.40625 391.71875 C 290.75994 397.63398 311.33928 414.39007 313.15625 417.59375 C 314.04488 419.16061 316.89395 421.77915 319.5 423.375 C 322.29841 425.08865 323.91484 424.5019 324.5625 426.19141 L 330.09375 426.19141 C 331.43674 423.42451 333.32334 421.77686 335.46875 417.5 C 346.46454 395.58002 356.95947 371.63326 367.84375 343.53125 C 368.81605 341.02087 369.98627 337.61109 370.46875 335.9375 C 370.95122 334.26391 372.70611 329.68629 374.34375 325.78125 C 375.98138 321.8762 379.03724 313.44668 381.125 307.03125 C 384.27185 297.36138 390.95611 279.80385 394.84375 271 C 398.42233 262.89604 399.37362 260.19672 400.46875 255.0625 C 401.63983 249.57217 403.12558 247.22383 404.59375 248.5625 C 404.95216 248.88928 404.32861 252.28891 403.25 256.0625 C 401.52998 262.08013 399.30264 268.07549 389.46875 292.8125 C 388.249 295.88074 386.40488 301.12157 385.375 304.46875 C 384.34511 307.81593 382.00259 314.44566 380.15625 319.1875 C 378.3099 323.92934 375.02654 332.61119 372.875 338.46875 C 367.92146 351.95481 357.45791 377.11476 353.6875 384.625 C 353.12736 385.74074 350.10487 392.11813 346.96875 398.8125 C 343.83264 405.50686 338.9971 415.76743 336.21875 421.625 C 335.09926 423.98521 334.09922 424.11149 333.25 426.19141 L 353.99414 426.19141 C 345.25421 425.73313 343.7542 426.11664 344.375 424.78125 C 344.78869 423.89139 345.35768 422.13018 345.65625 420.875 C 346.06639 419.15068 346.70683 418.70058 349.84375 418.625 C 350.29189 418.6143 350.81865 418.623 351.375 418.625 C 357.72387 418.6474 377.05576 421.27978 378.03125 422.25 C 378.42329 422.63993 376.75985 422.64538 374.3125 422.28125 C 371.86515 421.91733 365.20794 421.32682 359.53125 420.96875 C 350.21449 420.38108 349.07647 420.51804 347.6875 422.25 C 345.89187 424.48905 346.4036 425.85221 348.75 425.03125 C 350.33137 424.47795 367.19161 424.55749 374.15625 426.19141 L 387.0625 426.19141 C 401.19344 414.07728 417.51365 399.94018 425.96875 388.34375 C 427.46343 386.29374 430.56169 382.04457 432.84375 378.90625 C 440.60811 368.22856 448.93096 350.87225 455.8125 331.75 L 455.8125 282.03125 C 455.61482 282.07015 455.46482 282.11905 455.25 282.15625 C 452.95562 282.55343 443.07062 283.30348 433.28125 283.8125 C 423.49187 284.32151 413.0155 285.01029 410.03125 285.34375 C 406.74596 285.71084 404.85757 285.57896 405.25 285 C 406.11862 283.71853 421.53189 281.84597 436.59375 281.1875 C 443.32395 280.89328 451.21878 280.34839 454.125 280 C 454.74653 279.9256 455.29712 279.87624 455.8125 279.84375 L 455.8125 262.9375 C 452.92322 262.7999 449.52852 262.61248 446.0625 262.40625 C 440.25007 262.06038 432.35523 261.80416 428.53125 261.84375 C 424.70728 261.88335 421.59375 261.51025 421.59375 261 C 421.59375 260.73067 423.65934 260.61791 426.84375 260.59375 C 434.38474 260.53655 448.11739 261.05324 455.8125 261.75 L 455.8125 245.03125 C 455.42496 245.06905 455.23151 245.0852 454.8125 245.125 C 449.69311 245.61253 444.63321 246.30612 443.5625 246.6875 C 442.21485 247.16751 441.59375 246.90903 441.59375 245.8125 C 441.59375 244.1399 443.77568 243.56925 455.8125 242.28125 L 455.8125 231.53125 C 454.75627 231.70706 453.64483 231.89758 452.375 232.125 C 446.52188 233.17323 445.7587 233.64664 443.8125 237.125 C 440.97587 242.19478 439.69706 242.71189 436.75 240.1875 L 434.3125 238.125 L 432.21875 241.625 C 430.56977 244.41691 429.46484 245.15625 426.875 245.15625 C 425.07728 245.15625 422.19154 244.41108 420.5 243.5 C 417.56746 241.92053 417.28044 241.94416 413.90625 244.21875 C 409.57422 247.13902 407.16042 246.15163 404.15625 240.25 C 404.06785 240.07649 401.01901 240.5266 397.34375 241.21875 C 391.43684 242.33118 390.30543 242.27669 387.75 240.75 C 386.16001 239.8001 384.875 238.15974 384.875 237.125 C 384.875 233.52223 388.17738 228.07639 392.1875 225.0625 C 396.13556 222.09525 396.17219 221.9564 394.15625 220.03125 C 393.02256 218.94861 391.55086 217.21918 390.875 216.15625 C 389.81343 214.4867 389.37312 214.38915 387.78125 215.59375 C 383.95518 218.48899 370.35225 211.32519 366.375 204.3125 C 365.63281 203.00387 364.75153 200.49657 364.5 198.875 C 363.71261 199.45857 361.93577 198.75329 357.96875 196.34375 C 343.5312 187.57448 336.27139 183.05243 333.53125 181.09375 C 332.11247 180.07959 330.58478 179.40412 329.84375 179.46875 z M 364.5 198.875 C 364.5848 198.8121 364.6873 198.74876 364.75 198.65625 C 364.95504 198.35373 365.21118 198.09446 365.5 197.90625 C 365.11634 197.46178 364.76271 197.22369 364.5625 197.40625 C 364.36392 197.5873 364.39034 198.16757 364.5 198.875 z M 353.99414 426.19141 C 354.40581 426.21299 354.61716 426.21454 355.0625 426.24023 C 357.35521 426.37251 359.65034 426.28611 361.77734 426.19141 L 353.99414 426.19141 z M 361.77734 426.19141 L 368.5625 426.19141 C 367.01422 425.92495 364.55105 426.06791 361.77734 426.19141 z M 326.21875 180.90625 C 321.23024 184.15925 316.2385 186.44239 311.25 186.6875 C 307.7578 202.19816 302.50725 218.14183 296 234.40625 L 277.09375 290.625 C 271.05331 308.58109 256.62127 345.04923 245.0625 358.65625 L 224.375 383 C 233.61351 380.97235 244.51488 378.48585 250.78125 372 C 250.78125 372 263.75251 346.07778 269.59375 332.8125 C 283.14375 302.04085 307.1875 239.1875 307.1875 239.1875 L 326.21875 180.90625 z M 333.6875 193.40625 C 334.20838 193.40625 336.05177 194.49454 337.78125 195.8125 C 339.51075 197.13043 346.42604 201.51432 353.15625 205.5625 C 365.54157 213.01219 381.67834 222.87888 382.5625 223.53125 C 382.82763 223.72687 382.5837 224.31131 382 224.84375 C 381.32597 225.45833 378.92241 224.36067 375.40625 221.84375 C 372.35999 219.66319 365.60686 215.51189 360.40625 212.59375 C 355.20564 209.67562 347.72772 205.07027 343.8125 202.375 C 339.89729 199.67972 336.25855 197.46875 335.71875 197.46875 C 334.48532 197.46875 333.98594 198.8573 333.21875 204.4375 C 332.10609 212.53044 325.65742 230.13707 321.3125 236.9375 C 320.10171 238.83255 319.53993 240.73412 320.03125 241.15625 C 320.52255 241.57837 327.46725 244.93785 335.5 248.625 C 343.53276 252.31217 356.73356 259.20296 364.8125 263.9375 C 372.89143 268.67205 379.66492 272.53125 379.875 272.53125 C 380.51344 272.53125 385.42866 262.29795 388.28125 255.03125 C 389.75944 251.26566 391.34815 248.1875 391.8125 248.1875 C 392.93782 248.1875 392.97232 248.0997 390.59375 254.375 C 386.78421 264.42537 381.09597 275.5625 379.78125 275.5625 C 379.06692 275.5625 377.88609 274.92681 377.15625 274.125 C 374.45749 271.16005 351.05518 257.99024 336.21875 251.09375 C 327.80132 247.18103 319.9768 243.16427 318.84375 242.15625 C 316.9483 240.46996 316.93494 240.1276 318.53125 237.90625 C 323.67967 230.74189 330.69248 210.71073 332.0625 199.25 C 332.44595 196.04228 333.16664 193.40625 333.6875 193.40625 z M 338.46875 208.8125 C 341.91889 208.8736 353.09789 214.64928 361.5 220.78125 C 365.89453 223.98843 363.46561 223.16305 358.15625 219.65625 C 355.51161 217.90948 349.58848 214.86184 345 212.875 C 340.41152 210.88816 337.2032 209.07918 337.875 208.875 C 338.03301 208.827 338.23875 208.8085 338.46875 208.8125 z M 337.75 214.8125 C 338.60212 214.8529 340.35999 215.61012 343.71875 217.25 C 349.36583 220.0071 347.58865 220.47138 341.21875 217.90625 C 338.92748 216.98358 337.03436 215.88715 337.03125 215.46875 C 337.02825 215.02033 337.23872 214.78829 337.75 214.8125 z M 334.96875 221.0625 C 337.74037 221.26624 348.91635 226.44829 352.8125 229.4375 C 354.49011 230.72459 356.52509 231.99409 357.3125 232.25 C 358.09989 232.50592 358.49341 232.9133 358.1875 233.1875 C 357.88157 233.4617 354.8651 232.12538 351.5 230.21875 C 348.1349 228.31211 342.6151 225.57128 339.25 224.125 C 335.8849 222.67872 333.74914 221.32811 334.5 221.09375 C 334.60517 221.06085 334.78397 221.049 334.96875 221.0625 z M 332.5625 227.15625 C 334.46959 227.11805 340.75182 229.8554 344.28125 232.34375 C 347.42564 234.56064 346.38188 234.30085 338.15625 230.75 C 334.17931 229.03323 331.5309 227.45467 332.25 227.21875 C 332.3361 227.19045 332.43536 227.15875 332.5625 227.15625 z M 330.53125 232.96875 C 332.85378 232.96875 349.78333 241.8621 352.53125 244.53125 C 355.01751 246.94624 355.49795 248.40074 353.09375 246.21875 C 350.75022 244.09182 333.00269 235.00068 331.1875 235 C 330.11678 234.99959 329.25 234.55787 329.25 234 C 329.25 233.44214 329.8285 232.96875 330.53125 232.96875 z M 327.0625 238.28125 C 329.951 238.50762 339.04783 242.25191 341 244.21875 C 342.06081 245.28753 342.74778 246.11592 342.5 246.0625 C 342.25221 246.0091 338.53285 244.55278 334.25 242.8125 C 325.03715 239.06899 325.3626 239.24662 326.25 238.4375 C 326.3155 238.3777 326.42016 238.33136 326.5625 238.3125 C 326.69594 238.2948 326.86993 238.26615 327.0625 238.28125 z M 418.78125 250.5 C 420.33201 250.39688 418.6482 257.63004 415.59375 263.71875 C 413.9892 266.91716 412.6875 269.96996 412.6875 270.5 C 412.6875 272.54913 409.05376 279.625 408 279.625 C 407.3831 279.625 407.24901 278.82966 407.6875 277.84375 C 408.12172 276.86748 409.37322 273.78932 410.46875 271 C 411.56431 268.21067 413.52353 263.72735 414.8125 261.03125 C 416.10147 258.33516 417.125 255.06548 417.125 253.75 C 417.125 252.43451 417.7013 251.02226 418.40625 250.625 C 418.53875 250.5504 418.67788 250.50688 418.78125 250.5 z M 436.21875 254.28125 C 443.05091 254.28125 448.44242 254.45357 448.1875 254.65625 C 446.93536 255.65181 423.8125 256.27323 423.8125 255.3125 C 423.8125 254.65608 428.42558 254.28125 436.21875 254.28125 z M 326.15625 264.75 C 326.25615 264.7327 326.35881 264.7264 326.4375 264.75 C 328.13428 265.25918 328.36916 275.69189 326.75 278.53125 C 325.08011 281.45962 322.18011 282.7219 323.3125 280.03125 C 323.82128 278.82237 323.63758 278.53109 322.75 279.03125 C 320.65003 280.21462 321.15724 270.79816 323.375 267.375 C 324.29647 265.95266 325.45669 264.87067 326.15625 264.75 z M 342 265.28125 L 343.96875 267.5 C 345.05162 268.71934 345.9375 270.35355 345.9375 271.15625 C 345.9375 273.53708 342.85691 278.32687 340.84375 279.03125 C 337.90499 280.05947 337.92085 279.17791 340.9375 276.59375 C 342.6276 275.14606 343.71875 273.057 343.71875 271.3125 C 343.71875 267.49767 341.34761 267.65629 337.65625 271.65625 C 334.63503 274.93004 334.56863 276.85913 337.5625 274.59375 C 338.49505 273.88807 339.23821 273.7008 339.21875 274.1875 C 339.16875 275.43861 336.41336 278.625 335.375 278.625 C 334.89807 278.625 333.84402 279.42999 333.03125 280.40625 C 331.62489 282.09545 331.53367 282.10597 331.5 280.40625 C 331.441 277.42495 336.00857 269.58773 339.09375 267.375 L 342 265.28125 z M 422.78125 266.4375 C 424.7666 266.4375 425.86988 266.87699 425.46875 267.46875 C 425.09062 268.02662 423.55599 268.46875 422.0625 268.46875 C 420.56903 268.46875 419.375 268.02662 419.375 267.46875 C 419.375 266.91089 420.90963 266.4375 422.78125 266.4375 z M 326.09375 267.46875 C 324.94387 267.46875 322.59375 272.02671 322.59375 274.25 C 322.59375 275.68006 322.86165 275.67225 324.8125 274.0625 C 326.03617 273.05277 327.03125 271.15195 327.03125 269.84375 C 327.03125 268.53555 326.60737 267.46875 326.09375 267.46875 z M 422.40625 270.625 C 427.1229 270.73214 427.35392 270.84011 424.375 271.53125 C 419.45446 272.67287 417.125 272.67287 417.125 271.53125 C 417.125 270.97339 419.50004 270.559 422.40625 270.625 z M 429.09375 275.59375 C 435.73815 275.59675 442.5896 275.85144 443.4375 276.34375 C 444.14338 276.75361 438.26994 277.09265 430.375 277.09375 C 422.48006 277.09475 416.03125 276.76325 416.03125 276.34375 C 416.03125 275.85185 422.44936 275.59047 429.09375 275.59375 z M 362.6875 275.75 C 363.39947 275.7046 364.0331 276.1211 364.46875 277.15625 C 365.35476 279.2615 362.71675 283.6875 360.5625 283.6875 C 359.30723 283.6875 359.17715 283.97675 360.09375 284.8125 C 360.79561 285.45244 361.0633 287.43911 360.71875 289.375 C 359.95044 293.69194 361.23469 293.74343 365.03125 289.53125 C 368.58452 285.58899 369.8924 286.35922 369.75 292.34375 C 369.571 299.86593 365.52542 301.9491 359.25 297.71875 C 357.44679 296.50319 355.59029 295.85702 355.125 296.28125 C 354.65972 296.7055 355.66232 297.94571 357.34375 299.0625 C 359.02517 300.1793 360.40625 301.73231 360.40625 302.5 C 360.40625 304.64557 354.60187 309.0625 351.78125 309.0625 C 349.00447 309.0625 348.32725 306.25408 350.59375 304.1875 C 352.1233 302.79288 351.83875 302.45327 348.4375 301.5 C 346.60686 300.98693 345.9375 301.22307 345.9375 302.34375 C 345.9375 303.1865 344.8759 304.52491 343.59375 305.34375 C 341.97857 306.37526 341.5098 307.46678 342 308.875 C 343.29941 312.60791 334.50115 316.01146 331.75 312.84375 C 330.14138 310.99156 330.60859 299.67392 332.3125 299.15625 C 333.2324 298.87678 333.71875 299.8456 333.71875 302 L 333.71875 305.25 L 338.6875 301.0625 C 341.42709 298.75999 344.10496 296.875 344.65625 296.875 C 345.20752 296.875 346.30221 295.51735 347.0625 293.84375 C 348.6412 290.36865 351.42003 289.8097 352.28125 292.8125 C 352.60125 293.92823 353.24522 294.84375 353.6875 294.84375 C 355.14777 294.84375 357.30095 289.35022 357.5 285.125 C 357.7287 280.27008 360.55159 275.8861 362.6875 275.75 z M 362.53125 276.76367 C 362.19204 276.77983 362.52876 278.12829 360.91992 279.41406 C 356.61774 282.97172 361.01098 283.42262 362.54492 280.50195 C 363.98384 278.22614 363.39582 277.29132 362.72656 276.8418 C 362.6429 276.78561 362.57971 276.76136 362.53125 276.76367 z M 329.3125 281.84375 C 330.00695 281.91695 330.49098 282.83858 330.90625 284.5625 C 331.85504 288.50125 330.54872 292.66253 328 293.90625 C 325.5031 295.12467 325.0477 293.36101 327.53125 292.09375 C 329.45308 291.11311 330.81793 285.06709 329.3125 284.21875 C 328.72922 283.89007 327.66776 284.6621 326.9375 285.90625 C 325.91564 287.64718 325.89012 288.25412 326.90625 288.5625 C 328.86933 289.15913 326.16725 291.8125 323.59375 291.8125 C 322.46651 291.8125 320.99864 292.72803 320.34375 293.84375 C 318.40827 297.14122 317.03406 296.14596 318.875 292.78125 C 320.62003 289.59184 320.06968 285.60186 318.125 287.375 C 316.27354 289.06312 314.58913 299.18734 316.03125 300 C 317.31402 300.72286 316.35512 301.11571 310.25 302.34375 C 308.67459 302.66065 306.81272 302.37425 306.09375 301.71875 C 304.15277 299.94898 304.50132 296.40709 306.8125 294.5 C 309.08374 292.62587 311.46875 292.29481 311.46875 293.84375 C 311.46875 294.40162 312.23365 294.84375 313.1875 294.84375 C 314.14137 294.84375 314.62378 294.39519 314.25 293.84375 C 313.37245 292.54908 317.6535 283.6875 319.15625 283.6875 C 319.78499 283.6875 320.6915 285.12973 321.1875 286.875 L 322.09375 290.03125 L 325.125 285.84375 C 327.14395 283.06202 328.41964 281.74961 329.3125 281.84375 z M 342.4375 285.9375 C 342.65 285.926 342.86765 285.9125 343.0625 285.9375 C 346.13982 286.33322 347.929 289.34706 346.40625 291.5625 C 344.66378 294.0976 336.15547 294.59298 335.15625 292.21875 C 334.30526 290.19673 339.25005 286.10922 342.4375 285.9375 z M 343.65625 287.1875 C 343.00335 287.2088 342.21539 287.38641 341.40625 287.78125 C 339.1477 288.88335 339.10677 289.11434 340.78125 289.96875 C 341.80971 290.49354 342.3102 291.40405 341.90625 292 C 341.49057 292.61326 341.79527 292.87716 342.625 292.625 C 343.43125 292.37996 344.63946 291.4277 345.28125 290.5 C 346.62993 288.5505 345.61496 287.12353 343.65625 287.1875 z M 367.92578 289.54883 C 367.34458 289.63423 366.10661 291.82376 364.66406 292.70508 C 362.36639 294.10883 359.46328 295.6047 359.86328 296.30469 C 360.26327 297.00469 362.59473 298.91992 364.76367 298.00586 C 367.4465 296.87522 368.60264 292.31421 368.16211 292.4043 C 368.38609 290.20247 368.2745 289.49759 367.92578 289.54883 z M 435.34375 290.40625 C 436.07518 290.29246 436.85475 290.63494 438.0625 291.40625 C 440.18332 292.7607 440.5 293.88188 440.5 300.40625 C 440.5 304.51298 440.19256 308.62818 439.8125 309.53125 C 438.77931 311.98599 433.42939 314.125 428.34375 314.125 C 424.15026 314.125 423.8125 313.92766 423.8125 311.28125 C 423.8125 308.12512 431.42686 293.00685 434 291.0625 C 434.48955 290.69258 434.9049 290.47452 435.34375 290.40625 z M 435.46875 292.9375 C 434.76491 292.9133 434.17124 293.37869 433.34375 294.375 C 430.92671 297.28518 425.54955 309.93763 426.40625 310.71875 C 427.52307 311.73706 431.74704 307.82175 431.125 306.34375 C 430.55079 304.9794 433.2218 301.9375 435 301.9375 C 436.90528 301.9375 436.08732 304.8031 433.28125 307.84375 C 431.75166 309.50122 430.5 311.16212 430.5 311.5 C 430.5 312.71374 433.30294 312.00291 435.9375 310.15625 C 438.28573 308.51029 438.63534 307.41821 438.71875 301.4375 C 438.79435 296.01012 438.42717 294.35881 436.90625 293.46875 C 436.33509 293.13451 435.89107 292.95207 435.46875 292.9375 z M 350.81445 293.10742 C 350.59854 293.07743 350.3539 293.1375 350.06641 293.3125 C 347.76644 294.71248 345.63712 298.45431 346.03711 299.1543 C 346.43711 299.8543 346.23714 300.2539 348.53711 299.75391 C 350.83708 299.25391 355.36367 297.88508 354.5332 297.2207 C 352.34573 297.86826 352.32585 293.31738 350.81445 293.10742 z M 310.3125 295.0625 C 309.86698 295.0908 309.32803 295.35905 308.6875 295.84375 C 305.95065 297.91476 306.57125 300.9375 309.71875 300.9375 C 311.94219 300.9375 312.36886 300.49176 312.125 298.40625 C 311.85344 296.08385 311.29263 295.00019 310.3125 295.0625 z M 322.90625 297.1875 C 323.33756 297.1449 323.73272 297.57412 324.375 298.375 C 326.27172 300.74008 326.40992 307.1878 324.59375 308.84375 C 322.23895 310.99083 321.37324 310.1429 323.25 307.53125 C 324.38853 305.94694 324.78241 304.06232 324.34375 302.46875 C 323.39316 299.01541 321.55928 299.24802 320.75 302.9375 C 320.38488 304.60203 319.63109 305.74031 319.09375 305.4375 C 317.67122 304.6359 317.89223 303.83786 320.5 299.9375 C 321.75367 298.06242 322.3517 297.24226 322.90625 297.1875 z M 343.96289 299.60156 C 343.74463 299.60728 343.4371 299.72188 343.00586 299.98438 C 340.70589 301.38436 337.07462 304.41915 337.47461 305.11914 C 337.87461 305.81914 339.9624 304.14226 340.75977 306.4707 C 340.67327 303.84938 345.46524 303.01204 344.63477 302.34766 C 344.18348 301.58446 344.9087 299.5768 343.96289 299.60156 z M 357.03711 300.49609 C 356.87149 300.55859 356.57109 300.75157 355.99609 301.10156 C 353.69612 302.50154 350.5961 305.80196 350.99609 306.50195 C 351.39609 307.20195 351.19612 307.60155 353.49609 307.10156 C 355.79606 306.60156 359.52578 303.46711 358.69531 302.80273 C 356.82034 301.30275 357.53398 300.3086 357.03711 300.49609 z M 414.34375 303.9375 L 416.84375 306.75 C 418.21734 308.29067 419.37196 309.95048 419.375 310.4375 C 419.385 312.12121 429.48116 324.25 430.875 324.25 C 431.64432 324.25 432.76738 322.33304 433.34375 320 C 434.64522 314.73209 436.49056 314.07867 438.75 318.0625 C 442.07633 323.92749 440.19242 336.02707 434.5625 344.65625 C 429.5545 352.33218 415.32939 364.86741 411.65625 364.84375 C 410.58867 364.83675 411.43256 363.74334 413.8125 362.0625 C 423.536 355.19522 430.67128 347.98469 434.125 341.59375 C 437.25605 335.79991 437.71875 333.95864 437.71875 326.9375 C 437.71875 318.07702 435.66275 315.05829 434.28125 321.90625 C 433.57679 325.39812 432.24565 327.26944 430.375 327.3125 C 430.00393 327.3205 427.49287 324.54355 424.8125 321.1875 C 421.41871 316.93821 419.4218 315.31204 418.25 315.75 C 413.72243 317.4422 410.70818 317.76954 407.40625 316.96875 C 402.26264 315.72129 402.75175 313.04772 409.0625 308.09375 L 414.34375 303.9375 z M 332.34375 304.79688 C 332.32715 304.78342 332.30986 304.78955 332.29297 304.81641 C 332.02266 305.2461 331.70273 311.18438 331.80273 311.35938 C 332.20272 312.05937 334.07403 313.38973 336.4043 313.05859 C 342.81674 312.14734 336.73431 311.18477 336.00391 311.25781 C 333.50394 309.25783 342.10268 306.95898 337.80273 306.45898 C 337.1341 306.38128 335.70351 305.27774 335.0957 305.79492 C 334.48789 306.3121 333.79727 308.37813 333.29102 308.92188 C 332.81642 309.43163 332.59271 304.99873 332.34375 304.79688 z M 311.46875 305.5 C 313.77891 305.5 315.5965 310.7407 314.03125 312.90625 C 312.71924 314.72142 312.39377 314.75921 308.40625 313.65625 C 304.97228 312.70639 305.24175 314.54254 308.75 316 C 310.3141 316.64978 311.28277 317.63201 310.90625 318.1875 C 310.2102 319.21438 309.44168 319.26198 305.15625 318.5 C 301.69118 317.88388 301.15687 315.51664 304 313.375 C 305.34881 312.359 307.21505 310.15438 308.15625 308.5 C 309.09746 306.84563 310.5892 305.5 311.46875 305.5 z M 414.625 307.03125 C 412.38641 307.03125 406 312.469 406 314.375 C 406 316.18287 406.51824 316.37342 410.59375 315.875 C 413.12526 315.56541 415.99087 314.58187 416.9375 313.71875 C 418.41685 312.3699 418.45066 311.79901 417.15625 309.59375 C 416.32799 308.18263 415.17428 307.03125 414.625 307.03125 z M 311.1875 307.0625 C 310.61458 307.0802 310.04873 307.56745 309.65625 308.5 C 308.90479 310.28553 311.64551 313.25251 312.96875 312.09375 C 313.4884 311.63868 313.56419 310.32814 313.15625 309.15625 C 312.67408 307.77108 311.92411 307.0397 311.1875 307.0625 z M 452.9375 308.03125 C 454.76375 308.03125 453.83274 316.65778 451.6875 319.625 C 448.69736 323.76085 443.58286 326.31015 442.25 324.34375 C 441.91148 323.84435 442.42853 323.18584 443.40625 322.84375 C 444.45883 322.47546 444.92427 321.5901 444.53125 320.65625 C 443.43867 318.06018 450.11215 308.03125 452.9375 308.03125 z M 452.28125 311.6875 C 451.86349 311.6654 451.06213 312.20831 449.90625 313.40625 C 448.396 314.97149 447.15625 317.41602 447.15625 318.8125 C 447.15625 322.11859 449.12064 321.00464 451.15625 316.5625 C 452.61095 313.38805 452.97753 311.72434 452.28125 311.6875 z M 327.03125 312.4375 C 327.47762 312.3887 327.82091 312.62074 328.15625 313.09375 C 329.5846 315.10833 329.52228 321.33563 328.0625 323.25 C 327.22763 324.34474 327.10299 323.2691 327.625 319.4375 C 328.10364 315.92428 327.9402 314.125 327.15625 314.125 C 325.17372 314.125 322.7775 319.51333 323.21875 322.96875 C 323.6397 326.26526 322.22335 328.23924 320.875 326.25 C 320.4692 325.65134 320.44678 324.07877 320.8125 322.75 C 321.17825 321.42124 321.01055 320.04168 320.4375 319.71875 C 319.86446 319.39584 321.14044 317.42593 323.25 315.34375 C 325.23741 313.38213 326.2873 312.51883 327.03125 312.4375 z M 341.53125 316.28125 C 343.09247 316.17055 344.19399 317.01194 345.09375 318.8125 C 346.28622 321.19882 346.11324 321.70295 343.34375 323.875 C 339.95607 326.53192 337.08283 326.96435 335.03125 325.09375 C 332.80391 323.0629 333.53237 320.46079 336.9375 318.25 C 338.82247 317.02619 340.31698 316.36734 341.53125 316.28125 z M 342.21875 317.65625 C 340.46246 317.65525 336.7112 319.60747 336.21875 320.96875 C 335.96648 321.66608 336.65954 322.2997 337.78125 322.34375 C 338.95054 322.38965 339.23475 322.61293 338.4375 322.90625 C 336.91956 323.46472 336.51211 325.28125 337.90625 325.28125 C 338.38196 325.28125 339.89019 324.55592 341.25 323.6875 C 343.68329 322.1335 344.56732 318.77012 342.8125 317.78125 C 342.65845 317.69445 342.46965 317.65641 342.21875 317.65625 z M 311.9375 321.34375 C 312.67105 321.29075 312.49473 321.51428 311.46875 322.15625 C 310.00892 323.06967 310.06622 323.68197 312.03125 327.03125 C 314.3833 331.04017 315.80481 331.38815 322.84375 329.78125 C 326.49422 328.9479 326.94827 330.56562 323.75 333.0625 C 322.55765 333.99334 321.84558 335.13539 322.15625 335.59375 C 323.2813 337.25353 324.73919 336.34962 326.53125 332.90625 C 328.2447 329.61396 331.92447 327.39894 333.40625 328.75 C 334.50797 329.75453 335.16677 340.5 334.125 340.5 C 333.59035 340.5 333.15625 338.46389 333.15625 336 C 333.15625 330.3589 332.06171 329.36463 329 332.15625 L 326.59375 334.34375 L 329.21875 336.90625 C 331.78609 339.39799 331.0022 340.67669 328.375 338.28125 C 327.651 337.6211 326.74721 337.34814 326.375 337.6875 C 325.03958 338.90512 327.93496 341.85349 331.53125 342.9375 C 333.5474 343.54523 335.45274 344.70442 335.75 345.53125 C 336.15818 346.66673 335.7992 346.60826 334.34375 345.28125 C 330.68872 341.94865 326.35779 344.27135 327.625 348.875 C 328.5354 352.1823 325.64903 353.19983 321.15625 351.15625 C 316.75431 349.154 315.90625 349.22723 315.90625 351.5625 C 315.90625 352.99848 316.46835 353.36376 318.125 352.96875 C 319.35194 352.6762 321.08104 352.98455 321.96875 353.65625 C 322.85644 354.32798 324.11135 354.57864 324.75 354.21875 C 325.41298 353.84516 325.90625 354.46381 325.90625 355.65625 C 325.90625 358.21647 329.7848 358.53187 331.28125 356.09375 C 331.88583 355.10873 332.55254 354.85472 332.96875 355.46875 C 334.13774 357.19336 330.57509 359.04385 327.25 358.4375 C 324.94524 358.01721 323.7937 358.38 322.8125 359.8125 C 322.08381 360.87637 320.81715 361.50466 320 361.21875 C 319.01599 360.87446 317.99545 362.14901 317 365.03125 C 316.17334 367.42473 314.83073 370.12867 314 371.03125 C 312.66949 372.47682 312.903 372.74774 316 373.3125 C 322.02083 374.41043 323.6875 374.12211 323.6875 371.9375 C 323.6875 370.62332 322.95796 369.90625 321.59375 369.90625 C 320.43552 369.90625 319.18387 369.19493 318.8125 368.3125 C 317.78307 365.8665 317.99596 365.31338 319.46875 366.65625 C 322.49123 369.41211 330.375 367.29084 330.375 363.71875 C 330.375 362.05128 329.89979 361.78114 327.875 362.34375 C 326.49837 362.72625 324.47696 363.73648 323.40625 364.59375 C 322.28832 365.48882 321.46875 365.7022 321.46875 365.0625 C 321.46875 363.57279 325.92152 360.78125 328.3125 360.78125 C 332.73141 360.78125 332.10535 367.18051 327.5 369.09375 C 325.91002 369.7543 324.96006 370.83057 325.28125 371.59375 C 325.92295 373.1185 324.92368 376.07319 323.84375 375.84375 C 323.45034 375.76015 321.64801 375.48354 319.8125 375.25 C 312.63447 374.3367 305.18323 371.7606 301.75 369 C 299.77223 367.40972 297.1174 365.49062 295.84375 364.71875 C 294.16371 363.70063 293.40851 362.01262 293.15625 358.59375 C 292.96499 356.00188 292.4988 353.42647 292.125 352.875 C 291.75119 352.32353 289.06999 351.55462 286.15625 351.15625 C 277.29959 349.94538 273.98597 347.01558 277.96875 343.90625 C 279.16537 342.97205 279.78651 341.48293 279.46875 340.375 C 279.02325 338.82164 279.54555 338.46875 282.21875 338.46875 C 284.64692 338.46875 285.8456 337.80987 286.78125 335.9375 C 288.35396 332.79026 289.83998 332.6976 290.71875 335.6875 C 291.69585 339.01184 291.57336 340.5 290.3125 340.5 C 289.70066 340.5 289.21875 339.4773 289.21875 338.25 C 289.21875 336.81274 288.81804 336.36809 288.125 337 C 286.90958 338.10818 287.89258 342.76097 289.1875 342.03125 C 289.64802 341.77176 290.91871 342.44184 292 343.53125 C 293.08129 344.62067 294.37564 345.2814 294.875 345 C 295.99472 344.36902 298.30864 348.08897 297.34375 348.96875 C 296.30573 349.91519 300.61083 356.71875 302.25 356.71875 C 304.78471 356.71875 307.98436 352.95235 307.34375 350.71875 C 306.60649 348.14819 305.24979 348.00822 303.78125 350.375 C 302.97379 351.67632 302.80498 350.81208 303.125 347.15625 C 303.36508 344.41363 304.27044 341.52918 305.125 340.75 C 306.45505 339.53728 306.4415 338.56589 305 333.84375 C 303.14088 327.75355 303.70861 326.09507 306.8125 328.65625 C 307.93514 329.58262 309.2386 330.34375 309.71875 330.34375 C 310.51533 330.34375 310.23484 326.96376 309.125 323.3125 C 308.8659 322.46012 309.60841 321.68362 310.90625 321.46875 C 311.36224 321.39325 311.69298 321.36142 311.9375 321.34375 z M 314.78125 321.40625 C 314.85825 321.40725 314.92721 321.44665 315 321.46875 C 316.81537 322.02049 316.55479 323.55008 314.59375 323.8125 C 313.36577 323.97684 312.93902 323.55543 313.34375 322.59375 C 313.64032 321.88908 314.24222 321.39709 314.78125 321.40625 z M 298.8125 322.5 C 300.09144 322.4865 301.4375 323.17325 301.4375 324.28125 C 301.4375 324.88955 300.89899 325.07083 300.21875 324.6875 C 299.53851 324.30417 298.53406 324.6375 298 325.40625 C 296.44348 327.64692 296.83983 332.11447 298.65625 332.75 C 301.01183 333.57418 300.72102 335.0923 298.09375 335.71875 C 296.87008 336.01052 295.875 337.01142 295.875 337.96875 C 295.875 339.39432 296.17621 339.49412 297.53125 338.46875 C 298.44121 337.78016 299.92704 337.47144 300.8125 337.78125 C 302.13136 338.24271 302.17639 338.89775 301.125 341.4375 C 299.62772 345.05431 299.48907 345.09265 295.96875 342.625 C 292.99149 340.53802 292.13559 334.97666 294.5 333.1875 C 295.26479 332.60877 295.89688 330.46118 295.90625 328.4375 C 295.91425 326.41381 296.36553 324.12238 296.90625 323.34375 C 297.31013 322.76218 298.04513 322.50807 298.8125 322.5 z M 415.53125 327.34375 C 418.07371 327.26785 419.3503 329.97347 419.3125 335.34375 C 419.2692 341.48929 417.15525 350.85561 414.90625 354.75 C 410.80899 361.84486 404.90625 368.04509 404.90625 365.25 C 404.90625 364.92028 406.6054 362.84287 408.6875 360.625 C 414.86152 354.04831 419.67618 338.82149 417.78125 331.9375 C 416.90029 328.73716 415.29723 328.58928 414.3125 331.625 C 413.90535 332.8802 410.91222 338.76714 407.625 344.6875 C 404.3378 350.60784 401.87332 355.7335 402.15625 356.09375 C 402.4392 356.45401 402.06005 356.30084 401.34375 355.75 C 400.3812 355.00981 401.90163 351.17278 407.1875 341.0625 C 411.12102 333.53883 414.88882 327.36292 415.53125 327.34375 z M 306.09375 329.75 C 305.283 329.85336 305.33219 331.33583 306.25 334.0625 C 306.96632 336.1906 308.45467 337.99679 309.90625 338.5 C 311.25492 338.96754 312.67845 339.85605 313.09375 340.46875 C 313.57487 341.17854 314.95241 340.55085 316.84375 338.75 C 319.43727 336.28048 319.53735 335.8798 317.8125 335.59375 C 316.72672 335.41368 315.07387 334.1954 314.125 332.875 C 313.12246 331.4799 311.74163 330.70616 310.8125 331.03125 C 309.93313 331.33893 308.53205 331.08425 307.71875 330.46875 C 307.01015 329.93255 306.46227 329.70302 306.09375 329.75 z M 323.3125 331.34375 C 322.99649 331.33295 322.40514 331.46218 321.46875 331.6875 C 319.93915 332.05556 318.04605 332.36739 317.28125 332.375 C 316.51645 332.383 315.90625 332.81713 315.90625 333.375 C 315.90625 335.04083 321.07191 334.5496 322.71875 332.71875 C 323.57551 331.76626 323.83918 331.36177 323.3125 331.34375 z M 349.28125 335.40625 C 350.8072 335.40625 350.67515 340.10437 349.09375 342.84375 C 346.71288 346.968 343.7124 347.76479 343.71875 344.28125 C 343.72275 341.62614 347.62824 335.40625 349.28125 335.40625 z M 283.09375 339.46875 C 282.17599 339.46875 281.40625 339.94213 281.40625 340.5 C 281.40625 341.05786 282.17599 341.5 283.09375 341.5 C 284.0115 341.5 284.75 341.05786 284.75 340.5 C 284.75 339.94213 284.0115 339.46875 283.09375 339.46875 z M 347.65625 339.84375 C 347.24083 339.86785 346.57288 340.37701 345.96875 341.40625 C 345.10776 342.87312 345.11458 343.53125 345.9375 343.53125 C 346.59007 343.53125 347.41896 342.8296 347.78125 341.96875 C 348.36337 340.5856 348.19038 339.81268 347.65625 339.84375 z M 310.90625 340.5 C 308.89476 340.5 308.74567 341.68719 310.5625 343.34375 C 312.35773 344.98061 312.5625 344.8956 312.5625 342.53125 C 312.5625 341.40425 311.83326 340.5 310.90625 340.5 z M 356.4043 341.56055 C 356.92515 341.62233 357.03872 342.14195 356.625 343.125 C 356.25361 344.00741 355.9375 345.08825 355.9375 345.5625 C 355.9375 346.86832 350.08909 350.41886 346.59375 351.21875 C 343.67532 351.88661 343.59471 351.78739 344.96875 349.78125 C 345.96263 348.33022 347.15051 347.82147 348.75 348.1875 C 350.13157 348.50366 351.67956 348.0919 352.53125 347.15625 C 354.21824 345.30285 353.42765 345.11606 350.03125 346.625 C 348.34292 347.37508 348.7257 346.78462 351.25 344.625 C 353.46183 342.7327 355.22366 341.66355 356.15625 341.5625 C 356.24692 341.55268 356.32989 341.55172 356.4043 341.56055 z M 306.3125 341.875 C 306.2173 341.871 306.1304 341.86805 306.0625 341.90625 C 304.47798 342.79915 308.41492 349.63813 310.34375 349.34375 C 311.26151 349.20369 312 348.62636 312 348.0625 C 312 346.43466 307.74106 341.92871 306.3125 341.875 z M 316.18164 343.2168 C 316.10701 343.20652 316.0365 343.20697 315.96875 343.21875 C 315.54719 343.29205 315.24186 343.79627 314.71875 344.6875 C 313.32609 347.06017 313.38914 347.1564 317.0625 348.4375 C 321.26052 349.90158 322.28932 348.01014 318.875 345.125 C 317.43135 343.9051 316.70403 343.28876 316.18164 343.2168 z M 286.8125 343.6875 C 286.26888 343.6805 285.875 344.24894 285.875 345.0625 C 285.875 345.99228 286.40478 346.57491 287.0625 346.375 C 287.72023 346.1751 288.25 345.59247 288.25 345.0625 C 288.25 344.53253 287.72023 343.91865 287.0625 343.71875 C 286.9803 343.69375 286.89016 343.6884 286.8125 343.6875 z M 279.5625 344.59375 C 278.66579 344.65305 278.09375 345.06701 278.09375 345.875 C 278.09375 348.19206 280.62437 349.62672 284.6875 349.59375 L 288.65625 349.5625 L 285.53125 347.0625 C 283.43695 345.38256 281.05701 344.49492 279.5625 344.59375 z M 291.84375 345.75 C 290.90674 345.7286 290.00344 346.18279 289.59375 347.15625 C 289.12696 348.26536 289.59075 349.40408 290.90625 350.28125 C 293.31536 351.88745 295.17622 350.7265 294.59375 347.96875 C 294.30144 346.58483 293.04848 345.77756 291.84375 345.75 z M 394.78125 347.59375 C 395.18721 347.59375 396.4352 350.67191 397.53125 354.4375 C 398.62727 358.20308 400.5277 362.78209 401.75 364.59375 C 403.29638 366.88577 403.74213 368.73823 403.25 370.78125 C 402.37259 374.42366 396.45693 383.09375 394.84375 383.09375 C 394.18905 383.09375 395.18808 381.0778 397.0625 378.59375 C 402.01142 372.03525 402.37038 368.99461 398.90625 362.65625 C 397.30641 359.729 396 356.09364 396 354.5625 C 396 350.36106 394.54438 350.32121 390.1875 354.46875 C 385.49943 358.9313 383.08677 363.01926 381.59375 369.09375 C 380.17386 374.87064 381.13805 377.905 384.75 379.21875 C 386.34891 379.80031 387.05667 380.49735 386.3125 380.75 C 385.56831 381.00267 383.64575 380.36024 382.0625 379.34375 C 379.39874 377.63357 379.22271 377.0653 379.65625 371.40625 C 379.92759 367.86444 381.17389 363.44392 382.59375 360.90625 C 384.95817 356.68038 393.2673 347.59375 394.78125 347.59375 z M 337.53125 347.875 C 337.67862 347.776 338.08336 348.12195 338.875 348.84375 C 339.834 349.71816 340.3414 350.88775 339.96875 351.4375 C 338.98562 352.88792 331.57284 353.46916 330.40625 352.1875 C 329.71901 351.43248 330.79169 351.22646 333.9375 351.5 C 338.19665 351.87034 338.43572 351.76671 337.8125 349.59375 C 337.51105 348.54266 337.38388 347.974 337.53125 347.875 z M 409.5 348.59375 C 409.96369 348.67345 409.91829 349.73732 408.90625 351.90625 C 408.06025 353.71931 406.87734 356.29795 406.3125 357.65625 C 405.52508 359.54978 405.15696 359.78347 404.65625 358.59375 C 404.29708 357.7403 404.89307 355.13042 406.03125 352.8125 C 407.41345 349.99758 408.90383 348.4914 409.5 348.59375 z M 312.9375 350.625 C 310.75254 350.625 308.125 352.40298 308.125 353.875 C 308.125 354.32128 308.8635 354.6875 309.78125 354.6875 C 313.05551 354.6875 311.39181 356.59433 307.84375 356.90625 L 304.21875 357.21875 L 304.53125 363.3125 C 305.0109 373.09149 310.05369 374.31768 314.8125 365.8125 C 317.21542 361.51791 316.79248 360.75193 313.5 363.46875 C 312.28283 364.47311 311.46875 364.66967 311.46875 363.96875 C 311.46875 363.32441 310.52375 362.8125 309.375 362.8125 C 306.75965 362.8125 304.17237 360.2231 305.84375 359.28125 C 306.4853 358.91974 307 359.09671 307 359.6875 C 307 361.25776 310.98069 361.01291 312.5 359.34375 C 313.21637 358.55673 314.08113 356.28356 314.4375 354.28125 C 314.99365 351.15638 314.78117 350.625 312.9375 350.625 z M 296.09375 352.90625 C 295.3886 352.94715 294.78125 353.69914 294.78125 355.09375 C 294.78125 357.01432 295.22137 357.50987 296.5 357.0625 C 297.44778 356.73088 298.05799 355.76609 297.875 354.90625 C 297.58182 353.52866 296.7989 352.86531 296.09375 352.90625 z M 320.375 353.6875 C 318.90525 353.6875 314.78125 357.41825 314.78125 358.75 C 314.78125 359.30786 315.29441 359.75 315.90625 359.75 C 316.51808 359.75 317.03125 359.29624 317.03125 358.71875 C 317.03125 358.00944 317.73586 358.01128 319.25 358.75 C 321.01371 359.61064 321.63788 359.51289 322.15625 358.28125 C 322.9674 356.35389 321.92617 353.6875 320.375 353.6875 z M 342.125 356.40625 C 347.69232 356.27437 349.99068 357.96202 348.59375 361.28125 C 348.1248 362.39547 346.17595 362.8125 341.375 362.8125 C 337.76946 362.8125 334.8125 362.44223 334.8125 362 C 334.8125 361.55779 337.4441 361.22619 340.65625 361.25 C 345.12707 361.2831 346.5 360.9147 346.5 359.75 C 346.5 358.58809 345.2541 358.28084 341.21875 358.40625 C 335.28184 358.59076 333.94044 357.15747 339.53125 356.59375 C 340.46028 356.50005 341.32968 356.42509 342.125 356.40625 z M 298.65625 357.71875 C 297.27806 357.71875 295.55531 358.40267 294.8125 359.21875 C 293.71371 360.42592 294.02229 361.18754 296.5 363.28125 C 299.51756 365.83112 302.5625 366.67884 302.5625 364.96875 C 302.5625 364.48063 302.25741 362.64957 301.875 360.90625 C 301.34323 358.48192 300.57281 357.71875 298.65625 357.71875 z M 269.125 361.84375 L 272.78125 363.9375 C 274.78608 365.09306 280.41781 368.20125 285.3125 370.8125 C 299.40841 378.33251 318.06691 392.55493 324 400.3125 C 327.26782 404.58518 326.11704 405.94262 322.78125 401.75 C 316.28289 393.58247 299.47002 380.54024 285.875 373.09375 C 270.25992 364.54079 270.23015 364.52008 268.53125 366.5625 C 266.07532 369.51502 266.67193 370.28949 273.375 372.9375 C 276.88029 374.32224 282.26202 377.30509 285.34375 379.59375 C 288.42547 381.88243 292.43471 384.616 294.25 385.65625 C 298.47159 388.07547 315.61429 401.08303 318.96875 404.40625 C 320.37653 405.8009 322.28929 408.19762 323.21875 409.75 C 325.03631 412.78565 327.03125 412.60682 327.03125 409.40625 C 327.03125 408.32345 327.54442 407.4375 328.15625 407.4375 C 329.73953 407.4375 329.52735 408.67343 327.21875 413.375 L 325.1875 417.5 L 323.15625 413.3125 C 322.04138 411.00848 317.82198 406.18906 313.78125 402.59375 C 303.51792 393.46179 281.63718 378.56529 272.75 374.6875 C 268.6525 372.89961 265.08086 371.31335 264.8125 371.15625 C 264.54414 370.99915 265.39605 368.85736 266.71875 366.375 L 269.125 361.84375 z M 390.0625 365.8125 C 390.11 365.8009 390.1436 365.8065 390.1875 365.8125 C 390.77292 365.8988 391.05437 367.53509 390.71875 370.25 C 390.41851 372.6787 390.73455 375.64634 391.4375 376.84375 C 392.14033 378.04117 392.28515 379.03125 391.75 379.03125 C 391.21484 379.03125 390.21004 377.85841 389.5 376.4375 C 388.08469 373.60524 387.82434 369.96519 388.875 367.46875 C 389.30921 366.43703 389.72978 365.89362 390.0625 365.8125 z M 419.6875 368.4375 C 421.96038 368.57309 423.68673 369.97578 425.1875 372.71875 C 426.45649 375.03811 426.47092 376.08594 425.3125 378.5625 C 424.53701 380.22051 423.88072 382.69909 423.84375 384.09375 C 423.71454 388.96857 422.61689 389.455 413.96875 388.4375 C 409.61526 387.9253 405.66453 387.77738 405.1875 388.09375 C 404.71046 388.41011 403.65967 390.96068 402.875 393.75 C 401.36621 399.11347 396.40993 405.6902 393.46875 406.21875 C 392.4204 406.40714 389.98024 404.47353 387.46875 401.40625 C 385.15707 398.58298 382.5026 396.22043 381.5625 396.125 C 380.62239 396.0296 379.10526 395.84296 378.1875 395.71875 C 377.26976 395.59454 375.92104 395.40305 375.15625 395.34375 C 372.43142 395.13248 373.81915 393.38332 379.28125 390.1875 C 386.54458 385.93778 392.46394 385.16105 395.34375 388.0625 C 396.50932 389.23682 397.25118 390.29957 397 390.4375 C 396.74881 390.57544 394.88031 391.76006 392.84375 393.0625 C 388.38482 395.91408 386.35612 394.96012 390.71875 392.0625 C 392.40019 390.94572 393.78125 389.6051 393.78125 389.09375 C 393.78125 387.45264 387.1543 388.10972 382.6875 390.1875 C 377.24198 392.72053 376.11725 394.25 379.71875 394.25 C 381.65513 394.25 384.01238 395.7997 387.5625 399.5 L 392.59375 404.8125 L 395.5625 402.3125 C 400.63058 398.05023 403.47603 389.04071 400.15625 387.8125 C 399.05126 387.4037 399.06012 387.11478 400.15625 386.40625 C 400.91501 385.91586 404.92657 385.86197 409.0625 386.28125 C 422.05921 387.59877 421.145 387.959 422.65625 380.65625 C 424.96747 369.48775 421.39228 367.36532 411.09375 373.78125 C 408.68782 375.28013 405.92792 377.75065 404.96875 379.28125 C 403.15201 382.18031 401.5625 382.94951 401.5625 380.90625 C 401.5625 379.04296 411.43586 370.87718 415.625 369.28125 C 416.7555 368.85056 417.75853 368.55284 418.6875 368.46875 C 419.03586 368.43725 419.3628 368.418 419.6875 368.4375 z M 417.28125 376.21875 C 417.58472 376.20605 417.8106 376.26195 417.96875 376.40625 C 418.73127 377.1015 419.03201 376.86311 412.46875 380.90625 C 405.78048 385.02641 403.28828 385.06897 408.9375 380.96875 C 413.27925 377.81748 415.96624 376.2738 417.28125 376.21875 z " style="fill:#ffffff;fill-opacity:1" />
  <path d="m 264.68246,301.77018 c 0.06,-3.24302 -4.34088,-21.12328 -5.19906,-21.12328 -0.57622,0 0.0486,9.38461 1.55314,23.32884 0.6993,6.48108 0.73585,6.54131 2.15356,3.55004 0.7932,-1.67358 1.46477,-4.2636 1.49236,-5.7556 z" id="path3909" style="fill:#ffffff" />
  <path d="m 288.64946,241.45773 c 1.09916,-3.70241 2.0495,-8.36751 2.11187,-10.36691 0.11069,-3.55041 -0.0233,-3.66907 -5.74618,-5.08422 -3.22276,-0.79693 -6.10773,-1.22268 -6.41107,-0.94611 -0.30332,0.27656 0.25501,2.26284 1.24076,4.41395 1.10127,2.40321 1.55056,5.26908 1.16535,7.43346 -0.44995,2.52815 0.048,4.61741 1.76448,7.40192 1.31526,2.13374 2.7255,3.87955 3.13386,3.87955 0.40836,0 1.64178,-3.02925 2.74093,-6.73164 z m -14.22271,45.27495 c 2.45099,-5.85757 5.781,-14.76712 7.40002,-19.79899 l 2.94368,-9.14888 -2.51068,-5.91001 c -1.38087,-3.25049 -3.01097,-5.88293 -3.62244,-5.84985 -0.61147,0.0331 -1.39431,1.78879 -1.73967,3.90159 -0.96414,5.8985 -5.15363,12.54127 -10.79184,17.11131 l -5.10909,4.14116 2.40646,7.01612 c 1.32356,3.85886 2.97365,10.13488 3.66686,13.94671 0.6932,3.81183 1.62937,6.55044 2.08036,6.08578 0.45099,-0.46464 2.82534,-5.63737 5.27634,-11.49494 z m -27.49299,63.61764 c 0,-0.50034 1.82437,-4.6351 4.05414,-9.18839 4.52143,-9.23292 4.58944,-9.78202 4.77122,-38.51927 0.13516,-21.36813 -1.28317,-31.12445 -4.52475,-31.12445 -1.18006,0 -2.44363,-0.7082 -2.80793,-1.57379 -0.4753,-1.12936 -1.53435,-1.39917 -3.75027,-0.9554 -2.40946,0.48253 -3.47558,0.11373 -4.85239,-1.67853 -1.72199,-2.24162 -1.80206,-2.25006 -3.32523,-0.35077 -1.31364,1.63805 -1.83886,1.73574 -3.31727,0.61699 -0.96609,-0.73105 -2.3723,-2.88188 -3.12493,-4.77962 -0.81552,-2.05635 -2.122,-3.45045 -3.23358,-3.45045 -2.58951,0 -4.35727,-2.22787 -5.10604,-6.43498 -0.57194,-3.21351 -0.84981,-3.4523 -2.76119,-2.37267 -2.94991,1.66621 -4.44391,-0.60864 -4.03221,-6.13964 0.19241,-2.58506 -0.19682,-4.47794 -0.97694,-4.75089 -0.94978,-0.33232 -0.99571,-1.48949 -0.17165,-4.32436 1.49951,-5.15846 1.40481,-8.78828 -0.24232,-9.28888 -0.74021,-0.22498 -5.66712,-3.05919 -10.94868,-6.29824 -13.38894,-8.21117 -27.65448,-20.62657 -32.40761,-28.20459 -2.14143,-3.41413 -4.24784,-6.21246 -4.68093,-6.2185 -0.43309,-0.006 -2.15112,2.11071 -3.81787,4.70389 l -3.03043,4.7149 1.94244,4.9866 c 3.51765,9.03049 12.95972,21.81056 15.18673,20.5556 0.78757,-0.4438 -1.6636,-12.98166 -2.89233,-14.7944 -0.33773,-0.49825 0.0618,-0.90592 0.88761,-0.90592 1.80723,0 5.30422,11.22308 5.30422,17.0231 0,2.2063 0.7527,7.94698 1.67267,12.75709 3.4127,17.84355 5.28141,42.92677 4.54666,61.02904 -0.76083,18.74539 -2.92518,37.03653 -5.65007,47.74959 -0.94903,3.73116 -1.46532,7.02116 -1.14729,7.31113 0.78531,0.71603 22.54888,2.15533 46.18764,3.05455 16.4539,0.62591 19.68276,0.50993 20.85804,-0.74925 0.7648,-0.81938 1.39054,-1.89915 1.39054,-2.39949 z" id="path3905" style="fill:#ffffff;fill-opacity:1" />
  <path d="m 230.01121,233.85053 c -0.27771,-0.75966 -0.78196,-0.29988 -1.17533,1.07166 -0.48387,1.68713 -0.3391,2.08315 0.4864,1.33046 0.64643,-0.5894 0.95646,-1.67036 0.68893,-2.40212 z" id="path3903" style="fill:#000000" />
  <path d="m 191.8685,122.41644 c 0.37814,-0.55786 1.18811,-1.0143 1.79995,-1.0143 0.61183,0 0.80306,0.45644 0.42492,1.0143 -0.37814,0.55786 -1.18811,1.0143 -1.79995,1.0143 -0.61183,0 -0.80305,-0.45644 -0.42492,-1.0143 z m -1.66863,-5.19568 c 0,-1.04742 -0.48299,-1.9044 -1.0733,-1.9044 -1.52058,0 -3.61948,3.89231 -2.77262,5.1417 1.01804,1.50192 3.84592,-0.87846 3.84592,-3.2373 z m 0.87537,13.56 c -1.57854,-3.81311 -0.81426,-4.89152 2.36663,-3.33933 2.82721,1.37961 6.76986,-0.19204 6.76986,-2.69864 0,-2.11415 -3.19557,-5.36925 -5.27105,-5.36925 -0.87391,0 -1.3595,-0.57054 -1.07907,-1.26786 0.28042,-0.69733 1.01927,-1.17011 1.64187,-1.05061 1.90889,0.36637 6.9331,-4.55675 6.9331,-6.79361 0,-2.80189 -2.78405,-3.64455 -6.46741,-1.9575 -1.64353,0.75277 -3.36368,1.53545 -3.82255,1.73931 -0.45889,0.20386 -0.84116,-0.69436 -0.84952,-1.99606 -0.0252,-3.91998 -1.26609,-6.93102 -2.85649,-6.93102 -2.38537,0 -4.10197,4.01549 -3.4913,8.16683 0.31167,2.11869 0.0208,4.31025 -0.65373,4.92527 -1.68745,1.53859 -3.04256,1.38661 -2.34815,-0.26334 0.63516,-1.5092 -4.49765,-5.06552 -6.4532,-4.47115 -3.90008,1.18534 -0.64709,8.88545 3.75375,8.88545 1.12884,0 2.04478,0.34233 2.03541,0.76072 -0.0353,1.57239 -1.72645,2.78932 -3.87647,2.78932 -1.25873,0 -2.09212,0.58329 -1.91918,1.34327 0.16811,0.73879 -0.17274,1.07367 -0.75747,0.74418 -1.30961,-0.738 -2.70043,1.10876 -1.8168,2.41237 0.36932,0.54486 2.92048,0.0871 5.98396,-1.07372 4.75998,-1.80366 5.45257,-2.47567 6.37456,-6.18518 1.00247,-4.03331 4.01193,-7.03569 5.60047,-5.58729 1.46554,1.33626 0.57755,7.26747 -1.27273,8.50108 -1.01614,0.67747 -1.51755,1.71857 -1.11425,2.31356 0.40329,0.59497 -0.0233,1.08177 -0.94819,1.08177 -2.26153,0 -1.49759,5.60414 1.12398,8.24541 2.6463,2.66618 4.03288,0.98665 2.41397,-2.92398 z" id="path4395" style="fill:#ff3b3b;fill-opacity:1" />
  <path style="opacity:1;vector-effect:none;fill:#f3e1cc;fill-opacity:1;stroke-width:1;stroke-linecap:butt;stroke-linejoin:miter;stroke-miterlimit:4;stroke-dasharray:none;stroke-dashoffset:0;stroke-opacity:1" d="m 240.88086,30.115234 c -0.26981,0 -0.79959,0.455809 -1.17774,1.013672 -0.37814,0.557864 -0.15771,1.015625 0.49024,1.015625 0.64794,0 1.17773,-0.457761 1.17773,-1.015625 0,-0.557863 -0.22043,-1.013672 -0.49023,-1.013672 z m 16.27734,2.09961 c -1.53347,0.05812 -1.46997,0.232732 0.34375,0.943359 2.97677,1.16632 3.01517,1.16632 2.22461,0 -0.37814,-0.557863 -1.53376,-0.982568 -2.56836,-0.943359 z m -83.49804,10.072265 c -1.39138,0 -7.75987,4.994138 -6.42578,5.039063 0.52351,0.01763 2.43998,-1.109246 4.25781,-2.503906 1.8178,-1.394659 2.79262,-2.535157 2.16797,-2.535157 z m 17.58398,1.332032 c -0.31254,-0.05688 -1.66346,0.500196 -3.26953,1.365234 -1.83551,0.988614 -3.33594,2.186537 -3.33594,2.662109 0,0.475572 1.50043,-0.111032 3.33594,-1.302734 1.83551,-1.191703 3.33789,-2.389626 3.33789,-2.662109 0,-0.03406 -0.0237,-0.05438 -0.0684,-0.0625 z m 19.49805,9.107421 c -1.57601,0.14358 -10.53125,4.646552 -10.53125,5.378907 0,0.884552 1.67131,0.304797 6.38672,-2.214844 2.70208,-1.443842 4.66333,-2.853881 4.35742,-3.132813 -0.0346,-0.03158 -0.10783,-0.04082 -0.21289,-0.03125 z M 247.4375,58.375 c -0.51478,0.05507 -0.64623,1.27094 0.0937,4.46875 0.39053,1.687482 -0.77894,2.218631 -3.4375,2.34375 -4.75136,0.223612 -19.04256,6.478446 -27.625,12.0625 -13.40511,8.721854 -17.96948,13.139408 -21.1875,20.46875 -3.36511,7.66441 -3.17588,9.46696 0.9375,8.75 8.21262,-1.43145 10.97484,2.91647 5.5625,8.78125 -2.86407,3.1035 -2.8941,3.95473 -0.1875,7.40625 1.82607,2.32865 0.17713,4.85237 -4.5,6.875 -2.67854,1.15834 -3.51292,2.15763 -3.53125,4.28125 -0.0192,2.22804 -0.55001,2.8125 -2.59375,2.8125 -1.40722,0 -3.15099,-0.55861 -3.875,-1.21875 -1.86808,-1.7033 -2.42527,-0.77438 -3.1875,5.09375 l -0.6875,5.15625 -6.25,1.15625 c -6.21571,1.14798 -14.76187,5.32825 -18.40625,9 -1.81127,1.82488 -1.78158,1.95238 0.21875,2.53125 1.16063,0.33587 3.55347,2.01551 5.34375,3.71875 3.36674,3.20304 3.64885,5.07022 2.71875,18.96875 -0.34905,5.2157 5.91145,13.53039 17.78125,23.59375 11.96363,10.14291 18.35811,14.62162 25.59375,17.90625 2.75325,1.24986 5.08624,2.29505 5.1875,2.3125 0.10126,0.0175 2.89351,-2.53086 6.1875,-5.65625 l 5.96875,-5.6875 4.40625,1.09375 c 9.12822,2.31071 20.53125,1.01359 20.53125,-2.34375 0,-2.0713 2.98004,-2.70732 4.5625,-0.96875 3.84176,4.22069 11.73042,5.69224 14.53125,2.6875 2.87035,-3.07934 5.375,-9.05757 5.375,-12.84375 v -3.65625 l -9.1875,0.0312 c -5.04765,0.008 -9.88332,0.40606 -10.75,0.90625 -0.95687,0.55224 -2.69235,0.50237 -4.4375,-0.15625 -1.58066,-0.59656 -11.13208,-1.26561 -21.21875,-1.46875 -17.05997,-0.34355 -18.39888,-0.50826 -19.15625,-2.375 -0.94697,-2.33408 -0.53508,-2.47391 2.4375,-0.78125 1.82493,1.03914 2.65002,0.88438 5.25,-1.03125 4.39635,-3.23917 11.51638,-6.22389 14.875,-6.25 1.59917,-0.0125 4.03126,-1.16825 5.5,-2.59375 3.57008,-3.46494 12.6675,-5.93286 15.65625,-4.25 3.44348,1.93888 4.00664,5.76811 1.125,7.75 l -2.4375,1.6875 4,1.3125 c 6.89067,2.27191 10.5625,-1.67652 10.5625,-11.34375 0,-2.94824 -2.09821,-10.09033 -6.875,-23.53125 -5.86485,-16.50249 -6.21407,-18.28695 -4.5625,-22.0625 1.61123,-3.68328 8.47616,-8.86581 15.0625,-11.375 2.03739,-0.77619 6.7909,-1.70467 10.5625,-2.09375 l 6.84375,-0.71875 0.71875,-4.375 c 0.39495,-2.40142 0.29993,-4.95057 -0.21875,-5.6875 -0.51869,-0.73694 -1.77442,-4.31139 -2.78125,-7.9375 -1.00684,-3.626119 -2.50054,-8.203727 -3.3125,-10.15625 C 282.95367,86.94956 273.97889,74.75 272.6875,74.75 c -0.46555,0 -1.84517,-0.816337 -3.03125,-1.8125 -2.41474,-2.028085 -10.95812,-5.885678 -15.28125,-6.875 -1.83553,-0.420047 -3.15685,-1.765624 -4.03125,-3.75 -0.94741,-2.150057 -2.24439,-4.008304 -2.90625,-3.9375 z m -55.00781,0.916016 c -0.0713,-0.01559 -0.25463,0.07177 -0.56055,0.273437 -3.16351,2.085485 -7.28155,6.050781 -6.2832,6.050781 0.4626,0 2.56533,-1.692062 4.67383,-3.759765 1.58136,-1.550778 2.38371,-2.517671 2.16992,-2.564453 z m 30.57422,0.546875 c -1.69722,-0.07397 -10.45519,3.794659 -11.34766,5.111328 -0.34637,0.510988 -0.18465,0.736038 0.35937,0.5 0.54405,-0.236039 3.43688,-1.446393 6.42969,-2.691407 2.99282,-1.245013 5.15392,-2.527628 4.80078,-2.849609 -0.046,-0.0419 -0.12904,-0.06538 -0.24218,-0.07031 z m -24.51758,3.023437 c -1.58035,0.238953 -10.51172,5.56055 -10.51172,6.353516 0,0.966666 1.43777,0.353119 6.27539,-2.681641 2.75354,-1.727365 4.75515,-3.369504 4.44922,-3.648437 -0.0352,-0.03209 -0.10754,-0.03937 -0.21289,-0.02344 z m -18.78906,0.726563 c -0.26981,0 -0.7996,0.455807 -1.17774,1.013671 -0.37813,0.557863 -0.15771,1.013672 0.49024,1.013672 0.64795,0 1.17773,-0.455809 1.17773,-1.013672 0,-0.557865 -0.22042,-1.013671 -0.49023,-1.013671 z m -3.95899,14.199218 c -0.61183,0 -4.38246,6.000816 -4.86328,6.751953 -10.58259,16.531968 -0.78207,3.577582 4.86328,-4.216796 0.39636,-0.547246 1.11328,-1.055138 1.11328,-1.580078 0,-0.524941 -0.50144,-0.955079 -1.11328,-0.955079 z m 24.07617,2.332032 c -0.17375,-0.01595 -0.54073,0.08874 -1.11328,0.289062 -1.00428,0.351387 -5.92773,6.535024 -5.92773,7.033203 0,1.304345 4.7456,-4.366898 6.34765,-6.126953 0.73474,-0.80722 0.98295,-1.168733 0.69336,-1.195312 z m -17.89257,5.783203 c -0.26982,0 -3.58413,4.357937 -3.96876,4.912109 -1.38174,1.990914 -7.33145,11.343837 3.28126,-2.884765 0.36438,-0.488522 1.17773,-0.455809 1.17773,-1.013672 0,-0.557864 -0.22043,-1.013672 -0.49023,-1.013672 z m 29.48437,28.910156 c 1.06247,0.0549 2.42105,0.52187 4.84375,1.46875 2.86771,1.12081 8.18266,2.73614 11.8125,3.59375 8.53975,2.01767 14.26831,5.16904 15.125,8.28125 1.00943,3.6671 -0.18163,3.98152 -5.5625,1.53125 -6.64849,-3.02751 -9.19593,-2.83308 -11.28125,0.84375 -1.96932,3.47233 -0.73629,4.00871 2.25,1 1.10741,-1.11573 2.50134,-2 3.125,-2 0.62367,0 0.0491,1.05261 -1.28125,2.34375 -1.5405,1.49515 -2.40625,3.62549 -2.40625,5.90625 0,5.41622 -4.19065,8.0357 -10.03125,6.28125 -0.91776,-0.27567 -2.65133,-0.87265 -3.875,-1.34375 -5.19808,-2.00112 -9.47396,-2.85664 -11.625,-2.34375 -1.26539,0.30172 -2.28125,0.0845 -2.28125,-0.46875 0,-0.5532 1.43877,-1.26915 3.21875,-1.59375 1.82531,-0.33285 5.71219,-2.83771 8.90625,-5.75 C 215.45846,129.72254 218,127.77714 218,128.25 c 0,0.47285 -0.5885,1.40235 -1.3125,2.0625 -2.64111,2.40812 0.0601,2.27351 3.15625,-0.15625 1.75315,-1.37581 2.80313,-2.83017 2.34375,-3.25 -0.45939,-0.41983 -3.64864,-1.13623 -7.09375,-1.5625 -7.00616,-0.8669 -7.73833,-1.27281 -8.78125,-5.125 -0.58711,-2.16864 -0.18244,-3.0399 2,-4.34375 1.266,-0.75634 2.03128,-1.11738 3.09375,-1.0625 z m -80.11133,10.76758 c -0.0213,0.0119 -0.0471,0.0391 -0.0762,0.0801 -1.40789,1.98637 -4.72235,17.32851 -3.31445,16.53515 0.61183,-0.34478 1.10506,-1.39845 1.0957,-2.34179 -0.0142,-1.43191 2.95425,-14.64135 2.29492,-14.27344 z M 225.5,126.875 c -0.31892,-0.0521 -0.94774,0.47128 -1.9375,1.625 -2.83949,3.30984 -2.83949,4.87427 0,2.53125 1.22368,-1.00972 2.23236,-2.54769 2.21875,-3.4375 -0.007,-0.44164 -0.0899,-0.68747 -0.28125,-0.71875 z m 53.34375,3.65625 c -0.83365,0 -2.08432,1.1366 -2.78125,2.53125 -0.69693,1.39467 -0.84085,2.53125 -0.3125,2.53125 0.52835,0 1.77903,-1.13658 2.78125,-2.53125 1.4398,-2.00356 1.51012,-2.53125 0.3125,-2.53125 z m -4.375,0.0312 c -0.44927,0.0354 -1.02083,0.22427 -1.71875,0.625 -2.06876,1.18783 -3.23488,4.40625 -1.59375,4.40625 0.56186,0 1.92044,-0.9121 3.03125,-2.03125 1.75165,-1.76483 1.62905,-3.10615 0.28125,-3 z m 7.84375,0.0312 c -0.0914,0.009 -0.15138,0.045 -0.1875,0.0937 -4.02431,5.44091 -4.08031,5.88656 -1,6.875 0.13725,0.044 1.00629,-1.26431 1.9375,-2.90625 1.14756,-2.02338 1.30137,-3.20466 0.5,-3.65625 -0.48772,-0.27484 -0.97568,-0.4321 -1.25,-0.40625 z m 4.65625,0.90625 c -0.28732,-0.0149 -2.35402,3.0369 -3.96875,5.90625 -0.40412,0.7181 0.35597,3.22349 1.75,2.8125 2.49953,-0.73691 2.05167,0.82436 1.90337,1.35823 -0.1483,0.53388 -2.24356,2.03689 -3.65337,3.04802 -5.2029,3.73158 -18.47688,2.27791 -20.03125,-2.1875 -0.51054,-1.46665 -0.0973,-2.53087 1.34375,-3.4375 3.52308,-2.21653 4.875,-3.42177 4.875,-4.4375 0,-1.63419 -2.87502,-1.09386 -5.96875,1.125 -3.80816,2.73127 -3.76595,5.79685 0.21875,15.25 4.62095,10.96256 7.22734,20.71913 7.71875,28.96875 0.42321,7.10449 0.49966,7.30536 3.65625,7.9375 1.78149,0.35677 3.51979,1.10095 3.875,1.625 1.20035,1.77087 2.5419,-0.11367 3.75,-5.25 0.66135,-2.81176 1.21875,-8.01009 1.21875,-11.5625 0,-3.94911 0.76547,-8.15665 2,-10.84375 1.65961,-3.61234 1.98188,-6.67254 1.71875,-17.09375 -0.17606,-6.97329 -0.34928,-12.90857 -0.375,-13.1875 -0.003,-0.0293 -0.0122,-0.0303 -0.0312,-0.0312 z m -68.625,3.875 c 0,0 -5.22719,0.73381 -6.125,2.53125 -0.89781,1.79744 6.0427,3.75 6.3125,3.75 0.26982,0 -1.6875,-0.78588 -1.625,-3 0.0625,-2.21412 1.4375,-3.28125 1.4375,-3.28125 z m 4.25,0.3125 c 0,0 2.09375,1.53221 2.09375,3.1875 0,1.65529 -2.0625,3.53125 -2.0625,3.53125 0,0 2.95945,-1.35644 3.21875,-3.21875 0.25931,-1.86231 -3.25,-3.5 -3.25,-3.5 z m 51.18061,2.92892 c 0,0 -8.0295,1.00468 -7.58686,2.94608 0.52849,2.31795 6.89496,2.96361 6.89496,2.96361 0,0 -1.37445,-0.37867 -1.21466,-3.25466 0.0929,-1.67202 1.90656,-2.65503 1.90656,-2.65503 z m 6.02485,0.77493 c 0,0 0.91247,0.4602 0.69486,2.51321 -0.21761,2.05301 -0.82694,2.23353 -0.82694,2.23353 -0.2257,-0.001 1.61804,0.21101 2.20787,-2.07559 0.58983,-2.2866 -2.07579,-2.67115 -2.07579,-2.67115 z m -52.54921,5.7649 c 0.49874,-0.0667 0.78125,0.29386 0.78125,1.03125 0,1.22665 -1.18235,1.55924 -5.28125,1.46875 -5.11658,-0.11294 -5.18169,-0.13238 -1.375,-0.8125 2.16221,-0.38629 4.53723,-1.04949 5.28125,-1.46875 0.21027,-0.11849 0.4275,-0.1965 0.59375,-0.21875 z m -100.76367,1.80078 c -0.25458,-0.0919 -0.66048,1.13373 -1.1875,3.65625 -0.43692,2.09123 -0.28813,3.11626 0.39648,2.73047 0.60262,-0.33959 1.09571,-2.0359 1.09571,-3.76953 0,-1.67625 -0.10668,-2.54567 -0.30469,-2.61719 z m 101.54492,1.82422 c 0.61184,0 1.09375,0.47339 1.09375,1.03125 0,0.55786 -0.48191,1 -1.09375,1 -0.61183,0 -1.125,-0.44214 -1.125,-1 0,-0.55786 0.51317,-1.03125 1.125,-1.03125 z m 7.84375,25.375 c 1.55145,0 0.28985,3.73216 -2.5,7.34375 -3.0403,3.93582 -3.78035,3.47685 -1,-0.625 1.27358,-1.87891 2.3125,-4.15209 2.3125,-5.0625 0,-0.91043 0.53443,-1.65625 1.1875,-1.65625 z m -115.75781,7.08984 c -0.61183,0 -1.11328,0.45582 -1.11328,1.01368 0,0.55786 0.50145,1.01367 1.11328,1.01367 0.61184,0 1.11133,-0.45581 1.11133,-1.01367 0,-0.55786 -0.49949,-1.01368 -1.11133,-1.01368 z M 243.9375,184.125 c -0.61185,0 -0.15939,0.62964 0.21875,1.1875 0.37814,0.55787 5.88817,2.90625 6.5,2.90625 0.61184,0 -2.71561,-1.84838 -3.09375,-2.40625 -0.37814,-0.55786 -3.01316,-1.6875 -3.625,-1.6875 z m 133.6875,12.5 c -1.36118,-2e-4 -2.93166,0.13697 -4.71875,0.40625 -2.89838,0.43673 -5.72548,0.68747 -6.28125,0.5625 -0.3169,-0.0712 -0.74184,0.0627 -1.125,0.3125 0.86897,1.00669 2.04109,3.15215 2.625,4.4375 2.77827,6.11564 13.61859,12.66263 18.28125,11.03125 2.60463,-0.91134 2.38399,-8.43671 -0.375,-12.5625 -1.94467,-2.9081 -4.32271,-4.1869 -8.40625,-4.1875 z M 243.53125,199.5 c 8.05868,0 8.84448,0.184 10.53125,2.53125 2.26015,3.14514 3.72324,3.23052 4.1875,0.25 0.30099,-1.9323 1.13652,-2.30751 5.375,-2.53125 2.75327,-0.14532 5.65198,0.12487 6.4375,0.59375 2.29184,1.36797 0.35453,4.0541 -3.46875,4.8125 -1.93735,0.3843 -4.5119,1.32824 -5.71875,2.09375 -3.16022,2.00455 -5.92927,1.62687 -12.84375,-1.75 -3.3651,-1.64342 -7.96673,-3.25637 -10.25,-3.59375 -6.85686,-1.01317 -3.54907,-2.40625 5.75,-2.40625 z m 150.375,0.875 v 0.0312 c -0.21381,0.015 -0.42896,0.0505 -0.65625,0.125 -1.88688,0.61767 -3.26987,0.94546 -4.21875,1.09375 0.8602,1.69783 1.4259,3.4697 1.4375,5.09375 0.0333,4.66549 3.597,11.50472 7.09375,13.59375 1.58085,0.94445 2.875,2.07776 2.875,2.46875 0,0.39098 -2.04632,1.74184 -4.5625,3.03125 -5.22957,2.67991 -10.01387,10.50109 -7.71875,12.59375 4.05521,3.69748 20.789,-2.01774 24,-8.1875 2.36453,-4.54332 1.69143,-11.14589 -1.5625,-15.3125 -2.62345,-3.35932 -2.8705,-4.25 -1.28125,-4.25 0.58605,0 2.37278,2.06204 4,4.59375 2.55891,3.9812 2.89623,5.45512 2.46875,10.84375 -0.44973,5.66893 -0.84467,6.50719 -4.5625,9.4375 -3.92982,3.09739 -5.32782,6.79959 -3.03125,8.09375 1.46977,0.82823 12.44005,-5.68177 15.4375,-9.15625 2.60959,-3.02491 3.08988,-7.80641 1.25,-12.21875 -0.62891,-1.50834 -0.83324,-2.97741 -0.5,-3.28125 1.20682,-1.10037 2.7908,1.50609 3.75,6.1875 0.80735,3.94038 0.59307,5.50478 -1.21875,8.84375 -1.20924,2.22848 -2.61131,4.03125 -3.09375,4.03125 -1.61891,0 -2.32033,3.38267 -0.875,4.21875 4.30281,2.48936 8.9441,-1.71516 10.375,-9.4375 0.9286,-5.01142 2.71875,-5.03118 2.71875,-0.0312 0,3.48282 1.5024,6.28125 3.375,6.28125 1.30139,0 3.3125,-5.12322 3.3125,-8.46875 0,-3.68556 -1.65304,-5.71875 -4.65625,-5.71875 -1.282,0 -2.03125,-0.75229 -2.03125,-2.09375 0,-3.46516 -1.92958,-5.72391 -5.5,-6.375 -1.85725,-0.33868 -3.375,-1.1397 -3.375,-1.78125 0,-0.64552 0.88795,-0.84696 2.53125,-0.65625 -0.71759,-1.37807 -1.46081,-3.49601 -1.875,-5.84375 -0.36752,-2.08319 -3.06321,-3.4113 -5.15625,-2.53125 -4.70278,1.97736 -8.14816,1.49224 -8.78125,0.46875 -0.50099,-0.25637 -1.08262,-0.59409 -1.75,-1.0625 -2.12553,-1.49184 -5.26861,-1.46231 -11.1875,0.125 -1.73184,0.46445 -2.61014,-0.0317 -3.59375,-2 -0.78401,-1.56892 -1.94082,-2.85518 -3.4375,-2.75 z M 224.625,200.53125 c 1.019,0 2.68797,5.03722 1.90625,5.75 -0.26496,0.24157 -1.0055,-0.95418 -1.65625,-2.65625 -0.65075,-1.70207 -0.76368,-3.09375 -0.25,-3.09375 z m 21.53125,0.15625 c -0.18696,0.002 -0.39399,0.0378 -0.5625,0.0625 -2.29682,0.3359 -2.07468,0.59621 1.90625,2.5 5.21512,2.49399 6.09375,2.68012 6.09375,1.34375 0,-1.58964 -4.63315,-3.94368 -7.4375,-3.90625 z m 18.6875,0.0312 c -1.15188,0.044 -2.39475,0.28767 -3.40625,0.78125 -2.86699,1.39903 -3.1423,4.62318 -0.3125,3.625 1.07071,-0.37768 3.32481,-0.93604 5.03125,-1.25 1.70646,-0.31395 2.94354,-1.09552 2.71875,-1.71875 -0.36189,-1.00343 -2.11144,-1.51087 -4.03125,-1.4375 z m 7.6875,3.84375 c 1.63849,0 -1.78476,6.29415 -4.03125,7.40625 -1.96832,0.9744 -1.98665,0.91215 -0.28125,-0.90625 0.99835,-1.06449 2.14298,-2.96356 2.5625,-4.21875 0.41951,-1.25519 1.20894,-2.28125 1.75,-2.28125 z m 1.04102,11.2168 c -0.41564,0.0284 -0.92211,0.41348 -1.75196,1.16992 -1.58266,1.44266 -1.65102,1.98614 -0.42773,3.33008 1.67019,1.83493 3.77743,1.54574 4.18554,-0.57422 0.1522,-0.79057 -0.20598,-2.12219 -0.79492,-2.95899 -0.46981,-0.66752 -0.7953,-0.99523 -1.21093,-0.96679 z m -50.73633,13.52539 c -0.10023,-0.002 -0.23103,0.0381 -0.38867,0.12695 -0.60483,0.34082 -1.09961,1.04928 -1.09961,1.57422 0,1.45899 0.79758,1.13805 1.53711,-0.61914 0.28491,-0.67699 0.25184,-1.07513 -0.0488,-1.08203 z m 31.29687,181.35742 c -1.16667,-0.009 -2.23187,-0.002 -3.16406,0.0254 -2.48583,0.0725 -4.03125,0.29094 -4.03125,0.65625 0,0.90637 5.82164,6.30927 12.1875,11.65625 h 54.3125 c -8.43789,-3.92271 -22.70549,-8.68091 -30.625,-10.0625 -7.36954,-1.28563 -20.513,-2.20988 -28.67969,-2.27539 z m -9.72656,2.86914 c -1.07746,0 -2.00736,1.23828 -2.4375,3.28125 -0.42489,2.01803 -0.90664,4.0997 -1.4375,6.1875 h 16.25 c -0.52624,-0.46109 -1.02786,-0.89685 -1.5625,-1.375 -4.98728,-4.46036 -9.85629,-8.09375 -10.8125,-8.09375 z" id="path4407" />
  <path d="m 291.95466,252.16057 c 13.29227,-33.22776 22.85965,-74.38442 21.08313,-63.69042 -1.77649,10.69397 -6.61867,28.35933 -11.57151,40.92695 -4.95286,12.5676 -8.93114,30.70712 -9.51162,22.76347 z m -61.08837,127.70725 c 22.35987,-27.9429 30.94143,-44.74442 26.13905,-35.02564 -4.80236,9.71876 -7.15289,11.88531 -15.53854,22.47568 -8.38566,10.59038 -9.87641,14.36362 -10.60051,12.54996 z m 8.71486,-5.03076 c 20.45322,-29.36724 32.53892,-57.77919 28.39311,-47.76271 -4.14579,10.01646 -12.85252,26.13181 -20.51576,37.25612 -7.66324,11.12431 -9.10592,18.3761 -7.87735,10.50659 z m 38.7262,-69.16557 c 11.52196,-26.23172 18.69852,-59.10745 18.60744,-50.4152 -0.0451,4.30948 -6.09441,22.53313 -10.39326,32.45695 -4.29884,9.92381 -7.9951,24.34452 -8.21418,17.95825 z m 21.36552,-55.80242 c 13.04998,-33.32366 22.31744,-74.54889 20.61884,-63.84225 -1.69858,10.70663 -6.41201,28.40678 -11.27322,41.01012 -4.86122,12.60333 -8.70732,30.77134 -9.34562,22.83213 z m -53.29151,120.2798 c 18.63289,-30.55461 34.9113,-69.54715 31.38114,-59.29749 -3.53014,10.24964 -11.2426,26.86378 -18.21645,38.43274 -6.97386,11.56896 -13.91331,28.79432 -13.16469,20.86475 z m 15.61715,-39.50943 c 20.59928,-46.89778 37.0632,-99.18131 35.79524,-92.66202 -2.23591,11.49598 -13.78328,41.85588 -21.1097,60.55577 -7.0533,18.00278 -14.29386,43.5238 -14.68554,32.10625 z" style="fill:#000000;fill-opacity:1;stroke:none" id="path4119-3" />
</svg>
